<svg width="2064" height="698" viewBox="0 0 2064 698" fill="none" xmlns="http://www.w3.org/2000/svg">
<g opacity="0.24" clip-path="url(#clip0_2011_3084)">
<mask id="mask0_2011_3084" style="mask-type:luminance" maskUnits="userSpaceOnUse" x="0" y="307" width="494" height="242">
<path d="M494 307H0V548.418H494V307Z" fill="white"/>
</mask>
<g mask="url(#mask0_2011_3084)">
<path d="M242.814 458.876H494" stroke="#4B8BFF" stroke-width="0.69774" stroke-miterlimit="10"/>
<path d="M242.814 514.695H494" stroke="#4B8BFF" stroke-width="0.69774" stroke-miterlimit="10"/>
<path d="M242.814 486.785H494" stroke="#4B8BFF" stroke-width="0.69774" stroke-miterlimit="10"/>
<path d="M242.814 430.966H494" stroke="#4B8BFF" stroke-width="0.69774" stroke-miterlimit="10"/>
<path d="M242.814 421.008V564.7" stroke="#4B8BFF" stroke-width="0.69774" stroke-miterlimit="10"/>
<path d="M326.542 431.008V574.7" stroke="#4B8BFF" stroke-width="0.69774" stroke-miterlimit="10"/>
<path d="M410.271 431.008V574.7" stroke="#4B8BFF" stroke-width="0.69774" stroke-miterlimit="10"/>
<path d="M410.271 295.604V430.966" stroke="#4B8BFF" stroke-width="0.69774" stroke-miterlimit="10"/>
<path d="M204.438 456.899C204.438 417.401 172.262 385.381 132.571 385.381C92.8799 385.381 60.7036 417.401 60.7036 456.899C60.7036 496.398 92.8799 528.418 132.571 528.418C172.262 528.418 204.438 496.398 204.438 456.899Z" fill="#009D89" stroke="white" stroke-width="0.558192" stroke-miterlimit="10"/>
<path d="M289.562 513.01H182.808C173.56 513.01 166.062 520.507 166.062 529.756V557.665C166.062 566.914 173.56 574.411 182.808 574.411H289.562C298.811 574.411 306.308 566.914 306.308 557.665V529.756C306.308 520.507 298.811 513.01 289.562 513.01Z" fill="#009D89" stroke="white" stroke-width="0.558192" stroke-miterlimit="10"/>
<path d="M191.163 307.315L142.525 325.757C137.979 327.481 135.691 332.564 137.415 337.11L155.858 385.748C157.582 390.294 162.665 392.582 167.21 390.858L215.849 372.415C220.394 370.691 222.682 365.609 220.958 361.062L202.515 312.425C200.792 307.879 195.709 305.591 191.163 307.315Z" fill="#009D89" stroke="white" stroke-width="0.558192" stroke-miterlimit="10"/>
<path d="M390.992 322.161C394.343 322.161 397.06 319.445 397.06 316.093C397.06 312.742 394.343 310.025 390.992 310.025C387.641 310.025 384.924 312.742 384.924 316.093C384.924 319.445 387.641 322.161 390.992 322.161Z" fill="#009D89" stroke="white" stroke-width="0.558192" stroke-miterlimit="10"/>
<path d="M388.39 453.524C388.403 451.182 390.706 449.193 393.262 449.986L448.247 467.257C450.186 467.861 450.941 469.8 450.475 471.424L448.448 484.667C448.171 486.391 447.001 487.839 445.377 488.468L436.943 491.741L426.457 495.807C425.752 496.084 425.198 496.613 424.884 497.293L417.758 512.952C415.958 516.225 411.25 516.2 409.475 512.915L388.818 468.818C388.189 467.484 387.899 466.011 387.949 464.538L388.39 453.524Z" fill="#009D89" stroke="white" stroke-width="1.25593" stroke-miterlimit="10" stroke-linejoin="round"/>
<path d="M425.425 482.362L418.476 494.95C416.676 498.224 411.967 498.198 410.193 494.913L388.843 455.336C387.244 452.377 390.051 448.978 393.262 449.985L448.247 467.256C451.344 468.226 451.406 472.593 448.335 473.664L426.998 481.04C426.331 481.267 425.764 481.745 425.412 482.375L425.425 482.362Z" fill="#009D89" stroke="white" stroke-width="1.25593" stroke-miterlimit="10" stroke-linejoin="round"/>
<path d="M425.273 496.675L426.381 481.33" stroke="white" stroke-width="0.69774" stroke-miterlimit="10" stroke-linejoin="round"/>
<path d="M417.771 512.939L419.948 492.193" stroke="white" stroke-width="0.69774" stroke-miterlimit="10" stroke-linejoin="round"/>
<path d="M409.488 512.902L408.997 492.849" stroke="white" stroke-width="0.69774" stroke-miterlimit="10" stroke-linejoin="round"/>
<path d="M419.41 396.873L400.994 426.037C399.051 429.144 395.645 431.037 391.97 431.037H354.021C350.345 431.046 346.939 429.144 344.996 426.037L326.769 396.873C324.608 393.417 324.608 389.044 326.76 385.598L345.176 356.434C347.128 353.316 350.525 351.424 354.19 351.424H392.149C395.824 351.424 399.23 353.316 401.173 356.414L419.4 385.598C421.562 389.044 421.562 393.426 419.41 396.873Z" fill="#009D89" stroke="white" stroke-width="1.25593" stroke-miterlimit="10"/>
<path d="M394.11 362.251C394.758 361.225 395.834 361.105 396.262 361.105C396.7 361.105 397.766 361.215 398.413 362.251L399.639 364.223V364.183L414.121 387.361C415.595 389.721 415.595 392.77 414.121 395.12L407.318 405.946L398.224 420.349C397.577 421.376 396.581 421.495 396.183 421.485C395.774 421.485 394.768 421.376 394.121 420.339L378.413 395.189C376.939 392.839 376.929 389.801 378.374 387.431L394.11 362.251Z" fill="#009D89" stroke="white" stroke-width="0.69774" stroke-miterlimit="10"/>
<path d="M165.374 471.823C165.272 469.161 165.983 466.478 167.447 464.131L255.499 323.208C258.018 319.174 262.429 316.735 267.184 316.735H316.346C321.102 316.735 325.522 319.184 328.043 323.208L329.892 326.176L330.552 327.232L339.881 342.15L351.658 360.99C353.05 363.225 353.752 365.755 353.752 368.296C353.752 370.826 353.05 373.367 351.658 375.602L277.641 494.047L265.487 513.497L265.446 513.568L263.618 516.514C261.097 520.539 256.677 522.987 251.921 522.987H202.749C197.993 522.987 193.573 520.528 191.053 516.514L178.361 496.201L167.447 478.723C166.126 476.61 165.425 474.232 165.374 471.823Z" fill="#009D89" stroke="white" stroke-width="1.25593" stroke-linejoin="round"/>
<path d="M258.811 508.965C258.272 508.965 256.921 508.813 256.057 507.441L245.449 490.461L237.36 477.809L235.856 475.411C234.921 473.917 234.403 472.2 234.362 470.473C234.301 468.491 234.819 466.581 235.856 464.914L275.415 401.607L319.466 331.054C320.33 329.672 321.692 329.52 322.23 329.52C322.769 329.52 324.131 329.672 324.995 331.054L325.634 332.08L345.226 363.063C347.218 366.254 347.218 370.38 345.226 373.57L261.596 507.37L261.555 507.441C260.691 508.813 259.35 508.965 258.801 508.965H258.811Z" fill="#009D89" stroke="white" stroke-width="0.69774" stroke-miterlimit="10" stroke-linejoin="round"/>
</g>
</g>
<g opacity="0.4">
<path d="M1638.98 37.489C1638.98 36.1022 1640.1 34.9779 1641.49 34.9779C1642.88 34.9779 1644 36.1022 1644 37.489C1644 38.8758 1642.88 40 1641.49 40C1640.1 40 1638.98 38.8758 1638.98 37.489Z" fill="white"/>
<path d="M1638.98 19.4674C1638.98 18.0806 1640.1 16.9565 1641.49 16.9565C1642.88 16.9565 1644 18.0806 1644 19.4674C1644 20.8542 1642.88 21.9785 1641.49 21.9785C1640.1 21.9785 1638.98 20.8542 1638.98 19.4674Z" fill="white"/>
<path d="M1638.98 2.51138C1638.98 1.12459 1640.1 0.000402621 1641.49 0.00040256C1642.88 0.0004025 1644 1.12459 1644 2.51138C1644 3.89818 1642.88 5.02246 1641.49 5.02246C1640.1 5.02246 1638.98 3.89818 1638.98 2.51138Z" fill="white"/>
<path d="M1623.48 19.4577C1623.48 18.0709 1624.61 16.9467 1625.99 16.9467C1627.38 16.9467 1628.5 18.0709 1628.5 19.4577C1628.5 20.8445 1627.38 21.9688 1625.99 21.9688C1624.61 21.9688 1623.48 20.8445 1623.48 19.4577Z" fill="white"/>
<path d="M1623.48 2.51139C1623.48 1.12459 1624.61 0.000415019 1625.99 0.000414958C1627.38 0.000414897 1628.5 1.12459 1628.5 2.51139C1628.5 3.89818 1627.38 5.02246 1625.99 5.02246C1624.61 5.02246 1623.48 3.89818 1623.48 2.51139Z" fill="white"/>
<path d="M1606 2.51138C1606 1.12459 1607.12 0.000402621 1608.51 0.00040256C1609.9 0.0004025 1611.02 1.12459 1611.02 2.51138C1611.02 3.89818 1609.9 5.02246 1608.51 5.02246C1607.12 5.02246 1606 3.89818 1606 2.51138Z" fill="white"/>
</g>
<g opacity="0.4">
<path d="M1638.98 660.511C1638.98 661.898 1640.1 663.022 1641.49 663.022C1642.88 663.022 1644 661.898 1644 660.511C1644 659.124 1642.88 658 1641.49 658C1640.1 658 1638.98 659.124 1638.98 660.511Z" fill="white"/>
<path d="M1638.98 678.533C1638.98 679.919 1640.1 681.044 1641.49 681.044C1642.88 681.044 1644 679.919 1644 678.533C1644 677.146 1642.88 676.021 1641.49 676.021C1640.1 676.021 1638.98 677.146 1638.98 678.533Z" fill="white"/>
<path d="M1638.98 695.489C1638.98 696.875 1640.1 698 1641.49 698C1642.88 698 1644 696.875 1644 695.489C1644 694.102 1642.88 692.978 1641.49 692.978C1640.1 692.978 1638.98 694.102 1638.98 695.489Z" fill="white"/>
<path d="M1623.48 678.542C1623.48 679.929 1624.61 681.053 1625.99 681.053C1627.38 681.053 1628.5 679.929 1628.5 678.542C1628.5 677.156 1627.38 676.031 1625.99 676.031C1624.61 676.031 1623.48 677.156 1623.48 678.542Z" fill="white"/>
<path d="M1623.48 695.489C1623.48 696.875 1624.61 698 1625.99 698C1627.38 698 1628.5 696.875 1628.5 695.489C1628.5 694.102 1627.38 692.978 1625.99 692.978C1624.61 692.978 1623.48 694.102 1623.48 695.489Z" fill="white"/>
<path d="M1606 695.489C1606 696.875 1607.12 698 1608.51 698C1609.9 698 1611.02 696.875 1611.02 695.489C1611.02 694.102 1609.9 692.978 1608.51 692.978C1607.12 692.978 1606 694.102 1606 695.489Z" fill="white"/>
</g>
<g opacity="0.4">
<path d="M425.021 37.489C425.021 36.1022 423.897 34.9779 422.511 34.9779C421.124 34.9779 420 36.1022 420 37.489C420 38.8758 421.124 40 422.511 40C423.897 40 425.021 38.8758 425.021 37.489Z" fill="white"/>
<path d="M425.021 19.4674C425.021 18.0806 423.897 16.9565 422.511 16.9565C421.124 16.9565 420 18.0806 420 19.4674C420 20.8542 421.124 21.9785 422.511 21.9785C423.897 21.9785 425.021 20.8542 425.021 19.4674Z" fill="white"/>
<path d="M425.021 2.51138C425.021 1.12459 423.897 0.000402621 422.511 0.00040256C421.124 0.0004025 420 1.12459 420 2.51138C420 3.89818 421.124 5.02246 422.511 5.02246C423.897 5.02246 425.021 3.89818 425.021 2.51138Z" fill="white"/>
<path d="M440.516 19.4577C440.516 18.0709 439.392 16.9467 438.006 16.9467C436.619 16.9467 435.495 18.0709 435.495 19.4577C435.495 20.8445 436.619 21.9688 438.006 21.9688C439.392 21.9688 440.516 20.8445 440.516 19.4577Z" fill="white"/>
<path d="M440.516 2.51139C440.516 1.12459 439.392 0.000415019 438.006 0.000414958C436.619 0.000414897 435.495 1.12459 435.495 2.51139C435.495 3.89818 436.619 5.02246 438.006 5.02246C439.392 5.02246 440.516 3.89818 440.516 2.51139Z" fill="white"/>
<path d="M458 2.51138C458 1.12459 456.876 0.000402621 455.49 0.00040256C454.103 0.0004025 452.979 1.12459 452.979 2.51138C452.979 3.89818 454.103 5.02246 455.49 5.02246C456.876 5.02246 458 3.89818 458 2.51138Z" fill="white"/>
</g>
<g opacity="0.4">
<path d="M425.021 660.511C425.021 661.898 423.897 663.022 422.511 663.022C421.124 663.022 420 661.898 420 660.511C420 659.124 421.124 658 422.511 658C423.897 658 425.021 659.124 425.021 660.511Z" fill="white"/>
<path d="M425.021 678.533C425.021 679.919 423.897 681.044 422.511 681.044C421.124 681.044 420 679.919 420 678.533C420 677.146 421.124 676.021 422.511 676.021C423.897 676.021 425.021 677.146 425.021 678.533Z" fill="white"/>
<path d="M425.021 695.489C425.021 696.875 423.897 698 422.511 698C421.124 698 420 696.875 420 695.489C420 694.102 421.124 692.978 422.511 692.978C423.897 692.978 425.021 694.102 425.021 695.489Z" fill="white"/>
<path d="M440.516 678.542C440.516 679.929 439.392 681.053 438.006 681.053C436.619 681.053 435.495 679.929 435.495 678.542C435.495 677.156 436.619 676.031 438.006 676.031C439.392 676.031 440.516 677.156 440.516 678.542Z" fill="white"/>
<path d="M440.516 695.489C440.516 696.875 439.392 698 438.006 698C436.619 698 435.495 696.875 435.495 695.489C435.495 694.102 436.619 692.978 438.006 692.978C439.392 692.978 440.516 694.102 440.516 695.489Z" fill="white"/>
<path d="M458 695.489C458 696.875 456.876 698 455.49 698C454.103 698 452.979 696.875 452.979 695.489C452.979 694.102 454.103 692.978 455.49 692.978C456.876 692.978 458 694.102 458 695.489Z" fill="white"/>
</g>
<defs>
<clipPath id="clip0_2011_3084">
<rect width="494" height="241.418" fill="white" transform="translate(0 287)"/>
</clipPath>
</defs>
</svg>
