<svg width="530" height="337" viewBox="0 0 530 337" fill="none" xmlns="http://www.w3.org/2000/svg">
<path d="M23.4751 303.744C28.2762 292.552 36.5966 282.798 38.411 270.653C40.6344 255.771 32.5945 241.621 28.8683 227.081C21.3076 197.576 33.4554 163.6 57.5536 146.856C67.3543 140.046 72.7107 139.761 79.4129 130.56C89.5965 116.58 86.567 101.85 87.5491 89.0175C90.323 52.7626 125.75 23.4064 148.67 11.5834C187.2 -8.29131 227.246 2.36929 246.015 7.36501C304.446 22.9203 306.309 55.7829 359.672 64.1269C398.039 70.1258 409.817 52.5475 434.701 67.8769C463.463 85.5955 476.73 114.779 486.598 140.511C489.699 148.598 503.476 182.388 500.084 228.774C497.352 266.141 486.967 302.852 469.898 335.658H28.7553C19.1175 330.162 18.8262 314.582 23.4751 303.745V303.744Z" fill="#009D89"/>
<path d="M110.587 56.2207H426.28C436.13 56.2207 444.129 64.2165 444.129 74.0641V284.365C444.129 291.357 438.451 297.032 431.458 297.032H105.409C98.4152 297.032 92.7378 291.357 92.7378 284.365V74.0641C92.7378 64.2165 100.736 56.2207 110.587 56.2207Z" fill="white"/>
<path d="M458.96 317.421H356.729L356.593 317.342C354.104 315.923 353.891 312.105 355.123 309.234C355.53 308.286 356.041 307.383 356.536 306.51C357.428 304.936 358.271 303.447 358.525 301.751C358.864 299.485 358.1 297.287 357.293 294.961C356.952 293.978 356.599 292.962 356.337 291.941C354.525 284.871 357.407 276.825 363.188 272.808C363.961 272.27 364.616 271.905 365.194 271.582C366.317 270.954 367.129 270.502 368.086 269.188C369.774 266.872 369.782 264.441 369.79 262.091C369.793 261.337 369.795 260.626 369.85 259.915C370.142 256.086 372.029 252.146 375.306 248.522C378.86 244.591 382.754 242.357 384.263 241.578C393.35 236.89 402.658 239.368 407.133 240.559C413.81 242.338 417.43 245.149 420.625 247.629C423.964 250.222 427.117 252.67 433.277 253.634C437.11 254.233 439.733 253.792 442.047 253.402C444.928 252.917 447.416 252.498 450.797 254.58C457.326 258.602 460.524 265.147 463.005 271.62L463.082 271.82C465.628 278.407 466.661 285.272 466.152 292.226C465.52 300.882 463.091 309.483 459.127 317.101L458.96 317.421ZM357.053 316.232H458.236C462.028 308.837 464.352 300.515 464.964 292.139C465.46 285.363 464.453 278.67 461.971 272.248L461.892 272.044C459.65 266.197 456.709 259.62 450.17 255.591C447.17 253.742 445.104 254.091 442.242 254.573C439.958 254.958 437.115 255.436 433.09 254.807C426.627 253.797 423.356 251.257 419.893 248.567C416.636 246.038 413.268 243.423 406.823 241.708C402.493 240.555 393.484 238.156 384.805 242.634C380.323 244.945 371.68 251.549 371.033 260.004C370.982 260.672 370.979 261.362 370.977 262.093C370.969 264.515 370.959 267.259 369.045 269.886C367.934 271.41 366.932 271.97 365.772 272.617C365.217 272.926 364.589 273.277 363.864 273.781C358.476 277.525 355.795 285.037 357.487 291.642C357.736 292.614 358.081 293.607 358.414 294.567C359.233 296.927 360.081 299.368 359.699 301.924C359.413 303.838 358.476 305.493 357.569 307.094C357.09 307.939 356.595 308.814 356.215 309.701C355.23 311.995 355.348 315.114 357.053 316.23V316.232Z" fill="#05C1A9"/>
<path d="M425.819 146.455C425.497 146.455 425.17 146.448 424.839 146.433C420.469 146.247 416.96 144.946 415.653 144.396C407.794 141.083 404.231 133.839 402.517 130.357C399.961 125.16 399.715 121.363 399.497 118.014C399.27 114.51 399.055 111.201 396.275 106.758C394.545 103.992 392.836 102.551 391.327 101.281C389.454 99.7021 387.836 98.3388 387.272 95.088C386.181 88.7943 388.471 83.2899 391.108 78.2787C391.171 78.1587 391.554 77.4538 392.058 76.5362C392.713 75.3464 393.385 74.1495 394.053 72.9775L394.907 73.4649C394.241 74.6309 393.571 75.8242 392.919 77.0093C392.424 77.9079 392.038 78.621 391.977 78.7351C389.596 83.2602 387.146 88.6148 388.239 94.9192C388.742 97.817 390.091 98.9545 391.958 100.528C393.444 101.781 395.294 103.339 397.106 106.236C400.018 110.889 400.24 114.318 400.476 117.95C400.698 121.367 400.927 124.901 403.397 129.922C405.057 133.297 408.511 140.319 416.032 143.489C419.911 145.124 428.718 147.144 434.285 143.085C434.724 142.764 435.151 142.4 435.603 142.017C437.105 140.739 438.806 139.29 441.48 139.12C443.027 139.021 443.922 139.365 444.957 139.762C445.451 139.952 446.013 140.167 446.72 140.363C448.455 140.843 450.361 140.922 452.255 140.594V93.6628H453.238V141.402L452.844 141.482C450.67 141.924 448.462 141.864 446.457 141.309C445.703 141.101 445.12 140.877 444.604 140.678C443.6 140.293 442.875 140.015 441.542 140.099C439.194 140.249 437.692 141.527 436.239 142.764C435.772 143.161 435.332 143.537 434.862 143.879C432.543 145.57 429.43 146.452 425.814 146.452L425.819 146.455Z" fill="#05C1A9"/>
<path d="M125.242 332.196L124.993 331.935L54.3971 258.516L54.3591 258.363C53.6576 255.586 56.2638 252.787 59.1887 251.685C60.153 251.322 61.1588 251.065 62.1326 250.816C63.8876 250.368 65.545 249.944 66.9432 248.952C68.8123 247.625 69.8681 245.552 70.9869 243.358C71.459 242.431 71.9476 241.472 72.5029 240.577C76.3457 234.372 84.1454 230.872 91.0474 232.255C91.97 232.439 92.6882 232.659 93.3219 232.852C94.5525 233.227 95.4419 233.498 97.0529 233.277C99.8934 232.889 101.652 231.21 103.352 229.587C103.897 229.066 104.412 228.575 104.963 228.121C107.927 225.679 112.076 224.308 116.96 224.158C122.258 223.993 126.567 225.253 128.174 225.801C137.853 229.102 142.517 237.529 144.758 241.577C148.104 247.621 148.586 252.18 149.01 256.201C149.454 260.404 149.873 264.372 153.447 269.48C155.672 272.658 157.807 274.243 159.692 275.639C162.039 277.379 164.065 278.883 164.906 282.761C166.53 290.254 164.026 297.095 161.077 303.369L160.987 303.563C158 309.963 153.765 315.466 148.398 319.917C141.717 325.46 133.829 329.67 125.591 332.092L125.245 332.194L125.242 332.196ZM55.4779 257.925L125.598 330.85C133.558 328.457 141.171 324.366 147.636 319.003C152.866 314.665 156.994 309.301 159.906 303.062L159.999 302.864C162.662 297.195 165.367 290.518 163.74 283.013C162.995 279.571 161.31 278.323 158.98 276.594C157.119 275.214 154.804 273.497 152.469 270.161C148.719 264.803 148.284 260.684 147.824 256.324C147.391 252.225 146.942 247.985 143.714 242.151C141.546 238.233 137.031 230.078 127.787 226.924C123.015 225.297 112.261 223.644 105.716 229.036C105.199 229.463 104.699 229.94 104.17 230.444C102.418 232.116 100.432 234.011 97.2111 234.452C95.342 234.707 94.2445 234.373 92.9723 233.986C92.3648 233.8 91.6764 233.591 90.8108 233.418C84.376 232.129 77.1007 235.401 73.51 241.199C72.9809 242.053 72.5041 242.989 72.0428 243.895C70.9085 246.121 69.7361 248.423 67.6281 249.919C66.0491 251.04 64.2062 251.511 62.4227 251.966C61.4811 252.206 60.5073 252.455 59.6049 252.795C57.2685 253.676 55.0998 255.921 55.4767 257.924L55.4779 257.925Z" fill="#05C1A9"/>
<path d="M105.437 52.7744H431.429C438.618 52.7744 444.454 58.6093 444.454 65.7956V73.5501H92.4121V65.7956C92.4121 58.6093 98.2488 52.7744 105.437 52.7744Z" fill="#058877"/>
<path d="M414.1 64.2771C414.436 62.2101 413.032 60.2624 410.964 59.9269C408.896 59.5913 406.948 60.995 406.613 63.062C406.277 65.1291 407.681 67.0767 409.749 67.4122C411.816 67.7477 413.765 66.3441 414.1 64.2771Z" fill="white"/>
<path d="M424.732 64.2751C425.067 62.2081 423.663 60.2604 421.595 59.9249C419.528 59.5894 417.58 60.993 417.244 63.0601C416.908 65.1271 418.312 67.0747 420.38 67.4103C422.448 67.7458 424.396 66.3421 424.732 64.2751Z" fill="#DD7A92"/>
<path d="M402.389 66.3442C403.87 64.8634 403.87 62.4627 402.389 60.982C400.908 59.5012 398.506 59.5012 397.025 60.982C395.544 62.4627 395.544 64.8635 397.025 66.3442C398.506 67.8249 400.908 67.8249 402.389 66.3442Z" fill="white"/>
<path d="M231.45 149.441H230.695V152.857C230.695 153.306 230.597 153.638 230.398 153.851C230.2 154.064 229.942 154.169 229.622 154.169C229.278 154.169 229.012 154.058 228.824 153.835C228.635 153.613 228.541 153.286 228.541 152.856V144.675C228.541 144.21 228.644 143.875 228.853 143.667C229.061 143.459 229.397 143.355 229.861 143.355H233.365C233.849 143.355 234.262 143.376 234.605 143.417C234.948 143.459 235.258 143.542 235.533 143.668C235.868 143.808 236.162 144.009 236.418 144.269C236.675 144.531 236.869 144.834 237.002 145.18C237.135 145.526 237.202 145.892 237.202 146.278C237.202 147.071 236.978 147.705 236.531 148.179C236.084 148.653 235.405 148.988 234.495 149.187C234.877 149.39 235.243 149.69 235.59 150.087C235.939 150.484 236.249 150.905 236.523 151.352C236.796 151.799 237.009 152.203 237.161 152.564C237.313 152.924 237.389 153.172 237.389 153.306C237.389 153.441 237.344 153.586 237.255 153.724C237.166 153.862 237.043 153.97 236.889 154.051C236.734 154.13 236.555 154.171 236.351 154.171C236.11 154.171 235.907 154.114 235.741 154.001C235.577 153.887 235.436 153.743 235.317 153.569C235.198 153.396 235.038 153.139 234.834 152.8L233.971 151.364C233.662 150.838 233.385 150.436 233.14 150.16C232.896 149.884 232.648 149.695 232.397 149.594C232.145 149.493 231.829 149.442 231.447 149.442L231.45 149.441ZM232.683 144.973H230.695V147.896H232.625C233.142 147.896 233.578 147.851 233.931 147.762C234.284 147.672 234.554 147.52 234.739 147.305C234.926 147.09 235.019 146.794 235.019 146.417C235.019 146.123 234.944 145.862 234.794 145.638C234.644 145.413 234.436 145.245 234.17 145.134C233.918 145.028 233.422 144.974 232.682 144.974L232.683 144.973Z" fill="#009D89"/>
<path d="M244.262 150.631H240.388C240.392 151.081 240.483 151.478 240.66 151.821C240.836 152.165 241.071 152.423 241.364 152.597C241.656 152.771 241.98 152.859 242.333 152.859C242.569 152.859 242.786 152.832 242.982 152.776C243.178 152.72 243.367 152.633 243.551 152.514C243.736 152.395 243.905 152.269 244.059 152.134C244.214 151.998 244.415 151.814 244.661 151.582C244.762 151.496 244.907 151.452 245.096 151.452C245.299 151.452 245.463 151.507 245.589 151.618C245.715 151.73 245.778 151.887 245.778 152.09C245.778 152.269 245.708 152.477 245.568 152.717C245.428 152.956 245.216 153.187 244.933 153.407C244.65 153.627 244.295 153.81 243.867 153.955C243.439 154.1 242.946 154.172 242.39 154.172C241.118 154.172 240.128 153.81 239.422 153.085C238.716 152.36 238.363 151.376 238.363 150.132C238.363 149.547 238.45 149.004 238.624 148.504C238.798 148.003 239.052 147.574 239.386 147.217C239.721 146.859 240.131 146.584 240.619 146.393C241.108 146.202 241.65 146.106 242.245 146.106C243.019 146.106 243.682 146.269 244.236 146.596C244.79 146.923 245.205 147.345 245.481 147.862C245.757 148.379 245.895 148.907 245.895 149.443C245.895 149.941 245.752 150.264 245.467 150.412C245.182 150.559 244.78 150.633 244.262 150.633V150.631ZM240.389 149.507H243.981C243.932 148.83 243.75 148.323 243.433 147.988C243.115 147.652 242.699 147.484 242.181 147.484C241.662 147.484 241.282 147.654 240.965 147.995C240.648 148.336 240.457 148.84 240.389 149.507Z" fill="#009D89"/>
<path d="M254.652 147.569V153.32C254.652 153.978 254.582 154.543 254.442 155.018C254.301 155.492 254.077 155.883 253.768 156.193C253.459 156.502 253.053 156.733 252.552 156.883C252.052 157.032 251.429 157.107 250.685 157.107C250.002 157.107 249.393 157.012 248.856 156.821C248.319 156.629 247.906 156.383 247.616 156.081C247.326 155.779 247.181 155.468 247.181 155.15C247.181 154.908 247.263 154.711 247.427 154.559C247.591 154.407 247.789 154.331 248.021 154.331C248.311 154.331 248.566 154.459 248.783 154.715C248.889 154.845 249 154.977 249.114 155.11C249.228 155.243 249.353 155.356 249.491 155.451C249.629 155.545 249.794 155.615 249.988 155.662C250.182 155.708 250.404 155.731 250.655 155.731C251.167 155.731 251.566 155.659 251.849 155.517C252.132 155.374 252.33 155.174 252.443 154.919C252.557 154.662 252.624 154.389 252.643 154.095C252.662 153.803 252.676 153.332 252.687 152.684C252.382 153.11 252.031 153.434 251.631 153.657C251.232 153.879 250.757 153.991 250.205 153.991C249.543 153.991 248.964 153.822 248.468 153.483C247.973 153.144 247.592 152.671 247.326 152.062C247.059 151.452 246.926 150.748 246.926 149.951C246.926 149.356 247.007 148.819 247.169 148.34C247.331 147.861 247.561 147.458 247.862 147.129C248.162 146.8 248.508 146.552 248.9 146.386C249.292 146.22 249.723 146.136 250.191 146.136C250.752 146.136 251.239 146.245 251.65 146.46C252.061 146.675 252.443 147.012 252.796 147.471V147.203C252.796 146.859 252.881 146.593 253.051 146.405C253.22 146.216 253.437 146.122 253.703 146.122C254.085 146.122 254.34 146.247 254.466 146.495C254.592 146.745 254.655 147.104 254.655 147.572L254.652 147.569ZM248.913 150.079C248.913 150.881 249.088 151.489 249.439 151.9C249.789 152.311 250.242 152.517 250.799 152.517C251.128 152.517 251.438 152.429 251.731 152.252C252.023 152.076 252.261 151.81 252.445 151.454C252.63 151.099 252.721 150.667 252.721 150.16C252.721 149.353 252.544 148.724 252.189 148.273C251.833 147.824 251.365 147.6 250.784 147.6C250.204 147.6 249.766 147.815 249.424 148.245C249.083 148.675 248.913 149.287 248.913 150.08V150.079Z" fill="#009D89"/>
<path d="M257.655 145.197C257.38 145.197 257.144 145.113 256.948 144.943C256.752 144.774 256.654 144.534 256.654 144.225C256.654 143.944 256.754 143.714 256.955 143.532C257.156 143.35 257.389 143.26 257.655 143.26C257.922 143.26 258.139 143.342 258.338 143.506C258.536 143.67 258.635 143.91 258.635 144.224C258.635 144.538 258.539 144.767 258.345 144.938C258.151 145.109 257.922 145.196 257.655 145.196V145.197ZM258.635 147.243V152.966C258.635 153.363 258.541 153.662 258.352 153.866C258.163 154.069 257.924 154.17 257.634 154.17C257.344 154.17 257.108 154.065 256.927 153.859C256.745 153.651 256.654 153.353 256.654 152.966V147.301C256.654 146.909 256.745 146.614 256.927 146.417C257.108 146.218 257.344 146.12 257.634 146.12C257.924 146.12 258.163 146.218 258.352 146.417C258.541 146.615 258.635 146.891 258.635 147.244V147.243Z" fill="#009D89"/>
<path d="M267.059 151.581C267.059 152.128 266.926 152.595 266.659 152.985C266.393 153.373 266.001 153.669 265.48 153.869C264.96 154.07 264.328 154.17 263.582 154.17C262.837 154.17 262.261 154.06 261.754 153.843C261.246 153.625 260.871 153.353 260.629 153.027C260.387 152.7 260.266 152.374 260.266 152.044C260.266 151.827 260.343 151.64 260.498 151.486C260.653 151.331 260.849 151.254 261.085 151.254C261.293 151.254 261.453 151.305 261.564 151.406C261.676 151.507 261.782 151.65 261.884 151.834C262.088 152.187 262.33 152.451 262.613 152.624C262.896 152.798 263.281 152.886 263.77 152.886C264.166 152.886 264.492 152.798 264.746 152.621C264.999 152.445 265.127 152.243 265.127 152.015C265.127 151.666 264.995 151.413 264.731 151.253C264.467 151.093 264.033 150.941 263.429 150.796C262.748 150.628 262.192 150.449 261.764 150.264C261.336 150.077 260.994 149.832 260.738 149.528C260.481 149.224 260.354 148.848 260.354 148.404C260.354 148.007 260.473 147.632 260.71 147.279C260.946 146.926 261.296 146.644 261.758 146.434C262.22 146.224 262.777 146.119 263.43 146.119C263.942 146.119 264.404 146.173 264.812 146.278C265.221 146.385 265.561 146.528 265.834 146.706C266.108 146.886 266.316 147.083 266.458 147.301C266.601 147.518 266.672 147.731 266.672 147.939C266.672 148.166 266.596 148.353 266.444 148.498C266.292 148.643 266.075 148.715 265.795 148.715C265.592 148.715 265.419 148.657 265.276 148.542C265.134 148.425 264.971 148.251 264.787 148.02C264.637 147.826 264.46 147.671 264.256 147.555C264.053 147.438 263.777 147.381 263.429 147.381C263.08 147.381 262.774 147.458 262.537 147.61C262.3 147.762 262.182 147.952 262.182 148.179C262.182 148.387 262.268 148.557 262.442 148.69C262.616 148.823 262.851 148.933 263.146 149.021C263.441 149.107 263.847 149.214 264.365 149.339C264.978 149.489 265.481 149.668 265.87 149.876C266.26 150.084 266.555 150.329 266.756 150.612C266.957 150.895 267.056 151.218 267.056 151.581H267.059Z" fill="#009D89"/>
<path d="M268.843 146.294H269.061V145.104C269.061 144.784 269.069 144.535 269.086 144.353C269.102 144.171 269.15 144.015 269.227 143.884C269.304 143.749 269.416 143.64 269.561 143.554C269.706 143.47 269.868 143.427 270.047 143.427C270.3 143.427 270.527 143.521 270.73 143.71C270.865 143.836 270.951 143.989 270.988 144.17C271.024 144.351 271.043 144.608 271.043 144.942V146.291H271.768C272.049 146.291 272.263 146.358 272.41 146.491C272.557 146.624 272.631 146.794 272.631 147.002C272.631 147.268 272.527 147.454 272.316 147.561C272.106 147.668 271.805 147.72 271.412 147.72H271.043V151.361C271.043 151.67 271.053 151.909 271.075 152.075C271.096 152.241 271.154 152.377 271.248 152.482C271.342 152.586 271.496 152.637 271.71 152.637C271.826 152.637 271.983 152.617 272.182 152.575C272.38 152.535 272.535 152.514 272.647 152.514C272.806 152.514 272.95 152.578 273.078 152.706C273.207 152.835 273.271 152.993 273.271 153.182C273.271 153.5 273.097 153.745 272.749 153.914C272.4 154.083 271.9 154.168 271.247 154.168C270.628 154.168 270.159 154.064 269.839 153.857C269.521 153.649 269.31 153.361 269.212 152.994C269.113 152.627 269.063 152.136 269.063 151.521V147.721H268.801C268.516 147.721 268.298 147.653 268.149 147.518C267.999 147.382 267.924 147.211 267.924 147.003C267.924 146.795 268.002 146.625 268.159 146.492C268.316 146.359 268.545 146.292 268.845 146.292L268.843 146.294Z" fill="#009D89"/>
<path d="M275.96 151.312V152.966C275.96 153.367 275.866 153.668 275.677 153.869C275.488 154.07 275.249 154.17 274.959 154.17C274.669 154.17 274.44 154.069 274.255 153.865C274.071 153.662 273.979 153.363 273.979 152.966V147.453C273.979 146.564 274.302 146.118 274.945 146.118C275.274 146.118 275.511 146.223 275.656 146.43C275.801 146.638 275.881 146.944 275.895 147.351C276.132 146.944 276.375 146.638 276.624 146.43C276.872 146.222 277.205 146.118 277.621 146.118C278.037 146.118 278.442 146.223 278.833 146.43C279.224 146.638 279.42 146.913 279.42 147.257C279.42 147.498 279.337 147.698 279.169 147.855C279.003 148.012 278.822 148.09 278.628 148.09C278.556 148.09 278.38 148.045 278.103 147.956C277.825 147.867 277.58 147.821 277.367 147.821C277.077 147.821 276.84 147.898 276.656 148.05C276.472 148.202 276.329 148.428 276.228 148.728C276.127 149.028 276.057 149.384 276.017 149.798C275.978 150.212 275.959 150.716 275.959 151.31L275.96 151.312Z" fill="#009D89"/>
<path d="M285.138 153.054C284.659 153.426 284.197 153.705 283.748 153.892C283.301 154.078 282.8 154.171 282.243 154.171C281.735 154.171 281.29 154.071 280.904 153.87C280.52 153.669 280.223 153.397 280.016 153.055C279.808 152.711 279.705 152.339 279.705 151.938C279.705 151.396 279.876 150.934 280.219 150.552C280.563 150.17 281.034 149.913 281.634 149.783C281.76 149.754 282.072 149.689 282.57 149.586C283.068 149.485 283.495 149.392 283.851 149.307C284.206 149.223 284.591 149.119 285.007 148.999C284.984 148.478 284.878 148.094 284.692 147.85C284.506 147.606 284.12 147.484 283.535 147.484C283.033 147.484 282.654 147.554 282.4 147.694C282.146 147.834 281.928 148.045 281.747 148.325C281.565 148.606 281.438 148.791 281.363 148.88C281.288 148.97 281.128 149.015 280.88 149.015C280.658 149.015 280.466 148.943 280.304 148.801C280.142 148.658 280.061 148.475 280.061 148.253C280.061 147.905 280.185 147.566 280.431 147.238C280.678 146.909 281.062 146.639 281.584 146.426C282.106 146.213 282.757 146.107 283.537 146.107C284.407 146.107 285.092 146.21 285.59 146.415C286.088 146.621 286.44 146.945 286.646 147.391C286.852 147.836 286.954 148.426 286.954 149.161C286.954 149.626 286.953 150.019 286.95 150.344C286.948 150.668 286.944 151.028 286.94 151.424C286.94 151.796 287.001 152.185 287.125 152.588C287.249 152.992 287.31 153.251 287.31 153.367C287.31 153.571 287.215 153.755 287.024 153.923C286.833 154.089 286.616 154.172 286.375 154.172C286.171 154.172 285.971 154.077 285.773 153.886C285.575 153.694 285.364 153.417 285.142 153.055L285.138 153.054ZM285.007 150.188C284.717 150.295 284.295 150.407 283.741 150.525C283.187 150.644 282.804 150.731 282.591 150.787C282.379 150.843 282.175 150.951 281.981 151.114C281.788 151.275 281.691 151.501 281.691 151.793C281.691 152.084 281.804 152.348 282.033 152.558C282.26 152.768 282.557 152.873 282.926 152.873C283.317 152.873 283.679 152.787 284.01 152.615C284.342 152.444 284.584 152.223 284.739 151.952C284.917 151.652 285.007 151.159 285.007 150.472V150.189V150.188Z" fill="#009D89"/>
<path d="M288.701 146.294H288.918V145.104C288.918 144.784 288.927 144.535 288.943 144.353C288.96 144.171 289.008 144.015 289.085 143.884C289.162 143.749 289.274 143.64 289.419 143.554C289.564 143.47 289.726 143.427 289.905 143.427C290.157 143.427 290.384 143.521 290.588 143.71C290.723 143.836 290.809 143.989 290.846 144.17C290.881 144.351 290.9 144.608 290.9 144.942V146.291H291.626C291.906 146.291 292.12 146.358 292.268 146.491C292.415 146.624 292.489 146.794 292.489 147.002C292.489 147.268 292.384 147.454 292.174 147.561C291.963 147.668 291.663 147.72 291.27 147.72H290.9V151.361C290.9 151.67 290.911 151.909 290.932 152.075C290.954 152.241 291.012 152.377 291.106 152.482C291.2 152.586 291.355 152.637 291.567 152.637C291.684 152.637 291.841 152.617 292.039 152.575C292.238 152.535 292.393 152.514 292.504 152.514C292.664 152.514 292.808 152.578 292.936 152.706C293.064 152.835 293.129 152.993 293.129 153.182C293.129 153.5 292.955 153.745 292.607 153.914C292.258 154.083 291.758 154.168 291.105 154.168C290.485 154.168 290.017 154.064 289.697 153.857C289.378 153.649 289.168 153.361 289.069 152.994C288.971 152.627 288.921 152.136 288.921 151.521V147.721H288.659C288.374 147.721 288.156 147.653 288.006 147.518C287.857 147.382 287.782 147.211 287.782 147.003C287.782 146.795 287.86 146.625 288.017 146.492C288.174 146.359 288.402 146.292 288.703 146.292L288.701 146.294Z" fill="#009D89"/>
<path d="M294.853 145.197C294.578 145.197 294.342 145.113 294.146 144.943C293.95 144.774 293.852 144.534 293.852 144.225C293.852 143.944 293.952 143.714 294.153 143.532C294.354 143.35 294.587 143.26 294.853 143.26C295.12 143.26 295.337 143.342 295.536 143.506C295.734 143.67 295.833 143.91 295.833 144.224C295.833 144.538 295.737 144.767 295.543 144.938C295.349 145.109 295.12 145.196 294.853 145.196V145.197ZM295.832 147.243V152.966C295.832 153.363 295.738 153.662 295.549 153.866C295.36 154.069 295.121 154.17 294.831 154.17C294.541 154.17 294.305 154.065 294.123 153.859C293.942 153.651 293.851 153.353 293.851 152.966V147.301C293.851 146.909 293.942 146.614 294.123 146.417C294.305 146.218 294.541 146.12 294.831 146.12C295.121 146.12 295.36 146.218 295.549 146.417C295.738 146.615 295.832 146.891 295.832 147.244V147.243Z" fill="#009D89"/>
<path d="M305.293 150.145C305.293 150.734 305.201 151.279 305.017 151.777C304.833 152.275 304.568 152.703 304.219 153.06C303.871 153.418 303.455 153.693 302.971 153.884C302.487 154.075 301.942 154.171 301.338 154.171C300.734 154.171 300.199 154.074 299.72 153.881C299.241 153.687 298.826 153.41 298.475 153.05C298.125 152.69 297.858 152.264 297.678 151.773C297.496 151.282 297.405 150.739 297.405 150.145C297.405 149.55 297.497 148.997 297.681 148.499C297.865 148 298.128 147.575 298.472 147.222C298.815 146.869 299.232 146.597 299.72 146.407C300.209 146.215 300.747 146.12 301.338 146.12C301.929 146.12 302.482 146.216 302.971 146.41C303.46 146.604 303.878 146.88 304.226 147.237C304.575 147.595 304.84 148.021 305.021 148.514C305.201 149.007 305.293 149.552 305.293 150.146V150.145ZM303.305 150.145C303.305 149.338 303.127 148.709 302.771 148.258C302.416 147.809 301.938 147.584 301.338 147.584C300.951 147.584 300.611 147.684 300.316 147.885C300.021 148.086 299.794 148.382 299.633 148.774C299.474 149.165 299.394 149.623 299.394 150.145C299.394 150.667 299.473 151.115 299.63 151.501C299.787 151.888 300.012 152.184 300.305 152.39C300.598 152.596 300.942 152.698 301.34 152.698C301.939 152.698 302.417 152.472 302.772 152.019C303.128 151.567 303.306 150.942 303.306 150.145H303.305Z" fill="#009D89"/>
<path d="M308.653 147.214V147.453C309.001 146.994 309.382 146.657 309.796 146.441C310.209 146.226 310.684 146.118 311.221 146.118C311.759 146.118 312.211 146.232 312.622 146.459C313.033 146.686 313.34 147.008 313.543 147.424C313.674 147.666 313.759 147.927 313.798 148.208C313.837 148.488 313.856 148.846 313.856 149.281V152.966C313.856 153.363 313.766 153.662 313.584 153.865C313.402 154.069 313.166 154.17 312.876 154.17C312.586 154.17 312.341 154.065 312.158 153.858C311.974 153.65 311.882 153.353 311.882 152.966V149.666C311.882 149.014 311.792 148.514 311.61 148.169C311.428 147.823 311.067 147.65 310.526 147.65C310.173 147.65 309.852 147.755 309.56 147.965C309.27 148.176 309.057 148.464 308.922 148.832C308.825 149.127 308.777 149.678 308.777 150.485V152.966C308.777 153.367 308.684 153.668 308.497 153.869C308.311 154.07 308.07 154.17 307.776 154.17C307.481 154.17 307.256 154.065 307.072 153.858C306.887 153.65 306.796 153.353 306.796 152.966V147.243C306.796 146.866 306.878 146.584 307.043 146.397C307.207 146.211 307.432 146.118 307.717 146.118C307.891 146.118 308.049 146.16 308.189 146.242C308.33 146.324 308.441 146.447 308.527 146.611C308.611 146.775 308.654 146.976 308.654 147.213L308.653 147.214Z" fill="#009D89"/>
<path d="M293.121 109.499C293.121 117.601 289.089 124.761 282.92 129.083C279.039 131.804 274.311 133.4 269.212 133.4C264.112 133.4 259.485 131.837 255.628 129.17C249.389 124.857 245.303 117.655 245.303 109.499C245.303 96.2979 256.007 85.5957 269.212 85.5957C282.417 85.5957 293.122 96.2967 293.122 109.499H293.121Z" fill="#009D89"/>
<path d="M269.267 115.095C273.424 115.095 276.794 111.726 276.794 107.57C276.794 103.414 273.424 100.045 269.267 100.045C265.109 100.045 261.739 103.414 261.739 107.57C261.739 111.726 265.109 115.095 269.267 115.095Z" fill="white"/>
<path d="M282.918 129.082C279.037 131.803 274.31 133.399 269.211 133.399C264.111 133.399 259.484 131.836 255.626 129.169C257.492 123.306 263.027 119.099 269.501 119.195C275.79 119.288 281.074 123.419 282.919 129.082H282.918Z" fill="white"/>
<path d="M253.54 172.345H184.029C179.501 172.345 175.829 176.015 175.829 180.543C175.829 185.07 179.501 188.74 184.029 188.74H253.54C258.069 188.74 261.74 185.07 261.74 180.543C261.74 176.015 258.069 172.345 253.54 172.345Z" fill="#E8F4FF"/>
<path d="M358.443 197.07H184.029C179.501 197.07 175.829 200.741 175.829 205.268C175.829 209.796 179.501 213.466 184.029 213.466H358.443C362.972 213.466 366.644 209.796 366.644 205.268C366.644 200.741 362.972 197.07 358.443 197.07Z" fill="#E8F4FF"/>
<path d="M358.443 221.796H184.029C179.501 221.796 175.829 225.466 175.829 229.994C175.829 234.521 179.501 238.192 184.029 238.192H358.443C362.972 238.192 366.644 234.521 366.644 229.994C366.644 225.466 362.972 221.796 358.443 221.796Z" fill="#E8F4FF"/>
<path d="M358.441 172.345H288.931C284.402 172.345 280.731 176.015 280.731 180.543C280.731 185.07 284.402 188.74 288.931 188.74H358.441C362.97 188.74 366.642 185.07 366.642 180.543C366.642 176.015 362.97 172.345 358.441 172.345Z" fill="#E8F4FF"/>
<path d="M302.708 255.706H232.823C227.3 255.706 222.822 260.183 222.822 265.705C222.822 271.227 227.3 275.703 232.823 275.703H302.708C308.232 275.703 312.71 271.227 312.71 265.705C312.71 260.183 308.232 255.706 302.708 255.706Z" fill="#009D89"/>
<path d="M255.123 267.049C255.123 267.354 255.048 267.683 254.897 268.039C254.747 268.394 254.511 268.742 254.189 269.084C253.866 269.426 253.455 269.703 252.953 269.917C252.453 270.129 251.869 270.236 251.202 270.236C250.697 270.236 250.236 270.189 249.823 270.093C249.409 269.996 249.033 269.848 248.696 269.645C248.358 269.442 248.048 269.175 247.765 268.845C247.511 268.544 247.296 268.208 247.118 267.835C246.939 267.463 246.805 267.065 246.716 266.643C246.627 266.221 246.582 265.772 246.582 265.298C246.582 264.526 246.693 263.837 246.918 263.227C247.143 262.617 247.464 262.096 247.882 261.663C248.301 261.229 248.791 260.9 249.353 260.673C249.915 260.446 250.515 260.333 251.151 260.333C251.926 260.333 252.617 260.488 253.222 260.797C253.827 261.106 254.292 261.488 254.614 261.944C254.937 262.399 255.098 262.829 255.098 263.234C255.098 263.457 255.02 263.653 254.863 263.823C254.706 263.993 254.517 264.077 254.294 264.077C254.046 264.077 253.859 264.018 253.736 263.901C253.612 263.784 253.473 263.581 253.321 263.294C253.067 262.82 252.77 262.464 252.429 262.229C252.087 261.993 251.666 261.876 251.164 261.876C250.366 261.876 249.731 262.179 249.259 262.784C248.786 263.389 248.55 264.249 248.55 265.364C248.55 266.11 248.655 266.729 248.864 267.223C249.074 267.718 249.37 268.086 249.754 268.331C250.137 268.575 250.586 268.697 251.1 268.697C251.657 268.697 252.129 268.559 252.515 268.282C252.9 268.005 253.191 267.6 253.387 267.064C253.47 266.812 253.573 266.605 253.694 266.447C253.816 266.288 254.011 266.208 254.283 266.208C254.513 266.208 254.712 266.289 254.877 266.45C255.042 266.611 255.126 266.811 255.126 267.051L255.123 267.049Z" fill="white"/>
<path d="M258.515 267.663V269.152C258.515 269.514 258.43 269.785 258.26 269.965C258.09 270.146 257.875 270.236 257.614 270.236C257.352 270.236 257.145 270.145 256.98 269.962C256.815 269.779 256.731 269.509 256.731 269.151V264.185C256.731 263.384 257.022 262.983 257.601 262.983C257.897 262.983 258.111 263.077 258.241 263.264C258.372 263.452 258.444 263.727 258.457 264.094C258.671 263.727 258.889 263.451 259.113 263.264C259.338 263.077 259.637 262.983 260.012 262.983C260.386 262.983 260.75 263.077 261.103 263.264C261.456 263.452 261.632 263.699 261.632 264.009C261.632 264.227 261.558 264.406 261.407 264.549C261.257 264.69 261.094 264.762 260.919 264.762C260.854 264.762 260.695 264.721 260.445 264.64C260.194 264.56 259.973 264.519 259.781 264.519C259.52 264.519 259.307 264.588 259.14 264.725C258.975 264.861 258.847 265.066 258.755 265.336C258.664 265.605 258.601 265.926 258.566 266.3C258.532 266.672 258.514 267.126 258.514 267.662L258.515 267.663Z" fill="white"/>
<path d="M267.253 267.049H263.764C263.768 267.455 263.849 267.811 264.009 268.12C264.168 268.429 264.38 268.662 264.642 268.819C264.906 268.976 265.196 269.054 265.515 269.054C265.729 269.054 265.924 269.029 266.1 268.98C266.276 268.93 266.447 268.851 266.614 268.744C266.779 268.637 266.931 268.523 267.071 268.401C267.21 268.278 267.391 268.113 267.614 267.904C267.705 267.825 267.836 267.786 268.006 267.786C268.189 267.786 268.338 267.836 268.451 267.936C268.564 268.036 268.621 268.177 268.621 268.36C268.621 268.522 268.558 268.71 268.43 268.925C268.304 269.14 268.113 269.347 267.858 269.545C267.604 269.744 267.283 269.908 266.898 270.039C266.513 270.169 266.069 270.235 265.567 270.235C264.421 270.235 263.531 269.908 262.894 269.254C262.258 268.6 261.941 267.715 261.941 266.595C261.941 266.069 262.019 265.579 262.176 265.128C262.333 264.678 262.562 264.292 262.862 263.968C263.163 263.646 263.533 263.399 263.974 263.227C264.414 263.054 264.901 262.969 265.438 262.969C266.134 262.969 266.733 263.116 267.232 263.41C267.731 263.703 268.105 264.084 268.353 264.55C268.602 265.016 268.725 265.491 268.725 265.974C268.725 266.423 268.597 266.713 268.34 266.846C268.083 266.979 267.722 267.046 267.256 267.046L267.253 267.049ZM263.764 266.037H266.999C266.955 265.427 266.791 264.97 266.505 264.667C266.22 264.364 265.844 264.213 265.378 264.213C264.912 264.213 264.569 264.367 264.283 264.674C263.998 264.981 263.824 265.435 263.764 266.037Z" fill="white"/>
<path d="M274.736 269.232C274.305 269.567 273.887 269.819 273.484 269.987C273.081 270.154 272.629 270.239 272.128 270.239C271.67 270.239 271.268 270.148 270.922 269.968C270.576 269.787 270.309 269.542 270.122 269.233C269.934 268.924 269.841 268.589 269.841 268.227C269.841 267.74 269.996 267.324 270.305 266.979C270.614 266.636 271.039 266.404 271.58 266.286C271.693 266.26 271.974 266.202 272.423 266.111C272.871 266.019 273.256 265.936 273.576 265.859C273.896 265.783 274.244 265.69 274.619 265.58C274.597 265.11 274.502 264.765 274.334 264.545C274.167 264.325 273.82 264.215 273.292 264.215C272.839 264.215 272.497 264.278 272.269 264.404C272.041 264.53 271.845 264.72 271.681 264.972C271.518 265.225 271.401 265.391 271.335 265.472C271.267 265.553 271.122 265.594 270.899 265.594C270.699 265.594 270.526 265.529 270.38 265.401C270.234 265.273 270.161 265.109 270.161 264.908C270.161 264.594 270.272 264.29 270.494 263.992C270.716 263.696 271.062 263.453 271.533 263.26C272.004 263.069 272.59 262.973 273.292 262.973C274.076 262.973 274.692 263.065 275.142 263.251C275.59 263.436 275.907 263.729 276.093 264.129C276.278 264.53 276.371 265.061 276.371 265.723C276.371 266.141 276.371 266.496 276.368 266.788C276.365 267.08 276.362 267.405 276.358 267.762C276.358 268.097 276.414 268.446 276.525 268.81C276.635 269.174 276.691 269.408 276.691 269.512C276.691 269.695 276.605 269.862 276.433 270.013C276.261 270.163 276.066 270.239 275.848 270.239C275.665 270.239 275.484 270.153 275.306 269.981C275.128 269.808 274.937 269.559 274.738 269.233L274.736 269.232ZM274.619 266.65C274.357 266.746 273.977 266.848 273.478 266.954C272.979 267.061 272.634 267.14 272.443 267.19C272.251 267.24 272.068 267.338 271.893 267.483C271.719 267.63 271.632 267.833 271.632 268.094C271.632 268.356 271.734 268.595 271.939 268.784C272.143 268.973 272.412 269.068 272.742 269.068C273.096 269.068 273.421 268.991 273.72 268.836C274.018 268.682 274.237 268.482 274.376 268.238C274.538 267.968 274.617 267.524 274.617 266.906V266.651L274.619 266.65Z" fill="white"/>
<path d="M277.945 263.143H278.141V262.072C278.141 261.784 278.148 261.56 278.163 261.396C278.179 261.233 278.222 261.091 278.291 260.975C278.361 260.852 278.461 260.754 278.592 260.678C278.722 260.602 278.869 260.563 279.029 260.563C279.256 260.563 279.461 260.648 279.644 260.818C279.766 260.931 279.844 261.07 279.876 261.233C279.909 261.395 279.924 261.628 279.924 261.928V263.143H280.578C280.83 263.143 281.024 263.202 281.157 263.322C281.291 263.442 281.357 263.596 281.357 263.783C281.357 264.024 281.262 264.191 281.073 264.286C280.884 264.382 280.612 264.43 280.26 264.43H279.927V267.709C279.927 267.989 279.936 268.203 279.956 268.354C279.976 268.503 280.028 268.626 280.113 268.72C280.198 268.814 280.337 268.86 280.528 268.86C280.633 268.86 280.774 268.841 280.953 268.804C281.131 268.767 281.27 268.748 281.371 268.748C281.515 268.748 281.645 268.806 281.76 268.922C281.875 269.037 281.934 269.18 281.934 269.35C281.934 269.637 281.777 269.857 281.463 270.009C281.149 270.161 280.698 270.238 280.11 270.238C279.552 270.238 279.129 270.144 278.842 269.957C278.555 269.769 278.367 269.51 278.278 269.18C278.188 268.849 278.143 268.407 278.143 267.853V264.43H277.908C277.651 264.43 277.455 264.369 277.319 264.247C277.184 264.125 277.117 263.97 277.117 263.783C277.117 263.597 277.189 263.442 277.33 263.322C277.472 263.202 277.677 263.143 277.947 263.143H277.945Z" fill="white"/>
<path d="M287.566 267.049H284.076C284.081 267.455 284.162 267.811 284.321 268.12C284.48 268.429 284.691 268.662 284.955 268.819C285.219 268.976 285.509 269.054 285.827 269.054C286.042 269.054 286.236 269.029 286.412 268.98C286.588 268.93 286.76 268.851 286.926 268.744C287.091 268.637 287.244 268.523 287.384 268.401C287.523 268.278 287.704 268.113 287.926 267.904C288.018 267.825 288.148 267.786 288.318 267.786C288.502 267.786 288.649 267.836 288.763 267.936C288.876 268.036 288.933 268.177 288.933 268.36C288.933 268.522 288.87 268.71 288.744 268.925C288.618 269.14 288.427 269.347 288.172 269.545C287.918 269.744 287.597 269.908 287.211 270.039C286.826 270.169 286.383 270.235 285.881 270.235C284.735 270.235 283.844 269.908 283.208 269.254C282.572 268.6 282.253 267.715 282.253 266.595C282.253 266.069 282.332 265.579 282.489 265.128C282.646 264.678 282.874 264.292 283.175 263.968C283.476 263.646 283.845 263.399 284.285 263.227C284.725 263.054 285.214 262.969 285.749 262.969C286.446 262.969 287.044 263.116 287.543 263.41C288.043 263.703 288.416 264.084 288.664 264.55C288.913 265.016 289.037 265.491 289.037 265.974C289.037 266.423 288.908 266.713 288.651 266.846C288.394 266.979 288.033 267.046 287.567 267.046L287.566 267.049ZM284.076 266.037H287.311C287.267 265.427 287.103 264.97 286.818 264.667C286.533 264.364 286.157 264.213 285.691 264.213C285.225 264.213 284.881 264.367 284.596 264.674C284.31 264.981 284.137 265.435 284.076 266.037Z" fill="white"/>
<path d="M430.485 269.034C428.658 270.35 428.012 272.916 427.576 275.209C426.973 278.366 426.219 282.052 425.754 285.215C425.754 285.215 425.755 285.215 425.757 285.213C425.469 285.483 425.288 285.675 425.338 285.675C423.55 287.216 421.784 288.803 420.035 290.438C420.084 290.387 420.134 290.336 420.183 290.285C421.018 288.103 421.286 286.312 421.746 284.121C422.222 281.846 422.473 279.418 421.441 277.858C421.25 277.571 420.993 277.309 420.634 277.288C420.285 277.269 419.89 277.481 419.552 277.756C418.686 278.454 418.075 279.544 417.77 280.606C417.463 281.669 417.421 282.717 417.425 283.735C417.436 286.575 417.799 289.306 418.482 291.835C418.058 292.234 417.635 292.636 417.213 293.04C417.246 293.047 417.277 293.053 417.309 293.059C415.265 295.055 413.263 297.114 411.288 299.241C411.68 297.397 412.096 295.558 412.534 293.725C412.836 292.458 413.153 291.173 413.133 289.893C413.112 288.613 412.706 287.311 411.812 286.667C411.656 286.553 411.476 286.459 411.282 286.489C411.101 286.512 410.932 286.646 410.783 286.785C409.201 288.254 408.802 290.824 408.575 293.108C408.258 296.252 408.072 299.87 407.884 303.014C407.929 302.977 407.974 302.933 408.018 302.891C406.14 305.033 404.287 307.219 402.482 309.482C403.035 307.233 403.097 305.393 403.298 303.142C403.512 300.776 403.482 298.258 402.317 296.724C402.098 296.441 401.827 296.184 401.476 296.188C401.136 296.19 400.775 296.435 400.481 296.737C399.72 297.511 399.251 298.662 399.069 299.774C398.887 300.884 398.958 301.962 399.076 303.006C399.402 305.922 400.047 308.697 400.989 311.25C400.622 311.684 400.006 312.575 400.062 312.582C398.013 315.264 396.019 318.031 394.087 320.871C393.822 321.049 393.558 321.236 393.297 321.428C394.037 318.969 394.419 316.026 394.654 314.028C394.812 312.649 394.983 311.245 394.822 309.895C394.661 308.547 394.106 307.231 393.145 306.672C392.975 306.576 392.784 306.5 392.596 306.558C392.415 306.611 392.264 306.775 392.13 306.941C390.714 308.714 390.598 311.483 390.635 313.925C390.658 316.148 390.877 318.636 391.076 321.031L393.188 325.19C393.384 324.891 393.582 324.594 393.781 324.299C393.916 324.263 394.046 324.223 394.181 324.185C396.128 323.637 397.964 323.068 400.126 322.367C401.922 321.783 403.973 320.869 404.553 318.747C404.595 318.592 404.628 318.421 404.581 318.268C404.521 318.066 404.335 317.964 404.165 317.895C403.667 317.693 403.145 317.619 402.617 317.619C401.913 317.619 401.196 317.759 400.504 317.942C399.478 318.213 398.464 318.568 397.473 319.003C398.959 316.931 400.472 314.898 402.009 312.901C403.775 313.245 405.515 313.652 407.363 313.64C409.244 313.631 411.352 313.499 412.803 311.902C412.941 311.751 413.078 311.578 413.128 311.373C413.184 311.157 413.143 310.935 413.078 310.736C412.718 309.613 411.737 308.933 410.701 308.722C409.654 308.509 408.554 308.699 407.469 308.89C406.572 309.05 405.676 309.212 404.778 309.375C406.442 307.3 408.131 305.266 409.847 303.278C412.274 302.981 414.43 302.638 417.057 302.184C418.899 301.868 421.024 301.271 421.82 299.372C421.878 299.233 421.926 299.077 421.898 298.931C421.858 298.735 421.689 298.617 421.526 298.532C420.429 297.948 419.133 297.971 417.902 298.116C416.431 298.288 414.967 298.622 413.535 299.107C415.305 297.156 417.101 295.249 418.916 293.389C420.838 293.84 422.704 294.411 424.752 294.513C426.677 294.612 428.855 294.608 430.52 293.157C430.679 293.018 430.836 292.861 430.913 292.667C430.992 292.461 430.976 292.244 430.933 292.05C430.692 290.945 429.765 290.233 428.723 289.962C427.683 289.694 426.525 289.806 425.39 289.929C424.258 290.047 423.123 290.176 421.99 290.304C423.606 288.716 425.236 287.164 426.881 285.646C429.899 285.582 432.924 285.449 435.938 285.247C437.945 285.112 440.28 284.727 441.292 282.906C441.364 282.772 441.434 282.622 441.412 282.472C441.383 282.272 441.212 282.137 441.044 282.034C439.909 281.336 438.519 281.222 437.183 281.241C435.002 281.271 432.813 281.598 430.68 282.229C432.59 280.554 434.518 278.924 436.463 277.344C436.525 277.344 436.591 277.334 436.661 277.31C439.09 276.482 442.256 275.643 444.01 274.55C446.253 273.141 448.454 271.39 449.038 269.107C449.146 268.681 449.188 268.217 448.957 267.839C448.736 267.473 448.285 267.252 447.826 267.129C446.653 266.815 445.58 267.423 444.484 267.97C443.387 268.517 442.481 269.328 441.625 270.167C439.675 272.083 437.764 274.233 436.204 276.43C436.231 276.426 436.259 276.432 436.284 276.462C436.204 276.52 436.121 276.586 436.04 276.647C435.998 276.704 435.982 276.712 435.985 276.689C433.993 278.192 431.857 280.314 429.923 281.866C430.518 279.986 431.135 278.111 431.78 276.249C432.208 275.001 432.662 273.735 432.747 272.438C432.835 271.14 432.505 269.782 431.603 269.028C431.443 268.897 431.257 268.782 431.049 268.788C430.85 268.796 430.662 268.909 430.487 269.034H430.485ZM427.481 283.75C427.333 283.861 427.167 283.993 426.995 284.133C427.168 283.98 427.334 283.84 427.481 283.75Z" fill="#DDA1B0"/>
<path d="M445.633 305.534C443.417 305.73 441.611 307.622 440.118 309.384C438.063 311.81 435.618 314.616 433.678 317.12C433.678 317.12 433.679 317.12 433.68 317.12C433.301 317.205 433.051 317.278 433.095 317.303C430.802 317.714 428.508 318.176 426.203 318.69C426.269 318.671 426.337 318.652 426.405 318.633C428.188 317.172 429.289 315.758 430.753 314.096C432.27 312.369 433.668 310.393 433.538 308.506C433.514 308.158 433.419 307.799 433.12 307.594C432.829 307.397 432.384 307.377 431.959 307.44C430.872 307.597 429.814 308.225 429.035 308.99C428.252 309.753 427.706 310.639 427.216 311.525C425.842 313.995 424.827 316.55 424.185 319.098C423.625 319.224 423.064 319.353 422.503 319.485C422.528 319.509 422.551 319.53 422.576 319.55C419.843 320.223 417.113 320.973 414.375 321.796C415.61 320.399 416.864 319.019 418.134 317.656C419.012 316.713 419.911 315.762 420.516 314.643C421.12 313.522 421.404 312.182 420.946 311.161C420.868 310.982 420.757 310.807 420.575 310.732C420.409 310.66 420.197 310.687 420 310.731C417.92 311.186 416.326 313.209 415.018 315.073C413.215 317.636 411.294 320.677 409.602 323.308C409.659 323.299 409.719 323.284 409.777 323.271C407.114 324.155 404.453 325.093 401.794 326.121C403.366 324.456 404.314 322.893 405.583 321.044C406.919 319.102 408.118 316.905 407.86 314.97C407.809 314.612 407.701 314.248 407.395 314.07C407.102 313.896 406.67 313.921 406.269 314.031C405.237 314.307 404.271 315.063 403.573 315.932C402.876 316.801 402.414 317.773 402.006 318.739C400.867 321.438 400.074 324.178 399.644 326.879C399.115 327.066 398.151 327.52 398.196 327.554C395.124 328.82 392.058 330.187 389.009 331.652C388.694 331.668 388.375 331.694 388.058 331.725C389.892 329.976 391.655 327.62 392.829 326.009C393.637 324.896 394.466 323.766 394.985 322.511C395.502 321.26 395.664 319.831 395.107 318.849C395.007 318.677 394.88 318.513 394.689 318.466C394.507 318.418 394.298 318.483 394.1 318.558C392.016 319.363 390.57 321.704 389.412 323.841C388.35 325.781 387.328 328.052 386.335 330.232L382.751 335.947C383.067 335.79 391.285 335.566 393.49 336.076C395.324 336.499 397.538 336.769 399.07 335.228C399.182 335.114 399.294 334.983 399.327 334.828C399.373 334.621 399.263 334.436 399.15 334.288C398.819 333.855 398.404 333.52 397.948 333.248C397.34 332.884 396.655 332.633 395.968 332.434C394.95 332.138 393.904 331.921 392.838 331.786C395.128 330.758 397.422 329.777 399.719 328.841C401.075 330.054 402.378 331.307 403.978 332.253C405.606 333.218 407.488 334.194 409.517 333.562C409.708 333.502 409.913 333.423 410.054 333.272C410.207 333.114 410.28 332.898 410.32 332.693C410.556 331.533 410.041 330.434 409.249 329.714C408.45 328.988 407.41 328.584 406.38 328.188C405.529 327.862 404.676 327.539 403.824 327.216C406.268 326.277 408.715 325.388 411.162 324.551C413.4 325.549 415.427 326.369 417.913 327.335C419.655 328.013 421.781 328.597 423.391 327.361C423.508 327.27 423.625 327.16 423.673 327.02C423.732 326.828 423.644 326.639 423.545 326.481C422.883 325.408 421.754 324.755 420.622 324.244C419.27 323.632 417.843 323.164 416.372 322.843C418.849 322.067 421.324 321.343 423.796 320.669C425.234 322.056 426.567 323.516 428.282 324.665C429.894 325.747 431.774 326.871 433.917 326.474C434.121 326.436 434.333 326.38 434.495 326.253C434.663 326.115 434.755 325.918 434.812 325.729C435.141 324.645 434.688 323.548 433.922 322.773C433.155 322.002 432.101 321.5 431.063 321.018C430.029 320.536 428.987 320.059 427.947 319.584C430.113 319.043 432.275 318.54 434.433 318.075C437.066 319.581 439.742 321.031 442.439 322.417C444.236 323.34 446.438 324.214 448.195 323.159C448.322 323.081 448.457 322.987 448.51 322.845C448.584 322.656 448.501 322.451 448.407 322.275C447.767 321.081 446.623 320.264 445.462 319.587C443.567 318.484 441.519 317.636 439.372 317.078C441.834 316.613 444.291 316.2 446.738 315.835C446.791 315.867 446.852 315.893 446.924 315.908C449.422 316.447 452.562 317.359 454.606 317.318C457.228 317.256 459.977 316.877 461.593 315.199C461.892 314.886 462.154 314.506 462.14 314.059C462.126 313.626 461.846 313.202 461.511 312.857C460.652 311.978 459.431 311.95 458.218 311.858C457.006 311.764 455.83 311.998 454.683 312.282C452.07 312.935 449.375 313.811 446.96 314.909C446.986 314.921 447.006 314.94 447.013 314.979C446.916 314.989 446.812 315.003 446.713 315.013C446.65 315.042 446.631 315.04 446.645 315.022C444.196 315.294 441.321 316.03 438.896 316.374C440.325 315.053 441.769 313.745 443.231 312.463C444.207 311.602 445.214 310.739 445.92 309.658C446.626 308.577 447.005 307.228 446.593 306.108C446.519 305.912 446.414 305.715 446.231 305.614C446.056 305.518 445.839 305.519 445.627 305.537L445.633 305.534ZM435.88 316.744C435.699 316.763 435.491 316.793 435.276 316.825C435.499 316.781 435.71 316.746 435.88 316.744Z" fill="#DD7A92"/>
<path d="M469.9 337H28.8396C28.5114 337 28.2451 336.734 28.2451 336.406C28.2451 336.078 28.5114 335.812 28.8396 335.812H469.898C470.227 335.812 470.493 336.078 470.493 336.406C470.493 336.734 470.227 337 469.898 337H469.9Z" fill="#4A4A75"/>
<path d="M345.451 28.9112C344.678 27.7523 343.228 25.9076 341.131 25.0126C337.399 23.4175 321.887 25.1255 321.059 25.8791C320.902 25.1754 317.162 9.20294 307.34 6.38475C300.37 4.38552 293.245 9.84479 289.3 20.2463C288.544 19.5391 282.662 14.2545 276.596 18.9471C273.555 21.2994 271.807 25.1243 271.007 27.1782C268.999 27.8605 266.695 28.374 264.146 28.4774C260.352 28.6319 256.947 27.8438 254.041 26.6885C250.072 25.1101 245.912 25.7745 242.248 28.8173C240.993 29.8597 239.739 30.9021 238.483 31.9433H346.007C345.821 30.933 345.635 29.9215 345.449 28.9112H345.451Z" fill="#ED972B"/>
<path d="M134.813 38.5079C135.791 38.502 136.589 37.5713 136.516 36.4707C136.341 33.8878 135.019 31.5166 132.944 30.2745C130.254 28.6627 126.891 29.301 124.787 31.8411C124.342 25.4915 120.553 20.0608 115.244 18.1352C109.698 16.1241 103.55 18.3207 99.9723 23.6183C99.637 23.2284 96.6134 19.8159 92.5102 20.4851C88.6294 21.1186 85.4144 25.1373 85.0482 30.2757C84.267 30.0558 82.3564 29.654 80.3624 30.6679C78.34 31.696 76.874 33.8557 76.2949 36.4802C76.025 37.7033 76.8549 38.8859 77.9714 38.8788C96.9178 38.7564 115.864 38.6327 134.811 38.5103L134.813 38.5079Z" fill="#ED972B"/>
<path d="M451.653 38.7715C451.008 38.7668 450.483 38.1546 450.531 37.4296C450.647 35.7287 451.517 34.1681 452.883 33.3503C454.654 32.2889 456.869 32.7096 458.253 34.382C458.546 30.2017 461.041 26.6263 464.536 25.3581C468.188 24.034 472.235 25.4805 474.59 28.9679C474.812 28.7112 476.802 26.4647 479.503 26.9057C482.058 27.3229 484.175 29.9687 484.416 33.3515C484.931 33.2065 486.189 32.9426 487.5 33.6094C488.832 34.2857 489.798 35.7073 490.178 37.4367C490.355 38.2414 489.809 39.0211 489.075 39.0164C476.601 38.9356 464.127 38.8547 451.654 38.7739L451.653 38.7715Z" fill="#ED972B"/>
<path d="M39.2674 140.361C39.9118 140.357 40.4374 139.744 40.3886 139.019C40.2733 137.319 39.4029 135.758 38.0368 134.94C36.2664 133.879 34.0525 134.299 32.6674 135.972C32.3737 131.792 29.8792 128.216 26.3836 126.948C22.7323 125.624 18.685 127.07 16.3296 130.558C16.1085 130.301 14.1181 128.055 11.4168 128.496C8.86165 128.913 6.74527 131.559 6.5039 134.941C5.98908 134.796 4.73114 134.532 3.41969 135.199C2.08804 135.876 1.12259 137.297 0.742113 139.027C0.564955 139.831 1.1107 140.611 1.84549 140.606C14.3191 140.525 26.7926 140.445 39.2662 140.364L39.2674 140.361Z" fill="#ED972B"/>
<path d="M466.107 131.386C464.36 131.386 462.942 129.861 463.079 128.061C463.201 126.448 464.002 124.955 465.301 124.103C467.151 122.891 469.736 123.16 471.499 124.856C471.554 124.289 472.019 120.109 475.388 117.949C478.759 115.788 483.647 116.542 486.933 120.084C487.15 114.014 491.115 108.846 496.534 107.4C502.091 105.919 508.142 108.627 510.631 113.428C511.941 115.956 511.964 118.485 511.846 119.958C513.762 118.529 516.338 118.541 518.166 119.958C519.822 121.242 520.59 123.468 520.11 125.609C522.911 123.76 526.381 123.91 528.617 125.859C528.639 125.88 528.662 125.9 528.684 125.92C530.782 127.805 529.436 131.385 526.656 131.385H466.107V131.386Z" fill="#ED972B"/>
<path d="M57.856 47.7305H35.3701C22.4827 47.7305 12.0352 58.1747 12.0352 71.058C12.0352 83.9413 22.4827 94.3856 35.3701 94.3856H50.721C58.2662 103.927 68.9218 103.198 68.9218 103.198C66.658 99.2672 65.5856 95.6788 65.0767 93.2422C74.4292 90.2017 81.1921 81.4227 81.1921 71.058C81.1921 58.1747 70.7445 47.7305 57.8572 47.7305H57.856Z" fill="#D6EBFF"/>
<path d="M39.1629 75.5383H32.1789L30.9789 78.9463H28.1229L34.0989 62.2423H37.2669L43.2429 78.9463H40.3629L39.1629 75.5383ZM38.3949 73.3063L35.6829 65.5543L32.9469 73.3063H38.3949ZM57.5053 67.2343C57.5053 68.0823 57.3053 68.8823 56.9053 69.6343C56.5053 70.3863 55.8653 71.0023 54.9853 71.4823C54.1053 71.9463 52.9773 72.1783 51.6013 72.1783H48.5773V78.9463H45.8413V62.2663H51.6013C52.8813 62.2663 53.9613 62.4903 54.8413 62.9383C55.7373 63.3703 56.4013 63.9623 56.8333 64.7143C57.2813 65.4663 57.5053 66.3063 57.5053 67.2343ZM51.6013 69.9463C52.6413 69.9463 53.4173 69.7143 53.9293 69.2503C54.4413 68.7703 54.6973 68.0983 54.6973 67.2343C54.6973 65.4103 53.6653 64.4983 51.6013 64.4983H48.5773V69.9463H51.6013ZM62.8507 62.2663V78.9463H60.1147V62.2663H62.8507Z" fill="#009D89"/>
<path d="M112.37 326.337C111.182 325.358 114.757 323.439 114.757 323.439C114.202 322.91 107.622 319.65 107.325 318.839C106.696 317.123 106.56 310.378 106.26 304.315C106.098 301.049 95.5611 299.193 92.2034 299.964L91.2808 299.845C91.3153 299.944 91.3474 300.041 91.3818 300.139C91.3878 300.156 91.3949 300.174 91.4009 300.191C92.6279 303.719 90.1726 299.965 90.3344 303.802C90.5175 308.151 92.3972 319.24 92.3235 319.587C92.2355 319.997 92.3021 320.895 91.54 321.938C103.561 330.387 107.136 327.529 107.136 327.529L106.164 326.426C105.887 326.112 117.776 330.789 112.37 326.337Z" fill="#FFA384"/>
<path d="M131.764 329.264C131.945 331.478 131.002 335.403 131.002 335.403C116.987 337.464 90.2711 335.712 90.2711 335.712C90.2711 335.712 90.1058 335.034 89.1665 330.311C122.031 333.038 131.764 329.264 131.764 329.264Z" fill="#4A4A75"/>
<path d="M109.478 322.588L106.549 323.684C106.549 323.684 105.554 325.085 103.86 325.461C102.166 325.836 102.067 327.635 102.067 327.635L111.048 328.934L114.582 327.185L109.478 322.588Z" fill="white"/>
<path d="M131.764 329.263C131.764 329.263 122.031 333.037 89.1667 330.31C88.5401 327.161 90.6386 323.295 91.7895 320.691C98.0305 324.138 101.448 325.294 103.86 325.459C106.867 326.491 110.913 327.809 111.132 327.514C111.484 327.043 106.282 323.499 106.282 323.499C105.948 323.192 105.922 322.664 106.226 322.318C107.329 321.066 109.346 318.675 109.346 318.675C109.938 319.131 110.383 319.427 110.383 319.427C112.553 320.728 131.763 329.263 131.763 329.263H131.764Z" fill="#343454"/>
<path d="M82.1531 326.337C80.9654 325.358 84.5406 323.439 84.5406 323.439C83.9854 322.91 77.4056 319.65 77.1083 318.839C76.4793 317.123 77.4602 310.378 77.1594 304.315C76.9977 301.049 66.461 299.193 63.1033 299.964L62.1807 299.845C62.2152 299.944 62.2473 300.041 62.2817 300.139C62.2877 300.156 62.2948 300.174 62.3008 300.191C63.5278 303.719 61.0726 299.965 61.2343 303.802C61.4174 308.151 62.1807 319.24 62.1058 319.587C62.0178 319.997 62.0844 320.895 61.3222 321.938C73.3428 330.387 76.9181 327.529 76.9181 327.529L75.9467 326.426C75.6696 326.112 87.5582 330.789 82.152 326.337H82.1531Z" fill="#FFA384"/>
<path d="M101.546 329.264C101.727 331.478 100.784 335.403 100.784 335.403C86.7696 337.464 60.0533 335.712 60.0533 335.712C60.0533 335.712 59.888 335.034 58.9487 330.311C91.8133 333.038 101.546 329.264 101.546 329.264Z" fill="#4A4A75"/>
<path d="M79.26 322.588L76.3316 323.684C76.3316 323.684 75.3364 325.085 73.6421 325.461C71.9478 325.836 71.8491 327.635 71.8491 327.635L80.8307 328.934L84.3643 327.185L79.26 322.588Z" fill="white"/>
<path d="M101.546 329.263C101.546 329.263 91.8131 333.037 58.9485 330.31C58.3231 327.161 60.4205 323.295 61.5714 320.691C67.8124 324.138 71.2295 325.294 73.6419 325.459C76.6489 326.491 80.695 327.809 80.9137 327.514C81.2657 327.043 76.0639 323.499 76.0639 323.499C75.7298 323.192 75.7036 322.664 76.008 322.318C77.1114 321.066 79.1279 318.675 79.1279 318.675C79.72 319.131 80.1647 319.427 80.1647 319.427C82.3346 320.728 101.545 329.263 101.545 329.263H101.546Z" fill="#343454"/>
<path d="M101.228 329.667C101.153 329.667 101.077 329.651 101.005 329.619C99.7866 329.077 95.2661 327.062 90.7052 324.994C90.4293 324.871 90.3081 324.546 90.4329 324.271C90.5565 323.996 90.8871 323.877 91.1558 323.999C95.7155 326.065 100.232 328.077 101.45 328.621C101.727 328.743 101.851 329.066 101.727 329.342C101.637 329.545 101.437 329.667 101.228 329.667Z" fill="#565684"/>
<path d="M114.346 253.177C114.242 241.22 109.971 203.442 110.329 191.557C110.69 179.534 109.177 193.17 109.538 181.146L63.2368 182.629C58.2478 198.796 56.2218 212.218 56.8068 229.194C57.3918 246.169 60.2976 255.012 59.9742 272.012C59.809 280.708 55.4906 303.572 58.1075 311.722C58.9553 311.691 80.2594 312.187 80.2594 312.187C80.9906 301.321 85.3185 272.67 85.3007 260.505C85.2733 241.89 84.8346 219.649 84.8346 219.649C84.9368 227.849 90.0043 243.308 88.8165 256.944C86.8083 280.003 88.8058 312.191 88.8058 312.191C96.4164 312.548 103.132 313.184 110.808 311.88C111.167 286.458 114.513 272.41 114.345 253.175L114.346 253.177Z" fill="#4A4A75"/>
<path d="M109.438 215.744C109.307 215.744 109.177 215.698 109.074 215.605C105.352 212.278 103.874 207.588 103.291 204.238C102.554 200.008 102.77 195.692 102.98 191.519C102.996 191.218 103.229 190.975 103.553 191.001C103.854 191.016 104.087 191.273 104.071 191.574C103.865 195.688 103.65 199.94 104.367 204.051C104.922 207.229 106.315 211.673 109.803 214.791C110.027 214.992 110.048 215.338 109.847 215.562C109.739 215.682 109.589 215.744 109.439 215.744H109.438Z" fill="#55558E"/>
<path d="M100.135 300.616C100.107 300.616 100.079 300.614 100.051 300.61C99.7529 300.565 99.5472 300.286 99.5936 299.989C103.177 276.485 103.554 252.601 100.714 228.999C100.441 226.741 100.141 224.479 99.8397 222.216C98.5223 212.327 97.1597 202.101 98.3475 192.045C98.382 191.746 98.6614 191.531 98.9539 191.566C99.2535 191.602 99.4687 191.873 99.4319 192.173C98.2619 202.093 99.615 212.249 100.923 222.072C101.225 224.34 101.526 226.606 101.798 228.87C104.651 252.569 104.272 276.553 100.674 300.154C100.634 300.425 100.4 300.619 100.136 300.619L100.135 300.616Z" fill="#55558E"/>
<path d="M109.282 301.481H90.0171C89.7151 301.481 89.4702 301.236 89.4702 300.934C89.4702 300.632 89.7151 300.387 90.0171 300.387H109.282C109.584 300.387 109.829 300.632 109.829 300.934C109.829 301.236 109.584 301.481 109.282 301.481Z" fill="#55558E"/>
<path d="M79.9706 300.923H59.2491C58.9471 300.923 58.7021 300.678 58.7021 300.375C58.7021 300.073 58.9471 299.828 59.2491 299.828H79.9706C80.2726 299.828 80.5175 300.073 80.5175 300.375C80.5175 300.678 80.2726 300.923 79.9706 300.923Z" fill="#55558E"/>
<path d="M70.0949 300.069C70.0628 300.069 70.0307 300.067 69.9986 300.061C69.7014 300.009 69.5028 299.725 69.5551 299.429C72.4527 283.024 71.4539 265.775 70.4885 249.093C69.3708 229.797 68.2163 209.844 73.1232 191.201C73.2005 190.91 73.5037 190.737 73.7903 190.813C74.0828 190.89 74.2563 191.188 74.1802 191.481C69.3173 209.954 70.4671 229.819 71.58 249.03C72.549 265.773 73.5525 283.087 70.6323 299.618C70.5848 299.883 70.3553 300.069 70.0949 300.069Z" fill="#55558E"/>
<path d="M58.179 217.49C57.9841 217.49 57.795 217.385 57.6963 217.2C57.5548 216.934 57.6559 216.603 57.921 216.461C59.8674 215.425 62.0718 214.251 63.325 212.315C64.0954 211.124 64.4711 209.701 64.8195 208.226C66.0037 203.193 66.8408 198.032 67.3092 192.886C67.3366 192.585 67.6338 192.362 67.9025 192.391C68.2033 192.419 68.4245 192.684 68.3983 192.986C67.9251 198.183 67.0797 203.395 65.8836 208.477C65.5127 210.049 65.1084 211.572 64.244 212.909C62.8363 215.083 60.3965 216.382 58.4371 217.426C58.355 217.469 58.267 217.49 58.1802 217.49H58.179Z" fill="#55558E"/>
<path d="M118.951 179.917H124.075C124.075 179.917 128.378 164.65 129.432 161.698C130.485 158.747 121.513 160.987 121.513 160.987L118.951 179.919V179.917Z" fill="#FFB522"/>
<path d="M100.902 132.953L107.893 131.66C107.893 131.66 114.136 133.791 115.81 139.064C116.977 142.736 121.964 159.922 124.887 170.025C127.117 177.735 122.338 186.015 114.531 187.136C111.845 187.521 108.76 187.093 105.307 185.264C91.492 177.947 101.74 158.356 101.74 158.356L100.902 132.955V132.953Z" fill="#FFB522"/>
<path d="M82.5243 100.269L81.799 104.103C81.799 104.103 79.1345 114.615 83.5908 114.558C88.0471 114.501 85.8701 99.7861 85.8701 99.7861L82.5231 100.269H82.5243Z" fill="#414168"/>
<path d="M90.9354 135.296C86.145 136.38 79.696 133.666 76.9482 127.792C77.9684 127.628 79.2632 127.166 79.2632 127.166C80.8017 126.625 81.8813 126.096 82.3379 125.532C82.9502 124.778 83.144 123.549 83.1654 121.173C89.6798 121.59 94.1944 119.701 94.1944 119.701L94.1135 127.137L100.901 129.094C100.706 129.63 96.306 134.079 90.9366 135.294L90.9354 135.296Z" fill="#FFA384"/>
<path d="M83.1689 121.629C83.2046 117.583 82.9894 112.022 83.0619 111.864L94.2241 117.671V123.219C94.2241 123.219 89.6905 123.219 83.1689 121.629Z" fill="#DB7560"/>
<path d="M71.1759 128.999C72.4053 128.728 73.5705 128.474 74.6596 128.23C76.5358 127.808 78.179 127.416 79.5047 127.021C80.5807 130.842 84.0014 133.728 88.1949 133.939C92.4622 134.154 96.2146 131.535 97.614 127.737C99.3689 128.324 100.94 128.869 102.332 129.367C108.263 131.487 109.704 132.463 109.704 132.463C111.919 139.693 110.756 183.567 110.961 191.859C110.978 192.526 110.303 193.012 109.662 193.195C99.8338 195.995 57.9164 194.975 57.6655 193.428C57.5038 192.432 63.1348 173.345 63.3405 170.642C63.0076 159.957 63.866 141.955 63.866 141.955C61.7378 134.203 63.3227 130.73 71.1759 129.002V128.999Z" fill="#FFB522"/>
<path d="M73.505 128.485C65.9217 129.765 62.8862 131.736 60.4548 136.801C56.2434 145.575 43.7591 165.639 47.892 178.325L78.916 176.047L77.3704 131.821C75.6785 131.044 75.0471 129.933 73.5038 128.485H73.505Z" fill="#FFB522"/>
<path d="M82.2391 114.129C82.6588 112.588 87.4825 104.828 87.4825 104.828L87.4884 104.788C88.3504 104.991 89.2612 105.126 90.191 105.141C90.9804 105.155 92.3549 104.563 93.0683 103.786C93.727 103.069 94.8304 102.842 95.8243 103.194L98.9514 104.302C99.8467 104.619 100.795 104.567 101.619 104.219C101.641 104.209 101.661 104.195 101.682 104.185C102.441 103.848 103.091 103.263 103.479 102.464C104.09 101.207 104.874 99.0256 105.239 97.8619C105.532 96.9277 104.808 96.0018 103.837 96.0517C101.876 96.1515 93.0516 98.3362 87.3208 95.4942C82.3033 93.0065 80.5269 93.3512 79.2357 96.9895C79.2357 96.9895 77.4713 108.685 82.2391 114.128V114.129Z" fill="#414168"/>
<path d="M102.907 105.994C102.907 105.994 100.715 118.166 98.652 121.164C96.5903 124.162 91.6204 123.841 87.1641 120.443C82.709 117.044 83.3154 111.458 83.3154 111.458L83.7577 103.152L89.932 94.5547L103.627 100.939L102.906 105.995L102.907 105.994Z" fill="#FFA384"/>
<path d="M84.3572 106.864C84.3572 106.864 82.5547 104.145 80.0019 105.583C77.4492 107.021 80.3479 114.639 84.5224 112.068L84.3572 106.864Z" fill="#FFA384"/>
<path d="M85.3636 89.4523C86.0568 89.1076 86.8094 88.9412 87.5478 89.0173C88.3408 89.0993 89.0875 89.4191 89.8758 89.5308C91.4405 89.7519 93.0468 89.135 94.5211 88.3743C95.9943 87.6136 97.4258 86.6936 98.9857 86.2407C100.422 85.8235 101.933 85.8259 103.326 86.2407C103.36 86.2514 103.396 86.2586 103.43 86.2693C104.426 86.583 105.489 87.339 105.447 88.5038C105.441 88.6512 105.417 88.801 105.392 88.9507C105.336 89.2752 105.269 89.5973 105.357 89.8969C105.524 90.4615 106.133 90.6481 106.652 90.8026C108.033 91.215 109.344 91.9472 110.312 93.0812C111.28 94.2163 111.879 95.7781 111.777 97.3863C111.772 97.4647 111.761 97.5444 111.753 97.624C111.728 97.8344 111.688 98.0448 111.632 98.2504C111.466 98.8554 111.16 99.4117 110.671 99.7314C110.331 99.9549 109.872 100.12 109.789 100.542C109.741 100.786 109.848 101.019 109.941 101.236C110.515 102.586 110.78 104.19 110.387 105.677C110.25 106.196 109.873 106.733 109.478 107.065C109.194 107.303 108.84 107.415 108.493 107.434C108.253 107.447 108.021 107.418 107.798 107.357C106.876 107.103 106.112 106.27 105.576 105.377C104.91 104.27 104.435 102.989 103.553 102.088C103.624 102.503 102.739 103.243 101.812 103.174C101.428 103.145 101.104 102.894 100.801 102.649C98.4792 100.78 96.7207 99.2286 93.8291 98.7365C94.2881 99.1799 94.2798 99.5495 94.1192 99.9192C93.992 100.214 93.7495 100.415 93.4605 100.439C93.1716 100.461 92.9053 100.321 92.6485 100.189C91.5237 99.6114 90.3407 99.1621 89.1208 98.8495C88.726 98.7484 87.5501 98.746 87.5501 98.746C87.0543 100.241 86.87 102.062 86.4836 103.59C85.8856 105.951 83.9166 106.68 83.4184 105.833C83.2282 105.508 83.3923 105.2 83.4113 104.814C83.4565 103.878 83.4232 102.941 83.2722 102.031C83.0332 100.594 83.2555 98.506 82.8798 97.1141C82.5041 95.7222 82.2806 94.2091 82.6587 92.7697C83.0427 91.303 84.1021 90.0799 85.3636 89.4535V89.4523Z" fill="#414168"/>
<path d="M90.9929 115.812C92.2511 114.628 92.3112 112.649 91.1273 111.392C89.9433 110.134 87.9635 110.074 86.7054 111.257C85.4472 112.441 85.387 114.42 86.571 115.678C87.755 116.936 89.7348 116.996 90.9929 115.812Z" fill="#F27E66"/>
<path d="M121.474 175.533H79.138C78.3033 175.533 77.6708 174.783 77.8111 173.96L82.8155 144.626C82.926 143.979 83.4861 143.506 84.1424 143.506H126.478C127.313 143.506 127.946 144.256 127.805 145.078L122.801 174.413C122.69 175.06 122.13 175.533 121.474 175.533Z" fill="#4A4A75"/>
<path d="M89.8605 169.348C89.0187 162.697 87.4017 156.506 84.5446 153.987L81.8408 169.837C84.5303 169.997 87.2221 169.822 89.8605 169.348Z" fill="#4A4A75"/>
<path d="M89.8604 169.347C94.6769 168.481 99.308 166.576 103.373 163.604C109.131 159.394 113.242 153.452 115.333 146.784H85.7738L84.5444 153.987C87.4015 156.506 89.0174 162.697 89.8604 169.347Z" fill="#5F5F99"/>
<path d="M122.755 155.187L119.978 155.093C119.978 155.093 116.7 163.694 117.627 172.256H119.843L122.755 155.187Z" fill="#4A4A75"/>
<path d="M119.978 155.091L122.755 155.185L124.188 146.784H115.333C113.241 153.452 109.131 159.394 103.373 163.604C99.3087 166.576 94.6776 168.481 89.8599 169.347C89.9823 170.31 90.0893 171.283 90.1797 172.255H117.626C116.699 163.692 119.977 155.091 119.977 155.091H119.978Z" fill="#57578C"/>
<path d="M81.8403 169.836L81.4277 172.254H90.181C90.0894 171.282 89.9824 170.311 89.8612 169.347C87.2228 169.821 84.531 169.996 81.8415 169.836H81.8403Z" fill="#4A4A75"/>
<path d="M107.326 160.224C106.918 162.536 104.714 164.409 102.401 164.409C100.089 164.409 98.5452 162.536 98.953 160.224C99.3609 157.912 101.565 156.039 103.878 156.039C106.19 156.039 107.734 157.912 107.326 160.224Z" fill="#4B80E0"/>
<path d="M129.62 150.885C128.811 149.988 126.079 150.519 124.03 150.716L124.068 150.719C122.846 150.769 121.695 151.084 120.944 152.007C120.254 152.856 120.103 154.006 119.978 155.093C119.61 158.316 119.24 161.555 119.379 164.797C119.435 166.096 119.586 167.434 120.222 168.567C120.859 169.701 122.084 170.439 123.385 170.463C125.183 170.496 125.974 170.148 126.739 168.519C128.608 164.539 130.786 158.666 130.677 154.269C130.647 153.062 130.428 151.783 129.62 150.884V150.885Z" fill="#FFA384"/>
<path d="M77.7913 156.999L74.2708 154.875L72.435 162.927L70.5742 164.894L75.8735 171.63L81.9623 166.226L77.7913 156.999Z" fill="#DB7560"/>
<path d="M84.85 163.246C84.5777 159.695 84.3054 156.145 84.0331 152.596C83.9939 152.09 83.9428 151.546 83.6562 151.159C83.2674 150.63 82.5945 150.58 82.0059 150.612C80.1725 150.712 78.0989 151.082 76.281 151.862C75.0825 152.378 74.1254 153.579 74.2692 154.876C74.7341 159.04 76.363 162.99 77.0384 166.734C77.4272 168.894 77.8516 169.878 80.0441 169.769C80.0607 169.769 80.0774 169.768 80.094 169.766C81.7503 169.671 83.5825 169.153 84.4231 167.497C85.0521 166.258 84.9605 164.698 84.8488 163.247L84.85 163.246Z" fill="#FFA384"/>
<path d="M77.2717 171.058C74.1292 166.235 71.9688 160.987 71.9688 160.987C64.9301 165.752 52.0308 163.832 48.1072 167.897C46.4985 169.563 46.7339 179.525 48.3402 182.684C49.8859 185.723 52.3947 186.824 55.3172 187.267C58.2397 187.711 61.7567 186.528 63.684 185.322C69.6967 181.553 72.9616 176.545 77.2728 171.06L77.2717 171.058Z" fill="#FFB522"/>
<path d="M52.4234 170.591C52.2236 170.591 52.0322 170.482 51.9359 170.291C51.8003 170.021 51.9085 169.693 52.1784 169.557C54.3293 168.476 56.8749 167.437 59.5703 166.338C63.9208 164.564 68.4222 162.73 71.6622 160.534C71.9119 160.366 72.2519 160.43 72.4208 160.681C72.5896 160.93 72.5242 161.27 72.2745 161.439C68.9395 163.697 64.3857 165.554 59.9817 167.35C57.3077 168.441 54.7811 169.47 52.6683 170.534C52.5898 170.573 52.5066 170.592 52.4234 170.592V170.591Z" fill="#FC9D35"/>
<path d="M59.6758 187.51C59.4309 187.51 59.2074 187.344 59.1456 187.096C59.073 186.804 59.2514 186.507 59.5439 186.433C60.9516 186.082 62.3546 185.508 63.3938 184.857C68.3899 181.726 71.4016 177.797 74.89 173.246C75.5249 172.417 76.1705 171.574 76.8411 170.721C77.029 170.483 77.3714 170.444 77.6092 170.629C77.847 170.816 77.8874 171.16 77.702 171.397C77.0326 172.248 76.3905 173.086 75.758 173.911C72.3527 178.353 69.1366 182.549 63.974 185.784C62.8409 186.494 61.3238 187.117 59.809 187.495C59.7638 187.505 59.7198 187.51 59.677 187.51H59.6758Z" fill="#FC9D35"/>
<path d="M75.4965 173.899C75.3728 173.899 75.248 173.858 75.1469 173.772C71.7916 170.967 69.057 163.468 68.9416 163.151C68.8394 162.867 68.9868 162.554 69.271 162.451C69.5587 162.348 69.8678 162.495 69.9713 162.779C69.9974 162.853 72.7202 170.317 75.8472 172.933C76.0791 173.127 76.11 173.471 75.9162 173.703C75.8068 173.833 75.6522 173.899 75.4965 173.899Z" fill="#FC9D35"/>
<path d="M88.7651 138.269C88.6497 138.269 88.5356 138.267 88.4215 138.264C82.8166 138.127 77.7325 134.714 75.4675 129.567C75.3463 129.291 75.4723 128.968 75.7481 128.847C76.0252 128.727 76.3474 128.85 76.4687 129.127C78.5636 133.887 83.2649 137.044 88.4464 137.17C93.5353 137.293 98.3352 134.453 100.695 129.931C100.836 129.663 101.166 129.561 101.432 129.699C101.699 129.839 101.803 130.168 101.664 130.436C99.1674 135.221 94.1309 138.266 88.7651 138.266V138.269Z" fill="#FC9D35"/>
<path d="M68.1781 163.285C68.1436 163.285 68.1091 163.282 68.0735 163.276C67.7774 163.219 67.5836 162.932 67.6395 162.637C68.3445 158.971 69.1281 155.272 69.9723 151.643C70.04 151.349 70.3325 151.163 70.6286 151.235C70.9223 151.303 71.1054 151.597 71.0376 151.891C70.197 155.506 69.4146 159.191 68.7131 162.843C68.6632 163.105 68.4337 163.287 68.1769 163.287L68.1781 163.285Z" fill="#FC9D35"/>
<path d="M68.4112 155.466C68.3851 155.466 68.3601 155.464 68.3339 155.461C68.0355 155.419 67.8274 155.144 67.869 154.845C67.9642 154.163 67.6919 153.427 67.1747 152.971C66.9488 152.771 66.9274 152.425 67.1271 152.199C67.3292 151.971 67.674 151.953 67.8988 152.152C68.6954 152.855 69.0973 153.944 68.951 154.996C68.913 155.27 68.6787 155.467 68.4112 155.467V155.466Z" fill="#FC9D35"/>
<path d="M110.463 188.018H110.461C110.159 188.018 109.915 187.771 109.916 187.47C109.931 183.771 110.185 180.042 110.666 176.384C110.706 176.085 110.98 175.872 111.28 175.915C111.578 175.954 111.79 176.228 111.751 176.528C111.275 180.139 111.024 183.822 111.009 187.475C111.009 187.776 110.763 188.019 110.462 188.019L110.463 188.018Z" fill="#FC9D35"/>
</svg>
