<svg width="1228" height="770" viewBox="0 0 1228 770" fill="none" xmlns="http://www.w3.org/2000/svg">
<path d="M5.02115 37.489C5.02115 36.1022 3.89712 34.9779 2.51057 34.9779C1.12402 34.9779 1.70377e-07 36.1022 1.09758e-07 37.489C4.91396e-08 38.8758 1.12402 40 2.51057 40C3.89712 40 5.02115 38.8758 5.02115 37.489Z" fill="#ED972B"/>
<path d="M5.02115 19.4674C5.02115 18.0806 3.89712 16.9565 2.51057 16.9565C1.12402 16.9565 1.70381e-07 18.0806 1.09763e-07 19.4674C4.9144e-08 20.8542 1.12402 21.9785 2.51057 21.9785C3.89712 21.9785 5.02115 20.8542 5.02115 19.4674Z" fill="#ED972B"/>
<path d="M5.02115 2.51138C5.02115 1.12459 3.89712 0.000402621 2.51057 0.00040256C1.12402 0.0004025 1.70381e-07 1.12459 1.09763e-07 2.51138C4.9144e-08 3.89818 1.12402 5.02246 2.51057 5.02246C3.89712 5.02246 5.02115 3.89818 5.02115 2.51138Z" fill="#ED972B"/>
<path d="M20.5163 19.4577C20.5163 18.0709 19.3922 16.9467 18.0057 16.9467C16.6191 16.9467 15.4951 18.0709 15.4951 19.4577C15.4951 20.8445 16.6191 21.9688 18.0057 21.9688C19.3922 21.9688 20.5163 20.8445 20.5163 19.4577Z" fill="#ED972B"/>
<path d="M20.5163 2.51139C20.5163 1.12459 19.3922 0.000415019 18.0057 0.000414958C16.6191 0.000414897 15.4951 1.12459 15.4951 2.51139C15.4951 3.89818 16.6191 5.02246 18.0057 5.02246C19.3922 5.02246 20.5163 3.89818 20.5163 2.51139Z" fill="#ED972B"/>
<path d="M38.0002 2.51138C38.0002 1.12459 36.8761 0.000402621 35.4896 0.00040256C34.103 0.0004025 32.979 1.12459 32.979 2.51138C32.979 3.89818 34.103 5.02246 35.4896 5.02246C36.8761 5.02246 38.0002 3.89818 38.0002 2.51138Z" fill="#ED972B"/>
<path d="M1222.98 37.489C1222.98 36.1022 1224.1 34.9779 1225.49 34.9779C1226.88 34.9779 1228 36.1022 1228 37.489C1228 38.8758 1226.88 40 1225.49 40C1224.1 40 1222.98 38.8758 1222.98 37.489Z" fill="#ED972B"/>
<path d="M1222.98 19.4674C1222.98 18.0806 1224.1 16.9565 1225.49 16.9565C1226.88 16.9565 1228 18.0806 1228 19.4674C1228 20.8542 1226.88 21.9785 1225.49 21.9785C1224.1 21.9785 1222.98 20.8542 1222.98 19.4674Z" fill="#ED972B"/>
<path d="M1222.98 2.51138C1222.98 1.12459 1224.1 0.000402621 1225.49 0.00040256C1226.88 0.0004025 1228 1.12459 1228 2.51138C1228 3.89818 1226.88 5.02246 1225.49 5.02246C1224.1 5.02246 1222.98 3.89818 1222.98 2.51138Z" fill="#ED972B"/>
<path d="M1207.48 19.4577C1207.48 18.0709 1208.61 16.9467 1209.99 16.9467C1211.38 16.9467 1212.5 18.0709 1212.5 19.4577C1212.5 20.8445 1211.38 21.9688 1209.99 21.9688C1208.61 21.9688 1207.48 20.8445 1207.48 19.4577Z" fill="#ED972B"/>
<path d="M1207.48 2.51139C1207.48 1.12459 1208.61 0.000415019 1209.99 0.000414958C1211.38 0.000414897 1212.5 1.12459 1212.5 2.51139C1212.5 3.89818 1211.38 5.02246 1209.99 5.02246C1208.61 5.02246 1207.48 3.89818 1207.48 2.51139Z" fill="#ED972B"/>
<path d="M1190 2.51138C1190 1.12459 1191.12 0.000402621 1192.51 0.00040256C1193.9 0.0004025 1195.02 1.12459 1195.02 2.51138C1195.02 3.89818 1193.9 5.02246 1192.51 5.02246C1191.12 5.02246 1190 3.89818 1190 2.51138Z" fill="#ED972B"/>
<path d="M5.02115 732.511C5.02115 733.898 3.89712 735.022 2.51057 735.022C1.12402 735.022 1.70377e-07 733.898 1.09758e-07 732.511C4.91396e-08 731.124 1.12402 730 2.51057 730C3.89712 730 5.02115 731.124 5.02115 732.511Z" fill="#ED972B"/>
<path d="M5.02115 750.533C5.02115 751.919 3.89712 753.044 2.51057 753.044C1.12402 753.044 1.70381e-07 751.919 1.09763e-07 750.533C4.9144e-08 749.146 1.12402 748.021 2.51057 748.021C3.89712 748.021 5.02115 749.146 5.02115 750.533Z" fill="#ED972B"/>
<path d="M5.02115 767.489C5.02115 768.875 3.89712 770 2.51057 770C1.12402 770 1.70381e-07 768.875 1.09763e-07 767.489C4.9144e-08 766.102 1.12402 764.978 2.51057 764.978C3.89712 764.978 5.02115 766.102 5.02115 767.489Z" fill="#ED972B"/>
<path d="M20.5163 750.542C20.5163 751.929 19.3922 753.053 18.0057 753.053C16.6191 753.053 15.4951 751.929 15.4951 750.542C15.4951 749.156 16.6191 748.031 18.0057 748.031C19.3922 748.031 20.5163 749.156 20.5163 750.542Z" fill="#ED972B"/>
<path d="M20.5163 767.489C20.5163 768.875 19.3922 770 18.0057 770C16.6191 770 15.4951 768.875 15.4951 767.489C15.4951 766.102 16.6191 764.978 18.0057 764.978C19.3922 764.978 20.5163 766.102 20.5163 767.489Z" fill="#ED972B"/>
<path d="M38.0002 767.489C38.0002 768.875 36.8761 770 35.4896 770C34.103 770 32.979 768.875 32.979 767.489C32.979 766.102 34.103 764.978 35.4896 764.978C36.8761 764.978 38.0002 766.102 38.0002 767.489Z" fill="#ED972B"/>
<path d="M1222.98 732.511C1222.98 733.898 1224.1 735.022 1225.49 735.022C1226.88 735.022 1228 733.898 1228 732.511C1228 731.124 1226.88 730 1225.49 730C1224.1 730 1222.98 731.124 1222.98 732.511Z" fill="#ED972B"/>
<path d="M1222.98 750.533C1222.98 751.919 1224.1 753.044 1225.49 753.044C1226.88 753.044 1228 751.919 1228 750.533C1228 749.146 1226.88 748.021 1225.49 748.021C1224.1 748.021 1222.98 749.146 1222.98 750.533Z" fill="#ED972B"/>
<path d="M1222.98 767.489C1222.98 768.875 1224.1 770 1225.49 770C1226.88 770 1228 768.875 1228 767.489C1228 766.102 1226.88 764.978 1225.49 764.978C1224.1 764.978 1222.98 766.102 1222.98 767.489Z" fill="#ED972B"/>
<path d="M1207.48 750.542C1207.48 751.929 1208.61 753.053 1209.99 753.053C1211.38 753.053 1212.5 751.929 1212.5 750.542C1212.5 749.156 1211.38 748.031 1209.99 748.031C1208.61 748.031 1207.48 749.156 1207.48 750.542Z" fill="#ED972B"/>
<path d="M1207.48 767.489C1207.48 768.875 1208.61 770 1209.99 770C1211.38 770 1212.5 768.875 1212.5 767.489C1212.5 766.102 1211.38 764.978 1209.99 764.978C1208.61 764.978 1207.48 766.102 1207.48 767.489Z" fill="#ED972B"/>
<path d="M1190 767.489C1190 768.875 1191.12 770 1192.51 770C1193.9 770 1195.02 768.875 1195.02 767.489C1195.02 766.102 1193.9 764.978 1192.51 764.978C1191.12 764.978 1190 766.102 1190 767.489Z" fill="#ED972B"/>
</svg>
