<svg width="48" height="48" viewBox="0 0 48 48" fill="none" xmlns="http://www.w3.org/2000/svg">
<path d="M41.6138 26.8033C41.3549 27.3767 40.9749 27.8873 40.5 28.3C40.112 28.63 39.66 28.89 39.154 29.06C34.2664 30.6817 29.1496 31.5056 24 31.5C18.704 31.5 13.61 30.642 8.846 29.06C8.35252 28.8958 7.89546 28.6378 7.5 28.3C7.02509 27.8873 6.64512 27.3767 6.3862 26.8033M24 25.5H24.016V25.516H24V25.5Z" stroke="#ED972B" stroke-width="1.5" stroke-linecap="round" stroke-linejoin="round"/>
<circle cx="24.5" cy="25.5" r="1" fill="#ED972B" stroke="#ED972B"/>
<path d="M31.5 12.288C33.7838 12.4647 36.0606 12.7228 38.326 13.062C40.464 13.382 42 15.25 42 17.412V24.978C42.0045 25.6072 41.8727 26.2298 41.6138 26.8033C41.3549 27.3767 40.9749 27.8873 40.5 28.3V36.8C40.5 38.988 38.926 40.872 36.756 41.16C32.582 41.714 28.324 42 24 42C19.676 42 15.418 41.714 11.244 41.16C9.074 40.872 7.5 38.988 7.5 36.8V28.3C7.02509 27.8873 6.64513 27.3767 6.3862 26.8033C6.12728 26.2298 5.99553 25.6072 6 24.978V17.412C6 15.25 7.536 13.382 9.674 13.062C11.9394 12.7228 14.2162 12.4647 16.5 12.288M31.5 12.288V10.5C31.5 9.30653 31.0259 8.16193 30.182 7.31802C29.3381 6.47411 28.1935 6 27 6H21C19.8065 6 18.6619 6.47411 17.818 7.31802C16.9741 8.16193 16.5 9.30653 16.5 10.5V12.288M31.5 12.288C26.5074 11.9022 21.4926 11.9022 16.5 12.288" stroke="#009D89" stroke-width="1.5" stroke-linecap="round" stroke-linejoin="round"/>
</svg>
