<svg width="48" height="48" viewBox="0 0 48 48" fill="none" xmlns="http://www.w3.org/2000/svg">
<path d="M40.5 15V42M28.5 15H42M34.5 22.5H34.516V22.516H34.5V22.5ZM34.5 28.5H34.516V28.516H34.5V28.5ZM34.5 34.5H34.516V34.516H34.5V34.5Z" stroke="#ED972B" stroke-width="1.5" stroke-linecap="round" stroke-linejoin="round"/>
<path d="M4.5 42H43.5M7.5 6V42M28.5 6V42M13.5 13.5H15M13.5 19.5H15M13.5 25.5H15M21 13.5H22.5M21 19.5H22.5M21 25.5H22.5M13.5 42V35.25C13.5 34.008 14.508 33 15.75 33H20.25C21.492 33 22.5 34.008 22.5 35.25V42M6 6H30" stroke="#009D89" stroke-width="1.5" stroke-linecap="round" stroke-linejoin="round"/>
</svg>
