<svg width="1356" height="971" viewBox="0 0 1356 971" fill="none" xmlns="http://www.w3.org/2000/svg">
<path d="M19.9944 0.858398H0.854126V20.006H19.9944V0.858398Z" stroke="#ED972B" stroke-width="0.60743" stroke-miterlimit="10"/>
<path d="M19.9944 20.0098H0.854126V39.1574H19.9944V20.0098Z" stroke="#ED972B" stroke-width="0.60743" stroke-miterlimit="10"/>
<path d="M39.1384 0.858398H19.9982V20.006H39.1384V0.858398Z" stroke="#ED972B" stroke-width="0.60743" stroke-miterlimit="10"/>
<path d="M1.71656 0.858281C1.71656 1.02803 1.66621 1.19397 1.57191 1.33511C1.4776 1.47626 1.34355 1.58626 1.18672 1.65122C1.02989 1.71618 0.85734 1.73319 0.69085 1.70007C0.524361 1.66695 0.371412 1.5852 0.25138 1.46517C0.131348 1.34514 0.0496095 1.19221 0.0164927 1.02572C-0.0166241 0.859236 0.000369669 0.686658 0.0653306 0.529829C0.130292 0.372999 0.240307 0.238955 0.38145 0.144646C0.522593 0.0503375 0.68852 0 0.858271 0C1.0859 0 1.30423 0.0904314 1.46519 0.251389C1.62614 0.412348 1.71656 0.630652 1.71656 0.858281Z" fill="#ED972B"/>
<path d="M20.8568 0.858281C20.8568 1.02803 20.8065 1.19397 20.7122 1.33511C20.6179 1.47626 20.4838 1.58626 20.327 1.65122C20.1702 1.71618 19.9976 1.73319 19.8311 1.70007C19.6646 1.66695 19.5117 1.5852 19.3916 1.46517C19.2716 1.34514 19.1899 1.19221 19.1568 1.02572C19.1236 0.859236 19.1406 0.686658 19.2056 0.529829C19.2706 0.372999 19.3806 0.238955 19.5217 0.144646C19.6629 0.0503375 19.8288 0 19.9985 0C20.2262 0 20.4445 0.0904314 20.6054 0.251389C20.7664 0.412348 20.8568 0.630652 20.8568 0.858281Z" fill="#ED972B"/>
<path d="M40.0008 0.858289C40.0016 1.02913 39.9516 1.19634 39.8572 1.3387C39.7627 1.48107 39.6281 1.59216 39.4704 1.65789C39.3127 1.72362 39.1391 1.74102 38.9715 1.70788C38.8039 1.67474 38.6499 1.59255 38.5291 1.47175C38.4083 1.35094 38.3261 1.19698 38.293 1.02939C38.2598 0.861793 38.2772 0.688125 38.343 0.530437C38.4087 0.372748 38.5198 0.238142 38.6622 0.143703C38.8045 0.0492651 38.9717 -0.000752425 39.1426 8.55588e-06C39.2553 8.55588e-06 39.3669 0.0222165 39.471 0.0653489C39.5751 0.108481 39.6698 0.1717 39.7495 0.251398C39.8292 0.331096 39.8924 0.425707 39.9355 0.529837C39.9787 0.633968 40.0008 0.745579 40.0008 0.858289Z" fill="#ED972B"/>
<path d="M1.71656 20.0096C1.71656 20.1794 1.66621 20.3453 1.57191 20.4865C1.4776 20.6276 1.34355 20.7376 1.18672 20.8026C1.02989 20.8675 0.85734 20.8845 0.69085 20.8514C0.524361 20.8183 0.371412 20.7366 0.25138 20.6165C0.131348 20.4965 0.0496095 20.3436 0.0164927 20.1771C-0.0166241 20.0106 0.000369669 19.838 0.0653306 19.6812C0.130292 19.5244 0.240307 19.3903 0.38145 19.296C0.522593 19.2017 0.68852 19.1514 0.858271 19.1514C1.0859 19.1514 1.30423 19.2418 1.46519 19.4028C1.62614 19.5637 1.71656 19.782 1.71656 20.0096Z" fill="#ED972B"/>
<path d="M20.8568 20.0096C20.8568 20.1794 20.8065 20.3453 20.7122 20.4865C20.6179 20.6276 20.4838 20.7376 20.327 20.8026C20.1702 20.8675 19.9976 20.8845 19.8311 20.8514C19.6646 20.8183 19.5117 20.7366 19.3916 20.6165C19.2716 20.4965 19.1899 20.3436 19.1568 20.1771C19.1236 20.0106 19.1406 19.838 19.2056 19.6812C19.2706 19.5244 19.3806 19.3903 19.5217 19.296C19.6629 19.2017 19.8288 19.1514 19.9985 19.1514C20.2262 19.1514 20.4445 19.2418 20.6054 19.4028C20.7664 19.5637 20.8568 19.782 20.8568 20.0096Z" fill="#ED972B"/>
<path d="M1.71656 39.1415C1.71656 39.3112 1.66621 39.4772 1.57191 39.6183C1.4776 39.7595 1.34355 39.8695 1.18672 39.9344C1.02989 39.9994 0.85734 40.0164 0.69085 39.9833C0.524361 39.9502 0.371412 39.8684 0.25138 39.7484C0.131348 39.6283 0.0496095 39.4754 0.0164927 39.3089C-0.0166241 39.1424 0.000369669 38.9699 0.0653306 38.813C0.130292 38.6562 0.240307 38.5222 0.38145 38.4278C0.522593 38.3335 0.68852 38.2832 0.858271 38.2832C1.0859 38.2832 1.30423 38.3736 1.46519 38.5346C1.62614 38.6956 1.71656 38.9139 1.71656 39.1415Z" fill="#ED972B"/>
<path d="M20.8568 39.1415C20.8568 39.3112 20.8065 39.4772 20.7122 39.6183C20.6179 39.7595 20.4838 39.8695 20.327 39.9344C20.1702 39.9994 19.9976 40.0164 19.8311 39.9833C19.6646 39.9502 19.5117 39.8684 19.3916 39.7484C19.2716 39.6283 19.1899 39.4754 19.1568 39.3089C19.1236 39.1424 19.1406 38.9699 19.2056 38.813C19.2706 38.6562 19.3806 38.5222 19.5217 38.4278C19.6629 38.3335 19.8288 38.2832 19.9985 38.2832C20.2262 38.2832 20.4445 38.3736 20.6054 38.5346C20.7664 38.6956 20.8568 38.9139 20.8568 39.1415Z" fill="#ED972B"/>
<path d="M40.0008 20.0097C40.0016 20.1805 39.9516 20.3477 39.8572 20.4901C39.7627 20.6324 39.6281 20.7435 39.4704 20.8093C39.3127 20.875 39.1391 20.8924 38.9715 20.8592C38.8039 20.8261 38.6499 20.7439 38.5291 20.6231C38.4083 20.5023 38.3261 20.3483 38.293 20.1807C38.2598 20.0131 38.2772 19.8395 38.343 19.6818C38.4087 19.5241 38.5198 19.3895 38.6622 19.2951C38.8045 19.2006 38.9717 19.1506 39.1426 19.1514C39.2553 19.1514 39.3669 19.1736 39.471 19.2167C39.5751 19.2598 39.6698 19.3231 39.7495 19.4028C39.8292 19.4825 39.8924 19.5771 39.9355 19.6812C39.9787 19.7853 40.0008 19.8969 40.0008 20.0097Z" fill="#ED972B"/>
<path d="M1212.01 0.858398H1231.15V20.006H1212.01V0.858398Z" stroke="#ED972B" stroke-width="0.60743" stroke-miterlimit="10"/>
<path d="M1212.01 20.0098H1231.15V39.1574H1212.01V20.0098Z" stroke="#ED972B" stroke-width="0.60743" stroke-miterlimit="10"/>
<path d="M1192.86 0.858398H1212V20.006H1192.86V0.858398Z" stroke="#ED972B" stroke-width="0.60743" stroke-miterlimit="10"/>
<path d="M1230.28 0.858281C1230.28 1.02803 1230.33 1.19397 1230.43 1.33511C1230.52 1.47626 1230.66 1.58626 1230.81 1.65122C1230.97 1.71618 1231.14 1.73319 1231.31 1.70007C1231.48 1.66695 1231.63 1.5852 1231.75 1.46517C1231.87 1.34514 1231.95 1.19221 1231.98 1.02572C1232.02 0.859236 1232 0.686658 1231.94 0.529829C1231.87 0.372999 1231.76 0.238955 1231.62 0.144646C1231.48 0.0503375 1231.31 0 1231.14 0C1230.91 0 1230.7 0.0904314 1230.54 0.251389C1230.37 0.412348 1230.28 0.630652 1230.28 0.858281Z" fill="#ED972B"/>
<path d="M1211.14 0.858281C1211.14 1.02803 1211.19 1.19397 1211.29 1.33511C1211.38 1.47626 1211.52 1.58626 1211.67 1.65122C1211.83 1.71618 1212 1.73319 1212.17 1.70007C1212.34 1.66695 1212.49 1.5852 1212.61 1.46517C1212.73 1.34514 1212.81 1.19221 1212.84 1.02572C1212.88 0.859236 1212.86 0.686658 1212.8 0.529829C1212.73 0.372999 1212.62 0.238955 1212.48 0.144646C1212.34 0.0503375 1212.17 0 1212 0C1211.77 0 1211.56 0.0904314 1211.4 0.251389C1211.23 0.412348 1211.14 0.630652 1211.14 0.858281Z" fill="#ED972B"/>
<path d="M1192 0.858289C1192 1.02913 1192.05 1.19634 1192.14 1.3387C1192.24 1.48107 1192.37 1.59216 1192.53 1.65789C1192.69 1.72362 1192.86 1.74102 1193.03 1.70788C1193.2 1.67474 1193.35 1.59255 1193.47 1.47175C1193.59 1.35094 1193.67 1.19698 1193.71 1.02939C1193.74 0.861793 1193.72 0.688125 1193.66 0.530437C1193.59 0.372748 1193.48 0.238142 1193.34 0.143703C1193.2 0.0492651 1193.03 -0.000752425 1192.86 8.55588e-06C1192.75 8.55588e-06 1192.63 0.0222165 1192.53 0.0653489C1192.43 0.108481 1192.33 0.1717 1192.25 0.251398C1192.17 0.331096 1192.11 0.425707 1192.07 0.529837C1192.02 0.633968 1192 0.745579 1192 0.858289Z" fill="#ED972B"/>
<path d="M1230.28 20.0096C1230.28 20.1794 1230.33 20.3453 1230.43 20.4865C1230.52 20.6276 1230.66 20.7376 1230.81 20.8026C1230.97 20.8675 1231.14 20.8845 1231.31 20.8514C1231.48 20.8183 1231.63 20.7366 1231.75 20.6165C1231.87 20.4965 1231.95 20.3436 1231.98 20.1771C1232.02 20.0106 1232 19.838 1231.94 19.6812C1231.87 19.5244 1231.76 19.3903 1231.62 19.296C1231.48 19.2017 1231.31 19.1514 1231.14 19.1514C1230.91 19.1514 1230.7 19.2418 1230.54 19.4028C1230.37 19.5637 1230.28 19.782 1230.28 20.0096Z" fill="#ED972B"/>
<path d="M1211.14 20.0096C1211.14 20.1794 1211.19 20.3453 1211.29 20.4865C1211.38 20.6276 1211.52 20.7376 1211.67 20.8026C1211.83 20.8675 1212 20.8845 1212.17 20.8514C1212.34 20.8183 1212.49 20.7366 1212.61 20.6165C1212.73 20.4965 1212.81 20.3436 1212.84 20.1771C1212.88 20.0106 1212.86 19.838 1212.8 19.6812C1212.73 19.5244 1212.62 19.3903 1212.48 19.296C1212.34 19.2017 1212.17 19.1514 1212 19.1514C1211.77 19.1514 1211.56 19.2418 1211.4 19.4028C1211.23 19.5637 1211.14 19.782 1211.14 20.0096Z" fill="#ED972B"/>
<path d="M1230.28 39.1415C1230.28 39.3112 1230.33 39.4772 1230.43 39.6183C1230.52 39.7595 1230.66 39.8695 1230.81 39.9344C1230.97 39.9994 1231.14 40.0164 1231.31 39.9833C1231.48 39.9502 1231.63 39.8684 1231.75 39.7484C1231.87 39.6283 1231.95 39.4754 1231.98 39.3089C1232.02 39.1424 1232 38.9699 1231.94 38.813C1231.87 38.6562 1231.76 38.5222 1231.62 38.4278C1231.48 38.3335 1231.31 38.2832 1231.14 38.2832C1230.91 38.2832 1230.7 38.3736 1230.54 38.5346C1230.37 38.6956 1230.28 38.9139 1230.28 39.1415Z" fill="#ED972B"/>
<path d="M1211.14 39.1415C1211.14 39.3112 1211.19 39.4772 1211.29 39.6183C1211.38 39.7595 1211.52 39.8695 1211.67 39.9344C1211.83 39.9994 1212 40.0164 1212.17 39.9833C1212.34 39.9502 1212.49 39.8684 1212.61 39.7484C1212.73 39.6283 1212.81 39.4754 1212.84 39.3089C1212.88 39.1424 1212.86 38.9699 1212.8 38.813C1212.73 38.6562 1212.62 38.5222 1212.48 38.4278C1212.34 38.3335 1212.17 38.2832 1212 38.2832C1211.77 38.2832 1211.56 38.3736 1211.4 38.5346C1211.23 38.6956 1211.14 38.9139 1211.14 39.1415Z" fill="#ED972B"/>
<path d="M1192 20.0097C1192 20.1805 1192.05 20.3477 1192.14 20.4901C1192.24 20.6324 1192.37 20.7435 1192.53 20.8093C1192.69 20.875 1192.86 20.8924 1193.03 20.8592C1193.2 20.8261 1193.35 20.7439 1193.47 20.6231C1193.59 20.5023 1193.67 20.3483 1193.71 20.1807C1193.74 20.0131 1193.72 19.8395 1193.66 19.6818C1193.59 19.5241 1193.48 19.3895 1193.34 19.2951C1193.2 19.2006 1193.03 19.1506 1192.86 19.1514C1192.75 19.1514 1192.63 19.1736 1192.53 19.2167C1192.43 19.2598 1192.33 19.3231 1192.25 19.4028C1192.17 19.4825 1192.11 19.5771 1192.07 19.6812C1192.02 19.7853 1192 19.8969 1192 20.0097Z" fill="#ED972B"/>
<g opacity="0.6" clip-path="url(#clip0_2001_3056)">
<path d="M1541.72 707.609L1561.9 672.654L1561.85 672.565L1541.72 637.699L1541.62 637.698L1514.39 637.699L1521.17 625.959L1521.12 625.869L1501.1 591.174L1521.27 556.226L1521.22 556.136L1521.07 555.874L1541.1 521.186L1541.05 521.099L1520.92 486.231L1520.81 486.232L1481.32 486.231L1461.62 452.115L1481.8 417.165L1481.74 417.078L1461.62 382.21L1461.51 382.211L1421.25 382.209L1401.07 417.159L1360.92 417.159L1340.74 452.109L1325.56 452.11L1329.68 444.973L1329.63 444.886L1309.51 410.023L1309.41 410.023L1269.15 410.023L1250.96 441.53C1250.06 441.064 1249.01 440.968 1248.04 441.264C1247.07 441.561 1246.25 442.225 1245.76 443.116C1245.27 444.006 1245.15 445.053 1245.43 446.03C1245.7 447.008 1246.35 447.84 1247.23 448.347C1248.11 448.855 1249.15 448.998 1250.13 448.747C1251.12 448.495 1251.96 447.869 1252.49 447.001C1253.02 446.134 1253.19 445.094 1252.96 444.105C1252.73 443.116 1252.12 442.255 1251.27 441.708L1269.35 410.378L1309.31 410.382L1329.3 444.986L1325.18 452.114L1300.6 452.118L1280.42 487.069L1240.24 487.059L1221.12 520.179C1220.65 519.959 1220.11 519.93 1219.62 520.097C1219.12 520.265 1218.71 520.617 1218.47 521.079C1218.23 521.541 1218.18 522.079 1218.33 522.579C1218.47 523.079 1218.81 523.504 1219.26 523.764C1219.71 524.025 1220.24 524.101 1220.75 523.977C1221.26 523.854 1221.69 523.539 1221.97 523.1C1222.25 522.661 1222.35 522.13 1222.25 521.619C1222.15 521.108 1221.86 520.656 1221.43 520.356L1240.45 487.413L1280.41 487.417L1292.6 508.522L1283.16 524.87C1282.68 524.65 1282.14 524.621 1281.65 524.788C1281.16 524.956 1280.75 525.308 1280.51 525.771C1280.27 526.234 1280.21 526.771 1280.36 527.272C1280.5 527.773 1280.84 528.198 1281.29 528.459C1281.74 528.719 1282.28 528.796 1282.78 528.672C1283.29 528.548 1283.73 528.233 1284.01 527.794C1284.29 527.354 1284.39 526.823 1284.29 526.311C1284.19 525.8 1283.89 525.347 1283.46 525.048L1292.8 508.883L1300.38 522.024L1283.31 551.595C1282.41 551.128 1281.36 551.033 1280.39 551.329C1279.42 551.625 1278.6 552.29 1278.11 553.18C1277.63 554.071 1277.51 555.117 1277.78 556.095C1278.05 557.072 1278.7 557.904 1279.58 558.412C1280.46 558.919 1281.5 559.063 1282.49 558.811C1283.47 558.56 1284.32 557.933 1284.84 557.066C1285.37 556.198 1285.54 555.159 1285.31 554.169C1285.08 553.18 1284.47 552.32 1283.62 551.773L1300.8 522.018L1340.75 522.022L1352.58 542.512L1343.76 557.774C1342.77 557.435 1341.68 557.498 1340.74 557.95C1339.79 558.403 1339.06 559.208 1338.69 560.194C1338.33 561.18 1338.37 562.268 1338.8 563.225C1339.23 564.183 1340.02 564.934 1341 565.317C1341.98 565.7 1343.07 565.686 1344.03 565.276C1345 564.867 1345.77 564.095 1346.17 563.126C1346.58 562.158 1346.59 561.069 1346.2 560.093C1345.81 559.117 1345.06 558.332 1344.1 557.905L1352.78 542.874L1360.36 556.014L1360.23 556.253L1360.28 556.343L1375.39 582.508L1375.49 582.508L1405.71 582.507L1420.68 556.579L1440.56 556.578L1460.54 591.191L1448.68 611.717L1441.64 599.529L1441.54 599.53L1402.5 599.516C1402.53 599.005 1402.35 598.505 1402.02 598.12C1401.68 597.734 1401.21 597.493 1400.7 597.447C1400.19 597.4 1399.68 597.551 1399.28 597.87C1398.88 598.188 1398.62 598.648 1398.55 599.154C1398.48 599.66 1398.61 600.174 1398.91 600.588C1399.21 601.002 1399.66 601.285 1400.16 601.377C1400.66 601.469 1401.18 601.364 1401.61 601.084C1402.04 600.803 1402.34 600.368 1402.45 599.87L1441.43 599.871L1448.47 612.059L1440.55 625.782L1400.39 625.782L1400.25 626.023L1400.2 625.938L1400.01 626.045L1380.14 591.648L1380.04 591.646L1341.11 591.646L1341.25 591.569L1321.22 556.888L1330.2 541.325C1330.67 541.545 1331.21 541.574 1331.71 541.407C1332.2 541.239 1332.61 540.887 1332.85 540.425C1333.09 539.963 1333.14 539.425 1333 538.925C1332.85 538.425 1332.52 538 1332.07 537.74C1331.62 537.479 1331.08 537.403 1330.58 537.527C1330.07 537.65 1329.63 537.965 1329.35 538.404C1329.07 538.843 1328.97 539.374 1329.07 539.885C1329.17 540.396 1329.47 540.848 1329.89 541.148L1320.81 556.88L1320.86 556.969L1340.89 591.647L1339.88 591.647L1324.71 591.648L1317.65 579.401L1317.54 579.402L1279.65 579.408C1279.73 578.897 1279.6 578.378 1279.3 577.959C1279 577.539 1278.54 577.253 1278.04 577.158C1277.53 577.063 1277.01 577.167 1276.57 577.449C1276.14 577.73 1275.83 578.168 1275.71 578.671C1275.6 579.173 1275.68 579.702 1275.94 580.147C1276.2 580.592 1276.62 580.919 1277.12 581.059C1277.62 581.2 1278.15 581.144 1278.61 580.903C1279.06 580.662 1279.41 580.254 1279.57 579.764L1317.44 579.763L1324.3 591.647L1299.62 591.647L1272.01 639.476L1264.33 626.188L1274.8 626.183C1274.9 626.693 1275.18 627.147 1275.61 627.45C1276.03 627.753 1276.55 627.881 1277.06 627.808C1277.58 627.736 1278.04 627.468 1278.36 627.06C1278.69 626.652 1278.84 626.136 1278.79 625.62C1278.74 625.103 1278.49 624.625 1278.1 624.287C1277.7 623.948 1277.2 623.773 1276.68 623.8C1276.16 623.827 1275.67 624.053 1275.32 624.431C1274.96 624.808 1274.76 625.309 1274.77 625.828L1264.11 625.828L1258.79 616.582C1259.1 616.406 1259.36 616.15 1259.54 615.842C1259.78 615.429 1259.87 614.943 1259.79 614.471C1259.71 613.999 1259.46 613.57 1259.1 613.26C1258.73 612.95 1258.27 612.778 1257.79 612.776C1257.31 612.774 1256.85 612.94 1256.48 613.247C1256.11 613.553 1255.86 613.98 1255.78 614.452C1255.69 614.923 1255.78 615.41 1256.01 615.825C1256.25 616.241 1256.63 616.559 1257.08 616.723C1257.53 616.888 1258.02 616.889 1258.47 616.725L1263.72 625.815L1238.49 625.815L1218.51 591.211L1236.59 559.89C1237.5 560.357 1238.54 560.452 1239.52 560.156C1240.49 559.86 1241.3 559.195 1241.79 558.304C1242.28 557.414 1242.4 556.368 1242.12 555.39C1241.85 554.412 1241.2 553.581 1240.32 553.073C1239.45 552.565 1238.4 552.422 1237.42 552.673C1236.43 552.925 1235.59 553.552 1235.06 554.419C1234.53 555.287 1234.37 556.326 1234.6 557.315C1234.82 558.304 1235.43 559.165 1236.29 559.712L1218.2 591.043L1178.26 591.043L1158.29 556.467L1196.3 556.467C1196.35 556.988 1196.6 557.468 1197 557.807C1197.4 558.146 1197.92 558.318 1198.44 558.286C1198.97 558.255 1199.46 558.023 1199.81 557.638C1200.17 557.253 1200.36 556.746 1200.36 556.222C1200.35 555.698 1200.14 555.197 1199.77 554.824C1199.4 554.451 1198.9 554.234 1198.38 554.219C1197.85 554.205 1197.34 554.392 1196.95 554.744C1196.57 555.096 1196.33 555.584 1196.29 556.107L1158.47 556.115L1177.29 523.501C1177.77 523.722 1178.31 523.751 1178.8 523.583C1179.29 523.415 1179.7 523.064 1179.95 522.601C1180.19 522.138 1180.24 521.6 1180.09 521.1C1179.95 520.599 1179.61 520.174 1179.16 519.913C1178.71 519.652 1178.18 519.576 1177.67 519.7C1177.16 519.824 1176.72 520.138 1176.44 520.578C1176.16 521.018 1176.06 521.549 1176.16 522.061C1176.27 522.573 1176.56 523.025 1176.99 523.324L1157.97 556.26L1121.79 556.26C1121.72 555.258 1121.27 554.322 1120.52 553.652C1119.78 552.981 1118.8 552.63 1117.79 552.672C1116.79 552.714 1115.84 553.146 1115.16 553.877C1114.47 554.608 1114.09 555.578 1114.11 556.582C1114.13 557.585 1114.54 558.541 1115.26 559.246C1115.97 559.95 1116.93 560.347 1117.94 560.352C1118.94 560.357 1119.91 559.969 1120.63 559.271C1121.35 558.573 1121.77 557.621 1121.79 556.618L1157.77 556.617L1137.88 591.075L1137.93 591.165L1157.93 625.815L1118.02 625.815L1098.96 592.802C1099.41 592.533 1099.74 592.101 1099.88 591.596C1100.02 591.09 1099.96 590.55 1099.71 590.088C1099.46 589.627 1099.05 589.279 1098.55 589.117C1098.05 588.956 1097.51 588.993 1097.03 589.221C1096.56 589.45 1096.2 589.852 1096.01 590.343C1095.83 590.835 1095.84 591.378 1096.05 591.859C1096.26 592.341 1096.64 592.724 1097.13 592.929C1097.61 593.133 1098.15 593.143 1098.64 592.957L1117.82 626.168L1157.9 626.167L1157.94 626.228L1138.14 660.526L1097.78 660.526L1077.59 695.481L1077.64 695.57L1097.77 730.437L1099.73 730.436L1099.24 731.281L1099.29 731.369L1119.42 766.236L1158.66 766.24L1138.77 800.698L1138.82 800.787L1157.89 833.819C1157.46 834.112 1157.15 834.562 1157.04 835.074C1156.93 835.587 1157.02 836.122 1157.29 836.57C1157.57 837.017 1158 837.341 1158.51 837.475C1159.02 837.609 1159.56 837.542 1160.02 837.289C1160.47 837.035 1160.82 836.614 1160.97 836.114C1161.13 835.613 1161.09 835.071 1160.85 834.602C1160.62 834.132 1160.21 833.771 1159.72 833.593C1159.23 833.414 1158.69 833.434 1158.21 833.646L1139.19 800.702L1159.01 766.371L1177.75 798.824C1177.48 798.997 1177.25 799.232 1177.09 799.512C1176.85 799.927 1176.76 800.414 1176.85 800.886C1176.93 801.359 1177.18 801.785 1177.56 802.09C1177.93 802.394 1178.39 802.557 1178.87 802.55C1179.35 802.542 1179.81 802.364 1180.18 802.048C1180.54 801.732 1180.77 801.298 1180.84 800.823C1180.91 800.348 1180.81 799.864 1180.56 799.456C1180.31 799.049 1179.92 798.745 1179.46 798.598C1179 798.451 1178.51 798.471 1178.07 798.655L1159.34 766.231L1159.69 766.23L1159.69 766.093L1199.11 766.094L1218.88 800.343L1219.09 800.691L1199.06 835.385L1199.29 835.517L1199.23 835.607L1199.28 835.696L1219.41 870.562L1259.57 870.561L1279.65 905.339L1320.01 905.348L1339.15 872.201C1339.64 872.37 1340.18 872.344 1340.65 872.128C1341.12 871.911 1341.5 871.521 1341.69 871.038C1341.88 870.555 1341.88 870.016 1341.69 869.534C1341.49 869.051 1341.12 868.661 1340.65 868.445C1340.18 868.229 1339.64 868.204 1339.15 868.374C1338.65 868.544 1338.25 868.896 1338.01 869.359C1337.77 869.821 1337.72 870.357 1337.87 870.856C1338.01 871.356 1338.34 871.779 1338.79 872.04L1338.82 872.055L1319.81 904.984L1279.85 904.981L1259.87 870.377L1279.85 835.777L1317.71 835.778C1317.78 836.284 1318.04 836.744 1318.44 837.066C1318.84 837.387 1319.34 837.545 1319.85 837.507C1320.36 837.47 1320.84 837.24 1321.19 836.864C1321.53 836.488 1321.72 835.995 1321.72 835.484C1321.72 834.972 1321.52 834.482 1321.16 834.111C1320.81 833.741 1320.33 833.518 1319.82 833.489C1319.31 833.459 1318.81 833.625 1318.42 833.953C1318.02 834.28 1317.77 834.744 1317.71 835.252L1279.95 835.247L1259.92 800.558L1259.77 800.646L1219.46 800.645L1219.44 800.602L1219.28 800.339L1239.31 765.653L1239.26 765.564L1219.23 730.875L1239.41 695.926L1239.36 695.837L1219.53 661.499L1219.58 661.416L1259.54 661.41L1270.04 679.589L1258.4 699.75C1257.92 699.53 1257.39 699.501 1256.89 699.669C1256.4 699.836 1255.99 700.188 1255.75 700.651C1255.51 701.114 1255.45 701.652 1255.6 702.152C1255.75 702.653 1256.08 703.078 1256.53 703.339C1256.98 703.6 1257.52 703.676 1258.02 703.552C1258.53 703.428 1258.97 703.114 1259.25 702.674C1259.53 702.234 1259.63 701.703 1259.53 701.191C1259.43 700.68 1259.13 700.227 1258.71 699.928L1270.24 679.951L1279.39 695.801L1279.31 695.846L1279.46 696.109L1259.44 730.797L1259.49 730.886L1279.55 765.64L1279.44 765.705L1299.57 800.571L1339.73 800.572L1359.81 835.349L1400.17 835.357L1413.51 812.25L1427.47 812.249L1447.45 846.854L1427.47 881.453L1387.51 881.459L1369.45 850.144C1370.3 849.584 1370.9 848.712 1371.12 847.717C1371.33 846.722 1371.15 845.681 1370.61 844.818C1370.07 843.955 1369.21 843.337 1368.22 843.098C1367.23 842.859 1366.19 843.017 1365.31 843.538C1364.44 844.06 1363.8 844.903 1363.54 845.887C1363.28 846.872 1363.41 847.92 1363.91 848.807C1364.41 849.694 1365.24 850.349 1366.22 850.633C1367.2 850.917 1368.25 850.807 1369.15 850.327L1387.32 881.802L1427.68 881.802L1447.86 846.847L1447.81 846.757L1427.68 811.892L1413.72 811.892L1420.36 800.391L1420.31 800.301L1400.33 765.689L1400.37 765.633L1400.41 765.718L1430.11 765.724L1444.97 791.442L1485.33 791.45L1505.51 756.495L1505.46 756.406L1485.32 721.513L1485.22 721.512L1455.63 721.52L1440.77 695.801L1440.67 695.801L1400.41 695.801L1400.36 695.885L1400.31 695.801L1400.26 695.831L1400.13 695.757L1380.1 730.446L1343.08 730.444C1342.86 729.969 1342.46 729.597 1341.98 729.406C1341.49 729.214 1340.94 729.216 1340.46 729.413C1339.97 729.609 1339.58 729.984 1339.36 730.462C1339.14 730.939 1339.11 731.482 1339.28 731.979C1339.45 732.476 1339.8 732.891 1340.26 733.136C1340.73 733.382 1341.27 733.441 1341.77 733.301C1342.28 733.161 1342.71 732.833 1342.98 732.384C1343.26 731.934 1343.35 731.398 1343.23 730.885L1380.05 730.884L1399.9 765.263L1360 765.263L1360 765.436L1359.8 765.435L1349.07 784.026L1321.97 784.32C1321.83 783.814 1321.49 783.384 1321.03 783.119C1320.58 782.855 1320.04 782.776 1319.53 782.9C1319.02 783.023 1318.57 783.34 1318.29 783.783C1318 784.226 1317.9 784.762 1318 785.279C1318.1 785.796 1318.4 786.254 1318.83 786.558C1319.26 786.862 1319.79 786.988 1320.31 786.91C1320.83 786.832 1321.3 786.556 1321.62 786.139C1321.95 785.723 1322.1 785.198 1322.04 784.674L1349.27 784.367L1360 765.776L1399.85 765.777L1380.05 800.075L1339.99 800.074L1340 800.327L1339.97 800.291L1339.82 800.379L1339.82 800.202L1299.76 800.202L1279.75 765.536L1279.86 765.47L1259.86 730.802L1279.68 696.47L1297.54 727.423C1296.7 727.991 1296.11 728.866 1295.91 729.861C1295.71 730.856 1295.9 731.891 1296.45 732.745C1297 733.598 1297.86 734.204 1298.85 734.43C1299.84 734.657 1300.88 734.488 1301.74 733.958C1302.61 733.428 1303.24 732.581 1303.49 731.597C1303.73 730.612 1303.59 729.57 1303.08 728.692C1302.57 727.813 1301.74 727.17 1300.76 726.898C1299.78 726.626 1298.73 726.748 1297.84 727.237L1279.88 696.115L1279.81 695.983L1279.88 695.938L1279.84 695.852L1279.98 695.767L1270.56 679.426L1277.74 666.992L1317.89 666.992L1335.52 636.457L1354.5 636.513C1354.55 637.034 1354.81 637.514 1355.21 637.852C1355.61 638.19 1356.12 638.36 1356.65 638.327C1357.17 638.294 1357.66 638.061 1358.02 637.675C1358.37 637.29 1358.57 636.782 1358.56 636.258C1358.55 635.734 1358.33 635.233 1357.96 634.861C1357.6 634.489 1357.1 634.274 1356.57 634.261C1356.05 634.247 1355.54 634.437 1355.15 634.789C1354.76 635.142 1354.53 635.631 1354.49 636.154L1335.32 636.093L1317.68 666.635L1277.52 666.634L1270.34 679.068L1259.95 661.068L1272.01 640.186L1277.28 649.319L1317.64 649.319L1337.83 614.364L1337.77 614.276L1324.92 592.002L1339.88 591.998L1379.93 591.998L1399.91 626.611L1374.85 670.017C1373.95 669.55 1372.9 669.454 1371.93 669.751C1370.96 670.047 1370.14 670.712 1369.65 671.602C1369.16 672.493 1369.04 673.539 1369.32 674.517C1369.59 675.494 1370.24 676.326 1371.12 676.834C1372 677.341 1373.04 677.485 1374.02 677.233C1375.01 676.982 1375.85 676.355 1376.38 675.488C1376.91 674.62 1377.08 673.581 1376.85 672.591C1376.62 671.602 1376.01 670.742 1375.16 670.195L1400.24 626.74L1419.92 660.812L1399.89 695.501L1400.2 695.678L1420.33 660.812L1420.28 660.722L1400.45 626.385L1400.6 626.13L1440.76 626.13L1448.67 612.419L1461.4 634.471L1442.46 667.277C1441.99 667.056 1441.45 667.027 1440.96 667.195C1440.46 667.363 1440.05 667.715 1439.81 668.178C1439.57 668.64 1439.52 669.178 1439.66 669.679C1439.81 670.179 1440.14 670.605 1440.6 670.865C1441.05 671.126 1441.58 671.203 1442.09 671.079C1442.6 670.955 1443.03 670.64 1443.31 670.2C1443.6 669.76 1443.69 669.229 1443.59 668.718C1443.49 668.206 1443.2 667.754 1442.77 667.454L1461.81 634.47L1461.76 634.381L1448.88 612.065L1460.93 591.181L1500.88 591.181L1500.74 591.264L1520.76 625.953L1513.98 637.699L1501.36 637.699L1488.17 660.552L1462.74 660.548C1462.68 660.023 1462.43 659.539 1462.03 659.197C1461.62 658.855 1461.1 658.682 1460.58 658.714C1460.05 658.746 1459.55 658.979 1459.2 659.367C1458.84 659.754 1458.64 660.265 1458.65 660.793C1458.66 661.322 1458.87 661.826 1459.24 662.202C1459.61 662.578 1460.11 662.796 1460.64 662.81C1461.17 662.825 1461.68 662.636 1462.08 662.281C1462.47 661.927 1462.71 661.435 1462.74 660.908L1487.96 660.908L1481.18 672.654L1481.23 672.743L1501.36 707.609L1501.46 707.609L1541.72 707.609ZM1400.37 696.599L1420.05 730.671L1400.32 764.831L1380.65 730.759L1400.37 696.599ZM1430.52 765.721L1440.78 765.72L1460.96 730.765L1460.91 730.675L1455.84 721.875L1485.12 721.872L1505.09 756.485L1485.12 791.084L1445.17 791.07L1430.52 765.721ZM1400.63 765.357L1400.53 765.185L1420.46 730.67L1420.41 730.581L1400.58 696.244L1400.63 696.16L1440.59 696.155L1455.23 721.512L1448.94 721.517C1448.88 720.513 1448.43 719.574 1447.68 718.9C1446.93 718.226 1445.95 717.871 1444.95 717.91C1443.94 717.95 1442.99 718.381 1442.3 719.112C1441.61 719.842 1441.23 720.814 1441.25 721.82C1441.27 722.826 1441.67 723.785 1442.39 724.493C1443.1 725.202 1444.07 725.602 1445.07 725.61C1446.08 725.617 1447.05 725.231 1447.77 724.533C1448.5 723.836 1448.92 722.883 1448.95 721.877L1455.43 721.877L1460.56 730.761L1440.59 765.36L1430.33 765.362L1426.15 758.13C1426.58 757.837 1426.89 757.387 1427 756.875C1427.11 756.363 1427.02 755.827 1426.74 755.38C1426.47 754.932 1426.03 754.608 1425.53 754.474C1425.02 754.34 1424.48 754.407 1424.02 754.661C1423.56 754.914 1423.22 755.335 1423.06 755.836C1422.91 756.336 1422.95 756.878 1423.18 757.348C1423.42 757.817 1423.82 758.179 1424.32 758.357C1424.81 758.535 1425.35 758.516 1425.83 758.304L1429.9 765.356L1400.63 765.357ZM1360.02 834.996L1340.07 800.445L1380.27 800.446L1400.12 766.062L1419.95 800.397L1413.31 811.897L1389.14 811.897C1389.08 811.373 1388.82 810.892 1388.41 810.555C1388.01 810.217 1387.49 810.05 1386.96 810.087C1386.44 810.123 1385.94 810.362 1385.59 810.753C1385.24 811.143 1385.05 811.656 1385.06 812.183C1385.07 812.71 1385.29 813.212 1385.67 813.583C1386.04 813.954 1386.54 814.166 1387.07 814.175C1387.6 814.184 1388.11 813.988 1388.5 813.63C1388.88 813.271 1389.12 812.777 1389.15 812.251L1413.1 812.251L1399.97 834.995L1360.02 834.996ZM1219.62 801.007L1259.58 801.011L1279.56 835.614L1259.59 870.215L1219.63 870.211L1199.65 835.607L1219.62 801.007ZM1199.31 765.743L1159.05 765.742L1159 765.658L1178.98 731.059L1218.94 731.061L1238.92 765.666L1219.1 799.998L1199.31 765.743ZM1178.22 591.453L1217.97 591.453L1198.22 625.664L1158.47 625.664L1178.22 591.453ZM1138.28 591.07L1158.07 556.801L1177.94 591.223L1158.16 625.492L1138.28 591.07ZM1271.8 639.832L1259.54 661.066L1219.39 661.067L1219.34 661.15L1219.29 661.066L1218.97 661.24L1219.13 661.502L1199.96 694.701C1199.91 694.672 1199.86 694.643 1199.81 694.614C1199.36 694.353 1198.83 694.272 1198.33 694.387C1197.83 694.502 1197.38 694.804 1197.09 695.233C1196.81 695.661 1196.69 696.183 1196.77 696.693C1196.85 697.204 1197.13 697.664 1197.53 697.981C1197.94 698.297 1198.46 698.447 1198.97 698.399C1199.49 698.351 1199.96 698.109 1200.31 697.722C1200.65 697.335 1200.83 696.833 1200.82 696.316C1200.8 695.799 1200.59 695.308 1200.23 694.94L1219.33 661.857L1239 695.928L1219.03 730.528L1178.97 730.528L1178.97 730.699L1178.77 730.7L1158.59 765.655L1158.64 765.744L1158.71 765.876L1119.62 765.875L1099.64 731.272L1100.13 730.427L1136.11 730.427C1136.11 730.943 1136.31 731.437 1136.67 731.807C1137.03 732.177 1137.51 732.395 1138.03 732.415C1138.54 732.435 1139.05 732.255 1139.43 731.914C1139.82 731.572 1140.06 731.095 1140.1 730.582C1140.14 730.069 1139.99 729.558 1139.66 729.158C1139.34 728.757 1138.87 728.497 1138.36 728.431C1137.85 728.366 1137.33 728.5 1136.92 728.805C1136.5 729.111 1136.22 729.565 1136.14 730.073L1100.33 730.073L1117.73 699.942C1118.63 700.409 1119.68 700.504 1120.65 700.208C1121.62 699.912 1122.44 699.247 1122.93 698.357C1123.41 697.466 1123.53 696.42 1123.26 695.442C1122.98 694.465 1122.34 693.633 1121.46 693.125C1120.58 692.618 1119.54 692.474 1118.55 692.726C1117.57 692.977 1116.72 693.604 1116.2 694.471C1115.67 695.339 1115.5 696.378 1115.73 697.367C1115.96 698.357 1116.57 699.217 1117.42 699.764L1099.92 730.075L1097.97 730.074L1077.98 695.471L1097.96 660.869L1137.92 660.872L1156.06 692.285C1155.19 692.788 1154.56 693.606 1154.28 694.567C1154.01 695.529 1154.12 696.559 1154.58 697.442C1155.05 698.325 1155.84 698.993 1156.79 699.305C1157.74 699.618 1158.78 699.551 1159.68 699.118C1160.58 698.686 1161.28 697.921 1161.63 696.985C1161.98 696.049 1161.95 695.013 1161.56 694.095C1161.16 693.178 1160.42 692.449 1159.5 692.062C1158.58 691.675 1157.55 691.659 1156.61 692.019L1138.48 660.609L1158.13 626.579L1178.11 661.182L1183.46 651.914C1183.94 652.134 1184.48 652.163 1184.97 651.995C1185.46 651.827 1185.87 651.476 1186.11 651.013C1186.35 650.551 1186.41 650.014 1186.26 649.514C1186.11 649.013 1185.78 648.589 1185.33 648.328C1184.88 648.068 1184.34 647.991 1183.84 648.115C1183.33 648.239 1182.89 648.553 1182.61 648.993C1182.33 649.432 1182.23 649.963 1182.33 650.474C1182.43 650.985 1182.73 651.437 1183.16 651.736L1178.11 660.473L1158.35 626.231L1158.47 626.026L1198.43 626.03L1198.53 626.029L1198.53 625.852L1218.31 591.583L1238.29 626.187L1263.94 626.189L1271.8 639.832ZM1324.51 592.003L1337.42 614.364L1317.44 648.965L1277.48 648.961L1272.21 639.829L1299.82 591.999L1324.51 592.003ZM1440.65 556.22L1420.86 556.219L1420.82 556.153L1410.83 538.849L1413.24 534.682L1434.47 535.376L1442.27 521.855L1460.76 521.842L1480.55 556.138L1480.66 556.138L1520.82 556.137L1520.87 556.221L1500.89 590.825L1460.92 590.831L1440.9 556.137L1440.76 556.223L1440.65 556.22ZM1461.51 521.852L1461.64 521.631L1500.88 521.634L1520.6 555.795L1480.76 555.787L1461.16 521.848L1461.51 521.852ZM1420.44 556.224L1400.8 556.224L1410.62 539.208L1420.44 556.224ZM1375.6 582.152L1360.87 556.654L1361.08 556.536L1360.77 556.006L1375.59 530.339L1405.51 530.335L1410.43 538.85L1400.19 556.578L1420.28 556.581L1405.51 582.154L1375.6 582.152ZM1324.96 452.463L1292.9 508L1280.81 487.064L1300.79 452.463L1324.96 452.463ZM1325.37 452.463L1340.74 452.464L1360.72 487.067L1348.93 507.495L1360.58 528.666L1352.78 542.166L1341 521.756L1340.85 521.845L1340.85 521.667L1300.78 521.664L1293.1 508.355L1325.37 452.463ZM1400.87 417.514L1380.94 452.028L1380.99 452.117L1401.02 486.807L1389.13 507.402C1388.66 507.182 1388.12 507.153 1387.63 507.32C1387.13 507.488 1386.72 507.84 1386.48 508.302C1386.24 508.764 1386.19 509.302 1386.34 509.802C1386.48 510.302 1386.81 510.727 1387.27 510.987C1387.72 511.248 1388.25 511.324 1388.76 511.2C1389.26 511.077 1389.7 510.762 1389.98 510.323C1390.26 509.884 1390.36 509.353 1390.26 508.842C1390.16 508.331 1389.87 507.879 1389.44 507.579L1401.18 487.247L1421.15 521.86L1421.26 521.86L1441.87 521.859L1434.26 535.03L1413.04 534.327L1410.63 538.494L1405.72 529.979L1405.62 529.98L1375.39 529.98L1360.57 555.652L1352.99 542.511L1360.98 528.667L1349.33 507.496L1361.07 487.154L1360.91 487.062L1361.07 486.972L1361.02 486.887L1361.16 486.802L1341.14 452.115L1361.12 417.517L1400.87 417.514ZM1401.23 486.451L1381.35 452.03L1401.32 417.437L1441.28 417.441L1461.25 452.037L1441.28 486.63L1401.53 486.629L1420.4 453.948C1420.86 454.163 1421.38 454.198 1421.87 454.047C1422.35 453.895 1422.76 453.568 1423.01 453.13C1423.28 452.665 1423.35 452.113 1423.21 451.594C1423.08 451.076 1422.74 450.634 1422.27 450.365C1421.81 450.096 1421.26 450.024 1420.74 450.163C1420.22 450.302 1419.78 450.641 1419.51 451.106C1419.25 451.545 1419.18 452.062 1419.29 452.556C1419.4 453.051 1419.69 453.485 1420.1 453.775L1401.23 486.451ZM1481.39 417.165L1461.46 451.673L1441.48 417.07L1441.38 417.071L1401.53 417.073L1421.46 382.565L1461.41 382.569L1481.39 417.165ZM1480.91 486.232L1480.65 486.231L1480.66 486.59L1481.12 486.591L1481.29 486.904L1461.44 521.282L1460.83 521.281L1460.72 521.1L1460.41 521.274L1460.54 521.492L1442.47 521.492L1450.6 507.406C1451.53 507.825 1452.58 507.866 1453.53 507.522C1454.48 507.177 1455.26 506.473 1455.71 505.56C1456.15 504.647 1456.22 503.598 1455.89 502.636C1455.57 501.674 1454.89 500.876 1453.99 500.412C1453.09 499.948 1452.04 499.854 1451.07 500.151C1450.1 500.448 1449.28 501.113 1448.8 502.002C1448.31 502.892 1448.19 503.937 1448.46 504.913C1448.74 505.89 1449.38 506.721 1450.26 507.23L1450.28 507.244L1442.06 521.488L1421.34 521.494L1401.43 486.983L1441.49 486.984L1461.41 452.47L1480.91 486.232ZM1520.86 555.52L1501.09 521.271L1500.99 521.271L1461.85 521.27L1481.7 486.892L1481.65 486.804L1481.52 486.587L1520.71 486.581L1540.68 521.19L1520.86 555.52ZM1513.78 638.055L1500.78 660.56L1488.57 660.561L1501.57 638.053L1513.78 638.055ZM1541.52 707.254L1501.56 707.25L1481.58 672.646L1488.36 660.9L1500.98 660.9L1514.17 638.047L1541.51 638.046L1561.49 672.649L1541.52 707.254Z" fill="white"/>
</g>
<defs>
<clipPath id="clip0_2001_3056">
<rect width="446.496" height="545.843" fill="white" transform="translate(1275.92 275) rotate(30)"/>
</clipPath>
</defs>
</svg>
