<svg width="233" height="696" viewBox="0 0 233 696" fill="none" xmlns="http://www.w3.org/2000/svg">
<g clip-path="url(#clip0_437_3308)">
<path d="M538.723 432.609L558.905 397.654L558.854 397.565L538.723 362.699L538.621 362.698L511.392 362.699L518.17 350.959L518.119 350.869L498.095 316.174L518.273 281.226L518.222 281.136L518.07 280.874L538.097 246.186L538.045 246.099L517.916 211.231L517.813 211.232L478.316 211.231L458.618 177.115L478.797 142.165L478.745 142.078L458.616 107.21L458.513 107.211L418.251 107.209L398.073 142.159L357.916 142.159L337.738 177.109L322.564 177.11L326.685 169.973L326.633 169.886L306.512 135.023L306.409 135.023L266.149 135.023L247.958 166.53C247.057 166.064 246.008 165.968 245.037 166.264C244.066 166.561 243.249 167.225 242.762 168.116C242.274 169.006 242.155 170.053 242.429 171.03C242.703 172.008 243.348 172.84 244.228 173.347C245.107 173.855 246.15 173.998 247.134 173.747C248.117 173.495 248.964 172.869 249.491 172.001C250.019 171.134 250.186 170.094 249.957 169.105C249.728 168.116 249.121 167.255 248.266 166.708L266.354 135.378L306.313 135.382L326.295 169.986L322.179 177.114L297.602 177.118L277.424 212.069L237.244 212.059L218.122 245.179C217.65 244.959 217.111 244.93 216.618 245.097C216.124 245.265 215.715 245.617 215.474 246.079C215.234 246.541 215.181 247.079 215.327 247.579C215.473 248.079 215.806 248.504 216.257 248.764C216.709 249.025 217.243 249.101 217.749 248.977C218.255 248.854 218.694 248.539 218.974 248.1C219.255 247.661 219.354 247.13 219.253 246.619C219.152 246.108 218.857 245.656 218.43 245.356L237.45 212.413L277.409 212.417L289.595 233.522L280.157 249.87C279.684 249.65 279.145 249.621 278.651 249.788C278.157 249.956 277.747 250.308 277.506 250.771C277.266 251.234 277.213 251.771 277.359 252.272C277.505 252.773 277.838 253.198 278.29 253.459C278.742 253.719 279.277 253.796 279.783 253.672C280.29 253.548 280.729 253.233 281.01 252.794C281.29 252.354 281.39 251.823 281.288 251.311C281.187 250.8 280.892 250.347 280.465 250.048L289.798 233.883L297.383 247.024L280.31 276.595C279.408 276.128 278.36 276.033 277.388 276.329C276.417 276.625 275.601 277.29 275.113 278.18C274.626 279.071 274.506 280.117 274.78 281.095C275.054 282.072 275.7 282.904 276.579 283.412C277.459 283.919 278.502 284.063 279.485 283.811C280.469 283.56 281.315 282.933 281.843 282.066C282.371 281.198 282.538 280.159 282.309 279.169C282.08 278.18 281.473 277.32 280.618 276.773L297.796 247.018L337.755 247.022L349.577 267.512L340.765 282.774C339.771 282.435 338.684 282.498 337.737 282.95C336.789 283.403 336.056 284.208 335.695 285.194C335.333 286.18 335.372 287.268 335.803 288.225C336.234 289.183 337.023 289.934 338 290.317C338.978 290.7 340.067 290.686 341.034 290.276C342.001 289.867 342.769 289.095 343.174 288.126C343.579 287.158 343.589 286.069 343.201 285.093C342.813 284.117 342.059 283.332 341.1 282.905L349.778 267.874L357.364 281.014L357.226 281.253L357.277 281.343L372.391 307.508L372.494 307.508L402.714 307.507L417.684 281.579L437.558 281.578L457.535 316.191L445.685 336.717L438.641 324.529L438.538 324.53L399.502 324.516C399.526 324.005 399.351 323.505 399.016 323.12C398.68 322.734 398.208 322.493 397.699 322.447C397.19 322.4 396.683 322.551 396.283 322.87C395.883 323.188 395.621 323.648 395.551 324.154C395.482 324.66 395.61 325.174 395.91 325.588C396.209 326.002 396.657 326.285 397.16 326.377C397.663 326.469 398.182 326.364 398.609 326.084C399.036 325.803 399.339 325.368 399.453 324.87L438.426 324.871L445.47 337.059L437.547 350.782L397.387 350.782L397.248 351.023L397.199 350.938L397.013 351.045L377.143 316.648L377.041 316.646L338.114 316.646L338.251 316.569L318.217 281.888L327.202 266.325C327.674 266.545 328.214 266.574 328.707 266.407C329.2 266.239 329.61 265.887 329.85 265.425C330.091 264.963 330.143 264.425 329.998 263.925C329.852 263.425 329.518 263 329.067 262.74C328.616 262.479 328.081 262.403 327.575 262.527C327.069 262.65 326.63 262.965 326.35 263.404C326.07 263.843 325.97 264.374 326.072 264.885C326.173 265.396 326.468 265.848 326.894 266.148L317.811 281.88L317.862 281.969L337.885 316.647L336.883 316.647L321.71 316.648L314.647 304.401L314.544 304.402L276.655 304.408C276.726 303.897 276.598 303.378 276.297 302.959C275.996 302.539 275.545 302.253 275.037 302.158C274.53 302.063 274.005 302.167 273.573 302.449C273.14 302.73 272.833 303.168 272.715 303.671C272.597 304.173 272.677 304.702 272.939 305.147C273.201 305.592 273.624 305.919 274.121 306.059C274.617 306.2 275.149 306.144 275.606 305.903C276.062 305.662 276.408 305.254 276.571 304.764L314.438 304.763L321.3 316.647L296.623 316.647L269.009 364.476L261.327 351.188L271.801 351.183C271.896 351.693 272.185 352.147 272.606 352.45C273.028 352.753 273.55 352.881 274.064 352.808C274.578 352.736 275.044 352.468 275.365 352.06C275.686 351.652 275.838 351.136 275.788 350.62C275.738 350.103 275.491 349.625 275.098 349.287C274.705 348.948 274.196 348.773 273.678 348.8C273.159 348.827 272.671 349.053 272.315 349.431C271.959 349.808 271.763 350.309 271.767 350.828L261.114 350.828L255.793 341.582C256.102 341.406 256.359 341.15 256.536 340.842C256.779 340.429 256.868 339.943 256.788 339.471C256.707 338.999 256.463 338.57 256.098 338.26C255.733 337.95 255.27 337.778 254.79 337.776C254.311 337.774 253.847 337.94 253.478 338.247C253.11 338.553 252.862 338.98 252.777 339.452C252.692 339.923 252.777 340.41 253.015 340.825C253.254 341.241 253.631 341.559 254.081 341.723C254.531 341.888 255.025 341.889 255.475 341.725L260.722 350.815L235.493 350.815L215.51 316.211L233.594 284.89C234.496 285.357 235.544 285.452 236.515 285.156C237.487 284.86 238.303 284.195 238.791 283.304C239.278 282.414 239.398 281.368 239.124 280.39C238.85 279.412 238.204 278.581 237.325 278.073C236.445 277.565 235.402 277.422 234.418 277.673C233.435 277.925 232.589 278.552 232.061 279.419C231.533 280.287 231.366 281.326 231.595 282.315C231.824 283.304 232.431 284.165 233.286 284.712L215.197 316.043L175.256 316.043L155.294 281.467L193.295 281.467C193.35 281.988 193.604 282.468 194.004 282.807C194.404 283.146 194.919 283.318 195.442 283.286C195.966 283.255 196.457 283.023 196.813 282.638C197.169 282.253 197.364 281.746 197.355 281.222C197.347 280.698 197.137 280.197 196.768 279.824C196.4 279.451 195.902 279.234 195.377 279.219C194.853 279.205 194.344 279.392 193.955 279.744C193.566 280.096 193.327 280.584 193.289 281.107L155.465 281.115L174.295 248.501C174.767 248.722 175.307 248.751 175.801 248.583C176.295 248.415 176.705 248.064 176.946 247.601C177.187 247.138 177.24 246.6 177.094 246.1C176.948 245.599 176.614 245.174 176.162 244.913C175.71 244.652 175.175 244.576 174.669 244.7C174.162 244.824 173.723 245.138 173.442 245.578C173.162 246.018 173.062 246.549 173.164 247.061C173.266 247.573 173.561 248.025 173.988 248.324L154.973 281.26L118.788 281.26C118.723 280.258 118.268 279.322 117.522 278.652C116.775 277.981 115.796 277.63 114.794 277.672C113.791 277.714 112.845 278.146 112.157 278.877C111.469 279.608 111.095 280.578 111.113 281.582C111.132 282.585 111.542 283.541 112.257 284.246C112.971 284.95 113.933 285.347 114.936 285.352C115.94 285.357 116.905 284.969 117.626 284.271C118.347 283.573 118.767 282.621 118.795 281.618L154.773 281.617L134.879 316.075L134.93 316.165L154.935 350.815L115.021 350.815L95.964 317.802C96.4144 317.533 96.7437 317.101 96.8832 316.596C97.0227 316.09 96.9617 315.55 96.7129 315.088C96.4641 314.627 96.0466 314.279 95.5476 314.117C95.0486 313.956 94.5065 313.993 94.0344 314.221C93.5622 314.45 93.1964 314.852 93.0132 315.343C92.8301 315.835 92.8437 316.378 93.0512 316.859C93.2588 317.341 93.6442 317.724 94.1272 317.929C94.6102 318.133 95.1535 318.143 95.6438 317.957L114.817 351.168L154.904 351.167L154.94 351.228L135.138 385.526L94.7752 385.526L74.5939 420.481L74.6449 420.57L94.7743 455.437L96.7302 455.436L96.2426 456.281L96.2945 456.369L116.424 491.236L155.664 491.24L135.77 525.698L135.821 525.787L154.892 558.819C154.457 559.112 154.153 559.562 154.041 560.074C153.93 560.587 154.02 561.122 154.294 561.57C154.567 562.017 155.003 562.341 155.51 562.475C156.017 562.609 156.556 562.542 157.015 562.289C157.474 562.035 157.817 561.614 157.974 561.114C158.13 560.613 158.087 560.071 157.854 559.602C157.62 559.132 157.215 558.771 156.722 558.593C156.229 558.414 155.686 558.434 155.206 558.646L136.188 525.702L156.01 491.371L174.748 523.824C174.476 523.997 174.25 524.232 174.089 524.512C173.848 524.927 173.763 525.414 173.849 525.886C173.935 526.359 174.185 526.785 174.556 527.09C174.927 527.394 175.394 527.557 175.873 527.55C176.353 527.542 176.815 527.364 177.176 527.048C177.536 526.732 177.773 526.298 177.844 525.823C177.914 525.348 177.814 524.864 177.561 524.456C177.307 524.049 176.917 523.745 176.461 523.598C176.004 523.451 175.51 523.471 175.066 523.655L156.338 491.231L156.687 491.23L156.687 491.093L196.111 491.094L215.884 525.343L216.087 525.691L196.056 560.385L196.285 560.517L196.234 560.607L196.285 560.696L216.415 595.562L256.573 595.561L276.651 630.339L317.011 630.348L336.148 597.201C336.64 597.37 337.178 597.344 337.651 597.128C338.124 596.911 338.495 596.521 338.688 596.038C338.881 595.555 338.881 595.016 338.687 594.534C338.494 594.051 338.122 593.661 337.649 593.445C337.176 593.229 336.638 593.204 336.146 593.374C335.655 593.544 335.247 593.896 335.009 594.359C334.77 594.821 334.719 595.357 334.865 595.856C335.012 596.356 335.344 596.779 335.795 597.04L335.822 597.055L316.81 629.984L276.852 629.981L256.869 595.377L276.846 560.777L314.712 560.778C314.783 561.284 315.043 561.744 315.441 562.066C315.839 562.387 316.344 562.545 316.853 562.507C317.363 562.47 317.84 562.24 318.186 561.864C318.533 561.488 318.723 560.995 318.719 560.484C318.715 559.972 318.517 559.482 318.165 559.111C317.813 558.741 317.333 558.518 316.822 558.489C316.312 558.459 315.809 558.625 315.417 558.953C315.024 559.28 314.771 559.744 314.708 560.252L276.946 560.247L256.919 525.558L256.77 525.646L216.459 525.645L216.435 525.602L216.284 525.339L236.31 490.653L236.259 490.564L216.231 455.875L236.409 420.926L236.358 420.837L216.532 386.499L216.58 386.416L256.544 386.41L267.037 404.589L255.398 424.75C254.925 424.53 254.385 424.501 253.891 424.669C253.398 424.836 252.988 425.188 252.747 425.651C252.506 426.114 252.453 426.652 252.599 427.152C252.745 427.653 253.079 428.078 253.531 428.339C253.982 428.6 254.517 428.676 255.024 428.552C255.531 428.428 255.97 428.114 256.25 427.674C256.531 427.234 256.63 426.703 256.529 426.191C256.427 425.68 256.132 425.227 255.705 424.928L267.239 404.951L276.388 420.801L276.311 420.846L276.463 421.109L256.436 455.797L256.487 455.886L276.554 490.64L276.441 490.705L296.571 525.571L336.728 525.572L356.809 560.349L397.167 560.357L410.508 537.25L424.469 537.249L444.451 571.854L424.475 606.453L384.511 606.459L366.452 575.144C367.303 574.584 367.9 573.712 368.117 572.717C368.333 571.722 368.151 570.681 367.61 569.818C367.069 568.955 366.212 568.337 365.222 568.098C364.231 567.859 363.187 568.017 362.312 568.538C361.436 569.06 360.8 569.903 360.538 570.887C360.276 571.872 360.41 572.92 360.911 573.807C361.412 574.694 362.241 575.349 363.219 575.633C364.197 575.917 365.248 575.807 366.146 575.327L384.319 606.802L424.682 606.802L444.863 571.847L444.812 571.757L424.682 536.892L410.721 536.892L417.361 525.391L417.31 525.301L397.333 490.689L397.366 490.633L397.414 490.718L427.115 490.724L441.97 516.442L482.327 516.45L502.509 481.495L502.458 481.406L482.324 446.513L482.222 446.512L452.627 446.52L437.772 420.801L437.672 420.801L397.41 420.801L397.362 420.885L397.312 420.801L397.258 420.831L397.13 420.757L377.102 455.446L340.085 455.444C339.861 454.969 339.464 454.597 338.976 454.406C338.487 454.214 337.943 454.216 337.456 454.413C336.969 454.609 336.576 454.984 336.356 455.462C336.137 455.939 336.109 456.482 336.277 456.979C336.446 457.476 336.798 457.891 337.262 458.136C337.726 458.382 338.267 458.441 338.773 458.301C339.279 458.161 339.712 457.833 339.984 457.384C340.256 456.934 340.345 456.398 340.234 455.885L377.054 455.884L396.904 490.263L357.003 490.263L357.003 490.436L356.801 490.435L346.067 509.026L318.972 509.32C318.826 508.814 318.49 508.384 318.035 508.119C317.579 507.855 317.039 507.776 316.527 507.9C316.015 508.023 315.571 508.34 315.286 508.783C315.002 509.226 314.899 509.762 315 510.279C315.101 510.796 315.398 511.254 315.828 511.558C316.258 511.862 316.789 511.988 317.31 511.91C317.831 511.832 318.302 511.556 318.624 511.139C318.947 510.723 319.096 510.198 319.041 509.674L346.27 509.367L357.003 490.776L396.853 490.777L377.051 525.075L336.994 525.074L336.996 525.327L336.974 525.291L336.82 525.379L336.82 525.202L296.765 525.202L276.75 490.536L276.863 490.47L256.856 455.802L276.677 421.47L294.541 452.423C293.7 452.991 293.115 453.866 292.911 454.861C292.707 455.856 292.9 456.891 293.449 457.745C293.999 458.598 294.86 459.204 295.85 459.43C296.839 459.657 297.879 459.488 298.745 458.958C299.611 458.428 300.236 457.581 300.485 456.597C300.735 455.612 300.589 454.57 300.079 453.692C299.57 452.813 298.737 452.17 297.759 451.898C296.78 451.626 295.735 451.748 294.845 452.237L276.883 421.115L276.807 420.983L276.884 420.938L276.836 420.852L276.983 420.767L267.557 404.426L274.736 391.992L314.895 391.992L332.524 361.457L351.496 361.513C351.552 362.034 351.807 362.514 352.208 362.852C352.609 363.19 353.125 363.36 353.648 363.327C354.171 363.294 354.662 363.061 355.017 362.675C355.373 362.29 355.566 361.782 355.556 361.258C355.546 360.734 355.334 360.233 354.965 359.861C354.595 359.489 354.097 359.274 353.572 359.261C353.048 359.247 352.539 359.437 352.151 359.789C351.763 360.142 351.526 360.631 351.49 361.154L332.316 361.093L314.683 391.635L274.523 391.634L267.345 404.068L256.953 386.068L269.009 365.186L274.28 374.319L314.645 374.319L334.826 339.364L334.774 339.276L321.916 317.002L336.877 316.998L376.932 316.998L396.909 351.611L371.848 395.017C370.947 394.55 369.898 394.454 368.927 394.751C367.956 395.047 367.139 395.712 366.652 396.602C366.164 397.493 366.045 398.539 366.319 399.517C366.593 400.494 367.239 401.326 368.118 401.834C368.997 402.341 370.04 402.485 371.024 402.233C372.008 401.982 372.854 401.355 373.381 400.488C373.909 399.62 374.076 398.581 373.847 397.591C373.618 396.602 373.011 395.742 372.156 395.195L397.244 351.74L416.917 385.812L396.889 420.501L397.197 420.678L417.327 385.812L417.276 385.722L397.45 351.385L397.597 351.13L437.756 351.13L445.673 337.419L458.403 359.471L439.462 392.277C438.989 392.056 438.45 392.027 437.956 392.195C437.462 392.363 437.052 392.715 436.811 393.178C436.571 393.64 436.518 394.178 436.664 394.679C436.81 395.179 437.144 395.605 437.595 395.865C438.047 396.126 438.582 396.203 439.089 396.079C439.595 395.955 440.034 395.64 440.315 395.2C440.595 394.76 440.695 394.229 440.593 393.718C440.492 393.206 440.197 392.754 439.77 392.454L458.813 359.47L458.762 359.381L445.877 337.065L457.934 316.181L497.878 316.181L497.736 316.264L517.763 350.953L510.982 362.699L498.361 362.699L485.167 385.552L459.739 385.548C459.684 385.023 459.429 384.539 459.026 384.197C458.623 383.855 458.104 383.682 457.577 383.714C457.05 383.746 456.555 383.979 456.196 384.367C455.837 384.754 455.641 385.265 455.65 385.793C455.658 386.322 455.87 386.826 456.241 387.202C456.612 387.578 457.114 387.796 457.642 387.81C458.17 387.825 458.684 387.636 459.075 387.281C459.467 386.927 459.707 386.435 459.745 385.908L484.961 385.908L478.179 397.654L478.23 397.743L498.361 432.609L498.464 432.609L538.723 432.609ZM397.374 421.599L417.046 455.671L397.324 489.831L377.652 455.759L397.374 421.599ZM427.525 490.721L437.783 490.72L457.964 455.765L457.913 455.675L452.839 446.875L482.117 446.872L502.094 481.485L482.118 516.084L442.165 516.07L427.525 490.721ZM397.629 490.357L397.53 490.185L417.457 455.67L417.406 455.581L397.58 421.244L397.628 421.16L437.592 421.155L452.228 446.512L445.944 446.517C445.881 445.513 445.428 444.574 444.682 443.9C443.935 443.226 442.954 442.871 441.949 442.91C440.944 442.95 439.995 443.381 439.303 444.112C438.612 444.842 438.234 445.814 438.25 446.82C438.266 447.826 438.675 448.785 439.389 449.493C440.103 450.202 441.066 450.602 442.072 450.61C443.078 450.617 444.047 450.231 444.771 449.533C445.496 448.836 445.919 447.883 445.95 446.877L452.434 446.877L457.562 455.761L437.586 490.36L427.328 490.362L423.146 483.13C423.58 482.837 423.885 482.387 423.997 481.875C424.108 481.363 424.018 480.827 423.744 480.38C423.47 479.932 423.035 479.608 422.528 479.474C422.021 479.34 421.482 479.407 421.023 479.661C420.564 479.914 420.22 480.335 420.064 480.836C419.908 481.336 419.951 481.878 420.184 482.348C420.418 482.817 420.823 483.179 421.316 483.357C421.809 483.535 422.352 483.516 422.832 483.304L426.904 490.356L397.629 490.357ZM357.019 559.996L337.071 525.445L377.272 525.446L397.124 491.062L416.947 525.397L410.308 536.897L386.139 536.897C386.079 536.373 385.82 535.892 385.414 535.555C385.009 535.217 384.488 535.05 383.962 535.087C383.436 535.123 382.944 535.362 382.59 535.753C382.235 536.143 382.045 536.656 382.059 537.183C382.073 537.71 382.29 538.212 382.665 538.583C383.04 538.954 383.544 539.166 384.071 539.175C384.599 539.184 385.109 538.988 385.496 538.63C385.883 538.271 386.117 537.777 386.148 537.251L410.099 537.251L396.968 559.995L357.019 559.996ZM216.622 526.007L256.581 526.011L276.564 560.614L256.587 595.215L216.628 595.211L196.646 560.607L216.622 526.007ZM196.314 490.743L156.052 490.742L156.004 490.658L175.98 456.059L215.94 456.061L235.922 490.666L216.1 524.998L196.314 490.743ZM175.222 316.453L214.97 316.453L195.218 350.664L155.47 350.664L175.222 316.453ZM135.284 316.07L155.069 281.801L174.942 316.223L155.157 350.492L135.284 316.07ZM268.803 364.832L256.544 386.066L216.386 386.067L216.338 386.15L216.288 386.066L215.974 386.24L216.126 386.502L196.959 419.701C196.909 419.672 196.858 419.643 196.808 419.614C196.362 419.353 195.833 419.272 195.329 419.387C194.825 419.502 194.384 419.804 194.095 420.233C193.806 420.661 193.69 421.183 193.772 421.693C193.853 422.204 194.126 422.664 194.534 422.981C194.943 423.297 195.456 423.447 195.971 423.399C196.485 423.351 196.963 423.109 197.305 422.722C197.648 422.335 197.831 421.833 197.817 421.316C197.803 420.799 197.592 420.308 197.229 419.94L216.329 386.857L236.002 420.928L216.026 455.528L175.971 455.528L175.97 455.699L175.769 455.7L155.588 490.655L155.639 490.744L155.714 490.876L116.624 490.875L96.6411 456.272L97.1288 455.427L133.106 455.427C133.109 455.943 133.311 456.437 133.669 456.807C134.027 457.177 134.515 457.395 135.029 457.415C135.544 457.435 136.047 457.255 136.432 456.914C136.818 456.572 137.057 456.095 137.1 455.582C137.143 455.069 136.986 454.558 136.662 454.158C136.338 453.757 135.872 453.497 135.361 453.431C134.851 453.366 134.334 453.5 133.919 453.805C133.505 454.111 133.224 454.565 133.136 455.073L97.3333 455.073L114.729 424.942C115.631 425.409 116.679 425.504 117.651 425.208C118.622 424.912 119.438 424.247 119.926 423.357C120.413 422.466 120.533 421.42 120.259 420.442C119.985 419.465 119.339 418.633 118.46 418.125C117.581 417.618 116.537 417.474 115.554 417.726C114.57 417.977 113.724 418.604 113.196 419.471C112.669 420.339 112.501 421.378 112.73 422.367C112.959 423.357 113.566 424.217 114.422 424.764L96.9219 455.075L94.9669 455.074L74.9842 420.471L94.9619 385.869L134.92 385.872L153.057 417.285C152.193 417.788 151.557 418.606 151.283 419.567C151.008 420.529 151.117 421.559 151.585 422.442C152.053 423.325 152.845 423.993 153.794 424.305C154.744 424.618 155.777 424.551 156.678 424.118C157.58 423.686 158.278 422.921 158.628 421.985C158.979 421.049 158.953 420.013 158.556 419.095C158.16 418.178 157.424 417.449 156.502 417.062C155.581 416.675 154.545 416.659 153.612 417.019L135.483 385.609L155.13 351.579L175.113 386.182L180.464 376.914C180.936 377.134 181.475 377.163 181.969 376.995C182.462 376.827 182.872 376.476 183.112 376.013C183.352 375.551 183.405 375.014 183.259 374.514C183.113 374.013 182.78 373.589 182.329 373.328C181.878 373.068 181.343 372.991 180.837 373.115C180.331 373.239 179.892 373.553 179.612 373.993C179.332 374.432 179.232 374.963 179.333 375.474C179.435 375.985 179.729 376.437 180.156 376.736L175.112 385.473L155.348 351.231L155.467 351.026L195.425 351.03L195.528 351.029L195.528 350.852L215.313 316.583L235.295 351.187L260.937 351.189L268.803 364.832ZM321.505 317.003L334.416 339.364L314.439 373.965L274.481 373.961L269.209 364.829L296.823 316.999L321.505 317.003ZM437.652 281.22L417.856 281.219L417.817 281.153L407.831 263.849L410.237 259.682L431.467 260.376L439.273 246.855L457.756 246.842L477.555 281.138L477.658 281.138L517.816 281.137L517.865 281.221L497.887 315.825L457.923 315.831L437.905 281.137L437.757 281.223L437.652 281.22ZM458.514 246.852L458.641 246.631L497.882 246.634L517.605 280.795L477.758 280.787L458.163 246.848L458.514 246.852ZM417.443 281.224L397.8 281.224L407.624 264.208L417.443 281.224ZM372.596 307.152L357.875 281.654L358.082 281.536L357.775 281.006L372.594 255.339L402.513 255.335L407.427 263.85L397.192 281.578L417.277 281.581L402.512 307.154L372.596 307.152ZM321.961 177.463L289.897 233L277.809 212.064L297.786 177.463L321.961 177.463ZM322.372 177.463L337.738 177.464L357.72 212.067L345.926 232.495L357.579 253.666L349.785 267.166L338 246.756L337.847 246.845L337.846 246.667L297.785 246.664L290.102 233.355L322.372 177.463ZM397.868 142.514L377.942 177.028L377.993 177.117L398.021 211.807L386.131 232.402C385.659 232.182 385.12 232.153 384.626 232.32C384.133 232.488 383.723 232.84 383.483 233.302C383.243 233.764 383.19 234.302 383.336 234.802C383.482 235.302 383.815 235.727 384.266 235.987C384.717 236.248 385.252 236.324 385.758 236.2C386.264 236.077 386.703 235.762 386.983 235.323C387.263 234.884 387.363 234.353 387.262 233.842C387.16 233.331 386.865 232.879 386.439 232.579L398.177 212.247L418.155 246.86L418.257 246.86L438.869 246.859L431.264 260.03L410.038 259.327L407.632 263.494L402.718 254.979L402.615 254.98L372.395 254.98L357.573 280.652L349.987 267.511L357.98 253.667L346.328 232.496L358.072 212.154L357.911 212.062L358.066 211.972L358.016 211.887L358.164 211.802L338.144 177.115L358.119 142.517L397.868 142.514ZM398.227 211.451L378.353 177.03L398.325 142.437L438.283 142.441L458.253 177.037L438.281 211.63L398.535 211.629L417.403 178.948C417.861 179.163 418.384 179.198 418.867 179.047C419.35 178.895 419.759 178.568 420.012 178.13C420.281 177.665 420.354 177.113 420.215 176.594C420.076 176.076 419.737 175.634 419.273 175.365C418.808 175.096 418.255 175.024 417.737 175.163C417.218 175.302 416.776 175.641 416.507 176.106C416.254 176.545 416.175 177.062 416.286 177.556C416.396 178.051 416.688 178.485 417.103 178.775L398.227 211.451ZM478.386 142.165L458.463 176.673L438.481 142.07L438.378 142.071L398.533 142.073L418.456 107.565L458.415 107.569L478.386 142.165ZM477.906 211.232L477.654 211.231L477.66 211.59L478.117 211.591L478.289 211.904L458.441 246.282L457.832 246.281L457.723 246.1L457.409 246.274L457.535 246.492L439.469 246.492L447.602 232.406C448.526 232.825 449.576 232.866 450.53 232.522C451.483 232.177 452.264 231.473 452.706 230.56C453.148 229.647 453.215 228.598 452.894 227.636C452.573 226.674 451.889 225.876 450.987 225.412C450.086 224.948 449.038 224.854 448.069 225.151C447.099 225.448 446.284 226.113 445.798 227.002C445.312 227.892 445.192 228.937 445.465 229.913C445.738 230.89 446.382 231.721 447.259 232.23L447.285 232.244L439.062 246.488L418.345 246.494L398.435 211.983L438.487 211.984L458.414 177.47L477.906 211.232ZM517.864 280.52L498.092 246.271L497.989 246.271L458.849 246.27L478.698 211.892L478.646 211.804L478.521 211.587L517.714 211.581L537.685 246.19L517.864 280.52ZM510.776 363.055L497.783 385.56L485.571 385.561L498.567 363.053L510.776 363.055ZM538.518 432.254L498.56 432.25L478.577 397.646L485.359 385.9L497.98 385.9L511.174 363.047L538.506 363.046L558.489 397.649L538.518 432.254Z" fill="#009D89"/>
</g>
<defs>
<clipPath id="clip0_437_3308">
<rect width="446.496" height="545.843" fill="white" transform="translate(272.921) rotate(30)"/>
</clipPath>
</defs>
</svg>
