<svg width="42" height="26" viewBox="0 0 42 26" fill="none" xmlns="http://www.w3.org/2000/svg">
<path d="M25.3119 7.94372C25.312 6.77562 25.312 5.63592 25.312 4.47906C25.6809 4.47906 26.0033 4.47906 26.3572 4.47906C26.3635 4.6002 26.3738 4.70908 26.374 4.81797C26.3752 5.88951 26.375 6.96104 26.3742 8.03258C26.3741 8.12421 26.3722 8.21648 26.3618 8.30736C26.2672 9.1277 25.8991 9.52473 25.0765 9.5336C23.4142 9.55153 21.7511 9.52728 20.0888 9.49495C19.7775 9.48889 19.4682 9.3079 19.1585 9.30947C18.8429 9.31106 18.5293 9.49257 18.2124 9.50091C16.9175 9.53501 15.6217 9.54223 14.3263 9.53904C13.8988 9.53798 13.5357 9.35329 13.2686 8.95421C12.8479 9.54733 12.237 9.55214 11.6189 9.54685C10.9455 9.54109 10.2718 9.54026 9.59836 9.54744C9.16493 9.55205 8.7418 9.53233 8.36052 9.21123C8.34244 9.29414 8.32635 9.33752 8.32434 9.38153C8.25198 10.9721 7.3798 11.8826 5.78189 11.986C5.35981 12.0133 4.91912 11.9903 4.50751 11.8984C3.18993 11.6043 2.47077 10.6739 2.46657 9.29971C2.46389 8.42058 2.73385 7.61572 3.18861 6.86737C3.28714 6.70524 3.3824 6.65912 3.55515 6.76825C3.76797 6.9027 3.99545 7.01396 4.23344 7.14448C4.091 7.42998 3.95753 7.6791 3.84054 7.93573C3.58462 8.49709 3.47716 9.08093 3.60961 9.69411C3.7077 10.1483 3.95432 10.4999 4.36531 10.7186C5.02716 11.0707 5.71588 11.0919 6.40082 10.8055C7.02469 10.5446 7.25326 10.0187 7.2561 9.37676C7.26071 8.33586 7.2574 7.29492 7.25742 6.254C7.25744 5.5135 7.25758 5.52522 8.00732 5.51554C8.27452 5.51209 8.33346 5.61111 8.32754 5.8542C8.31337 6.43555 8.32101 7.01748 8.32354 7.59916C8.32605 8.17673 8.54047 8.48005 9.12238 8.51541C10.0369 8.57099 10.9565 8.56264 11.8735 8.54976C12.2317 8.54474 12.3639 8.35011 12.3656 7.94531C12.3699 6.92482 12.3669 5.90429 12.3671 4.88378C12.3672 4.4616 12.3674 4.4616 12.7767 4.46128C13.4229 4.46076 13.4229 4.46076 13.4229 5.10066C13.4229 5.92727 13.4203 6.7539 13.4238 7.58049C13.4263 8.1745 13.647 8.45697 14.24 8.52258C14.7143 8.57504 15.1968 8.55951 15.6757 8.5634C16.3645 8.56899 17.0535 8.56482 17.8053 8.56482C17.7136 8.46801 17.671 8.41745 17.6227 8.37296C16.9287 7.73271 16.6765 6.93764 16.8178 6.01661C16.9821 4.94595 17.8003 4.28185 19.015 4.24164C19.3488 4.23059 19.6925 4.24751 20.0183 4.31568C21.2951 4.58288 21.9592 5.73022 21.6405 7.08185C21.5224 7.58281 21.2693 8.00655 20.8906 8.35423C20.8332 8.40694 20.7637 8.44647 20.6997 8.49209C20.7121 8.51634 20.7244 8.54058 20.7367 8.56482C20.9154 8.56482 21.0941 8.56482 21.2728 8.56482C22.3953 8.56482 23.5179 8.56707 24.6404 8.56376C25.1291 8.56231 25.2623 8.4395 25.3119 7.94372ZM19.668 5.26979C19.0941 5.1452 18.5541 5.20882 18.1673 5.68681C17.7846 6.1597 17.8096 6.71656 18.0269 7.25051C18.2461 7.78906 18.6768 8.219 19.2209 8.29138C19.6536 8.34895 20.0111 7.92307 20.2852 7.56254C20.9051 6.74724 20.6272 5.65617 19.668 5.26979Z" fill="#056DBA"/>
<path d="M18.8203 22.2812C18.4167 21.6188 18.0239 20.9757 17.6076 20.2942C17.2349 20.7281 16.8796 21.1312 16.5404 21.5475C16.4858 21.6145 16.4904 21.7401 16.4893 21.8388C16.4843 22.2877 16.4819 22.7368 16.4894 23.1856C16.4927 23.3791 16.4242 23.4651 16.2229 23.4603C15.1136 23.4339 15.3303 23.6289 15.3258 22.5999C15.3142 19.9164 15.3264 17.2328 15.3156 14.5493C15.3144 14.2538 15.3971 14.1636 15.693 14.1692C16.4869 14.1841 16.4871 14.1715 16.4871 14.955C16.4871 16.5161 16.4871 18.0772 16.4871 19.6384C16.4871 19.7369 16.4871 19.8355 16.4871 20.0303C16.6146 19.8893 16.6865 19.814 16.7539 19.7347C17.4733 18.8871 18.197 18.0429 18.9074 17.1878C19.072 16.9897 19.244 16.889 19.5072 16.9087C19.7953 16.9302 20.0862 16.9136 20.3759 16.9136C20.3893 16.9442 20.4027 16.9747 20.4161 17.0053C19.7376 17.7968 19.0591 18.5884 18.374 19.3877C19.1934 20.7212 20.0034 22.0393 20.8523 23.4208C20.3781 23.4208 19.9715 23.4294 19.5661 23.4116C19.505 23.4089 19.4404 23.2884 19.3927 23.2128C19.2022 22.9108 19.0177 22.605 18.8203 22.2812Z" fill="#066EBA"/>
<path d="M21.0554 19.7847C21.1241 19.3334 21.1442 18.8972 21.2707 18.4944C21.5951 17.4613 22.478 16.8266 23.5597 16.7734C24.59 16.7228 25.5138 16.9649 26.0733 17.8928C26.3272 18.3137 26.4246 18.8369 26.5491 19.3249C26.6158 19.5864 26.5797 19.8727 26.6081 20.1459C26.6375 20.4287 26.5528 20.5393 26.2429 20.5348C25.0399 20.5173 23.8366 20.5275 22.6333 20.5278C22.2202 20.5279 22.2108 20.5364 22.2559 20.9374C22.3291 21.5881 22.5963 22.1246 23.2352 22.3735C24.007 22.6743 24.7399 22.5483 25.3957 22.0468C25.8152 21.726 25.8064 21.7144 26.2036 22.0733C26.5592 22.3946 26.5592 22.3946 26.2248 22.7248C25.3053 23.6328 23.5717 23.8839 22.4361 23.2744C21.8586 22.9645 21.4874 22.4863 21.2777 21.8717C21.0493 21.2022 21.046 20.5095 21.0554 19.7847ZM23.7332 19.6088C24.1824 19.6088 24.6323 19.593 25.0804 19.6145C25.3684 19.6283 25.4275 19.51 25.4059 19.2533C25.328 18.3273 24.6969 17.7681 23.7414 17.7948C22.8547 17.8195 22.2605 18.44 22.2341 19.3556C22.2287 19.5417 22.2911 19.6144 22.4777 19.611C22.8757 19.6036 23.2739 19.6088 23.7332 19.6088Z" fill="#056DB9"/>
<path d="M29.0018 22.0147C29.7805 22.7205 31.0124 22.6981 31.7948 21.952C32.0117 21.7451 32.1354 21.7183 32.361 21.9355C32.8879 22.4427 32.9134 22.4584 32.321 22.8998C31.2414 23.7042 30.0549 23.8131 28.8237 23.3129C28.2183 23.0669 27.8139 22.5809 27.6136 21.9626C27.2392 20.8069 27.2205 19.63 27.5752 18.4707C27.8796 17.4757 28.7509 16.8463 29.7906 16.7784C30.816 16.7115 31.7166 16.9489 32.3492 17.83C32.7002 18.3188 32.82 18.8864 32.8686 19.4719C32.8896 19.7256 32.879 19.9818 32.8984 20.2357C32.9159 20.4655 32.8219 20.5333 32.5975 20.5318C31.3737 20.5232 30.1498 20.5275 28.9259 20.5278C28.5266 20.5279 28.4618 20.5669 28.5589 20.9387C28.6545 21.3041 28.8407 21.6458 29.0018 22.0147ZM30.8371 19.609C31.0305 19.6089 31.2247 19.5978 31.4171 19.6118C31.647 19.6284 31.7225 19.5377 31.7078 19.3102C31.6482 18.3846 31.0426 17.7935 30.1336 17.789C29.204 17.7843 28.5909 18.3751 28.5324 19.3128C28.5179 19.5446 28.5946 19.6167 28.8218 19.6128C29.4731 19.6018 30.1247 19.609 30.8371 19.609Z" fill="#046DB9"/>
<path d="M9.82667 16.9861C10.7378 16.7042 11.637 16.688 12.535 16.9075C13.254 17.0833 13.6649 17.564 13.7833 18.2922C13.8111 18.4629 13.8351 18.6365 13.8356 18.8088C13.8398 20.2574 13.8344 21.706 13.8418 23.1546C13.8429 23.3758 13.7786 23.485 13.5472 23.459C13.5069 23.4545 13.4657 23.4583 13.4249 23.4584C12.8096 23.4593 12.8096 23.4593 12.7119 22.8463C11.9727 23.6384 11.0504 23.7032 10.0861 23.5141C9.19228 23.3389 8.64254 22.6633 8.60623 21.7724C8.56446 20.7478 9.00535 20.0595 9.92527 19.7869C10.2726 19.684 10.6433 19.6427 11.0066 19.6151C11.3818 19.5865 11.761 19.612 12.1384 19.608C12.7928 19.6011 12.7122 19.7035 12.7112 19.0147C12.71 18.2247 12.3915 17.8859 11.5979 17.8138C10.9034 17.7508 10.2314 17.8029 9.63432 18.2176C9.60149 18.2404 9.5351 18.2749 9.52894 18.2673C9.36262 18.0644 9.18638 17.8663 9.05079 17.6436C9.0128 17.5812 9.06472 17.3952 9.13181 17.3504C9.34152 17.2104 9.5782 17.1108 9.82667 16.9861ZM12.7209 20.9298C12.7167 20.5279 12.7167 20.5278 12.311 20.5275C11.9844 20.5272 11.6557 20.5046 11.3317 20.5337C10.9795 20.5652 10.6188 20.6055 10.2851 20.7139C9.88121 20.8451 9.72131 21.1803 9.72898 21.6045C9.73645 22.0178 9.91937 22.3107 10.2969 22.466C10.715 22.638 11.1516 22.6411 11.5899 22.5532C12.383 22.3943 12.7203 21.98 12.7209 21.1699C12.7209 21.1087 12.7209 21.0474 12.7209 20.9298Z" fill="#056DBA"/>
<path d="M3.14093 15.9117C2.85575 15.3493 2.58013 14.8072 2.26636 14.1901C2.72313 14.1901 3.10486 14.1769 3.48417 14.2012C3.5603 14.2061 3.64622 14.3441 3.69554 14.4376C4.30938 15.6014 4.91698 16.7685 5.52728 17.9342C5.57774 18.0306 5.63614 18.1228 5.71811 18.2638C6.038 17.6503 6.33392 17.0845 6.62826 16.5179C6.99504 15.8118 7.3527 15.1007 7.73485 14.4031C7.79332 14.2964 7.95717 14.1986 8.08123 14.1862C8.39014 14.1553 8.70421 14.176 9.0814 14.176C8.99305 14.3784 8.94148 14.5164 8.87465 14.6466C8.05467 16.2439 7.22992 17.8388 6.41528 19.4388C6.34492 19.577 6.30717 19.747 6.30578 19.9026C6.29638 20.9538 6.30119 22.0052 6.30072 23.0564C6.30054 23.4578 6.29973 23.4578 5.88649 23.4585C5.07464 23.4596 5.07464 23.4596 5.07464 22.662C5.07464 21.7434 5.07827 20.8248 5.07071 19.9063C5.06958 19.769 5.04359 19.6182 4.98225 19.4974C4.37733 18.3061 3.7625 17.1198 3.14093 15.9117Z" fill="#056DBA"/>
<path d="M35.0044 23.457C34.7726 23.4582 34.5675 23.4451 34.3649 23.4618C34.1097 23.4828 34.0295 23.384 34.0313 23.1297C34.0412 21.7326 34.036 20.3354 34.036 18.9382C34.036 18.3568 34.0426 17.7754 34.0326 17.1943C34.029 16.9815 34.1047 16.8896 34.3172 16.9132C34.3676 16.9189 34.4191 16.914 34.4701 16.914C35.1321 16.9137 35.1321 16.9137 35.2368 17.554C35.9138 16.7643 36.7837 16.6313 37.7148 16.8543C38.6162 17.0702 39.0933 17.7228 39.2417 18.6099C39.3035 18.979 39.3017 19.3609 39.3043 19.7372C39.3118 20.8488 39.2991 21.9605 39.3124 23.072C39.3158 23.3558 39.2476 23.4712 38.939 23.4652C38.1424 23.4498 38.1421 23.4632 38.1421 22.6528C38.1421 21.6329 38.143 20.6131 38.1411 19.5932C38.1409 19.4509 38.136 19.3074 38.1179 19.1664C38.0032 18.2729 37.4605 17.7876 36.6339 17.8342C35.7955 17.8815 35.2151 18.4697 35.2051 19.3276C35.1902 20.592 35.2051 21.8568 35.1934 23.1213C35.1923 23.2333 35.0884 23.3443 35.0044 23.457Z" fill="#056DB9"/>
<path d="M25.098 11.8321C24.265 11.8321 24.2774 11.8319 24.2619 11.0392C24.256 10.743 24.3485 10.6528 24.6432 10.659C25.3959 10.6749 25.3992 10.6622 25.3933 11.4246C25.3919 11.6091 25.4815 11.871 25.098 11.8321Z" fill="#0D72BC"/>
<path d="M13.0722 11.8269C13.0105 11.7464 12.9515 11.6711 12.9472 11.5929C12.9342 11.359 12.9238 11.1217 12.9528 10.8908C12.9631 10.8083 13.0887 10.7399 13.1628 10.6663C13.168 10.6611 13.1826 10.6659 13.1927 10.6653C14.0559 10.6092 14.225 10.7994 14.0606 11.6658C14.0482 11.7311 13.9357 11.8188 13.8643 11.8242C13.6108 11.8432 13.355 11.8311 13.0722 11.8269Z" fill="#0D72BC"/>
<path d="M19.4418 2.92142C19.4417 2.07241 19.4418 2.08294 20.2528 2.07573C20.5048 2.07348 20.5731 2.16041 20.5548 2.39321C20.5381 2.60555 20.5462 2.82038 20.5526 3.03384C20.5572 3.18888 20.4975 3.25565 20.338 3.24896C20.1349 3.24044 19.9299 3.23277 19.728 3.25066C19.49 3.27174 19.4133 3.16784 19.4418 2.92142Z" fill="#066EBA"/>
<path d="M17.9944 3.22061C17.9575 2.88276 17.9362 2.55976 17.9362 2.23675C17.9362 2.1857 18.0273 2.12732 18.0862 2.0868C18.1142 2.0676 18.1658 2.07972 18.2063 2.08249C18.4753 2.10084 18.7441 2.1205 19.013 2.13973C19.0237 2.45364 19.0446 2.76785 19.0355 3.08119C19.0338 3.13816 18.912 3.23507 18.8416 3.23897C18.5676 3.25411 18.292 3.23919 17.9944 3.22061Z" fill="#066EBA"/>
<path d="M5.32116 4.09931C5.6162 4.07182 5.89071 4.0454 6.16245 4.0626C6.2378 4.06737 6.32039 4.19285 6.37015 4.27983C6.40091 4.33359 6.3805 4.41955 6.37525 4.49047C6.35766 4.72817 6.40614 5.12665 6.30301 5.1712C6.05225 5.27953 5.73023 5.2328 5.43749 5.22549C5.38101 5.22408 5.28115 5.11875 5.27979 5.05956C5.27259 4.74564 5.29043 4.43114 5.32116 4.09931Z" fill="#0970BB"/>
<path d="M26.8918 11.0944C26.8918 11.8318 26.8918 11.8318 26.1949 11.8315C25.7867 11.8313 25.7867 11.8313 25.7865 11.414C25.7862 10.6632 25.7868 10.6808 26.518 10.6576C26.8481 10.6471 26.9374 10.773 26.8918 11.0944Z" fill="#0A70BB"/>
<path d="M11.4469 11.2119C11.447 11.1009 11.4535 11.0187 11.4457 10.9378C11.4269 10.7441 11.5002 10.6584 11.7043 10.6635C12.7402 10.6895 12.5172 10.5046 12.5579 11.4814C12.5699 11.7677 12.4797 11.8766 12.2 11.8328C12.1502 11.825 12.0982 11.8317 12.0472 11.8317C11.4469 11.8317 11.4469 11.8317 11.4469 11.2119Z" fill="#0A70BB"/>
</svg>
