<svg width="27" height="27" viewBox="0 0 27 27" fill="none" xmlns="http://www.w3.org/2000/svg">
<path d="M21.9375 16.0312V13.0781C21.9375 12.0711 21.5375 11.1054 20.8254 10.3933C20.1134 9.68128 19.1476 9.28125 18.1406 9.28125H16.4531C16.1175 9.28125 15.7955 9.14791 15.5582 8.91056C15.3208 8.67321 15.1875 8.35129 15.1875 8.01562V6.32812C15.1875 5.32113 14.7875 4.35538 14.0754 3.64333C13.3634 2.93128 12.3976 2.53125 11.3906 2.53125H9.28125M9.28125 16.875H17.7188M9.28125 20.25H13.5M11.8125 2.53125H6.32812C5.6295 2.53125 5.0625 3.09825 5.0625 3.79688V23.2031C5.0625 23.9017 5.6295 24.4688 6.32812 24.4688H20.6719C21.3705 24.4688 21.9375 23.9017 21.9375 23.2031V12.6562C21.9375 9.97093 20.8708 7.3956 18.972 5.49679C17.0731 3.59799 14.4978 2.53125 11.8125 2.53125Z" stroke="black" stroke-width="1.5" stroke-linecap="round" stroke-linejoin="round"/>
</svg>
