<svg width="27" height="27" viewBox="0 0 27 27" fill="none" xmlns="http://www.w3.org/2000/svg">
<path d="M11.8125 6.75C10.1437 6.75 8.51242 7.24485 7.12488 8.17198C5.73734 9.0991 4.65588 10.4169 4.01727 11.9586C3.37866 13.5004 3.21157 15.1969 3.53713 16.8336C3.86269 18.4703 4.66628 19.9737 5.84629 21.1537C7.0263 22.3337 8.52971 23.1373 10.1664 23.4629C11.8031 23.7884 13.4996 23.6213 15.0414 22.9827C16.5831 22.3441 17.9009 21.2627 18.828 19.8751C19.7552 18.4876 20.25 16.8563 20.25 15.1875H11.8125V6.75Z" stroke="#002623" stroke-width="1.5" stroke-linecap="round" stroke-linejoin="round"/>
<path d="M15.1875 11.8125H23.625C23.625 9.57474 22.7361 7.42862 21.1537 5.84629C19.5714 4.26395 17.4253 3.375 15.1875 3.375V11.8125Z" stroke="#002623" stroke-width="1.5" stroke-linecap="round" stroke-linejoin="round"/>
</svg>
