<svg width="27" height="27" viewBox="0 0 27 27" fill="none" xmlns="http://www.w3.org/2000/svg">
<path d="M2.53125 21.0937C8.53381 21.0889 14.5103 21.8837 20.3029 23.4574C21.1208 23.6801 21.9375 23.0726 21.9375 22.2244V21.0937M4.21875 5.0625V5.90625C4.21875 6.13003 4.12986 6.34464 3.97162 6.50287C3.81339 6.66111 3.59878 6.75 3.375 6.75H2.53125M2.53125 6.75V6.32812C2.53125 5.6295 3.09825 5.0625 3.79688 5.0625H22.7812M2.53125 6.75V16.875M22.7812 5.0625V5.90625C22.7812 6.372 23.1592 6.75 23.625 6.75H24.4688M22.7812 5.0625H23.2031C23.9017 5.0625 24.4688 5.6295 24.4688 6.32812V17.2969C24.4688 17.9955 23.9017 18.5625 23.2031 18.5625H22.7812M2.53125 16.875V17.2969C2.53125 17.6325 2.66459 17.9545 2.90194 18.1918C3.13929 18.4292 3.46121 18.5625 3.79688 18.5625H4.21875M2.53125 16.875H3.375C3.59878 16.875 3.81339 16.9639 3.97162 17.1221C4.12986 17.2804 4.21875 17.495 4.21875 17.7187V18.5625M22.7812 18.5625V17.7187C22.7812 17.495 22.8701 17.2804 23.0284 17.1221C23.1866 16.9639 23.4012 16.875 23.625 16.875H24.4688M22.7812 18.5625H4.21875M16.875 11.8125C16.875 12.7076 16.5194 13.566 15.8865 14.199C15.2536 14.8319 14.3951 15.1875 13.5 15.1875C12.6049 15.1875 11.7464 14.8319 11.1135 14.199C10.4806 13.566 10.125 12.7076 10.125 11.8125C10.125 10.9174 10.4806 10.0589 11.1135 9.42601C11.7464 8.79308 12.6049 8.4375 13.5 8.4375C14.3951 8.4375 15.2536 8.79308 15.8865 9.42601C16.5194 10.0589 16.875 10.9174 16.875 11.8125ZM20.25 11.8125H20.259V11.8215H20.25V11.8125ZM6.75 11.8125H6.759V11.8215H6.75V11.8125Z" stroke="#002623" stroke-width="1.5" stroke-linecap="round" stroke-linejoin="round"/>
</svg>
