<svg width="27" height="27" viewBox="0 0 27 27" fill="none" xmlns="http://www.w3.org/2000/svg">
<path d="M4.21875 6.75C4.21875 6.07867 4.48543 5.43484 4.96014 4.96014C5.43484 4.48543 6.07867 4.21875 6.75 4.21875H9.28125C9.95258 4.21875 10.5964 4.48543 11.0711 4.96014C11.5458 5.43484 11.8125 6.07867 11.8125 6.75V9.28125C11.8125 9.95258 11.5458 10.5964 11.0711 11.0711C10.5964 11.5458 9.95258 11.8125 9.28125 11.8125H6.75C6.07867 11.8125 5.43484 11.5458 4.96014 11.0711C4.48543 10.5964 4.21875 9.95258 4.21875 9.28125V6.75ZM4.21875 17.7188C4.21875 17.0474 4.48543 16.4036 4.96014 15.9289C5.43484 15.4542 6.07867 15.1875 6.75 15.1875H9.28125C9.95258 15.1875 10.5964 15.4542 11.0711 15.9289C11.5458 16.4036 11.8125 17.0474 11.8125 17.7188V20.25C11.8125 20.9213 11.5458 21.5652 11.0711 22.0399C10.5964 22.5146 9.95258 22.7812 9.28125 22.7812H6.75C6.07867 22.7812 5.43484 22.5146 4.96014 22.0399C4.48543 21.5652 4.21875 20.9213 4.21875 20.25V17.7188ZM15.1875 6.75C15.1875 6.07867 15.4542 5.43484 15.9289 4.96014C16.4036 4.48543 17.0474 4.21875 17.7188 4.21875H20.25C20.9213 4.21875 21.5652 4.48543 22.0399 4.96014C22.5146 5.43484 22.7812 6.07867 22.7812 6.75V9.28125C22.7812 9.95258 22.5146 10.5964 22.0399 11.0711C21.5652 11.5458 20.9213 11.8125 20.25 11.8125H17.7188C17.0474 11.8125 16.4036 11.5458 15.9289 11.0711C15.4542 10.5964 15.1875 9.95258 15.1875 9.28125V6.75ZM15.1875 17.7188C15.1875 17.0474 15.4542 16.4036 15.9289 15.9289C16.4036 15.4542 17.0474 15.1875 17.7188 15.1875H20.25C20.9213 15.1875 21.5652 15.4542 22.0399 15.9289C22.5146 16.4036 22.7812 17.0474 22.7812 17.7188V20.25C22.7812 20.9213 22.5146 21.5652 22.0399 22.0399C21.5652 22.5146 20.9213 22.7812 20.25 22.7812H17.7188C17.0474 22.7812 16.4036 22.5146 15.9289 22.0399C15.4542 21.5652 15.1875 20.9213 15.1875 20.25V17.7188Z" stroke="black" stroke-width="1.5" stroke-linecap="round" stroke-linejoin="round"/>
</svg>
