<svg width="16" height="16" viewBox="0 0 16 16" fill="none" xmlns="http://www.w3.org/2000/svg">
<path fill-rule="evenodd" clip-rule="evenodd" d="M1 8C1 6.14348 1.7375 4.36301 3.05025 3.05025C4.36301 1.7375 6.14348 1 8 1C9.85652 1 11.637 1.7375 12.9497 3.05025C14.2625 4.36301 15 6.14348 15 8C15 9.85652 14.2625 11.637 12.9497 12.9497C11.637 14.2625 9.85652 15 8 15C6.14348 15 4.36301 14.2625 3.05025 12.9497C1.7375 11.637 1 9.85652 1 8ZM8.75 3.75C8.75 3.55109 8.67098 3.36032 8.53033 3.21967C8.38968 3.07902 8.19891 3 8 3C7.80109 3 7.61032 3.07902 7.46967 3.21967C7.32902 3.36032 7.25 3.55109 7.25 3.75V8C7.25 8.414 7.586 8.75 8 8.75H11.25C11.4489 8.75 11.6397 8.67098 11.7803 8.53033C11.921 8.38968 12 8.19891 12 8C12 7.80109 11.921 7.61032 11.7803 7.46967C11.6397 7.32902 11.4489 7.25 11.25 7.25H8.75V3.75Z" fill="white"/>
</svg>
