<svg width="16" height="16" viewBox="0 0 16 16" fill="none" xmlns="http://www.w3.org/2000/svg">
<path d="M12 2C11.7348 2 11.4804 2.10536 11.2929 2.29289C11.1054 2.48043 11 2.73478 11 3V13C11 13.2652 11.1054 13.5196 11.2929 13.7071C11.4804 13.8946 11.7348 14 12 14H13C13.2652 14 13.5196 13.8946 13.7071 13.7071C13.8946 13.5196 14 13.2652 14 13V3C14 2.73478 13.8946 2.48043 13.7071 2.29289C13.5196 2.10536 13.2652 2 13 2H12ZM6.5 6C6.5 5.73478 6.60536 5.48043 6.79289 5.29289C6.98043 5.10536 7.23478 5 7.5 5H8.5C8.76522 5 9.01957 5.10536 9.20711 5.29289C9.39464 5.48043 9.5 5.73478 9.5 6V13C9.5 13.2652 9.39464 13.5196 9.20711 13.7071C9.01957 13.8946 8.76522 14 8.5 14H7.5C7.23478 14 6.98043 13.8946 6.79289 13.7071C6.60536 13.5196 6.5 13.2652 6.5 13V6ZM2 9C2 8.73478 2.10536 8.48043 2.29289 8.29289C2.48043 8.10536 2.73478 8 3 8H4C4.26522 8 4.51957 8.10536 4.70711 8.29289C4.89464 8.48043 5 8.73478 5 9V13C5 13.2652 4.89464 13.5196 4.70711 13.7071C4.51957 13.8946 4.26522 14 4 14H3C2.73478 14 2.48043 13.8946 2.29289 13.7071C2.10536 13.5196 2 13.2652 2 13V9Z" fill="white"/>
</svg>
