<svg width="16" height="16" viewBox="0 0 16 16" fill="none" xmlns="http://www.w3.org/2000/svg">
<path d="M12.651 2.96191C12.4369 2.96191 12.2626 3.1362 12.2626 3.35035C12.2626 3.56451 12.4369 3.73879 12.651 3.73879C12.8652 3.73879 13.0394 3.56454 13.0394 3.35035C13.0394 3.13616 12.8652 2.96191 12.651 2.96191ZM8.00003 4.5577C6.10121 4.5577 4.5564 6.10252 4.5564 8.00133C4.5564 9.90015 6.10121 11.445 8.00003 11.445C9.89888 11.445 11.4437 9.90018 11.4437 8.00136C11.4437 6.10255 9.89888 4.5577 8.00003 4.5577Z" fill="#02403B"/>
<path d="M11.6139 0.000976562H4.38617C1.96763 0.000976562 0 1.96861 0 4.38718V11.6149C0 14.0334 1.96763 16.001 4.38617 16.001H11.6139C14.0324 16.001 16 14.0334 16 11.6149V4.38718C16 1.96861 14.0324 0.000976562 11.6139 0.000976562ZM8.00002 12.3895C5.58017 12.3895 3.61154 10.4208 3.61154 8.001C3.61154 5.58115 5.5802 3.61255 8.00002 3.61255C10.4198 3.61255 12.3885 5.58118 12.3885 8.001C12.3885 10.4208 10.4198 12.3895 8.00002 12.3895ZM12.651 4.68336C11.9158 4.68336 11.3177 4.08524 11.3177 3.35005C11.3177 2.61486 11.9158 2.0167 12.651 2.0167C13.3862 2.0167 13.9843 2.61483 13.9843 3.35002C13.9843 4.08521 13.3862 4.68336 12.651 4.68336Z" fill="#02403B"/>
</svg>
