<svg width="80" height="80" viewBox="0 0 80 80" fill="none" xmlns="http://www.w3.org/2000/svg">
<path d="M70 25L62.5 20.6233M70 25V32.5M70 25L62.5 29.3767M10 25L17.5 20.6233M10 25L17.5 29.3767M10 25V32.5M40 72.5L47.5 68.1233M40 72.5V65M40 72.5L32.5 68.1233M32.5 11.8733L40 7.5L47.5 11.8767M70 47.5V55L62.5 59.3767M17.5 59.3767L10 55V47.5" stroke="white" stroke-width="2" stroke-linecap="round" stroke-linejoin="round"/>
<path d="M40 42.4997L47.5 38.123M40 42.4997L32.5 38.123M40 42.4997V49.9997" stroke="#ED972B" stroke-width="2" stroke-linecap="round" stroke-linejoin="round"/>
</svg>
