<svg width="80" height="80" viewBox="0 0 80 80" fill="none" xmlns="http://www.w3.org/2000/svg">
<path d="M31.8933 10H17.5C15.5109 10 13.6032 10.7902 12.1967 12.1967C10.7902 13.6032 10 15.5109 10 17.5V31.8933C10 33.8833 10.79 35.7933 12.1967 37.1967L44.1333 69.1333C46.4633 71.4633 50.0667 72.04 52.8233 70.2333C59.762 65.6888 65.6888 59.762 70.2333 52.8233C72.04 50.0667 71.4633 46.4633 69.1333 44.1333L37.2 12.2C36.5034 11.5026 35.6762 10.9493 34.7656 10.5718C33.8551 10.1943 32.879 9.99999 31.8933 10Z" stroke="white" stroke-width="1.5" stroke-linecap="round" stroke-linejoin="round"/>
<path d="M26 19C25.4477 19 25 19.4477 25 20V20.0267C25 20.579 25.4477 21.0267 26 21.0267H26.0187C26.571 21.0267 27.0187 20.579 27.0187 20.0267V20C27.0187 19.4477 26.571 19 26.0187 19H26Z" stroke="#ED972B" stroke-width="2" stroke-linecap="round" stroke-linejoin="round"/>
</svg>
