<svg width="88" height="88" viewBox="0 0 88 88" fill="none" xmlns="http://www.w3.org/2000/svg">
<path d="M69.841 80.134C77.5586 72.3932 82.1376 61.9801 82.5777 51.1798C82.9326 42.4677 80.9211 34.4031 76.5432 26.9861C71.7838 18.9222 64.3969 12.3282 55.563 8.71885C50.189 6.52228 44.5867 5.40473 38.7561 5.36622C38.6803 5.3648 38.6423 5.327 38.6423 5.25283V0.124393C38.6423 0.0373855 38.686 -0.00397817 38.7733 0.000300873C40.2588 0.066626 41.7465 0.0602072 43.2514 0.220671C45.4998 0.463151 47.6959 0.82473 49.8398 1.30541C52.9325 1.99861 56.1398 3.11687 59.4615 4.66018C67.6592 8.46425 74.2755 14.0263 79.3103 21.3463C84.099 28.3069 86.9148 36.0241 87.7578 44.4981C88.4648 51.6255 87.6046 58.6453 85.1774 65.5574C82.743 72.4852 78.8903 78.6127 73.6193 83.9402C73.5663 83.9944 73.5127 83.9944 73.4583 83.9402L69.841 80.3287C69.8152 80.3032 69.8007 80.2684 69.8007 80.2319C69.8007 80.1954 69.8152 80.1602 69.841 80.134Z" fill="white"/>
<path d="M37.8996 87.9985C23.4992 87.6006 10.7089 79.6587 4.18281 66.8686C-5.16627 48.5457 1.67541 26.1621 19.5364 15.9993C24.4009 13.2308 29.6819 11.5976 35.3793 11.0998C46.8022 10.1627 57.9116 14.2471 65.9769 22.266C77.7433 33.9649 80.6242 52.0011 73.175 66.7466C70.274 72.4877 66.1694 77.236 60.8612 80.9916C54.1505 85.7385 46.4966 88.0741 37.8996 87.9985Z" fill="white"/>
<path d="M49.625 39.7393V63.8127L44.3125 61.6877L39 63.8127L33.6875 61.6877L28.375 63.8127V39.7393C28.375 38.1696 29.5168 36.8252 31.0766 36.6439C36.3412 36.0328 41.6588 36.0328 46.9234 36.6439C48.4818 36.8252 49.625 38.1696 49.625 39.7393Z" stroke="#009D89" stroke-width="1.5" stroke-linecap="round" stroke-linejoin="round"/>
<rect x="33.6875" y="43.625" width="10.625" height="1.59375" rx="0.796875" fill="#009D89"/>
<rect x="33.6875" y="48.9375" width="10.625" height="1.59375" rx="0.796875" fill="#009D89"/>
</svg>
