<svg width="78" height="88" viewBox="0 0 78 88" fill="none" xmlns="http://www.w3.org/2000/svg">
<path d="M45.7549 1.55064C53.4241 3.70495 60.0325 7.63963 65.58 13.3547C68.7751 16.6423 71.3306 20.2145 73.2467 24.0713C74.7389 27.0846 76.0027 30.3735 76.7564 33.5973C79.2181 44.1263 78.0253 54.2993 73.1781 64.1162C72.7645 64.9509 71.9473 66.2999 70.7267 68.1632C66.2678 74.9554 60.3979 80.1357 53.117 83.7041C47.2421 86.5195 41.0347 87.9514 34.4948 87.9999C34.3349 88.0025 34.255 87.9234 34.255 87.7625V83.4552C34.255 83.2918 34.3375 83.2089 34.5024 83.2063C39.257 83.191 44.0914 82.2606 48.4615 80.5032C57.3412 76.9323 64.1043 70.8522 68.751 62.2631C69.053 61.7066 69.3157 61.1336 69.539 60.544C69.8473 59.7323 70.3193 58.9857 70.6239 58.151C73.758 49.5976 74.0714 41.1131 71.5641 32.6975C66.6497 16.2224 51.522 4.86634 34.453 4.77828C34.4005 4.77828 34.3501 4.7573 34.313 4.71996C34.2759 4.68262 34.255 4.63199 34.255 4.57918V0.233554C34.255 0.0778514 34.3311 0 34.4834 0C38.318 0.02042 42.0752 0.537299 45.7549 1.55064Z" fill="white"/>
<path d="M21.2209 76.3437C1.76121 68.0889 -5.8445 44.9135 4.88648 26.6849C8.99007 19.7114 15.0452 14.7711 23.0519 11.8638C36.6188 7.26162 51.2174 11.3622 60.3724 22.1784C75.6714 40.2539 68.454 68.1847 46.5466 76.6002C38.2633 79.7807 29.8214 79.6951 21.2209 76.3437Z" fill="white"/>
<path d="M38.25 54.098C39.4584 54.4488 40.7105 54.6263 41.9688 54.625C43.9923 54.6279 45.9896 54.1665 47.8068 53.2763C47.8606 52.0066 47.4989 50.7539 46.7766 49.7082C46.0544 48.6625 45.0109 47.8808 43.8043 47.4815C42.5978 47.0822 41.294 47.0871 40.0905 47.4955C38.887 47.9039 37.8495 48.6935 37.1351 49.7446M38.25 54.098V54.0938C38.25 52.517 37.8448 51.0338 37.1351 49.7446M38.25 54.098V54.2482C35.5236 55.8902 32.4 56.7554 29.2173 56.75C25.9151 56.75 22.8253 55.8363 20.1875 54.2482L20.1861 54.0938C20.185 52.0884 20.8514 50.1397 22.0802 48.555C23.3089 46.9702 25.0302 45.8394 26.9726 45.341C28.915 44.8426 30.9681 45.0048 32.8081 45.8021C34.6481 46.5994 36.1705 47.9865 37.1351 49.7446M34 36.0313C34 37.2993 33.4963 38.5154 32.5996 39.4121C31.703 40.3088 30.4868 40.8125 29.2188 40.8125C27.9507 40.8125 26.7346 40.3088 25.8379 39.4121C24.9413 38.5154 24.4375 37.2993 24.4375 36.0313C24.4375 34.7632 24.9413 33.5471 25.8379 32.6504C26.7346 31.7537 27.9507 31.25 29.2188 31.25C30.4868 31.25 31.703 31.7537 32.5996 32.6504C33.4963 33.5471 34 34.7632 34 36.0313ZM45.6875 39.2188C45.6875 40.205 45.2957 41.1509 44.5983 41.8483C43.9009 42.5457 42.955 42.9375 41.9688 42.9375C40.9825 42.9375 40.0366 42.5457 39.3392 41.8483C38.6418 41.1509 38.25 40.205 38.25 39.2188C38.25 38.2325 38.6418 37.2866 39.3392 36.5892C40.0366 35.8918 40.9825 35.5 41.9688 35.5C42.955 35.5 43.9009 35.8918 44.5983 36.5892C45.2957 37.2866 45.6875 38.2325 45.6875 39.2188Z" stroke="#2183E7" stroke-width="1.5" stroke-linecap="round" stroke-linejoin="round"/>
</svg>
