<svg width="88" height="88" viewBox="0 0 88 88" fill="none" xmlns="http://www.w3.org/2000/svg">
<path d="M69.841 80.134C77.5586 72.3932 82.1376 61.9801 82.5777 51.1798C82.9326 42.4677 80.9211 34.4031 76.5432 26.9861C71.7838 18.9222 64.3969 12.3282 55.563 8.71885C50.189 6.52228 44.5867 5.40473 38.7561 5.36622C38.6803 5.3648 38.6423 5.327 38.6423 5.25283V0.124393C38.6423 0.0373855 38.686 -0.00397817 38.7733 0.000300873C40.2588 0.066626 41.7465 0.0602072 43.2514 0.220671C45.4998 0.463151 47.6959 0.82473 49.8398 1.30541C52.9325 1.99861 56.1398 3.11687 59.4615 4.66018C67.6592 8.46425 74.2755 14.0263 79.3103 21.3463C84.099 28.3069 86.9148 36.0241 87.7578 44.4981C88.4648 51.6255 87.6046 58.6453 85.1774 65.5574C82.743 72.4852 78.8903 78.6127 73.6193 83.9402C73.5663 83.9944 73.5127 83.9944 73.4583 83.9402L69.841 80.3287C69.8152 80.3032 69.8007 80.2684 69.8007 80.2319C69.8007 80.1954 69.8152 80.1602 69.841 80.134Z" fill="white"/>
<path d="M37.8996 87.9985C23.4992 87.6006 10.7089 79.6587 4.18281 66.8686C-5.16627 48.5457 1.67541 26.1621 19.5364 15.9993C24.4009 13.2308 29.6819 11.5976 35.3793 11.0998C46.8022 10.1627 57.9116 14.2471 65.9769 22.266C77.7433 33.9649 80.6242 52.0011 73.175 66.7466C70.274 72.4877 66.1694 77.236 60.8612 80.9916C54.1505 85.7385 46.4966 88.0741 37.8996 87.9985Z" fill="white"/>
<path d="M26.224 57.24C27.6533 57.24 28.7307 56.92 29.456 56.28C30.2027 55.6187 30.576 54.776 30.576 53.752C30.576 52.8773 30.288 52.152 29.712 51.576C29.1573 51 28.272 50.5413 27.056 50.2L24.272 49.368C23.376 49.0907 22.5973 48.7387 21.936 48.312C21.2747 47.864 20.7627 47.32 20.4 46.68C20.0587 46.0187 19.888 45.2507 19.888 44.376C19.888 42.7333 20.4853 41.4533 21.68 40.536C22.8747 39.5973 24.464 39.128 26.448 39.128C27.6 39.128 28.624 39.256 29.52 39.512C30.4373 39.7467 31.152 40.056 31.664 40.44C32.1973 40.824 32.464 41.2293 32.464 41.656C32.464 41.9333 32.3893 42.1893 32.24 42.424C32.0907 42.6373 31.8987 42.808 31.664 42.936C31.1307 42.5093 30.4053 42.136 29.488 41.816C28.592 41.496 27.6107 41.336 26.544 41.336C25.3067 41.336 24.3253 41.6133 23.6 42.168C22.8747 42.7013 22.512 43.4373 22.512 44.376C22.512 45.1227 22.768 45.7307 23.28 46.2C23.8133 46.6693 24.6667 47.0747 25.84 47.416L27.792 47.992C29.4773 48.4613 30.8 49.144 31.76 50.04C32.7413 50.936 33.232 52.1733 33.232 53.752C33.232 55.4373 32.6133 56.8027 31.376 57.848C30.16 58.8933 28.4427 59.416 26.224 59.416C24.9227 59.416 23.7813 59.2773 22.8 59C21.84 58.7013 21.0827 58.3387 20.528 57.912C19.9947 57.464 19.728 57.0267 19.728 56.6C19.728 56.2373 19.8347 55.9387 20.048 55.704C20.2827 55.448 20.5493 55.2667 20.848 55.16C21.3387 55.6293 22.032 56.0987 22.928 56.568C23.824 57.016 24.9227 57.24 26.224 57.24ZM35.8558 57.656C35.8558 57.144 36.0051 56.7173 36.3038 56.376C36.6238 56.0347 37.0611 55.864 37.6158 55.864C38.1704 55.864 38.5971 56.0347 38.8958 56.376C39.1944 56.7173 39.3438 57.144 39.3438 57.656C39.3438 58.1467 39.1944 58.5627 38.8958 58.904C38.5971 59.2453 38.1704 59.416 37.6158 59.416C37.0611 59.416 36.6238 59.2453 36.3038 58.904C36.0051 58.5627 35.8558 58.1467 35.8558 57.656ZM45.2838 49.464H48.9638C50.5424 49.464 51.7798 49.1227 52.6758 48.44C53.5718 47.7573 54.0198 46.744 54.0198 45.4C54.0198 44.0773 53.5504 43.0747 52.6118 42.392C51.6731 41.7093 50.3291 41.368 48.5798 41.368C48.0038 41.368 47.4171 41.4 46.8198 41.464C46.2438 41.5067 45.7318 41.5707 45.2838 41.656V49.464ZM48.9638 51.64H42.6918V40.952C42.6918 40.6107 42.7771 40.3547 42.9478 40.184C43.1398 39.992 43.4064 39.8427 43.7478 39.736C44.3664 39.544 45.1238 39.4053 46.0198 39.32C46.9371 39.2347 47.8224 39.192 48.6758 39.192C51.3424 39.192 53.3371 39.736 54.6598 40.824C55.9824 41.912 56.6438 43.4373 56.6438 45.4C56.6438 46.6587 56.3558 47.7573 55.7798 48.696C55.2038 49.6347 54.3504 50.36 53.2198 50.872C52.0891 51.384 50.6704 51.64 48.9638 51.64ZM49.0278 50.808L50.9478 49.848C51.5451 50.5947 52.1638 51.3733 52.8038 52.184C53.4438 52.9947 54.0624 53.784 54.6598 54.552C55.2571 55.32 55.7904 56.0133 56.2598 56.632C56.7291 57.2293 57.0918 57.6987 57.3478 58.04C57.2624 58.4027 57.0704 58.6907 56.7718 58.904C56.4944 59.1173 56.2064 59.224 55.9078 59.224C55.5451 59.224 55.2464 59.1387 55.0118 58.968C54.7771 58.776 54.5318 58.5093 54.2758 58.168L49.0278 50.808ZM42.6918 50.936H45.3158V58.936C45.1878 58.9787 45.0171 59.0213 44.8038 59.064C44.5904 59.128 44.3558 59.16 44.0998 59.16C43.6304 59.16 43.2784 59.064 43.0438 58.872C42.8091 58.68 42.6918 58.3813 42.6918 57.976V50.936Z" fill="#FEB11C"/>
</svg>
