<svg width="261" height="111" viewBox="0 0 261 111" fill="none" xmlns="http://www.w3.org/2000/svg">
<g clip-path="url(#clip0_241_3224)">
<path d="M213.921 55.4532C213.921 61.1438 213.921 66.5705 213.921 72.0076C213.921 75.1115 213.393 75.6288 210.227 75.6288C207.425 75.6288 204.623 75.6288 201.858 75.6288C200.749 70.6522 200.274 70.3728 193.114 70.5022C189.362 70.5694 188.449 71.3816 187.631 75.6288H185.15C162.382 75.6288 139.61 75.6288 116.834 75.6288C112.691 75.6288 112.28 75.2357 112.269 71.2626C112.269 65.4376 112.301 65.391 118.269 65.391H122.227V62.4578C122.227 48.5798 122.227 34.7017 122.227 20.8237C122.227 17.2024 122.755 16.6851 126.496 16.6851C134.063 16.623 133.504 16.4988 133.483 23.6069C133.483 27.6368 133.483 31.6719 133.483 36.0226H136.528C146.554 36.0226 156.581 35.9916 166.607 36.0536C168.886 36.0372 171.162 36.2452 173.398 36.6744C180.549 38.1488 184.528 42.9289 185.008 50.399C185.161 52.8873 185.177 55.3912 185.209 57.8898C185.24 60.2902 185.209 62.6958 185.209 65.272H202.865V48.9505C202.865 46.7088 202.865 44.467 202.865 42.2253C202.865 40.3267 203.815 39.349 205.778 39.3593C207.451 39.3593 209.119 39.4007 210.792 39.3593C213.045 39.2921 213.958 40.394 213.921 42.5253C213.868 46.7467 213.921 50.9732 213.921 55.4584M138.406 46.2035C134.227 46.2035 133.525 46.5605 133.472 49.1316C133.388 53.6064 133.436 58.0812 133.472 62.5509C133.472 64.3719 134.28 65.4324 136.333 65.4272C148.005 65.4031 159.676 65.4031 171.346 65.4272C173.383 65.4272 174.158 64.3926 174.132 62.5095C174.1 60.1919 174.132 57.8536 174.132 55.5464C174.09 48.428 171.932 46.2345 164.723 46.2345C156.111 46.1725 147.509 46.1983 138.406 46.1983V46.2035Z" fill="white"/>
<path d="M80.7628 43.8008C79.776 47.7584 78.1243 51.1003 75.1955 53.8628L67.2114 45.7098C67.3856 45.4252 67.7391 44.8665 68.0821 44.2923C70.5412 40.0968 69.6652 35.0581 66.003 32.1352C64.1859 30.6587 61.8703 29.9034 59.5131 30.0183C57.1558 30.1332 54.9281 31.11 53.2695 32.756C46.7787 38.9639 40.4251 45.2804 34.0663 51.5969C33.2193 52.5539 32.45 53.5744 31.7655 54.6491L22.9054 45.7667C27.4384 41.4315 32.1982 36.8687 36.974 32.3163C40.251 29.2123 43.3064 25.8239 46.8895 23.0614C53.9766 17.5778 61.8974 16.9311 69.8447 20.9921C77.7919 25.0531 81.3486 31.8093 81.1639 40.5158C81.0909 41.6171 80.957 42.7138 80.7628 43.8008Z" fill="white"/>
<path d="M7.69683 87.5554C0.921117 79.2782 1.54379 67.1884 9.00025 60.1373L16.7944 68.2024C16.309 69.3922 15.4066 70.9907 15.0055 72.6979C14.5941 74.6041 14.8079 76.5891 15.6164 78.369C16.425 80.1489 17.7868 81.6327 19.5072 82.6083C21.2276 83.5838 23.2187 84.0013 25.1956 83.8008C27.1726 83.6004 29.0343 82.7924 30.5147 81.4924C33.6229 78.6988 36.5358 75.6984 39.5226 72.7807C43.9976 68.4093 48.462 64.0276 52.8313 59.7441L60.2192 67.2557C52.7733 74.9276 45.1638 83.0081 37.2482 90.8249C34.2773 93.7736 30.2087 94.9635 25.9659 95.2428C18.5992 95.755 12.5728 93.1735 7.69683 87.5554Z" fill="white"/>
<path d="M54.3379 94.618C50.2588 93.4799 47.6836 91.9486 45.367 89.3723L53.3881 81.4315C53.7891 81.6953 54.2113 81.9488 54.644 82.2436C58.9395 84.9285 64.0899 84.2302 67.2614 80.5313C68.8124 78.7838 69.6306 76.5251 69.5513 74.21C69.472 71.8948 68.5011 69.6951 66.8339 68.0535C60.3326 61.5042 53.7047 55.079 47.1084 48.6228C46.4432 48.0144 45.738 47.4493 44.9976 46.9312L53.3617 38.5195C53.4883 38.6282 53.9738 38.9851 54.4171 39.4042C61.0873 45.9793 67.8577 52.4976 74.4962 59.1711C84.2429 69.0002 83.388 83.2266 72.5437 91.2916C67.1875 95.2802 61.0767 96.2579 54.3379 94.618Z" fill="white"/>
<path d="M35.669 28.0297L30.9197 32.4787C28.1387 30.4094 25.173 29.4886 21.9065 30.3111C20.3384 30.6832 18.8936 31.4428 17.7099 32.5175C16.5263 33.5922 15.6431 34.9463 15.1447 36.4505C14.6462 37.9548 14.5492 39.5592 14.8627 41.1107C15.1762 42.6621 15.8898 44.1091 16.9355 45.3135C19.7904 48.6761 23.1413 51.6351 26.297 54.7494C30.6294 59.0173 34.9883 63.2594 39.0991 67.279L30.8564 75.5717C25.8854 70.6881 20.6295 65.7425 15.6321 60.5693C11.9804 56.7773 7.93817 53.0785 5.34714 48.6243C0.20203 39.7833 3.268 28.8523 11.8221 22.4219C19.3471 16.7624 30.9672 17.3677 38.3339 23.8084C38.5239 23.9687 38.6505 24.2015 39.3893 25.0292C38.202 25.9604 36.9936 26.9278 35.669 28.0297Z" fill="white"/>
<path d="M219.225 57.0027C219.225 44.6852 219.225 32.6316 219.225 20.5728C219.225 17.143 219.689 16.6981 223.151 16.6722C231.141 16.5998 230.365 16.4498 230.365 23.5733C230.365 39.5896 230.365 55.6076 230.365 71.6274C230.365 75.2487 230.001 75.616 226.296 75.6211C218.755 75.6211 219.188 76.3092 219.22 68.6269C219.236 64.8401 219.225 61.0482 219.225 57.0027Z" fill="white"/>
<path d="M253.021 40.4473C257.565 40.4783 257.823 40.7059 257.802 44.7876C257.802 49.609 257.923 54.446 257.612 59.2726C257.2 65.7185 254.942 71.4711 248.293 73.9284C248.293 73.9284 244.467 75.6407 237.48 75.5062C236.964 75.5436 236.45 75.4067 236.024 75.1182C235.534 74.6362 235.488 74.2345 235.443 73.5559C235.443 72.7799 235.443 71.9308 235.443 71.228C235.475 68.7241 235.443 68.3827 235.549 67.348C235.631 67.0523 235.644 66.8812 235.797 66.6134C236.652 65.3408 238.309 65.4184 240.504 64.9632C244.198 64.1976 246.309 61.7351 246.578 57.2758C246.805 53.6545 246.689 50.0333 246.694 46.412C246.71 40.4473 246.699 40.4473 253.021 40.4473Z" fill="white"/>
<path d="M195.034 72.1387C199.651 72.1645 199.862 72.3715 199.862 76.6808C199.862 82.2989 199.862 82.2989 194.026 82.2885C190.042 82.2885 189.662 81.9057 189.646 78.0103V77.2343C189.625 72.2887 189.757 72.149 195.034 72.1387Z" fill="white"/>
<path d="M97.2936 21.7864C97.2936 21.2356 96.939 20.7891 96.5016 20.7891C96.0641 20.7891 95.7095 21.2356 95.7095 21.7864V92.2169C95.7095 92.7677 96.0641 93.2142 96.5016 93.2142C96.939 93.2142 97.2936 92.7677 97.2936 92.2169V21.7864Z" fill="white"/>
<mask id="path-10-outside-1_241_3224" maskUnits="userSpaceOnUse" x="176.575" y="81.3398" width="79" height="28" fill="black">
<rect fill="white" x="176.575" y="81.3398" width="79" height="28"/>
<path d="M180.207 82.1502V88.2595C181.379 86.2744 182.92 85.2819 184.828 85.2819C185.854 85.2819 186.676 85.5985 187.292 86.2317C187.857 86.8049 188.139 87.5322 188.139 88.4135V90.1206C188.139 90.2318 188.126 90.3345 188.1 90.4286H188.55V91.3398H188.267L187.908 90.8906H187.869C187.63 91.1901 187.33 91.3398 186.971 91.3398H177.435L176.986 90.788V90.4286H179.129V82.1502H180.207ZM187.035 88.298C187.035 87.7675 186.877 87.3183 186.56 86.9504C186.124 86.4627 185.491 86.2188 184.661 86.2188C183.882 86.2188 183.159 86.4712 182.492 86.9761C181.55 87.6948 180.789 88.8456 180.207 90.4286H186.56C186.877 90.4286 187.035 90.266 187.035 89.9409V88.298ZM190.823 90.4286V91.3398H188.449V90.4286H190.823ZM193.104 90.4286V91.3398H190.73V90.4286H193.104ZM195.386 90.4286V91.3398H193.011V90.4286H195.386ZM197.667 90.4286V91.3398H195.292V90.4286H197.667ZM200.975 85.4359V90.1206C200.975 90.4371 200.872 90.7109 200.667 90.942C200.436 91.2072 200.149 91.3398 199.807 91.3398H197.573V90.4286H199.396C199.541 90.4286 199.661 90.3772 199.755 90.2746C199.841 90.189 199.884 90.0778 199.884 89.9409V85.4359H200.975ZM200.102 92.6746C200.273 92.6746 200.418 92.7345 200.538 92.8543C200.667 92.9827 200.731 93.1324 200.731 93.3035C200.731 93.4832 200.667 93.633 200.538 93.7528C200.418 93.8811 200.273 93.9453 200.102 93.9453C199.931 93.9453 199.781 93.8811 199.653 93.7528C199.533 93.633 199.473 93.4832 199.473 93.3035C199.473 93.1324 199.533 92.9827 199.653 92.8543C199.781 92.7345 199.931 92.6746 200.102 92.6746ZM206.122 85.4359V90.4286H206.777V91.3398H206.122C206.097 92.4094 205.716 93.2094 204.98 93.7399C204.39 94.1763 203.624 94.3945 202.683 94.3945C202.537 94.3945 202.353 94.3902 202.131 94.3817L201.707 93.8554V93.4447C201.955 93.4789 202.225 93.4961 202.516 93.4961C204.193 93.4961 205.031 92.726 205.031 91.1858V85.4359H206.122ZM210.087 82.1502V90.1206C210.087 90.4543 209.976 90.7366 209.753 90.9676C209.522 91.2158 209.244 91.3398 208.919 91.3398H206.686V90.4286H208.508C208.671 90.4286 208.795 90.373 208.88 90.2617C208.957 90.1676 208.996 90.0607 208.996 89.9409V82.1502H210.087ZM212.95 82.1502V91.2115L212.398 91.6607H211.859V82.1502H212.95ZM220.102 82.6123C220.273 82.6123 220.419 82.6765 220.538 82.8048C220.667 82.9246 220.731 83.0701 220.731 83.2412C220.731 83.4209 220.667 83.5749 220.538 83.7032C220.419 83.823 220.273 83.8829 220.102 83.8829C219.931 83.8829 219.781 83.823 219.653 83.7032C219.533 83.5749 219.473 83.4209 219.473 83.2412C219.473 83.0701 219.533 82.9246 219.653 82.8048C219.781 82.6765 219.931 82.6123 220.102 82.6123ZM221.655 82.6123C221.835 82.6123 221.984 82.6765 222.104 82.8048C222.233 82.9246 222.297 83.0701 222.297 83.2412C222.297 83.4209 222.233 83.5749 222.104 83.7032C221.984 83.823 221.835 83.8829 221.655 83.8829C221.484 83.8829 221.334 83.823 221.206 83.7032C221.086 83.5749 221.026 83.4209 221.026 83.2412C221.026 83.0701 221.086 82.9246 221.206 82.8048C221.334 82.6765 221.484 82.6123 221.655 82.6123ZM222.297 85.0894V89.9409C222.297 90.0949 222.339 90.2147 222.425 90.3002C222.502 90.3858 222.588 90.4286 222.682 90.4286H222.938V91.3398H222.399C222.006 91.3398 221.693 91.1901 221.462 90.8906C220.906 91.2842 220.307 91.481 219.666 91.481C218.767 91.481 218.057 91.1302 217.535 90.4286C217.107 89.8553 216.893 89.1708 216.893 88.375C216.893 87.4424 217.201 86.668 217.817 86.052C218.365 85.4958 219.037 85.2177 219.832 85.2177C220.286 85.2177 220.744 85.3204 221.206 85.5258L221.758 85.0894H222.297ZM221.206 86.4242C220.829 86.2359 220.449 86.1418 220.063 86.1418C219.413 86.1418 218.887 86.3985 218.485 86.9119C218.151 87.3312 217.984 87.8274 217.984 88.4007C217.984 89.0852 218.147 89.6243 218.472 90.0179C218.789 90.3772 219.216 90.5569 219.755 90.5569C220.217 90.5569 220.701 90.4329 221.206 90.1847V86.4242ZM225.229 90.4286V91.3398H222.854V90.4286H225.229ZM227.51 90.4286V91.3398H225.135V90.4286H227.51ZM230.792 88.2595C231.973 86.2744 233.522 85.2819 235.438 85.2819C236.456 85.2819 237.274 85.5985 237.89 86.2317C238.446 86.8049 238.724 87.5322 238.724 88.4135V90.1206C238.724 90.2318 238.711 90.3345 238.685 90.4286H239.135V91.3398H238.865L238.506 90.8906H238.467C238.228 91.1901 237.928 91.3398 237.569 91.3398H227.417V90.4286H229.727L229.714 85.4359H230.805L230.792 88.2595ZM237.633 88.298C237.624 87.6135 237.372 87.083 236.876 86.7065C236.465 86.3814 235.926 86.2188 235.258 86.2188C234.591 86.2188 233.966 86.4028 233.385 86.7707C232.306 87.4467 231.442 88.666 230.792 90.4286H237.145C237.47 90.4286 237.633 90.266 237.633 89.9409V88.298ZM241.897 82.6123C242.077 82.6123 242.227 82.6765 242.346 82.8048C242.475 82.9246 242.539 83.0701 242.539 83.2412C242.539 83.4209 242.475 83.5749 242.346 83.7032C242.227 83.823 242.077 83.8829 241.897 83.8829C241.726 83.8829 241.576 83.823 241.448 83.7032C241.328 83.5749 241.268 83.4209 241.268 83.2412C241.268 83.0701 241.328 82.9246 241.448 82.8048C241.576 82.6765 241.726 82.6123 241.897 82.6123ZM242.449 85.4359V90.1206C242.449 90.2232 242.436 90.3259 242.411 90.4286H243.091V91.3398H242.59L242.218 90.8906H242.18C241.949 91.1901 241.649 91.3398 241.281 91.3398H239.048V90.4286H240.87C241.007 90.4286 241.119 90.3858 241.204 90.3002C241.307 90.2061 241.358 90.0863 241.358 89.9409V85.4359H242.449ZM245.37 90.4286V91.3398H242.996V90.4286H245.37ZM247.652 90.4286V91.3398H245.277V90.4286H247.652ZM249.869 87.6178C249.869 86.745 250.177 86.1033 250.793 85.6926C251.195 85.4274 251.73 85.2947 252.397 85.2947C253.21 85.2947 253.89 85.5728 254.438 86.129C254.985 86.6852 255.259 87.4638 255.259 88.4649C255.259 89.3975 254.985 90.1847 254.438 90.8265C253.924 91.4254 253.274 91.7249 252.487 91.7249C251.751 91.7249 251.152 91.4468 250.69 90.8906C250.459 91.1901 250.151 91.3398 249.766 91.3398H247.558V90.4286H249.381C249.518 90.4286 249.633 90.3815 249.727 90.2874C249.822 90.1933 249.869 90.0778 249.869 89.9409V87.6178ZM250.96 90.1334C251.404 90.5869 251.896 90.8136 252.436 90.8136C252.949 90.8136 253.364 90.604 253.68 90.1847C254.006 89.7569 254.168 89.205 254.168 88.5291C254.168 87.7761 253.98 87.1814 253.603 86.745C253.287 86.3857 252.868 86.206 252.346 86.206C251.952 86.206 251.631 86.3215 251.383 86.5525C251.101 86.8178 250.96 87.1729 250.96 87.6178V90.1334ZM198.929 96.1502V104.429H199.584V105.34H198.929C198.903 106.307 198.591 107.06 197.992 107.599C197.385 108.138 196.563 108.407 195.528 108.407H194.103C193.085 108.407 192.272 108.146 191.665 107.624C191.014 107.068 190.689 106.268 190.689 105.224V102.542L191.241 102.093H191.78V105.199C191.78 106.054 192.003 106.649 192.448 106.983C192.901 107.325 193.688 107.496 194.809 107.496C195.879 107.496 196.632 107.351 197.068 107.06C197.582 106.709 197.838 106.089 197.838 105.199V96.1502H198.929ZM201.853 104.429V105.34H199.479V104.429H201.853ZM204.134 104.429V105.34H201.76V104.429H204.134ZM206.415 104.429V105.34H204.041V104.429H206.415ZM208.696 104.429V105.34H206.322V104.429H208.696ZM210.913 101.618C210.913 100.745 211.222 100.103 211.838 99.6926C212.24 99.4274 212.775 99.2947 213.442 99.2947C214.255 99.2947 214.935 99.5728 215.483 100.129C216.03 100.685 216.304 101.464 216.304 102.465C216.304 103.398 216.03 104.185 215.483 104.826C214.969 105.425 214.319 105.725 213.532 105.725C212.796 105.725 212.197 105.447 211.735 104.891C211.504 105.19 211.196 105.34 210.811 105.34H208.603V104.429H210.426C210.563 104.429 210.678 104.382 210.772 104.287C210.866 104.193 210.913 104.078 210.913 103.941V101.618ZM212.004 104.133C212.449 104.587 212.941 104.814 213.48 104.814C213.994 104.814 214.409 104.604 214.725 104.185C215.051 103.757 215.213 103.205 215.213 102.529C215.213 101.776 215.025 101.181 214.648 100.745C214.332 100.386 213.913 100.206 213.391 100.206C212.997 100.206 212.676 100.322 212.428 100.553C212.146 100.818 212.004 101.173 212.004 101.618V104.133ZM218.878 96.1502V103.941C218.878 104.078 218.921 104.193 219.007 104.287C219.101 104.382 219.221 104.429 219.366 104.429H219.533V105.34H218.943C218.669 105.34 218.429 105.25 218.224 105.07C217.933 104.822 217.787 104.506 217.787 104.121V96.1502H218.878ZM221.819 104.429V105.34H219.445V104.429H221.819ZM224.101 104.429V105.34H221.726V104.429H224.101ZM226.382 104.429V105.34H224.007V104.429H226.382ZM228.663 104.429V105.34H226.288V104.429H228.663ZM234.371 95.9577V96.9588L231.149 98.8712C232.484 99.2306 233.537 99.898 234.307 100.873C235.008 101.763 235.359 102.79 235.359 103.954C235.359 104.151 235.346 104.309 235.321 104.429H235.757V105.34H235.5L235.128 104.891H235.102C234.846 105.19 234.546 105.34 234.204 105.34H228.57V104.429H233.78C234.114 104.429 234.281 104.257 234.281 103.915C234.238 103.025 233.977 102.242 233.498 101.566C232.814 100.574 231.718 99.975 230.212 99.7696C230.161 99.7696 230.135 99.7397 230.135 99.6798V98.4091L234.371 95.9577ZM236.973 96.6123C237.153 96.6123 237.303 96.6765 237.422 96.8048C237.542 96.9246 237.602 97.0701 237.602 97.2412C237.602 97.4209 237.542 97.5749 237.422 97.7032C237.303 97.823 237.153 97.8829 236.973 97.8829C236.802 97.8829 236.652 97.823 236.524 97.7032C236.404 97.5749 236.344 97.4209 236.344 97.2412C236.344 97.0701 236.404 96.9246 236.524 96.8048C236.652 96.6765 236.802 96.6123 236.973 96.6123ZM238.539 96.6123C238.71 96.6123 238.856 96.6765 238.975 96.8048C239.104 96.9246 239.168 97.0701 239.168 97.2412C239.168 97.4209 239.104 97.5749 238.975 97.7032C238.856 97.823 238.71 97.8829 238.539 97.8829C238.359 97.8829 238.205 97.823 238.077 97.7032C237.957 97.5749 237.897 97.4209 237.897 97.2412C237.897 97.0701 237.957 96.9246 238.077 96.8048C238.205 96.6765 238.359 96.6123 238.539 96.6123ZM239.052 99.4359V104.121C239.052 104.223 239.04 104.326 239.014 104.429H239.694V105.34H239.194L238.821 104.891H238.783C238.552 105.19 238.252 105.34 237.884 105.34H235.651V104.429H237.474C237.611 104.429 237.722 104.386 237.807 104.3C237.91 104.206 237.961 104.086 237.961 103.941V99.4359H239.052ZM241.974 104.429V105.34H239.599V104.429H241.974ZM245.282 96.1502V104.121C245.282 104.454 245.17 104.737 244.948 104.968C244.717 105.216 244.439 105.34 244.114 105.34H241.881V104.429H243.703C243.866 104.429 243.99 104.373 244.075 104.262C244.152 104.168 244.191 104.061 244.191 103.941V96.1502H245.282ZM248.145 96.1502V105.211L247.593 105.661H247.054V96.1502H248.145ZM254.044 105.211C253.599 105.374 253.133 105.455 252.645 105.455C251.721 105.455 250.99 105.13 250.451 104.48C249.972 103.907 249.732 103.175 249.732 102.285C249.732 101.387 249.984 100.668 250.489 100.129C251.028 99.5643 251.756 99.2819 252.671 99.2819C253.364 99.2819 253.929 99.4573 254.365 99.8081C254.887 100.227 255.148 100.831 255.148 101.618V105.224C255.14 106.32 254.78 107.145 254.07 107.701C253.711 107.984 253.279 108.181 252.774 108.292C252.44 108.36 252.093 108.394 251.734 108.394C251.529 108.394 251.332 108.39 251.144 108.382L250.72 107.855V107.445C250.977 107.479 251.246 107.496 251.529 107.496C253.197 107.496 254.036 106.735 254.044 105.211ZM254.044 101.618C254.044 101.087 253.856 100.689 253.48 100.424C253.266 100.279 252.996 100.206 252.671 100.206C252.098 100.206 251.644 100.399 251.311 100.784C250.985 101.169 250.823 101.703 250.823 102.388C250.823 103.038 251.011 103.552 251.388 103.928C251.721 104.279 252.166 104.454 252.722 104.454C253.21 104.454 253.651 104.377 254.044 104.223V101.618Z"/>
</mask>
<path d="M180.207 82.1502V88.2595C181.379 86.2744 182.92 85.2819 184.828 85.2819C185.854 85.2819 186.676 85.5985 187.292 86.2317C187.857 86.8049 188.139 87.5322 188.139 88.4135V90.1206C188.139 90.2318 188.126 90.3345 188.1 90.4286H188.55V91.3398H188.267L187.908 90.8906H187.869C187.63 91.1901 187.33 91.3398 186.971 91.3398H177.435L176.986 90.788V90.4286H179.129V82.1502H180.207ZM187.035 88.298C187.035 87.7675 186.877 87.3183 186.56 86.9504C186.124 86.4627 185.491 86.2188 184.661 86.2188C183.882 86.2188 183.159 86.4712 182.492 86.9761C181.55 87.6948 180.789 88.8456 180.207 90.4286H186.56C186.877 90.4286 187.035 90.266 187.035 89.9409V88.298ZM190.823 90.4286V91.3398H188.449V90.4286H190.823ZM193.104 90.4286V91.3398H190.73V90.4286H193.104ZM195.386 90.4286V91.3398H193.011V90.4286H195.386ZM197.667 90.4286V91.3398H195.292V90.4286H197.667ZM200.975 85.4359V90.1206C200.975 90.4371 200.872 90.7109 200.667 90.942C200.436 91.2072 200.149 91.3398 199.807 91.3398H197.573V90.4286H199.396C199.541 90.4286 199.661 90.3772 199.755 90.2746C199.841 90.189 199.884 90.0778 199.884 89.9409V85.4359H200.975ZM200.102 92.6746C200.273 92.6746 200.418 92.7345 200.538 92.8543C200.667 92.9827 200.731 93.1324 200.731 93.3035C200.731 93.4832 200.667 93.633 200.538 93.7528C200.418 93.8811 200.273 93.9453 200.102 93.9453C199.931 93.9453 199.781 93.8811 199.653 93.7528C199.533 93.633 199.473 93.4832 199.473 93.3035C199.473 93.1324 199.533 92.9827 199.653 92.8543C199.781 92.7345 199.931 92.6746 200.102 92.6746ZM206.122 85.4359V90.4286H206.777V91.3398H206.122C206.097 92.4094 205.716 93.2094 204.98 93.7399C204.39 94.1763 203.624 94.3945 202.683 94.3945C202.537 94.3945 202.353 94.3902 202.131 94.3817L201.707 93.8554V93.4447C201.955 93.4789 202.225 93.4961 202.516 93.4961C204.193 93.4961 205.031 92.726 205.031 91.1858V85.4359H206.122ZM210.087 82.1502V90.1206C210.087 90.4543 209.976 90.7366 209.753 90.9676C209.522 91.2158 209.244 91.3398 208.919 91.3398H206.686V90.4286H208.508C208.671 90.4286 208.795 90.373 208.88 90.2617C208.957 90.1676 208.996 90.0607 208.996 89.9409V82.1502H210.087ZM212.95 82.1502V91.2115L212.398 91.6607H211.859V82.1502H212.95ZM220.102 82.6123C220.273 82.6123 220.419 82.6765 220.538 82.8048C220.667 82.9246 220.731 83.0701 220.731 83.2412C220.731 83.4209 220.667 83.5749 220.538 83.7032C220.419 83.823 220.273 83.8829 220.102 83.8829C219.931 83.8829 219.781 83.823 219.653 83.7032C219.533 83.5749 219.473 83.4209 219.473 83.2412C219.473 83.0701 219.533 82.9246 219.653 82.8048C219.781 82.6765 219.931 82.6123 220.102 82.6123ZM221.655 82.6123C221.835 82.6123 221.984 82.6765 222.104 82.8048C222.233 82.9246 222.297 83.0701 222.297 83.2412C222.297 83.4209 222.233 83.5749 222.104 83.7032C221.984 83.823 221.835 83.8829 221.655 83.8829C221.484 83.8829 221.334 83.823 221.206 83.7032C221.086 83.5749 221.026 83.4209 221.026 83.2412C221.026 83.0701 221.086 82.9246 221.206 82.8048C221.334 82.6765 221.484 82.6123 221.655 82.6123ZM222.297 85.0894V89.9409C222.297 90.0949 222.339 90.2147 222.425 90.3002C222.502 90.3858 222.588 90.4286 222.682 90.4286H222.938V91.3398H222.399C222.006 91.3398 221.693 91.1901 221.462 90.8906C220.906 91.2842 220.307 91.481 219.666 91.481C218.767 91.481 218.057 91.1302 217.535 90.4286C217.107 89.8553 216.893 89.1708 216.893 88.375C216.893 87.4424 217.201 86.668 217.817 86.052C218.365 85.4958 219.037 85.2177 219.832 85.2177C220.286 85.2177 220.744 85.3204 221.206 85.5258L221.758 85.0894H222.297ZM221.206 86.4242C220.829 86.2359 220.449 86.1418 220.063 86.1418C219.413 86.1418 218.887 86.3985 218.485 86.9119C218.151 87.3312 217.984 87.8274 217.984 88.4007C217.984 89.0852 218.147 89.6243 218.472 90.0179C218.789 90.3772 219.216 90.5569 219.755 90.5569C220.217 90.5569 220.701 90.4329 221.206 90.1847V86.4242ZM225.229 90.4286V91.3398H222.854V90.4286H225.229ZM227.51 90.4286V91.3398H225.135V90.4286H227.51ZM230.792 88.2595C231.973 86.2744 233.522 85.2819 235.438 85.2819C236.456 85.2819 237.274 85.5985 237.89 86.2317C238.446 86.8049 238.724 87.5322 238.724 88.4135V90.1206C238.724 90.2318 238.711 90.3345 238.685 90.4286H239.135V91.3398H238.865L238.506 90.8906H238.467C238.228 91.1901 237.928 91.3398 237.569 91.3398H227.417V90.4286H229.727L229.714 85.4359H230.805L230.792 88.2595ZM237.633 88.298C237.624 87.6135 237.372 87.083 236.876 86.7065C236.465 86.3814 235.926 86.2188 235.258 86.2188C234.591 86.2188 233.966 86.4028 233.385 86.7707C232.306 87.4467 231.442 88.666 230.792 90.4286H237.145C237.47 90.4286 237.633 90.266 237.633 89.9409V88.298ZM241.897 82.6123C242.077 82.6123 242.227 82.6765 242.346 82.8048C242.475 82.9246 242.539 83.0701 242.539 83.2412C242.539 83.4209 242.475 83.5749 242.346 83.7032C242.227 83.823 242.077 83.8829 241.897 83.8829C241.726 83.8829 241.576 83.823 241.448 83.7032C241.328 83.5749 241.268 83.4209 241.268 83.2412C241.268 83.0701 241.328 82.9246 241.448 82.8048C241.576 82.6765 241.726 82.6123 241.897 82.6123ZM242.449 85.4359V90.1206C242.449 90.2232 242.436 90.3259 242.411 90.4286H243.091V91.3398H242.59L242.218 90.8906H242.18C241.949 91.1901 241.649 91.3398 241.281 91.3398H239.048V90.4286H240.87C241.007 90.4286 241.119 90.3858 241.204 90.3002C241.307 90.2061 241.358 90.0863 241.358 89.9409V85.4359H242.449ZM245.37 90.4286V91.3398H242.996V90.4286H245.37ZM247.652 90.4286V91.3398H245.277V90.4286H247.652ZM249.869 87.6178C249.869 86.745 250.177 86.1033 250.793 85.6926C251.195 85.4274 251.73 85.2947 252.397 85.2947C253.21 85.2947 253.89 85.5728 254.438 86.129C254.985 86.6852 255.259 87.4638 255.259 88.4649C255.259 89.3975 254.985 90.1847 254.438 90.8265C253.924 91.4254 253.274 91.7249 252.487 91.7249C251.751 91.7249 251.152 91.4468 250.69 90.8906C250.459 91.1901 250.151 91.3398 249.766 91.3398H247.558V90.4286H249.381C249.518 90.4286 249.633 90.3815 249.727 90.2874C249.822 90.1933 249.869 90.0778 249.869 89.9409V87.6178ZM250.96 90.1334C251.404 90.5869 251.896 90.8136 252.436 90.8136C252.949 90.8136 253.364 90.604 253.68 90.1847C254.006 89.7569 254.168 89.205 254.168 88.5291C254.168 87.7761 253.98 87.1814 253.603 86.745C253.287 86.3857 252.868 86.206 252.346 86.206C251.952 86.206 251.631 86.3215 251.383 86.5525C251.101 86.8178 250.96 87.1729 250.96 87.6178V90.1334ZM198.929 96.1502V104.429H199.584V105.34H198.929C198.903 106.307 198.591 107.06 197.992 107.599C197.385 108.138 196.563 108.407 195.528 108.407H194.103C193.085 108.407 192.272 108.146 191.665 107.624C191.014 107.068 190.689 106.268 190.689 105.224V102.542L191.241 102.093H191.78V105.199C191.78 106.054 192.003 106.649 192.448 106.983C192.901 107.325 193.688 107.496 194.809 107.496C195.879 107.496 196.632 107.351 197.068 107.06C197.582 106.709 197.838 106.089 197.838 105.199V96.1502H198.929ZM201.853 104.429V105.34H199.479V104.429H201.853ZM204.134 104.429V105.34H201.76V104.429H204.134ZM206.415 104.429V105.34H204.041V104.429H206.415ZM208.696 104.429V105.34H206.322V104.429H208.696ZM210.913 101.618C210.913 100.745 211.222 100.103 211.838 99.6926C212.24 99.4274 212.775 99.2947 213.442 99.2947C214.255 99.2947 214.935 99.5728 215.483 100.129C216.03 100.685 216.304 101.464 216.304 102.465C216.304 103.398 216.03 104.185 215.483 104.826C214.969 105.425 214.319 105.725 213.532 105.725C212.796 105.725 212.197 105.447 211.735 104.891C211.504 105.19 211.196 105.34 210.811 105.34H208.603V104.429H210.426C210.563 104.429 210.678 104.382 210.772 104.287C210.866 104.193 210.913 104.078 210.913 103.941V101.618ZM212.004 104.133C212.449 104.587 212.941 104.814 213.48 104.814C213.994 104.814 214.409 104.604 214.725 104.185C215.051 103.757 215.213 103.205 215.213 102.529C215.213 101.776 215.025 101.181 214.648 100.745C214.332 100.386 213.913 100.206 213.391 100.206C212.997 100.206 212.676 100.322 212.428 100.553C212.146 100.818 212.004 101.173 212.004 101.618V104.133ZM218.878 96.1502V103.941C218.878 104.078 218.921 104.193 219.007 104.287C219.101 104.382 219.221 104.429 219.366 104.429H219.533V105.34H218.943C218.669 105.34 218.429 105.25 218.224 105.07C217.933 104.822 217.787 104.506 217.787 104.121V96.1502H218.878ZM221.819 104.429V105.34H219.445V104.429H221.819ZM224.101 104.429V105.34H221.726V104.429H224.101ZM226.382 104.429V105.34H224.007V104.429H226.382ZM228.663 104.429V105.34H226.288V104.429H228.663ZM234.371 95.9577V96.9588L231.149 98.8712C232.484 99.2306 233.537 99.898 234.307 100.873C235.008 101.763 235.359 102.79 235.359 103.954C235.359 104.151 235.346 104.309 235.321 104.429H235.757V105.34H235.5L235.128 104.891H235.102C234.846 105.19 234.546 105.34 234.204 105.34H228.57V104.429H233.78C234.114 104.429 234.281 104.257 234.281 103.915C234.238 103.025 233.977 102.242 233.498 101.566C232.814 100.574 231.718 99.975 230.212 99.7696C230.161 99.7696 230.135 99.7397 230.135 99.6798V98.4091L234.371 95.9577ZM236.973 96.6123C237.153 96.6123 237.303 96.6765 237.422 96.8048C237.542 96.9246 237.602 97.0701 237.602 97.2412C237.602 97.4209 237.542 97.5749 237.422 97.7032C237.303 97.823 237.153 97.8829 236.973 97.8829C236.802 97.8829 236.652 97.823 236.524 97.7032C236.404 97.5749 236.344 97.4209 236.344 97.2412C236.344 97.0701 236.404 96.9246 236.524 96.8048C236.652 96.6765 236.802 96.6123 236.973 96.6123ZM238.539 96.6123C238.71 96.6123 238.856 96.6765 238.975 96.8048C239.104 96.9246 239.168 97.0701 239.168 97.2412C239.168 97.4209 239.104 97.5749 238.975 97.7032C238.856 97.823 238.71 97.8829 238.539 97.8829C238.359 97.8829 238.205 97.823 238.077 97.7032C237.957 97.5749 237.897 97.4209 237.897 97.2412C237.897 97.0701 237.957 96.9246 238.077 96.8048C238.205 96.6765 238.359 96.6123 238.539 96.6123ZM239.052 99.4359V104.121C239.052 104.223 239.04 104.326 239.014 104.429H239.694V105.34H239.194L238.821 104.891H238.783C238.552 105.19 238.252 105.34 237.884 105.34H235.651V104.429H237.474C237.611 104.429 237.722 104.386 237.807 104.3C237.91 104.206 237.961 104.086 237.961 103.941V99.4359H239.052ZM241.974 104.429V105.34H239.599V104.429H241.974ZM245.282 96.1502V104.121C245.282 104.454 245.17 104.737 244.948 104.968C244.717 105.216 244.439 105.34 244.114 105.34H241.881V104.429H243.703C243.866 104.429 243.99 104.373 244.075 104.262C244.152 104.168 244.191 104.061 244.191 103.941V96.1502H245.282ZM248.145 96.1502V105.211L247.593 105.661H247.054V96.1502H248.145ZM254.044 105.211C253.599 105.374 253.133 105.455 252.645 105.455C251.721 105.455 250.99 105.13 250.451 104.48C249.972 103.907 249.732 103.175 249.732 102.285C249.732 101.387 249.984 100.668 250.489 100.129C251.028 99.5643 251.756 99.2819 252.671 99.2819C253.364 99.2819 253.929 99.4573 254.365 99.8081C254.887 100.227 255.148 100.831 255.148 101.618V105.224C255.14 106.32 254.78 107.145 254.07 107.701C253.711 107.984 253.279 108.181 252.774 108.292C252.44 108.36 252.093 108.394 251.734 108.394C251.529 108.394 251.332 108.39 251.144 108.382L250.72 107.855V107.445C250.977 107.479 251.246 107.496 251.529 107.496C253.197 107.496 254.036 106.735 254.044 105.211ZM254.044 101.618C254.044 101.087 253.856 100.689 253.48 100.424C253.266 100.279 252.996 100.206 252.671 100.206C252.098 100.206 251.644 100.399 251.311 100.784C250.985 101.169 250.823 101.703 250.823 102.388C250.823 103.038 251.011 103.552 251.388 103.928C251.721 104.279 252.166 104.454 252.722 104.454C253.21 104.454 253.651 104.377 254.044 104.223V101.618Z" fill="white"/>
<path d="M180.207 82.1502H180.314V82.0433H180.207V82.1502ZM180.207 88.2595H180.1V88.651L180.299 88.3139L180.207 88.2595ZM187.292 86.2317L187.215 86.3062L187.216 86.3067L187.292 86.2317ZM188.1 90.4286L187.997 90.4004L187.96 90.5355H188.1V90.4286ZM188.55 90.4286H188.657V90.3216H188.55V90.4286ZM188.55 91.3398V91.4468H188.657V91.3398H188.55ZM188.267 91.3398L188.184 91.4067L188.216 91.4468H188.267V91.3398ZM187.908 90.8906L187.991 90.8238L187.959 90.7837H187.908V90.8906ZM187.869 90.8906V90.7837H187.818L187.786 90.8238L187.869 90.8906ZM177.435 91.3398L177.352 91.4074L177.384 91.4468H177.435V91.3398ZM176.986 90.788H176.879V90.826L176.903 90.8555L176.986 90.788ZM176.986 90.4286V90.3216H176.879V90.4286H176.986ZM179.129 90.4286V90.5355H179.236V90.4286H179.129ZM179.129 82.1502V82.0433H179.022V82.1502H179.129ZM186.56 86.9504L186.641 86.8806L186.64 86.8791L186.56 86.9504ZM182.492 86.9761L182.427 86.8908L182.427 86.8911L182.492 86.9761ZM180.207 90.4286L180.107 90.3917L180.054 90.5355H180.207V90.4286ZM180.1 82.1502V88.2595H180.314V82.1502H180.1ZM180.299 88.3139C181.457 86.3534 182.966 85.3889 184.828 85.3889V85.1749C182.873 85.1749 181.302 86.1954 180.115 88.2051L180.299 88.3139ZM184.828 85.3889C185.831 85.3889 186.623 85.6971 187.215 86.3062L187.368 86.1571C186.729 85.4998 185.878 85.1749 184.828 85.1749V85.3889ZM187.216 86.3067C187.759 86.858 188.032 87.5574 188.032 88.4135H188.246C188.246 87.5071 187.954 86.7519 187.368 86.1566L187.216 86.3067ZM188.032 88.4135V90.1206H188.246V88.4135H188.032ZM188.032 90.1206C188.032 90.2236 188.02 90.3167 187.997 90.4004L188.204 90.4567C188.232 90.3523 188.246 90.24 188.246 90.1206H188.032ZM188.1 90.5355H188.55V90.3216H188.1V90.5355ZM188.443 90.4286V91.3398H188.657V90.4286H188.443ZM188.55 91.2329H188.267V91.4468H188.55V91.2329ZM188.351 91.273L187.991 90.8238L187.824 90.9574L188.184 91.4067L188.351 91.273ZM187.908 90.7837H187.869V90.9976H187.908V90.7837ZM187.786 90.8238C187.565 91.0999 187.295 91.2329 186.971 91.2329V91.4468C187.365 91.4468 187.695 91.2803 187.953 90.9574L187.786 90.8238ZM186.971 91.2329H177.435V91.4468H186.971V91.2329ZM177.518 91.2723L177.069 90.7204L176.903 90.8555L177.352 91.4074L177.518 91.2723ZM177.093 90.788V90.4286H176.879V90.788H177.093ZM176.986 90.5355H179.129V90.3216H176.986V90.5355ZM179.236 90.4286V82.1502H179.022V90.4286H179.236ZM179.129 82.2572H180.207V82.0433H179.129V82.2572ZM187.142 88.298C187.142 87.7445 186.976 87.2698 186.641 86.8806L186.479 87.0202C186.777 87.3668 186.928 87.7906 186.928 88.298H187.142ZM186.64 86.8791C186.178 86.3629 185.512 86.1119 184.661 86.1119V86.3258C185.469 86.3258 186.07 86.5625 186.481 87.0217L186.64 86.8791ZM184.661 86.1119C183.857 86.1119 183.112 86.373 182.427 86.8908L182.556 87.0614C183.207 86.5695 183.907 86.3258 184.661 86.3258V86.1119ZM182.427 86.8911C181.464 87.6263 180.693 88.7974 180.107 90.3917L180.308 90.4655C180.885 88.8939 181.637 87.7633 182.557 87.0611L182.427 86.8911ZM180.207 90.5355H186.56V90.3216H180.207V90.5355ZM186.56 90.5355C186.736 90.5355 186.887 90.4903 186.993 90.3813C187.099 90.2728 187.142 90.1192 187.142 89.9409H186.928C186.928 90.0877 186.892 90.178 186.84 90.232C186.788 90.2856 186.701 90.3216 186.56 90.3216V90.5355ZM187.142 89.9409V88.298H186.928V89.9409H187.142ZM190.823 90.4286H190.93V90.3216H190.823V90.4286ZM190.823 91.3398V91.4468H190.93V91.3398H190.823ZM188.449 91.3398H188.342V91.4468H188.449V91.3398ZM188.449 90.4286V90.3216H188.342V90.4286H188.449ZM190.716 90.4286V91.3398H190.93V90.4286H190.716ZM190.823 91.2329H188.449V91.4468H190.823V91.2329ZM188.556 91.3398V90.4286H188.342V91.3398H188.556ZM188.449 90.5355H190.823V90.3216H188.449V90.5355ZM193.104 90.4286H193.211V90.3216H193.104V90.4286ZM193.104 91.3398V91.4468H193.211V91.3398H193.104ZM190.73 91.3398H190.623V91.4468H190.73V91.3398ZM190.73 90.4286V90.3216H190.623V90.4286H190.73ZM192.997 90.4286V91.3398H193.211V90.4286H192.997ZM193.104 91.2329H190.73V91.4468H193.104V91.2329ZM190.837 91.3398V90.4286H190.623V91.3398H190.837ZM190.73 90.5355H193.104V90.3216H190.73V90.5355ZM195.386 90.4286H195.493V90.3216H195.386V90.4286ZM195.386 91.3398V91.4468H195.493V91.3398H195.386ZM193.011 91.3398H192.904V91.4468H193.011V91.3398ZM193.011 90.4286V90.3216H192.904V90.4286H193.011ZM195.279 90.4286V91.3398H195.493V90.4286H195.279ZM195.386 91.2329H193.011V91.4468H195.386V91.2329ZM193.118 91.3398V90.4286H192.904V91.3398H193.118ZM193.011 90.5355H195.386V90.3216H193.011V90.5355ZM197.667 90.4286H197.774V90.3216H197.667V90.4286ZM197.667 91.3398V91.4468H197.774V91.3398H197.667ZM195.292 91.3398H195.185V91.4468H195.292V91.3398ZM195.292 90.4286V90.3216H195.185V90.4286H195.292ZM197.56 90.4286V91.3398H197.774V90.4286H197.56ZM197.667 91.2329H195.292V91.4468H197.667V91.2329ZM195.399 91.3398V90.4286H195.185V91.3398H195.399ZM195.292 90.5355H197.667V90.3216H195.292V90.5355ZM200.975 85.4359H201.082V85.329H200.975V85.4359ZM200.667 90.942L200.587 90.8709L200.586 90.8717L200.667 90.942ZM197.573 91.3398H197.467V91.4468H197.573V91.3398ZM197.573 90.4286V90.3216H197.467V90.4286H197.573ZM199.755 90.2746L199.68 90.1989L199.677 90.2023L199.755 90.2746ZM199.884 85.4359V85.329H199.777V85.4359H199.884ZM200.538 92.8543L200.463 92.93L200.538 92.8543ZM200.538 93.7528L200.465 93.6744L200.46 93.6798L200.538 93.7528ZM199.653 93.7528L199.577 93.8284L199.653 93.7528ZM199.653 92.8543L199.58 92.776L199.575 92.7814L199.653 92.8543ZM200.868 85.4359V90.1206H201.082V85.4359H200.868ZM200.868 90.1206C200.868 90.4116 200.774 90.66 200.587 90.8709L200.747 91.013C200.97 90.7619 201.082 90.4626 201.082 90.1206H200.868ZM200.586 90.8717C200.375 91.1144 200.117 91.2329 199.807 91.2329V91.4468C200.181 91.4468 200.497 91.3 200.747 91.0122L200.586 90.8717ZM199.807 91.2329H197.573V91.4468H199.807V91.2329ZM197.68 91.3398V90.4286H197.467V91.3398H197.68ZM197.573 90.5355H199.396V90.3216H197.573V90.5355ZM199.396 90.5355C199.57 90.5355 199.719 90.4727 199.834 90.3468L199.677 90.2023C199.604 90.2818 199.513 90.3216 199.396 90.3216V90.5355ZM199.831 90.3502C199.939 90.2419 199.991 90.1021 199.991 89.9409H199.777C199.777 90.0535 199.743 90.1361 199.68 90.1989L199.831 90.3502ZM199.991 89.9409V85.4359H199.777V89.9409H199.991ZM199.884 85.5429H200.975V85.329H199.884V85.5429ZM200.102 92.7816C200.245 92.7816 200.363 92.8305 200.463 92.93L200.614 92.7787C200.474 92.6386 200.301 92.5677 200.102 92.5677V92.7816ZM200.463 92.93C200.572 93.0396 200.624 93.1626 200.624 93.3035H200.838C200.838 93.1022 200.761 92.9258 200.614 92.7787L200.463 92.93ZM200.624 93.3035C200.624 93.4544 200.571 93.5755 200.465 93.6746L200.611 93.8309C200.762 93.6904 200.838 93.5121 200.838 93.3035H200.624ZM200.46 93.6798C200.36 93.7871 200.243 93.8383 200.102 93.8383V94.0522C200.304 94.0522 200.477 93.9751 200.616 93.8257L200.46 93.6798ZM200.102 93.8383C199.961 93.8383 199.838 93.7868 199.728 93.6771L199.577 93.8284C199.724 93.9754 199.901 94.0522 200.102 94.0522V93.8383ZM199.728 93.6771C199.63 93.5787 199.58 93.4568 199.58 93.3035H199.366C199.366 93.5097 199.436 93.6872 199.577 93.8284L199.728 93.6771ZM199.58 93.3035C199.58 93.1603 199.629 93.0364 199.731 92.9273L199.575 92.7814C199.437 92.9289 199.366 93.1046 199.366 93.3035H199.58ZM199.726 92.9325C199.835 92.8307 199.959 92.7816 200.102 92.7816V92.5677C199.903 92.5677 199.727 92.6384 199.58 92.7761L199.726 92.9325ZM206.122 85.4359H206.229V85.329H206.122V85.4359ZM206.122 90.4286H206.015V90.5355H206.122V90.4286ZM206.777 90.4286H206.884V90.3216H206.777V90.4286ZM206.777 91.3398V91.4468H206.884V91.3398H206.777ZM206.122 91.3398V91.2329H206.018L206.015 91.3373L206.122 91.3398ZM204.98 93.7399L204.918 93.6532L204.916 93.6539L204.98 93.7399ZM202.131 94.3817L202.047 94.4487L202.078 94.4867L202.127 94.4885L202.131 94.3817ZM201.707 93.8554H201.6V93.8931L201.624 93.9225L201.707 93.8554ZM201.707 93.4447L201.722 93.3388L201.6 93.322V93.4447H201.707ZM205.031 85.4359V85.329H204.924V85.4359H205.031ZM206.015 85.4359V90.4286H206.229V85.4359H206.015ZM206.122 90.5355H206.777V90.3216H206.122V90.5355ZM206.67 90.4286V91.3398H206.884V90.4286H206.67ZM206.777 91.2329H206.122V91.4468H206.777V91.2329ZM206.015 91.3373C205.99 92.3801 205.621 93.1459 204.918 93.6532L205.043 93.8267C205.811 93.273 206.203 92.4387 206.229 91.3424L206.015 91.3373ZM204.916 93.6539C204.349 94.0733 203.607 94.2875 202.683 94.2875V94.5014C203.64 94.5014 204.43 94.2793 205.044 93.8259L204.916 93.6539ZM202.683 94.2875C202.539 94.2875 202.357 94.2833 202.135 94.2748L202.127 94.4885C202.35 94.4971 202.535 94.5014 202.683 94.5014V94.2875ZM202.214 94.3146L201.791 93.7884L201.624 93.9225L202.047 94.4487L202.214 94.3146ZM201.814 93.8554V93.4447H201.6V93.8554H201.814ZM201.693 93.5507C201.946 93.5857 202.221 93.603 202.516 93.603V93.3891C202.229 93.3891 201.964 93.3722 201.722 93.3388L201.693 93.5507ZM202.516 93.603C203.369 93.603 204.028 93.4074 204.475 92.9973C204.923 92.5856 205.138 91.9748 205.138 91.1858H204.924C204.924 91.937 204.72 92.4814 204.33 92.8397C203.938 93.1997 203.34 93.3891 202.516 93.3891V93.603ZM205.138 91.1858V85.4359H204.924V91.1858H205.138ZM205.031 85.5429H206.122V85.329H205.031V85.5429ZM210.087 82.1502H210.194V82.0433H210.087V82.1502ZM209.753 90.9676L209.676 90.8934L209.675 90.8948L209.753 90.9676ZM206.686 91.3398H206.579V91.4468H206.686V91.3398ZM206.686 90.4286V90.3216H206.579V90.4286H206.686ZM208.88 90.2617L208.797 90.194L208.796 90.1965L208.88 90.2617ZM208.996 82.1502V82.0433H208.889V82.1502H208.996ZM209.98 82.1502V90.1206H210.194V82.1502H209.98ZM209.98 90.1206C209.98 90.4278 209.878 90.6832 209.676 90.8935L209.83 91.0418C210.073 90.79 210.194 90.4807 210.194 90.1206H209.98ZM209.675 90.8948C209.463 91.1222 209.213 91.2329 208.919 91.2329V91.4468C209.275 91.4468 209.581 91.3093 209.831 91.0405L209.675 90.8948ZM208.919 91.2329H206.686V91.4468H208.919V91.2329ZM206.793 91.3398V90.4286H206.579V91.3398H206.793ZM206.686 90.5355H208.508V90.3216H206.686V90.5355ZM208.508 90.5355C208.698 90.5355 208.856 90.4689 208.965 90.3269L208.796 90.1965C208.734 90.2771 208.643 90.3216 208.508 90.3216V90.5355ZM208.963 90.3295C209.055 90.2165 209.103 90.0858 209.103 89.9409H208.889C208.889 90.0356 208.859 90.1187 208.798 90.194L208.963 90.3295ZM209.103 89.9409V82.1502H208.889V89.9409H209.103ZM208.996 82.2572H210.087V82.0433H208.996V82.2572ZM212.95 82.1502H213.057V82.0433H212.95V82.1502ZM212.95 91.2115L213.017 91.2944L213.057 91.2623V91.2115H212.95ZM212.398 91.6607V91.7677H212.436L212.466 91.7437L212.398 91.6607ZM211.859 91.6607H211.752V91.7677H211.859V91.6607ZM211.859 82.1502V82.0433H211.752V82.1502H211.859ZM212.843 82.1502V91.2115H213.057V82.1502H212.843ZM212.882 91.1285L212.33 91.5778L212.466 91.7437L213.017 91.2944L212.882 91.1285ZM212.398 91.5538H211.859V91.7677H212.398V91.5538ZM211.966 91.6607V82.1502H211.752V91.6607H211.966ZM211.859 82.2572H212.95V82.0433H211.859V82.2572ZM220.538 82.8048L220.46 82.878L220.465 82.883L220.538 82.8048ZM220.538 83.7032L220.463 83.6276L220.538 83.7032ZM219.653 83.7032L219.574 83.7764L219.58 83.7814L219.653 83.7032ZM219.653 82.8048L219.577 82.7292V82.7292L219.653 82.8048ZM222.104 82.8048L222.026 82.878L222.031 82.883L222.104 82.8048ZM222.104 83.7032L222.029 83.6276L222.104 83.7032ZM221.206 83.7032L221.127 83.7764L221.133 83.7814L221.206 83.7032ZM221.206 82.8048L221.281 82.8804V82.8804L221.206 82.8048ZM222.297 85.0894H222.404V84.9824H222.297V85.0894ZM222.425 90.3002L222.505 90.2286L222.501 90.2246L222.425 90.3002ZM222.938 90.4286H223.045V90.3216H222.938V90.4286ZM222.938 91.3398V91.4468H223.045V91.3398H222.938ZM221.462 90.8906L221.547 90.8253L221.484 90.744L221.401 90.8033L221.462 90.8906ZM217.535 90.4286L217.621 90.3647L217.621 90.3646L217.535 90.4286ZM217.817 86.052L217.893 86.1276L217.894 86.127L217.817 86.052ZM221.206 85.5258L221.162 85.6235L221.221 85.6497L221.272 85.6097L221.206 85.5258ZM221.758 85.0894V84.9824H221.72L221.691 85.0055L221.758 85.0894ZM221.206 86.4242H221.313V86.3581L221.254 86.3285L221.206 86.4242ZM218.485 86.9119L218.568 86.9785L218.569 86.9779L218.485 86.9119ZM218.472 90.0179L218.389 90.086L218.392 90.0886L218.472 90.0179ZM221.206 90.1847L221.253 90.2807L221.313 90.2513V90.1847H221.206ZM220.102 82.7192C220.243 82.7192 220.36 82.7705 220.46 82.8778L220.617 82.7318C220.477 82.5825 220.304 82.5053 220.102 82.5053V82.7192ZM220.465 82.883C220.573 82.9832 220.624 83.1006 220.624 83.2412H220.838C220.838 83.0396 220.761 82.866 220.611 82.7266L220.465 82.883ZM220.624 83.2412C220.624 83.3922 220.571 83.5191 220.463 83.6276L220.614 83.7789C220.762 83.6307 220.838 83.4496 220.838 83.2412H220.624ZM220.463 83.6276C220.363 83.7271 220.245 83.776 220.102 83.776V83.9899C220.301 83.9899 220.474 83.9189 220.614 83.7789L220.463 83.6276ZM220.102 83.776C219.959 83.776 219.835 83.7269 219.726 83.625L219.58 83.7814C219.727 83.9192 219.903 83.9899 220.102 83.9899V83.776ZM219.731 83.6303C219.63 83.5222 219.58 83.3945 219.58 83.2412H219.366C219.366 83.4473 219.436 83.6276 219.575 83.7762L219.731 83.6303ZM219.58 83.2412C219.58 83.0981 219.629 82.9799 219.728 82.8804L219.577 82.7292C219.437 82.8693 219.366 83.042 219.366 83.2412H219.58ZM219.728 82.8804C219.838 82.7708 219.961 82.7192 220.102 82.7192V82.5053C219.901 82.5053 219.724 82.5821 219.577 82.7292L219.728 82.8804ZM221.655 82.7192C221.806 82.7192 221.927 82.7717 222.026 82.8778L222.182 82.7318C222.042 82.5812 221.864 82.5053 221.655 82.5053V82.7192ZM222.031 82.883C222.139 82.9832 222.19 83.1006 222.19 83.2412H222.404C222.404 83.0396 222.327 82.866 222.177 82.7266L222.031 82.883ZM222.19 83.2412C222.19 83.3922 222.137 83.5191 222.029 83.6276L222.18 83.7789C222.328 83.6307 222.404 83.4496 222.404 83.2412H222.19ZM222.029 83.6276C221.93 83.726 221.808 83.776 221.655 83.776V83.9899C221.861 83.9899 222.039 83.92 222.18 83.7789L222.029 83.6276ZM221.655 83.776C221.512 83.776 221.388 83.7269 221.279 83.625L221.133 83.7814C221.28 83.9192 221.456 83.9899 221.655 83.9899V83.776ZM221.284 83.6303C221.183 83.5222 221.133 83.3945 221.133 83.2412H220.919C220.919 83.4473 220.989 83.6276 221.128 83.7762L221.284 83.6303ZM221.133 83.2412C221.133 83.0981 221.182 82.9799 221.281 82.8804L221.13 82.7292C220.99 82.8693 220.919 83.042 220.919 83.2412H221.133ZM221.281 82.8804C221.391 82.7708 221.514 82.7192 221.655 82.7192V82.5053C221.454 82.5053 221.277 82.5821 221.13 82.7292L221.281 82.8804ZM222.19 85.0894V89.9409H222.404V85.0894H222.19ZM222.19 89.9409C222.19 90.1151 222.239 90.2652 222.349 90.3759L222.501 90.2246C222.44 90.1642 222.404 90.0746 222.404 89.9409H222.19ZM222.346 90.3718C222.438 90.4744 222.551 90.5355 222.682 90.5355V90.3216C222.625 90.3216 222.566 90.2972 222.505 90.2287L222.346 90.3718ZM222.682 90.5355H222.938V90.3216H222.682V90.5355ZM222.831 90.4286V91.3398H223.045V90.4286H222.831ZM222.938 91.2329H222.399V91.4468H222.938V91.2329ZM222.399 91.2329C222.037 91.2329 221.757 91.0973 221.547 90.8253L221.378 90.956C221.63 91.2829 221.974 91.4468 222.399 91.4468V91.2329ZM221.401 90.8033C220.861 91.185 220.284 91.3741 219.666 91.3741V91.588C220.331 91.588 220.951 91.3835 221.524 90.9779L221.401 90.8033ZM219.666 91.3741C218.8 91.3741 218.122 91.0384 217.621 90.3647L217.449 90.4924C217.992 91.222 218.734 91.588 219.666 91.588V91.3741ZM217.621 90.3646C217.208 89.8119 217 89.1505 217 88.375H216.786C216.786 89.1911 217.006 89.8987 217.449 90.4926L217.621 90.3646ZM217 88.375C217 87.4685 217.299 86.7221 217.893 86.1276L217.742 85.9763C217.104 86.614 216.786 87.4162 216.786 88.375H217ZM217.894 86.127C218.421 85.5917 219.065 85.3247 219.832 85.3247V85.1108C219.009 85.1108 218.309 85.3999 217.741 85.9769L217.894 86.127ZM219.832 85.3247C220.269 85.3247 220.712 85.4235 221.162 85.6235L221.249 85.428C220.775 85.2173 220.303 85.1108 219.832 85.1108V85.3247ZM221.272 85.6097L221.824 85.1733L221.691 85.0055L221.139 85.4419L221.272 85.6097ZM221.758 85.1963H222.297V84.9824H221.758V85.1963ZM221.254 86.3285C220.864 86.1336 220.467 86.0349 220.063 86.0349V86.2488C220.43 86.2488 220.795 86.3383 221.158 86.5198L221.254 86.3285ZM220.063 86.0349C219.38 86.0349 218.823 86.3068 218.401 86.8459L218.569 86.9779C218.951 86.4903 219.446 86.2488 220.063 86.2488V86.0349ZM218.401 86.8453C218.051 87.2849 217.877 87.805 217.877 88.4007H218.091C218.091 87.8498 218.251 87.3775 218.568 86.9785L218.401 86.8453ZM217.877 88.4007C217.877 89.1016 218.044 89.6676 218.39 90.086L218.554 89.9498C218.25 89.581 218.091 89.0689 218.091 88.4007H217.877ZM218.392 90.0886C218.731 90.474 219.19 90.6639 219.755 90.6639V90.45C219.243 90.45 218.846 90.2805 218.552 89.9472L218.392 90.0886ZM219.755 90.6639C220.237 90.6639 220.737 90.5345 221.253 90.2807L221.159 90.0887C220.665 90.3312 220.198 90.45 219.755 90.45V90.6639ZM221.313 90.1847V86.4242H221.099V90.1847H221.313ZM225.229 90.4286H225.336V90.3216H225.229V90.4286ZM225.229 91.3398V91.4468H225.336V91.3398H225.229ZM222.854 91.3398H222.747V91.4468H222.854V91.3398ZM222.854 90.4286V90.3216H222.747V90.4286H222.854ZM225.122 90.4286V91.3398H225.336V90.4286H225.122ZM225.229 91.2329H222.854V91.4468H225.229V91.2329ZM222.961 91.3398V90.4286H222.747V91.3398H222.961ZM222.854 90.5355H225.229V90.3216H222.854V90.5355ZM227.51 90.4286H227.617V90.3216H227.51V90.4286ZM227.51 91.3398V91.4468H227.617V91.3398H227.51ZM225.135 91.3398H225.028V91.4468H225.135V91.3398ZM225.135 90.4286V90.3216H225.028V90.4286H225.135ZM227.403 90.4286V91.3398H227.617V90.4286H227.403ZM227.51 91.2329H225.135V91.4468H227.51V91.2329ZM225.242 91.3398V90.4286H225.028V91.3398H225.242ZM225.135 90.5355H227.51V90.3216H225.135V90.5355ZM230.792 88.2595L230.685 88.259L230.683 88.6516L230.884 88.3142L230.792 88.2595ZM237.89 86.2317L237.966 86.1572L237.966 86.1571L237.89 86.2317ZM238.685 90.4286L238.582 90.4004L238.545 90.5355H238.685V90.4286ZM239.135 90.4286H239.241V90.3216H239.135V90.4286ZM239.135 91.3398V91.4468H239.241V91.3398H239.135ZM238.865 91.3398L238.781 91.4067L238.814 91.4468H238.865V91.3398ZM238.506 90.8906L238.589 90.8238L238.557 90.7837H238.506V90.8906ZM238.467 90.8906V90.7837H238.416L238.384 90.8238L238.467 90.8906ZM227.417 91.3398H227.31V91.4468H227.417V91.3398ZM227.417 90.4286V90.3216H227.31V90.4286H227.417ZM229.727 90.4286V90.5355H229.834L229.834 90.4283L229.727 90.4286ZM229.714 85.4359V85.329H229.607L229.607 85.4362L229.714 85.4359ZM230.805 85.4359L230.912 85.4364L230.912 85.329H230.805V85.4359ZM237.633 88.298H237.74L237.74 88.2967L237.633 88.298ZM236.876 86.7065L236.809 86.7904L236.811 86.7918L236.876 86.7065ZM233.385 86.7707L233.441 86.8613L233.442 86.8611L233.385 86.7707ZM230.792 90.4286L230.692 90.3916L230.639 90.5355H230.792V90.4286ZM230.884 88.3142C232.05 86.3537 233.567 85.3889 235.438 85.3889V85.1749C233.476 85.1749 231.896 86.1951 230.7 88.2049L230.884 88.3142ZM235.438 85.3889C236.432 85.3889 237.22 85.697 237.813 86.3062L237.966 86.1571C237.327 85.5 236.48 85.1749 235.438 85.1749V85.3889ZM237.813 86.3061C238.348 86.8573 238.617 87.5569 238.617 88.4135H238.831C238.831 87.5076 238.544 86.7526 237.966 86.1572L237.813 86.3061ZM238.617 88.4135V90.1206H238.831V88.4135H238.617ZM238.617 90.1206C238.617 90.2236 238.605 90.3167 238.582 90.4004L238.788 90.4567C238.817 90.3523 238.831 90.24 238.831 90.1206H238.617ZM238.685 90.5355H239.135V90.3216H238.685V90.5355ZM239.028 90.4286V91.3398H239.241V90.4286H239.028ZM239.135 91.2329H238.865V91.4468H239.135V91.2329ZM238.949 91.273L238.589 90.8238L238.422 90.9574L238.781 91.4067L238.949 91.273ZM238.506 90.7837H238.467V90.9976H238.506V90.7837ZM238.384 90.8238C238.163 91.0999 237.893 91.2329 237.569 91.2329V91.4468C237.963 91.4468 238.292 91.2803 238.551 90.9574L238.384 90.8238ZM237.569 91.2329H227.417V91.4468H237.569V91.2329ZM227.523 91.3398V90.4286H227.31V91.3398H227.523ZM227.417 90.5355H229.727V90.3216H227.417V90.5355ZM229.834 90.4283L229.821 85.4356L229.607 85.4362L229.62 90.4289L229.834 90.4283ZM229.714 85.5429H230.805V85.329H229.714V85.5429ZM230.698 85.4354L230.685 88.259L230.899 88.26L230.912 85.4364L230.698 85.4354ZM237.74 88.2967C237.731 87.5829 237.466 87.0199 236.94 86.6213L236.811 86.7918C237.278 87.1461 237.518 87.6441 237.526 88.2994L237.74 88.2967ZM236.942 86.6227C236.508 86.2789 235.943 86.1119 235.258 86.1119V86.3258C235.908 86.3258 236.422 86.4839 236.809 86.7904L236.942 86.6227ZM235.258 86.1119C234.57 86.1119 233.926 86.3019 233.327 86.6803L233.442 86.8611C234.007 86.5036 234.612 86.3258 235.258 86.3258V86.1119ZM233.328 86.6801C232.222 87.3734 231.346 88.6169 230.692 90.3916L230.892 90.4656C231.538 88.715 232.391 87.52 233.441 86.8613L233.328 86.6801ZM230.792 90.5355H237.145V90.3216H230.792V90.5355ZM237.145 90.5355C237.324 90.5355 237.478 90.4907 237.587 90.3823C237.695 90.2739 237.74 90.1199 237.74 89.9409H237.526C237.526 90.087 237.489 90.1769 237.435 90.231C237.381 90.2852 237.291 90.3216 237.145 90.3216V90.5355ZM237.74 89.9409V88.298H237.526V89.9409H237.74ZM242.346 82.8048L242.268 82.878L242.273 82.883L242.346 82.8048ZM242.346 83.7032L242.422 83.7789L242.346 83.7032ZM241.448 83.7032L241.37 83.7764L241.375 83.7814L241.448 83.7032ZM241.448 82.8048L241.372 82.7292V82.7292L241.448 82.8048ZM242.449 85.4359H242.556V85.329H242.449V85.4359ZM242.411 90.4286L242.307 90.4026L242.274 90.5355H242.411V90.4286ZM243.091 90.4286H243.198V90.3216H243.091V90.4286ZM243.091 91.3398V91.4468H243.198V91.3398H243.091ZM242.59 91.3398L242.508 91.4081L242.54 91.4468H242.59V91.3398ZM242.218 90.8906L242.3 90.8224L242.268 90.7837H242.218V90.8906ZM242.18 90.8906V90.7837H242.127L242.095 90.8253L242.18 90.8906ZM239.048 91.3398H238.941V91.4468H239.048V91.3398ZM239.048 90.4286V90.3216H238.941V90.4286H239.048ZM241.204 90.3002L241.132 90.2213L241.128 90.2246L241.204 90.3002ZM241.358 85.4359V85.329H241.251V85.4359H241.358ZM241.897 82.7192C242.048 82.7192 242.169 82.7717 242.268 82.8778L242.425 82.7318C242.284 82.5812 242.106 82.5053 241.897 82.5053V82.7192ZM242.273 82.883C242.381 82.9832 242.432 83.1006 242.432 83.2412H242.646C242.646 83.0396 242.569 82.866 242.419 82.7266L242.273 82.883ZM242.432 83.2412C242.432 83.3922 242.379 83.5191 242.271 83.6276L242.422 83.7789C242.57 83.6307 242.646 83.4496 242.646 83.2412H242.432ZM242.271 83.6276C242.172 83.726 242.05 83.776 241.897 83.776V83.9899C242.103 83.9899 242.281 83.92 242.422 83.7789L242.271 83.6276ZM241.897 83.776C241.754 83.776 241.63 83.7269 241.521 83.625L241.375 83.7814C241.523 83.9192 241.698 83.9899 241.897 83.9899V83.776ZM241.526 83.6303C241.425 83.5222 241.375 83.3945 241.375 83.2412H241.161C241.161 83.4473 241.231 83.6276 241.37 83.7762L241.526 83.6303ZM241.375 83.2412C241.375 83.0981 241.424 82.9799 241.524 82.8804L241.372 82.7292C241.232 82.8693 241.161 83.042 241.161 83.2412H241.375ZM241.524 82.8804C241.633 82.7708 241.756 82.7192 241.897 82.7192V82.5053C241.696 82.5053 241.519 82.5821 241.372 82.7292L241.524 82.8804ZM242.342 85.4359V90.1206H242.556V85.4359H242.342ZM242.342 90.1206C242.342 90.2142 242.33 90.3082 242.307 90.4026L242.514 90.4545C242.542 90.3436 242.556 90.2322 242.556 90.1206H242.342ZM242.411 90.5355H243.091V90.3216H242.411V90.5355ZM242.984 90.4286V91.3398H243.198V90.4286H242.984ZM243.091 91.2329H242.59V91.4468H243.091V91.2329ZM242.673 91.2716L242.3 90.8224L242.136 90.9589L242.508 91.4081L242.673 91.2716ZM242.218 90.7837H242.18V90.9976H242.218V90.7837ZM242.095 90.8253C241.883 91.0994 241.615 91.2329 241.281 91.2329V91.4468C241.683 91.4468 242.014 91.2808 242.264 90.956L242.095 90.8253ZM241.281 91.2329H239.048V91.4468H241.281V91.2329ZM239.155 91.3398V90.4286H238.941V91.3398H239.155ZM239.048 90.5355H240.87V90.3216H239.048V90.5355ZM240.87 90.5355C241.032 90.5355 241.171 90.4842 241.28 90.3759L241.128 90.2246C241.066 90.2874 240.983 90.3216 240.87 90.3216V90.5355ZM241.276 90.3791C241.402 90.2637 241.465 90.1148 241.465 89.9409H241.251C241.251 90.0578 241.211 90.1485 241.132 90.2214L241.276 90.3791ZM241.465 89.9409V85.4359H241.251V89.9409H241.465ZM241.358 85.5429H242.449V85.329H241.358V85.5429ZM245.37 90.4286H245.477V90.3216H245.37V90.4286ZM245.37 91.3398V91.4468H245.477V91.3398H245.37ZM242.996 91.3398H242.889V91.4468H242.996V91.3398ZM242.996 90.4286V90.3216H242.889V90.4286H242.996ZM245.264 90.4286V91.3398H245.477V90.4286H245.264ZM245.37 91.2329H242.996V91.4468H245.37V91.2329ZM243.103 91.3398V90.4286H242.889V91.3398H243.103ZM242.996 90.5355H245.37V90.3216H242.996V90.5355ZM247.652 90.4286H247.759V90.3216H247.652V90.4286ZM247.652 91.3398V91.4468H247.759V91.3398H247.652ZM245.277 91.3398H245.17V91.4468H245.277V91.3398ZM245.277 90.4286V90.3216H245.17V90.4286H245.277ZM247.545 90.4286V91.3398H247.759V90.4286H247.545ZM247.652 91.2329H245.277V91.4468H247.652V91.2329ZM245.384 91.3398V90.4286H245.17V91.3398H245.384ZM245.277 90.5355H247.652V90.3216H245.277V90.5355ZM250.793 85.6926L250.734 85.6033L250.733 85.6036L250.793 85.6926ZM254.438 86.129L254.362 86.204L254.438 86.129ZM254.438 90.8265L254.519 90.8961L254.519 90.8959L254.438 90.8265ZM250.69 90.8906L250.772 90.8223L250.687 90.7195L250.605 90.8253L250.69 90.8906ZM247.558 91.3398H247.451V91.4468H247.558V91.3398ZM247.558 90.4286V90.3216H247.451V90.4286H247.558ZM249.727 90.2874L249.652 90.2118L249.727 90.2874ZM250.96 90.1334H250.853V90.1771L250.883 90.2083L250.96 90.1334ZM253.68 90.1847L253.595 90.12L253.595 90.1203L253.68 90.1847ZM253.603 86.745L253.684 86.6752L253.684 86.6743L253.603 86.745ZM251.383 86.5525L251.31 86.4742L251.31 86.4746L251.383 86.5525ZM249.976 87.6178C249.976 86.7734 250.271 86.1687 250.852 85.7816L250.733 85.6036C250.082 86.0379 249.762 86.7167 249.762 87.6178H249.976ZM250.852 85.7819C251.231 85.5318 251.743 85.4017 252.397 85.4017V85.1878C251.716 85.1878 251.159 85.3229 250.734 85.6033L250.852 85.7819ZM252.397 85.4017C253.183 85.4017 253.835 85.6692 254.362 86.204L254.514 86.0539C253.945 85.4764 253.237 85.1878 252.397 85.1878V85.4017ZM254.362 86.204C254.884 86.735 255.152 87.4836 255.152 88.4649H255.366C255.366 87.444 255.086 86.6353 254.514 86.0539L254.362 86.204ZM255.152 88.4649C255.152 89.375 254.886 90.1367 254.356 90.757L254.519 90.8959C255.085 90.2327 255.366 89.4201 255.366 88.4649H255.152ZM254.357 90.7569C253.863 91.3322 253.243 91.6179 252.487 91.6179V91.8318C253.305 91.8318 253.985 91.5187 254.519 90.8961L254.357 90.7569ZM252.487 91.6179C251.782 91.6179 251.214 91.3535 250.772 90.8223L250.608 90.959C251.091 91.5401 251.72 91.8318 252.487 91.8318V91.6179ZM250.605 90.8253C250.395 91.098 250.119 91.2329 249.766 91.2329V91.4468C250.183 91.4468 250.523 91.2822 250.775 90.956L250.605 90.8253ZM249.766 91.2329H247.558V91.4468H249.766V91.2329ZM247.665 91.3398V90.4286H247.451V91.3398H247.665ZM247.558 90.5355H249.381V90.3216H247.558V90.5355ZM249.381 90.5355C249.545 90.5355 249.688 90.4778 249.803 90.363L249.652 90.2118C249.578 90.2852 249.49 90.3216 249.381 90.3216V90.5355ZM249.803 90.363C249.918 90.2482 249.976 90.1052 249.976 89.9409H249.762C249.762 90.0503 249.725 90.1383 249.652 90.2118L249.803 90.363ZM249.976 89.9409V87.6178H249.762V89.9409H249.976ZM250.883 90.2083C251.344 90.6783 251.863 90.9206 252.436 90.9206V90.7067C251.93 90.7067 251.465 90.4954 251.036 90.0585L250.883 90.2083ZM252.436 90.9206C252.983 90.9206 253.43 90.6945 253.766 90.2492L253.595 90.1203C253.298 90.5135 252.914 90.7067 252.436 90.7067V90.9206ZM253.766 90.2494C254.108 89.7987 254.275 89.2223 254.275 88.5291H254.061C254.061 89.1878 253.903 89.7151 253.595 90.12L253.766 90.2494ZM254.275 88.5291C254.275 87.7584 254.082 87.1363 253.684 86.6752L253.523 86.8149C253.878 87.2266 254.061 87.7937 254.061 88.5291H254.275ZM253.684 86.6743C253.345 86.2897 252.895 86.099 252.346 86.099V86.3129C252.84 86.3129 253.229 86.4817 253.523 86.8157L253.684 86.6743ZM252.346 86.099C251.93 86.099 251.581 86.2218 251.31 86.4742L251.456 86.6308C251.681 86.4212 251.974 86.3129 252.346 86.3129V86.099ZM251.31 86.4746C251.003 86.7631 250.853 87.1481 250.853 87.6178H251.066C251.066 87.1976 251.199 86.8724 251.456 86.6305L251.31 86.4746ZM250.853 87.6178V90.1334H251.066V87.6178H250.853ZM198.929 96.1502H199.036V96.0433H198.929V96.1502ZM198.929 104.429H198.822V104.536H198.929V104.429ZM199.584 104.429H199.691V104.322H199.584V104.429ZM199.584 105.34V105.447H199.691V105.34H199.584ZM198.929 105.34V105.233H198.825L198.822 105.337L198.929 105.34ZM197.992 107.599L198.063 107.679L198.064 107.678L197.992 107.599ZM191.665 107.624L191.734 107.543L191.734 107.543L191.665 107.624ZM190.689 102.542L190.622 102.459L190.582 102.491V102.542H190.689ZM191.241 102.093V101.986H191.203L191.174 102.01L191.241 102.093ZM191.78 102.093H191.887V101.986H191.78V102.093ZM192.448 106.983L192.512 106.897L192.512 106.897L192.448 106.983ZM197.068 107.06L197.127 107.149L197.128 107.148L197.068 107.06ZM197.838 96.1502V96.0433H197.731V96.1502H197.838ZM198.822 96.1502V104.429H199.036V96.1502H198.822ZM198.929 104.536H199.584V104.322H198.929V104.536ZM199.477 104.429V105.34H199.691V104.429H199.477ZM199.584 105.233H198.929V105.447H199.584V105.233ZM198.822 105.337C198.797 106.281 198.494 107.004 197.921 107.519L198.064 107.678C198.689 107.116 199.01 106.333 199.036 105.343L198.822 105.337ZM197.921 107.519C197.338 108.036 196.545 108.3 195.528 108.3V108.514C196.582 108.514 197.431 108.24 198.063 107.679L197.921 107.519ZM195.528 108.3H194.103V108.514H195.528V108.3ZM194.103 108.3C193.104 108.3 192.318 108.044 191.734 107.543L191.595 107.706C192.227 108.248 193.067 108.514 194.103 108.514V108.3ZM191.734 107.543C191.113 107.012 190.796 106.244 190.796 105.224H190.582C190.582 106.292 190.916 107.125 191.595 107.706L191.734 107.543ZM190.796 105.224V102.542H190.582V105.224H190.796ZM190.757 102.625L191.309 102.176L191.174 102.01L190.622 102.459L190.757 102.625ZM191.241 102.2H191.78V101.986H191.241V102.2ZM191.673 102.093V105.199H191.887V102.093H191.673ZM191.673 105.199C191.673 106.069 191.9 106.705 192.383 107.068L192.512 106.897C192.106 106.593 191.887 106.039 191.887 105.199H191.673ZM192.383 107.068C192.866 107.433 193.684 107.603 194.809 107.603V107.389C193.693 107.389 192.936 107.217 192.512 106.897L192.383 107.068ZM194.809 107.603C195.882 107.603 196.663 107.458 197.127 107.149L197.009 106.971C196.601 107.243 195.876 107.389 194.809 107.389V107.603ZM197.128 107.148C197.682 106.77 197.945 106.108 197.945 105.199H197.731C197.731 106.07 197.481 106.648 197.008 106.971L197.128 107.148ZM197.945 105.199V96.1502H197.731V105.199H197.945ZM197.838 96.2572H198.929V96.0433H197.838V96.2572ZM201.853 104.429H201.96V104.322H201.853V104.429ZM201.853 105.34V105.447H201.96V105.34H201.853ZM199.479 105.34H199.372V105.447H199.479V105.34ZM199.479 104.429V104.322H199.372V104.429H199.479ZM201.746 104.429V105.34H201.96V104.429H201.746ZM201.853 105.233H199.479V105.447H201.853V105.233ZM199.586 105.34V104.429H199.372V105.34H199.586ZM199.479 104.536H201.853V104.322H199.479V104.536ZM204.134 104.429H204.241V104.322H204.134V104.429ZM204.134 105.34V105.447H204.241V105.34H204.134ZM201.76 105.34H201.653V105.447H201.76V105.34ZM201.76 104.429V104.322H201.653V104.429H201.76ZM204.027 104.429V105.34H204.241V104.429H204.027ZM204.134 105.233H201.76V105.447H204.134V105.233ZM201.867 105.34V104.429H201.653V105.34H201.867ZM201.76 104.536H204.134V104.322H201.76V104.536ZM206.415 104.429H206.522V104.322H206.415V104.429ZM206.415 105.34V105.447H206.522V105.34H206.415ZM204.041 105.34H203.934V105.447H204.041V105.34ZM204.041 104.429V104.322H203.934V104.429H204.041ZM206.308 104.429V105.34H206.522V104.429H206.308ZM206.415 105.233H204.041V105.447H206.415V105.233ZM204.148 105.34V104.429H203.934V105.34H204.148ZM204.041 104.536H206.415V104.322H204.041V104.536ZM208.696 104.429H208.803V104.322H208.696V104.429ZM208.696 105.34V105.447H208.803V105.34H208.696ZM206.322 105.34H206.215V105.447H206.322V105.34ZM206.322 104.429V104.322H206.215V104.429H206.322ZM208.59 104.429V105.34H208.803V104.429H208.59ZM208.696 105.233H206.322V105.447H208.696V105.233ZM206.429 105.34V104.429H206.215V105.34H206.429ZM206.322 104.536H208.696V104.322H206.322V104.536ZM211.838 99.6926L211.779 99.6033L211.778 99.6036L211.838 99.6926ZM215.483 100.129L215.406 100.204L215.483 100.129ZM215.483 104.826L215.564 104.896L215.564 104.896L215.483 104.826ZM211.735 104.891L211.817 104.822L211.732 104.72L211.65 104.825L211.735 104.891ZM208.603 105.34H208.496V105.447H208.603V105.34ZM208.603 104.429V104.322H208.496V104.429H208.603ZM210.772 104.287L210.697 104.212L210.772 104.287ZM212.004 104.133H211.897V104.177L211.928 104.208L212.004 104.133ZM214.725 104.185L214.64 104.12L214.64 104.12L214.725 104.185ZM214.648 100.745L214.729 100.675L214.729 100.674L214.648 100.745ZM212.428 100.553L212.355 100.474L212.355 100.475L212.428 100.553ZM211.02 101.618C211.02 100.773 211.316 100.169 211.897 99.7816L211.778 99.6036C211.127 100.038 210.807 100.717 210.807 101.618H211.02ZM211.896 99.7819C212.276 99.5318 212.788 99.4017 213.442 99.4017V99.1878C212.761 99.1878 212.204 99.3229 211.779 99.6033L211.896 99.7819ZM213.442 99.4017C214.227 99.4017 214.88 99.6692 215.406 100.204L215.559 100.054C214.99 99.4764 214.282 99.1878 213.442 99.1878V99.4017ZM215.406 100.204C215.929 100.735 216.197 101.484 216.197 102.465H216.411C216.411 101.444 216.131 100.635 215.559 100.054L215.406 100.204ZM216.197 102.465C216.197 103.375 215.931 104.137 215.401 104.757L215.564 104.896C216.13 104.233 216.411 103.42 216.411 102.465H216.197ZM215.401 104.757C214.908 105.332 214.288 105.618 213.532 105.618V105.832C214.35 105.832 215.03 105.519 215.564 104.896L215.401 104.757ZM213.532 105.618C212.827 105.618 212.258 105.353 211.817 104.822L211.653 104.959C212.135 105.54 212.765 105.832 213.532 105.832V105.618ZM211.65 104.825C211.44 105.098 211.163 105.233 210.811 105.233V105.447C211.228 105.447 211.568 105.282 211.82 104.956L211.65 104.825ZM210.811 105.233H208.603V105.447H210.811V105.233ZM208.71 105.34V104.429H208.496V105.34H208.71ZM208.603 104.536H210.426V104.322H208.603V104.536ZM210.426 104.536C210.59 104.536 210.733 104.478 210.848 104.363L210.697 104.212C210.623 104.285 210.535 104.322 210.426 104.322V104.536ZM210.848 104.363C210.963 104.248 211.02 104.105 211.02 103.941H210.807C210.807 104.05 210.77 104.138 210.697 104.212L210.848 104.363ZM211.02 103.941V101.618H210.807V103.941H211.02ZM211.928 104.208C212.389 104.678 212.908 104.921 213.48 104.921V104.707C212.975 104.707 212.509 104.495 212.081 104.058L211.928 104.208ZM213.48 104.921C214.028 104.921 214.474 104.694 214.811 104.249L214.64 104.12C214.343 104.514 213.959 104.707 213.48 104.707V104.921ZM214.811 104.249C215.153 103.799 215.32 103.222 215.32 102.529H215.106C215.106 103.188 214.948 103.715 214.64 104.12L214.811 104.249ZM215.32 102.529C215.32 101.758 215.127 101.136 214.729 100.675L214.567 100.815C214.923 101.227 215.106 101.794 215.106 102.529H215.32ZM214.729 100.674C214.39 100.29 213.94 100.099 213.391 100.099V100.313C213.885 100.313 214.274 100.482 214.568 100.816L214.729 100.674ZM213.391 100.099C212.975 100.099 212.626 100.222 212.355 100.474L212.501 100.631C212.726 100.421 213.019 100.313 213.391 100.313V100.099ZM212.355 100.475C212.048 100.763 211.897 101.148 211.897 101.618H212.111C212.111 101.198 212.244 100.872 212.501 100.63L212.355 100.475ZM211.897 101.618V104.133H212.111V101.618H211.897ZM218.878 96.1502H218.985V96.0433H218.878V96.1502ZM219.007 104.287L218.927 104.359L218.931 104.363L219.007 104.287ZM219.533 104.429H219.64V104.322H219.533V104.429ZM219.533 105.34V105.447H219.64V105.34H219.533ZM218.224 105.07L218.294 104.99L218.293 104.989L218.224 105.07ZM217.787 96.1502V96.0433H217.68V96.1502H217.787ZM218.771 96.1502V103.941H218.985V96.1502H218.771ZM218.771 103.941C218.771 104.102 218.823 104.244 218.928 104.359L219.086 104.215C219.02 104.143 218.985 104.053 218.985 103.941H218.771ZM218.931 104.363C219.047 104.479 219.195 104.536 219.366 104.536V104.322C219.246 104.322 219.154 104.284 219.082 104.212L218.931 104.363ZM219.366 104.536H219.533V104.322H219.366V104.536ZM219.426 104.429V105.34H219.64V104.429H219.426ZM219.533 105.233H218.943V105.447H219.533V105.233ZM218.943 105.233C218.695 105.233 218.48 105.152 218.294 104.99L218.153 105.151C218.378 105.348 218.643 105.447 218.943 105.447V105.233ZM218.293 104.989C218.026 104.761 217.894 104.475 217.894 104.121H217.68C217.68 104.537 217.839 104.883 218.154 105.152L218.293 104.989ZM217.894 104.121V96.1502H217.68V104.121H217.894ZM217.787 96.2572H218.878V96.0433H217.787V96.2572ZM221.819 104.429H221.926V104.322H221.819V104.429ZM221.819 105.34V105.447H221.926V105.34H221.819ZM219.445 105.34H219.338V105.447H219.445V105.34ZM219.445 104.429V104.322H219.338V104.429H219.445ZM221.712 104.429V105.34H221.926V104.429H221.712ZM221.819 105.233H219.445V105.447H221.819V105.233ZM219.552 105.34V104.429H219.338V105.34H219.552ZM219.445 104.536H221.819V104.322H219.445V104.536ZM224.101 104.429H224.208V104.322H224.101V104.429ZM224.101 105.34V105.447H224.208V105.34H224.101ZM221.726 105.34H221.619V105.447H221.726V105.34ZM221.726 104.429V104.322H221.619V104.429H221.726ZM223.994 104.429V105.34H224.208V104.429H223.994ZM224.101 105.233H221.726V105.447H224.101V105.233ZM221.833 105.34V104.429H221.619V105.34H221.833ZM221.726 104.536H224.101V104.322H221.726V104.536ZM226.382 104.429H226.489V104.322H226.382V104.429ZM226.382 105.34V105.447H226.489V105.34H226.382ZM224.007 105.34H223.9V105.447H224.007V105.34ZM224.007 104.429V104.322H223.9V104.429H224.007ZM226.275 104.429V105.34H226.489V104.429H226.275ZM226.382 105.233H224.007V105.447H226.382V105.233ZM224.114 105.34V104.429H223.9V105.34H224.114ZM224.007 104.536H226.382V104.322H224.007V104.536ZM228.663 104.429H228.77V104.322H228.663V104.429ZM228.663 105.34V105.447H228.77V105.34H228.663ZM226.288 105.34H226.182V105.447H226.288V105.34ZM226.288 104.429V104.322H226.182V104.429H226.288ZM228.556 104.429V105.34H228.77V104.429H228.556ZM228.663 105.233H226.288V105.447H228.663V105.233ZM226.395 105.34V104.429H226.182V105.34H226.395ZM226.288 104.536H228.663V104.322H226.288V104.536ZM234.371 95.9577H234.478V95.7722L234.317 95.8652L234.371 95.9577ZM234.371 96.9588L234.425 97.0508L234.478 97.0197V96.9588H234.371ZM231.149 98.8712L231.095 98.7792L230.877 98.9086L231.122 98.9745L231.149 98.8712ZM234.307 100.873L234.391 100.807L234.391 100.807L234.307 100.873ZM235.321 104.429L235.216 104.406L235.188 104.536H235.321V104.429ZM235.757 104.429H235.864V104.322H235.757V104.429ZM235.757 105.34V105.447H235.864V105.34H235.757ZM235.5 105.34L235.418 105.408L235.45 105.447H235.5V105.34ZM235.128 104.891L235.21 104.822L235.178 104.784H235.128V104.891ZM235.102 104.891V104.784H235.053L235.021 104.821L235.102 104.891ZM228.57 105.34H228.463V105.447H228.57V105.34ZM228.57 104.429V104.322H228.463V104.429H228.57ZM234.281 103.915H234.388L234.388 103.91L234.281 103.915ZM233.498 101.566L233.41 101.627L233.411 101.628L233.498 101.566ZM230.212 99.7696L230.227 99.6636L230.22 99.6627H230.212V99.7696ZM230.135 98.4091L230.082 98.3166L230.028 98.3475V98.4091H230.135ZM234.264 95.9577V96.9588H234.478V95.9577H234.264ZM234.316 96.8669L231.095 98.7792L231.204 98.9632L234.425 97.0508L234.316 96.8669ZM231.122 98.9745C232.437 99.3286 233.469 99.9843 234.223 100.94L234.391 100.807C233.605 99.8116 232.532 99.1326 231.177 98.7679L231.122 98.9745ZM234.223 100.94C234.909 101.81 235.252 102.813 235.252 103.954H235.466C235.466 102.767 235.108 101.716 234.391 100.807L234.223 100.94ZM235.252 103.954C235.252 104.147 235.239 104.297 235.216 104.406L235.425 104.451C235.453 104.321 235.466 104.154 235.466 103.954H235.252ZM235.321 104.536H235.757V104.322H235.321V104.536ZM235.65 104.429V105.34H235.864V104.429H235.65ZM235.757 105.233H235.5V105.447H235.757V105.233ZM235.583 105.272L235.21 104.822L235.046 104.959L235.418 105.408L235.583 105.272ZM235.128 104.784H235.102V104.998H235.128V104.784ZM235.021 104.821C234.781 105.101 234.51 105.233 234.204 105.233V105.447C234.582 105.447 234.91 105.279 235.184 104.96L235.021 104.821ZM234.204 105.233H228.57V105.447H234.204V105.233ZM228.677 105.34V104.429H228.463V105.34H228.677ZM228.57 104.536H233.78V104.322H228.57V104.536ZM233.78 104.536C233.965 104.536 234.122 104.488 234.232 104.375C234.342 104.262 234.388 104.102 234.388 103.915H234.174C234.174 104.071 234.136 104.167 234.079 104.226C234.023 104.283 233.93 104.322 233.78 104.322V104.536ZM234.388 103.91C234.344 103.001 234.077 102.198 233.585 101.505L233.411 101.628C233.877 102.286 234.132 103.049 234.174 103.92L234.388 103.91ZM233.586 101.506C232.88 100.482 231.754 99.8719 230.227 99.6636L230.198 99.8756C231.682 100.078 232.747 100.666 233.41 101.627L233.586 101.506ZM230.212 99.6627C230.21 99.6627 230.212 99.6622 230.218 99.6643C230.224 99.6666 230.23 99.671 230.236 99.6775C230.241 99.6837 230.243 99.6888 230.243 99.6897C230.243 99.6903 230.242 99.6875 230.242 99.6798H230.028C230.028 99.7225 230.037 99.7745 230.073 99.8168C230.112 99.8621 230.166 99.8766 230.212 99.8766V99.6627ZM230.242 99.6798V98.4091H230.028V99.6798H230.242ZM230.189 98.5017L234.424 96.0503L234.317 95.8652L230.082 98.3166L230.189 98.5017ZM237.422 96.8048L237.344 96.8778L237.347 96.8804L237.422 96.8048ZM237.422 97.7032L237.498 97.7789L237.501 97.7762L237.422 97.7032ZM236.524 97.7032L236.446 97.7764L236.451 97.7814L236.524 97.7032ZM236.524 96.8048L236.448 96.7292L236.524 96.8048ZM238.975 96.8048L238.897 96.878L238.902 96.883L238.975 96.8048ZM238.975 97.7032L239.051 97.7789L238.975 97.7032ZM238.077 97.7032L237.999 97.7764L238.004 97.7814L238.077 97.7032ZM238.077 96.8048L238.001 96.7292L238.077 96.8048ZM239.052 99.4359H239.159V99.329H239.052V99.4359ZM239.014 104.429L238.91 104.403L238.877 104.536H239.014V104.429ZM239.694 104.429H239.801V104.322H239.694V104.429ZM239.694 105.34V105.447H239.801V105.34H239.694ZM239.194 105.34L239.111 105.408L239.143 105.447H239.194V105.34ZM238.821 104.891L238.904 104.822L238.872 104.784H238.821V104.891ZM238.783 104.891V104.784H238.73L238.698 104.825L238.783 104.891ZM235.651 105.34H235.544V105.447H235.651V105.34ZM235.651 104.429V104.322H235.544V104.429H235.651ZM237.807 104.3L237.735 104.221L237.732 104.225L237.807 104.3ZM237.961 99.4359V99.329H237.855V99.4359H237.961ZM236.973 96.7192C237.124 96.7192 237.245 96.7717 237.344 96.8778L237.501 96.7318C237.36 96.5812 237.182 96.5053 236.973 96.5053V96.7192ZM237.347 96.8804C237.446 96.9799 237.495 97.0981 237.495 97.2412H237.709C237.709 97.042 237.638 96.8693 237.498 96.7292L237.347 96.8804ZM237.495 97.2412C237.495 97.3945 237.445 97.5222 237.344 97.6303L237.501 97.7762C237.639 97.6276 237.709 97.4473 237.709 97.2412H237.495ZM237.347 97.6276C237.248 97.726 237.126 97.776 236.973 97.776V97.9899C237.179 97.9899 237.357 97.92 237.498 97.7789L237.347 97.6276ZM236.973 97.776C236.83 97.776 236.706 97.7269 236.597 97.625L236.451 97.7814C236.599 97.9192 236.774 97.9899 236.973 97.9899V97.776ZM236.602 97.6303C236.501 97.5222 236.451 97.3945 236.451 97.2412H236.237C236.237 97.4473 236.307 97.6276 236.446 97.7762L236.602 97.6303ZM236.451 97.2412C236.451 97.0981 236.5 96.9799 236.6 96.8804L236.448 96.7292C236.308 96.8693 236.237 97.042 236.237 97.2412H236.451ZM236.6 96.8804C236.709 96.7708 236.832 96.7192 236.973 96.7192V96.5053C236.772 96.5053 236.595 96.5821 236.448 96.7292L236.6 96.8804ZM238.539 96.7192C238.68 96.7192 238.797 96.7705 238.897 96.8778L239.054 96.7318C238.914 96.5825 238.741 96.5053 238.539 96.5053V96.7192ZM238.902 96.883C239.01 96.9832 239.061 97.1006 239.061 97.2412H239.275C239.275 97.0396 239.198 96.866 239.048 96.7266L238.902 96.883ZM239.061 97.2412C239.061 97.3922 239.008 97.5191 238.9 97.6276L239.051 97.7789C239.199 97.6307 239.275 97.4496 239.275 97.2412H239.061ZM238.9 97.6276C238.8 97.7271 238.682 97.776 238.539 97.776V97.9899C238.738 97.9899 238.911 97.9189 239.051 97.7789L238.9 97.6276ZM238.539 97.776C238.386 97.776 238.258 97.7259 238.15 97.625L238.004 97.7814C238.153 97.9202 238.333 97.9899 238.539 97.9899V97.776ZM238.155 97.6303C238.054 97.5222 238.004 97.3945 238.004 97.2412H237.79C237.79 97.4473 237.86 97.6276 237.999 97.7762L238.155 97.6303ZM238.004 97.2412C238.004 97.0981 238.053 96.9799 238.153 96.8804L238.001 96.7292C237.861 96.8693 237.79 97.042 237.79 97.2412H238.004ZM238.153 96.8804C238.261 96.7719 238.388 96.7192 238.539 96.7192V96.5053C238.331 96.5053 238.15 96.581 238.001 96.7292L238.153 96.8804ZM238.945 99.4359V104.121H239.159V99.4359H238.945ZM238.945 104.121C238.945 104.214 238.934 104.308 238.91 104.403L239.118 104.455C239.145 104.344 239.159 104.232 239.159 104.121H238.945ZM239.014 104.536H239.694V104.322H239.014V104.536ZM239.587 104.429V105.34H239.801V104.429H239.587ZM239.694 105.233H239.194V105.447H239.694V105.233ZM239.276 105.272L238.904 104.822L238.739 104.959L239.111 105.408L239.276 105.272ZM238.821 104.784H238.783V104.998H238.821V104.784ZM238.698 104.825C238.487 105.099 238.218 105.233 237.884 105.233V105.447C238.287 105.447 238.617 105.281 238.868 104.956L238.698 104.825ZM237.884 105.233H235.651V105.447H237.884V105.233ZM235.758 105.34V104.429H235.544V105.34H235.758ZM235.651 104.536H237.474V104.322H235.651V104.536ZM237.474 104.536C237.635 104.536 237.775 104.484 237.883 104.376L237.732 104.225C237.669 104.287 237.586 104.322 237.474 104.322V104.536ZM237.88 104.379C238.006 104.264 238.068 104.115 238.068 103.941H237.855C237.855 104.058 237.815 104.149 237.735 104.221L237.88 104.379ZM238.068 103.941V99.4359H237.855V103.941H238.068ZM237.961 99.5429H239.052V99.329H237.961V99.5429ZM241.974 104.429H242.081V104.322H241.974V104.429ZM241.974 105.34V105.447H242.081V105.34H241.974ZM239.599 105.34H239.492V105.447H239.599V105.34ZM239.599 104.429V104.322H239.492V104.429H239.599ZM241.867 104.429V105.34H242.081V104.429H241.867ZM241.974 105.233H239.599V105.447H241.974V105.233ZM239.706 105.34V104.429H239.492V105.34H239.706ZM239.599 104.536H241.974V104.322H239.599V104.536ZM245.282 96.1502H245.389V96.0433H245.282V96.1502ZM244.948 104.968L244.871 104.893L244.87 104.895L244.948 104.968ZM241.881 105.34H241.774V105.447H241.881V105.34ZM241.881 104.429V104.322H241.774V104.429H241.881ZM244.075 104.262L243.992 104.194L243.99 104.197L244.075 104.262ZM244.191 96.1502V96.0433H244.084V96.1502H244.191ZM245.175 96.1502V104.121H245.389V96.1502H245.175ZM245.175 104.121C245.175 104.428 245.073 104.683 244.871 104.893L245.025 105.042C245.268 104.79 245.389 104.481 245.389 104.121H245.175ZM244.87 104.895C244.658 105.122 244.408 105.233 244.114 105.233V105.447C244.47 105.447 244.776 105.309 245.026 105.041L244.87 104.895ZM244.114 105.233H241.881V105.447H244.114V105.233ZM241.987 105.34V104.429H241.774V105.34H241.987ZM241.881 104.536H243.703V104.322H241.881V104.536ZM243.703 104.536C243.893 104.536 244.051 104.469 244.16 104.327L243.99 104.197C243.929 104.277 243.838 104.322 243.703 104.322V104.536ZM244.158 104.329C244.25 104.217 244.298 104.086 244.298 103.941H244.084C244.084 104.036 244.054 104.119 243.992 104.194L244.158 104.329ZM244.298 103.941V96.1502H244.084V103.941H244.298ZM244.191 96.2572H245.282V96.0433H244.191V96.2572ZM248.145 96.1502H248.252V96.0433H248.145V96.1502ZM248.145 105.211L248.212 105.294L248.252 105.262V105.211H248.145ZM247.593 105.661V105.768H247.631L247.66 105.744L247.593 105.661ZM247.054 105.661H246.947V105.768H247.054V105.661ZM247.054 96.1502V96.0433H246.947V96.1502H247.054ZM248.038 96.1502V105.211H248.252V96.1502H248.038ZM248.077 105.129L247.525 105.578L247.66 105.744L248.212 105.294L248.077 105.129ZM247.593 105.554H247.054V105.768H247.593V105.554ZM247.161 105.661V96.1502H246.947V105.661H247.161ZM247.054 96.2572H248.145V96.0433H247.054V96.2572ZM254.044 105.211L254.151 105.212L254.152 105.058L254.008 105.111L254.044 105.211ZM250.451 104.48L250.533 104.412L250.533 104.411L250.451 104.48ZM250.489 100.129L250.412 100.055L250.411 100.056L250.489 100.129ZM254.365 99.8081L254.298 99.8915L254.298 99.8915L254.365 99.8081ZM255.148 105.224L255.255 105.225V105.224H255.148ZM254.07 107.701L254.004 107.617L254.004 107.617L254.07 107.701ZM252.774 108.292L252.795 108.397L252.797 108.396L252.774 108.292ZM251.144 108.382L251.06 108.449L251.091 108.486L251.139 108.488L251.144 108.382ZM250.72 107.855H250.613V107.893L250.637 107.922L250.72 107.855ZM250.72 107.445L250.734 107.339L250.613 107.323V107.445H250.72ZM253.48 100.424L253.541 100.337L253.54 100.336L253.48 100.424ZM251.311 100.784L251.23 100.713L251.229 100.715L251.311 100.784ZM251.388 103.928L251.465 103.854L251.463 103.852L251.388 103.928ZM254.044 104.223L254.083 104.323L254.151 104.296V104.223H254.044ZM254.008 105.111C253.575 105.269 253.121 105.348 252.645 105.348V105.562C253.145 105.562 253.624 105.479 254.081 105.312L254.008 105.111ZM252.645 105.348C251.75 105.348 251.05 105.035 250.533 104.412L250.368 104.548C250.93 105.225 251.693 105.562 252.645 105.562V105.348ZM250.533 104.411C250.073 103.861 249.839 103.155 249.839 102.285H249.625C249.625 103.195 249.87 103.952 250.369 104.549L250.533 104.411ZM249.839 102.285C249.839 101.408 250.085 100.717 250.567 100.202L250.411 100.056C249.884 100.619 249.625 101.366 249.625 102.285H249.839ZM250.567 100.203C251.082 99.6629 251.779 99.3889 252.671 99.3889V99.1749C251.732 99.1749 250.975 99.4656 250.412 100.055L250.567 100.203ZM252.671 99.3889C253.346 99.3889 253.885 99.5593 254.298 99.8915L254.432 99.7248C253.973 99.3553 253.383 99.1749 252.671 99.1749V99.3889ZM254.298 99.8915C254.79 100.287 255.041 100.857 255.041 101.618H255.255C255.255 100.805 254.984 100.168 254.432 99.7247L254.298 99.8915ZM255.041 101.618V105.224H255.255V101.618H255.041ZM255.041 105.223C255.033 106.294 254.683 107.085 254.004 107.617L254.136 107.786C254.877 107.205 255.246 106.345 255.255 105.225L255.041 105.223ZM254.004 107.617C253.659 107.889 253.242 108.079 252.751 108.187L252.797 108.396C253.315 108.282 253.763 108.079 254.136 107.786L254.004 107.617ZM252.752 108.187C252.426 108.254 252.087 108.288 251.734 108.288V108.501C252.1 108.501 252.454 108.467 252.795 108.397L252.752 108.187ZM251.734 108.288C251.53 108.288 251.335 108.283 251.149 108.275L251.139 108.488C251.329 108.497 251.527 108.501 251.734 108.501V108.288ZM251.227 108.315L250.804 107.788L250.637 107.922L251.06 108.449L251.227 108.315ZM250.827 107.855V107.445H250.613V107.855H250.827ZM250.706 107.551C250.968 107.586 251.242 107.603 251.529 107.603V107.389C251.251 107.389 250.986 107.372 250.734 107.339L250.706 107.551ZM251.529 107.603C252.377 107.603 253.034 107.41 253.481 107.004C253.929 106.597 254.147 105.993 254.151 105.212L253.937 105.211C253.933 105.953 253.727 106.491 253.337 106.846C252.945 107.202 252.349 107.389 251.529 107.389V107.603ZM254.151 101.618C254.151 101.059 253.951 100.625 253.541 100.337L253.418 100.512C253.761 100.754 253.937 101.116 253.937 101.618H254.151ZM253.54 100.336C253.304 100.175 253.012 100.099 252.671 100.099V100.313C252.98 100.313 253.227 100.382 253.419 100.513L253.54 100.336ZM252.671 100.099C252.071 100.099 251.586 100.302 251.23 100.714L251.391 100.854C251.702 100.495 252.124 100.313 252.671 100.313V100.099ZM251.229 100.715C250.882 101.125 250.716 101.687 250.716 102.388H250.93C250.93 101.72 251.088 101.212 251.392 100.853L251.229 100.715ZM250.716 102.388C250.716 103.06 250.911 103.603 251.312 104.004L251.463 103.852C251.111 103.5 250.93 103.016 250.93 102.388H250.716ZM251.31 104.002C251.667 104.377 252.142 104.561 252.722 104.561V104.347C252.191 104.347 251.776 104.181 251.465 103.854L251.31 104.002ZM252.722 104.561C253.221 104.561 253.676 104.482 254.083 104.323L254.005 104.124C253.626 104.272 253.199 104.347 252.722 104.347V104.561ZM254.151 104.223V101.618H253.937V104.223H254.151Z" fill="white" mask="url(#path-10-outside-1_241_3224)"/>
</g>
<defs>
<clipPath id="clip0_241_3224">
<rect width="254.981" height="78.7262" fill="white" transform="translate(2.8374 16.6504)"/>
</clipPath>
</defs>
</svg>
