<svg width="501" height="214" viewBox="0 0 501 214" fill="none" xmlns="http://www.w3.org/2000/svg">
<g clip-path="url(#clip0_22_10)">
<path d="M411.107 107.251C411.107 118.187 411.107 128.616 411.107 139.065C411.107 145.031 410.093 146.025 404.008 146.025C398.623 146.025 393.238 146.025 387.924 146.025C385.794 136.461 384.881 135.924 371.119 136.172C363.909 136.301 362.154 137.862 360.582 146.025H355.816C312.059 146.025 268.295 146.025 224.525 146.025C216.564 146.025 215.772 145.269 215.752 137.634C215.752 126.439 215.813 126.35 227.283 126.35H234.889V120.713C234.889 94.0416 234.889 67.3706 234.889 40.6996C234.889 33.7403 235.903 32.7461 243.094 32.7461C257.636 32.6268 256.561 32.3882 256.521 46.0484C256.521 53.7932 256.521 61.5479 256.521 69.9091H262.373C281.641 69.9091 300.91 69.8495 320.179 69.9688C324.559 69.9373 328.932 70.3369 333.231 71.1618C346.973 73.9952 354.619 83.1816 355.542 97.5378C355.836 102.32 355.867 107.132 355.927 111.934C355.988 116.547 355.927 121.17 355.927 126.121H389.861V94.7541C389.861 90.4459 389.861 86.1377 389.861 81.8295C389.861 78.1808 391.686 76.3018 395.459 76.3217C398.674 76.3217 401.878 76.4012 405.093 76.3217C409.424 76.1924 411.178 78.3101 411.107 82.4061C411.006 90.5188 411.107 98.6414 411.107 107.261M265.983 89.4749C257.951 89.4749 256.602 90.1609 256.501 95.102C256.338 103.702 256.43 112.302 256.501 120.891C256.501 124.391 258.052 126.429 261.997 126.419C284.43 126.373 306.86 126.373 329.286 126.419C333.2 126.419 334.691 124.431 334.641 120.812C334.58 116.358 334.641 111.864 334.641 107.43C334.559 93.7499 330.412 89.5345 316.558 89.5345C300.008 89.4152 283.477 89.4649 265.983 89.4649V89.4749Z" fill="#00AC9C"/>
<path d="M155.207 84.8607C153.311 92.4663 150.136 98.8888 144.508 104.198L129.164 88.5293C129.499 87.9825 130.178 86.9087 130.837 85.8052C135.563 77.7422 133.88 68.0588 126.841 62.4416C123.349 59.604 118.899 58.1525 114.369 58.3733C109.839 58.5942 105.558 60.4714 102.37 63.6346C89.8961 75.565 77.6857 87.7041 65.4653 99.8432C63.8375 101.682 62.3591 103.644 61.0436 105.709L44.0161 88.6386C52.7276 80.3073 61.8752 71.5385 71.0532 62.7895C77.3511 56.8244 83.223 50.3124 90.1091 45.0034C103.729 34.4649 118.951 33.2222 134.224 41.0266C149.497 48.831 156.333 61.8152 155.978 78.5476C155.838 80.664 155.58 82.7715 155.207 84.8607Z" fill="#00AC9C"/>
<path d="M14.7913 168.949C1.76964 153.042 2.9663 129.807 17.2962 116.257L32.2751 131.756C31.3421 134.043 29.6079 137.115 28.8372 140.396C28.0465 144.059 28.4575 147.874 30.0113 151.294C31.5651 154.715 34.1822 157.567 37.4885 159.441C40.7949 161.316 44.6213 162.119 48.4206 161.733C52.22 161.348 55.7979 159.795 58.6429 157.297C64.6163 151.928 70.2143 146.162 75.9544 140.555C84.5544 132.154 93.1341 123.733 101.531 115.501L115.729 129.937C101.42 144.681 86.7956 160.21 71.5834 175.232C65.8738 180.899 58.0547 183.186 49.901 183.723C35.7435 184.707 24.162 179.746 14.7913 168.949Z" fill="#00AC9C"/>
<path d="M104.422 182.53C96.5827 180.343 91.6337 177.4 87.1816 172.449L102.597 157.188C103.367 157.695 104.179 158.182 105.01 158.749C113.265 163.909 123.163 162.567 129.258 155.458C132.239 152.1 133.812 147.759 133.659 143.31C133.507 138.861 131.641 134.633 128.437 131.478C115.943 118.892 103.205 106.544 90.5283 94.1364C89.2498 92.9671 87.8947 91.8811 86.4717 90.8853L102.546 74.7197C102.789 74.9285 103.722 75.6145 104.574 76.4198C117.393 89.056 130.405 101.583 143.162 114.408C161.894 133.298 160.251 160.638 139.41 176.138C129.117 183.803 117.373 185.682 104.422 182.53Z" fill="#ED972B"/>
<path d="M68.539 54.5562L59.4117 63.1063C54.0672 59.1295 48.3676 57.3599 42.0901 58.9406C39.0765 59.6557 36.2999 61.1155 34.0251 63.1809C31.7503 65.2463 30.053 67.8485 29.0952 70.7395C28.1373 73.6304 27.9507 76.7136 28.5532 79.6953C29.1556 82.677 30.5271 85.4577 32.5368 87.7723C38.0234 94.2346 44.4632 99.9214 50.5278 105.906C58.8539 114.109 67.2308 122.261 75.131 129.986L59.29 145.923C49.7368 136.538 39.6359 127.033 30.0319 117.091C23.014 109.804 15.2456 102.695 10.2662 94.1352C0.378245 77.1444 6.27045 56.137 22.7098 43.7792C37.1715 32.9027 59.503 34.0659 73.6605 46.4436C74.0255 46.7518 74.2689 47.1992 75.6887 48.7899C73.4069 50.5794 71.0845 52.4386 68.539 54.5562Z" fill="#ED972B"/>
<path d="M421.301 110.232C421.301 86.5606 421.301 63.3959 421.301 40.2212C421.301 33.6297 422.193 32.7746 428.846 32.7249C444.2 32.5857 442.709 32.2974 442.709 45.9875C442.709 76.7678 442.709 107.551 442.709 138.338C442.709 145.298 442.009 146.004 434.89 146.014C420.398 146.014 421.23 147.336 421.29 132.572C421.321 125.294 421.301 118.007 421.301 110.232Z" fill="#00AC9C"/>
<path d="M486.255 78.4189C494.987 78.4786 495.484 78.916 495.443 86.7602C495.443 96.0261 495.677 105.322 495.078 114.598C494.287 126.985 489.947 138.041 477.168 142.763C477.168 142.763 469.816 146.054 456.388 145.796C455.396 145.867 454.408 145.604 453.59 145.05C452.649 144.124 452.56 143.352 452.474 142.047C452.474 140.556 452.474 138.924 452.474 137.574C452.535 132.762 452.474 132.106 452.677 130.117C452.835 129.549 452.861 129.22 453.153 128.705C454.796 126.26 457.981 126.409 462.2 125.534C469.299 124.062 473.355 119.33 473.872 110.76C474.309 103.801 474.085 96.8414 474.096 89.882C474.126 78.4189 474.106 78.4189 486.255 78.4189Z" fill="#00AC9C"/>
<path d="M374.813 139.322C383.686 139.372 384.092 139.77 384.092 148.051C384.092 158.848 384.092 158.848 372.876 158.828C365.219 158.828 364.489 158.093 364.458 150.606V149.115C364.418 139.611 364.671 139.342 374.813 139.322Z" fill="#ED972B"/>
<path d="M186.97 42.5549C186.97 41.4963 186.289 40.6382 185.449 40.6382C184.609 40.6382 183.928 41.4963 183.928 42.5549V177.909C183.928 178.967 184.609 179.826 185.449 179.826C186.289 179.826 186.97 178.967 186.97 177.909V42.5549Z" fill="#00AC9C"/>
<mask id="path-10-outside-1_22_10" maskUnits="userSpaceOnUse" x="211.657" y="158.937" width="280" height="26" fill="black">
<rect fill="white" x="211.657" y="158.937" width="280" height="26"/>
<path d="M228.369 160.509V176.208H229.61V177.937H228.369C228.32 179.77 227.728 181.198 226.592 182.22C225.44 183.243 223.882 183.754 221.919 183.754H219.217C217.286 183.754 215.745 183.259 214.593 182.269C213.36 181.214 212.743 179.697 212.743 177.717V172.631L213.79 171.779H214.812V177.669C214.812 179.291 215.234 180.419 216.077 181.052C216.937 181.701 218.43 182.026 220.556 182.026C222.584 182.026 224.012 181.75 224.84 181.198C225.813 180.533 226.3 179.356 226.3 177.669V160.509H228.369ZM233.914 176.208V177.937H229.411V176.208H233.914ZM238.24 176.208V177.937H233.737V176.208H238.24ZM242.566 176.208V177.937H238.063V176.208H242.566ZM246.892 176.208V177.937H242.389V176.208H246.892ZM251.096 170.878C251.096 169.223 251.68 168.006 252.848 167.227C253.611 166.724 254.625 166.473 255.891 166.473C257.432 166.473 258.722 167 259.761 168.055C260.799 169.109 261.318 170.586 261.318 172.484C261.318 174.253 260.799 175.746 259.761 176.963C258.787 178.099 257.554 178.667 256.061 178.667C254.666 178.667 253.53 178.139 252.654 177.085C252.216 177.653 251.631 177.937 250.901 177.937H246.715V176.208H250.171C250.431 176.208 250.65 176.119 250.828 175.941C251.007 175.762 251.096 175.543 251.096 175.284V170.878ZM253.165 175.649C254.009 176.509 254.942 176.939 255.964 176.939C256.937 176.939 257.724 176.541 258.325 175.746C258.941 174.935 259.25 173.888 259.25 172.606C259.25 171.178 258.893 170.051 258.179 169.223C257.578 168.541 256.783 168.201 255.793 168.201C255.047 168.201 254.439 168.42 253.968 168.858C253.432 169.361 253.165 170.034 253.165 170.878V175.649ZM266.2 160.509V175.284C266.2 175.543 266.282 175.762 266.444 175.941C266.622 176.119 266.85 176.208 267.125 176.208H267.442V177.937H266.322C265.803 177.937 265.349 177.766 264.959 177.425C264.407 176.955 264.132 176.354 264.132 175.624V160.509H266.2ZM271.778 176.208V177.937H267.275V176.208H271.778ZM276.104 176.208V177.937H271.601V176.208H276.104ZM280.43 176.208V177.937H275.927V176.208H280.43ZM284.756 176.208V177.937H280.253V176.208H284.756ZM295.58 160.144V162.043L289.471 165.669C292.002 166.351 293.998 167.617 295.459 169.466C296.789 171.154 297.454 173.101 297.454 175.308C297.454 175.681 297.43 175.981 297.381 176.208H298.209V177.937H297.722L297.016 177.085H296.968C296.481 177.653 295.913 177.937 295.264 177.937H284.579V176.208H294.461C295.094 176.208 295.41 175.884 295.41 175.235C295.329 173.547 294.834 172.063 293.925 170.781C292.627 168.898 290.55 167.763 287.694 167.373C287.597 167.373 287.548 167.316 287.548 167.203V164.793L295.58 160.144ZM300.515 161.386C300.856 161.386 301.14 161.507 301.367 161.751C301.594 161.978 301.708 162.254 301.708 162.578C301.708 162.919 301.594 163.211 301.367 163.455C301.14 163.682 300.856 163.795 300.515 163.795C300.191 163.795 299.907 163.682 299.663 163.455C299.436 163.211 299.323 162.919 299.323 162.578C299.323 162.254 299.436 161.978 299.663 161.751C299.907 161.507 300.191 161.386 300.515 161.386ZM303.485 161.386C303.809 161.386 304.085 161.507 304.312 161.751C304.556 161.978 304.677 162.254 304.677 162.578C304.677 162.919 304.556 163.211 304.312 163.455C304.085 163.682 303.809 163.795 303.485 163.795C303.144 163.795 302.852 163.682 302.609 163.455C302.381 163.211 302.268 162.919 302.268 162.578C302.268 162.254 302.381 161.978 302.609 161.751C302.852 161.507 303.144 161.386 303.485 161.386ZM304.458 166.74V175.624C304.458 175.819 304.434 176.014 304.385 176.208H305.675V177.937H304.726L304.02 177.085H303.947C303.509 177.653 302.941 177.937 302.243 177.937H298.008V176.208H301.465C301.724 176.208 301.935 176.127 302.097 175.965C302.292 175.787 302.39 175.559 302.39 175.284V166.74H304.458ZM309.998 176.208V177.937H305.496V176.208H309.998ZM316.272 160.509V175.624C316.272 176.257 316.061 176.793 315.639 177.231C315.201 177.701 314.673 177.937 314.057 177.937H309.822V176.208H313.278C313.586 176.208 313.821 176.103 313.984 175.892C314.13 175.714 314.203 175.511 314.203 175.284V160.509H316.272ZM321.701 160.509V177.693L320.655 178.545H319.632V160.509H321.701ZM332.889 177.693C332.045 178.001 331.161 178.156 330.236 178.156C328.484 178.156 327.096 177.539 326.074 176.306C325.165 175.219 324.711 173.831 324.711 172.144C324.711 170.44 325.19 169.077 326.147 168.055C327.169 166.984 328.548 166.448 330.285 166.448C331.599 166.448 332.67 166.781 333.497 167.446C334.487 168.241 334.982 169.385 334.982 170.878V177.717C334.966 179.794 334.284 181.36 332.938 182.415C332.256 182.95 331.437 183.324 330.479 183.535C329.847 183.664 329.189 183.729 328.508 183.729C328.118 183.729 327.745 183.721 327.388 183.705L326.585 182.707V181.928C327.072 181.993 327.583 182.026 328.118 182.026C331.283 182.026 332.873 180.581 332.889 177.693ZM332.889 170.878C332.889 169.872 332.532 169.118 331.818 168.614C331.412 168.339 330.901 168.201 330.285 168.201C329.198 168.201 328.338 168.566 327.705 169.296C327.088 170.026 326.78 171.04 326.78 172.338C326.78 173.572 327.137 174.545 327.851 175.259C328.484 175.924 329.327 176.257 330.382 176.257C331.307 176.257 332.143 176.111 332.889 175.819V170.878ZM348.243 160.509V172.095C350.466 168.331 353.387 166.448 357.005 166.448C358.952 166.448 360.51 167.049 361.678 168.249C362.749 169.337 363.285 170.716 363.285 172.387V175.624C363.285 175.835 363.26 176.03 363.212 176.208H364.064V177.937H363.528L362.847 177.085H362.774C362.319 177.653 361.751 177.937 361.07 177.937H342.986L342.134 176.89V176.208H346.198V160.509H348.243ZM361.191 172.168C361.191 171.162 360.891 170.31 360.291 169.612C359.463 168.688 358.263 168.225 356.689 168.225C355.212 168.225 353.841 168.704 352.575 169.661C350.79 171.024 349.346 173.207 348.243 176.208H360.291C360.891 176.208 361.191 175.9 361.191 175.284V172.168ZM368.375 176.208V177.937H363.872V176.208H368.375ZM372.701 176.208V177.937H368.198V176.208H372.701ZM377.027 176.208V177.937H372.524V176.208H377.027ZM381.353 176.208V177.937H376.85V176.208H381.353ZM387.626 166.74V175.624C387.626 176.225 387.432 176.744 387.042 177.182C386.604 177.685 386.06 177.937 385.411 177.937H381.176V176.208H384.633C384.908 176.208 385.136 176.111 385.314 175.916C385.476 175.754 385.557 175.543 385.557 175.284V166.74H387.626ZM385.971 180.468C386.296 180.468 386.572 180.581 386.799 180.809C387.042 181.052 387.164 181.336 387.164 181.66C387.164 182.001 387.042 182.285 386.799 182.512C386.572 182.756 386.296 182.877 385.971 182.877C385.647 182.877 385.363 182.756 385.119 182.512C384.892 182.285 384.779 182.001 384.779 181.66C384.779 181.336 384.892 181.052 385.119 180.809C385.363 180.581 385.647 180.468 385.971 180.468ZM397.388 166.74V176.208H398.63V177.937H397.388C397.34 179.965 396.618 181.482 395.222 182.488C394.102 183.316 392.65 183.729 390.865 183.729C390.589 183.729 390.241 183.721 389.819 183.705L389.016 182.707V181.928C389.486 181.993 389.997 182.026 390.549 182.026C393.729 182.026 395.319 180.565 395.319 177.644V166.74H397.388ZM404.906 160.509V175.624C404.906 176.257 404.695 176.793 404.274 177.231C403.835 177.701 403.308 177.937 402.691 177.937H398.456V176.208H401.913C402.221 176.208 402.456 176.103 402.618 175.892C402.764 175.714 402.837 175.511 402.837 175.284V160.509H404.906ZM410.336 160.509V177.693L409.289 178.545H408.267V160.509H410.336ZM423.899 161.386C424.224 161.386 424.5 161.507 424.727 161.751C424.97 161.978 425.092 162.254 425.092 162.578C425.092 162.919 424.97 163.211 424.727 163.455C424.5 163.682 424.224 163.795 423.899 163.795C423.575 163.795 423.291 163.682 423.047 163.455C422.82 163.211 422.707 162.919 422.707 162.578C422.707 162.254 422.82 161.978 423.047 161.751C423.291 161.507 423.575 161.386 423.899 161.386ZM426.844 161.386C427.185 161.386 427.469 161.507 427.696 161.751C427.94 161.978 428.061 162.254 428.061 162.578C428.061 162.919 427.94 163.211 427.696 163.455C427.469 163.682 427.185 163.795 426.844 163.795C426.52 163.795 426.236 163.682 425.992 163.455C425.765 163.211 425.652 162.919 425.652 162.578C425.652 162.254 425.765 161.978 425.992 161.751C426.236 161.507 426.52 161.386 426.844 161.386ZM428.061 166.083V175.284C428.061 175.576 428.142 175.803 428.305 175.965C428.451 176.127 428.613 176.208 428.791 176.208H429.278V177.937H428.256C427.51 177.937 426.917 177.653 426.479 177.085C425.424 177.831 424.289 178.204 423.072 178.204C421.368 178.204 420.021 177.539 419.031 176.208C418.22 175.121 417.814 173.823 417.814 172.314C417.814 170.545 418.398 169.077 419.567 167.909C420.605 166.854 421.879 166.327 423.388 166.327C424.248 166.327 425.116 166.521 425.992 166.911L427.039 166.083H428.061ZM425.992 168.614C425.278 168.258 424.556 168.079 423.826 168.079C422.593 168.079 421.595 168.566 420.832 169.539C420.2 170.334 419.883 171.276 419.883 172.363C419.883 173.661 420.191 174.683 420.808 175.43C421.408 176.111 422.22 176.452 423.242 176.452C424.118 176.452 425.035 176.217 425.992 175.746V168.614ZM433.621 176.208V177.937H429.118V176.208H433.621ZM437.947 176.208V177.937H433.444V176.208H437.947ZM444.172 172.095C446.411 168.331 449.348 166.448 452.983 166.448C454.914 166.448 456.463 167.049 457.631 168.249C458.686 169.337 459.213 170.716 459.213 172.387V175.624C459.213 175.835 459.189 176.03 459.14 176.208H459.992V177.937H459.481L458.8 177.085H458.727C458.272 177.653 457.704 177.937 457.023 177.937H437.77V176.208H442.152L442.127 166.74H444.196L444.172 172.095ZM457.145 172.168C457.128 170.87 456.65 169.864 455.709 169.15C454.93 168.533 453.907 168.225 452.642 168.225C451.376 168.225 450.192 168.574 449.088 169.272C447.044 170.554 445.405 172.866 444.172 176.208H456.22C456.836 176.208 457.145 175.9 457.145 175.284V172.168ZM465.231 161.386C465.572 161.386 465.856 161.507 466.083 161.751C466.327 161.978 466.448 162.254 466.448 162.578C466.448 162.919 466.327 163.211 466.083 163.455C465.856 163.682 465.572 163.795 465.231 163.795C464.907 163.795 464.623 163.682 464.38 163.455C464.152 163.211 464.039 162.919 464.039 162.578C464.039 162.254 464.152 161.978 464.38 161.751C464.623 161.507 464.907 161.386 465.231 161.386ZM466.278 166.74V175.624C466.278 175.819 466.254 176.014 466.205 176.208H467.495V177.937H466.546L465.84 177.085H465.767C465.329 177.653 464.761 177.937 464.063 177.937H459.828V176.208H463.284C463.544 176.208 463.755 176.127 463.917 175.965C464.112 175.787 464.209 175.559 464.209 175.284V166.74H466.278ZM471.818 176.208V177.937H467.315V176.208H471.818ZM476.144 176.208V177.937H471.641V176.208H476.144ZM480.348 170.878C480.348 169.223 480.933 168.006 482.101 167.227C482.863 166.724 483.878 166.473 485.143 166.473C486.685 166.473 487.975 167 489.013 168.055C490.052 169.109 490.571 170.586 490.571 172.484C490.571 174.253 490.052 175.746 489.013 176.963C488.04 178.099 486.806 178.667 485.314 178.667C483.918 178.667 482.782 178.139 481.906 177.085C481.468 177.653 480.884 177.937 480.154 177.937H475.967V176.208H479.423C479.683 176.208 479.902 176.119 480.081 175.941C480.259 175.762 480.348 175.543 480.348 175.284V170.878ZM482.417 175.649C483.261 176.509 484.194 176.939 485.216 176.939C486.19 176.939 486.977 176.541 487.577 175.746C488.194 174.935 488.502 173.888 488.502 172.606C488.502 171.178 488.145 170.051 487.431 169.223C486.831 168.541 486.036 168.201 485.046 168.201C484.299 168.201 483.691 168.42 483.22 168.858C482.685 169.361 482.417 170.034 482.417 170.878V175.649Z"/>
</mask>
<path d="M228.369 160.509V176.208H229.61V177.937H228.369C228.32 179.77 227.728 181.198 226.592 182.22C225.44 183.243 223.882 183.754 221.919 183.754H219.217C217.286 183.754 215.745 183.259 214.593 182.269C213.36 181.214 212.743 179.697 212.743 177.717V172.631L213.79 171.779H214.812V177.669C214.812 179.291 215.234 180.419 216.077 181.052C216.937 181.701 218.43 182.026 220.556 182.026C222.584 182.026 224.012 181.75 224.84 181.198C225.813 180.533 226.3 179.356 226.3 177.669V160.509H228.369ZM233.914 176.208V177.937H229.411V176.208H233.914ZM238.24 176.208V177.937H233.737V176.208H238.24ZM242.566 176.208V177.937H238.063V176.208H242.566ZM246.892 176.208V177.937H242.389V176.208H246.892ZM251.096 170.878C251.096 169.223 251.68 168.006 252.848 167.227C253.611 166.724 254.625 166.473 255.891 166.473C257.432 166.473 258.722 167 259.761 168.055C260.799 169.109 261.318 170.586 261.318 172.484C261.318 174.253 260.799 175.746 259.761 176.963C258.787 178.099 257.554 178.667 256.061 178.667C254.666 178.667 253.53 178.139 252.654 177.085C252.216 177.653 251.631 177.937 250.901 177.937H246.715V176.208H250.171C250.431 176.208 250.65 176.119 250.828 175.941C251.007 175.762 251.096 175.543 251.096 175.284V170.878ZM253.165 175.649C254.009 176.509 254.942 176.939 255.964 176.939C256.937 176.939 257.724 176.541 258.325 175.746C258.941 174.935 259.25 173.888 259.25 172.606C259.25 171.178 258.893 170.051 258.179 169.223C257.578 168.541 256.783 168.201 255.793 168.201C255.047 168.201 254.439 168.42 253.968 168.858C253.432 169.361 253.165 170.034 253.165 170.878V175.649ZM266.2 160.509V175.284C266.2 175.543 266.282 175.762 266.444 175.941C266.622 176.119 266.85 176.208 267.125 176.208H267.442V177.937H266.322C265.803 177.937 265.349 177.766 264.959 177.425C264.407 176.955 264.132 176.354 264.132 175.624V160.509H266.2ZM271.778 176.208V177.937H267.275V176.208H271.778ZM276.104 176.208V177.937H271.601V176.208H276.104ZM280.43 176.208V177.937H275.927V176.208H280.43ZM284.756 176.208V177.937H280.253V176.208H284.756ZM295.58 160.144V162.043L289.471 165.669C292.002 166.351 293.998 167.617 295.459 169.466C296.789 171.154 297.454 173.101 297.454 175.308C297.454 175.681 297.43 175.981 297.381 176.208H298.209V177.937H297.722L297.016 177.085H296.968C296.481 177.653 295.913 177.937 295.264 177.937H284.579V176.208H294.461C295.094 176.208 295.41 175.884 295.41 175.235C295.329 173.547 294.834 172.063 293.925 170.781C292.627 168.898 290.55 167.763 287.694 167.373C287.597 167.373 287.548 167.316 287.548 167.203V164.793L295.58 160.144ZM300.515 161.386C300.856 161.386 301.14 161.507 301.367 161.751C301.594 161.978 301.708 162.254 301.708 162.578C301.708 162.919 301.594 163.211 301.367 163.455C301.14 163.682 300.856 163.795 300.515 163.795C300.191 163.795 299.907 163.682 299.663 163.455C299.436 163.211 299.323 162.919 299.323 162.578C299.323 162.254 299.436 161.978 299.663 161.751C299.907 161.507 300.191 161.386 300.515 161.386ZM303.485 161.386C303.809 161.386 304.085 161.507 304.312 161.751C304.556 161.978 304.677 162.254 304.677 162.578C304.677 162.919 304.556 163.211 304.312 163.455C304.085 163.682 303.809 163.795 303.485 163.795C303.144 163.795 302.852 163.682 302.609 163.455C302.381 163.211 302.268 162.919 302.268 162.578C302.268 162.254 302.381 161.978 302.609 161.751C302.852 161.507 303.144 161.386 303.485 161.386ZM304.458 166.74V175.624C304.458 175.819 304.434 176.014 304.385 176.208H305.675V177.937H304.726L304.02 177.085H303.947C303.509 177.653 302.941 177.937 302.243 177.937H298.008V176.208H301.465C301.724 176.208 301.935 176.127 302.097 175.965C302.292 175.787 302.39 175.559 302.39 175.284V166.74H304.458ZM309.998 176.208V177.937H305.496V176.208H309.998ZM316.272 160.509V175.624C316.272 176.257 316.061 176.793 315.639 177.231C315.201 177.701 314.673 177.937 314.057 177.937H309.822V176.208H313.278C313.586 176.208 313.821 176.103 313.984 175.892C314.13 175.714 314.203 175.511 314.203 175.284V160.509H316.272ZM321.701 160.509V177.693L320.655 178.545H319.632V160.509H321.701ZM332.889 177.693C332.045 178.001 331.161 178.156 330.236 178.156C328.484 178.156 327.096 177.539 326.074 176.306C325.165 175.219 324.711 173.831 324.711 172.144C324.711 170.44 325.19 169.077 326.147 168.055C327.169 166.984 328.548 166.448 330.285 166.448C331.599 166.448 332.67 166.781 333.497 167.446C334.487 168.241 334.982 169.385 334.982 170.878V177.717C334.966 179.794 334.284 181.36 332.938 182.415C332.256 182.95 331.437 183.324 330.479 183.535C329.847 183.664 329.189 183.729 328.508 183.729C328.118 183.729 327.745 183.721 327.388 183.705L326.585 182.707V181.928C327.072 181.993 327.583 182.026 328.118 182.026C331.283 182.026 332.873 180.581 332.889 177.693ZM332.889 170.878C332.889 169.872 332.532 169.118 331.818 168.614C331.412 168.339 330.901 168.201 330.285 168.201C329.198 168.201 328.338 168.566 327.705 169.296C327.088 170.026 326.78 171.04 326.78 172.338C326.78 173.572 327.137 174.545 327.851 175.259C328.484 175.924 329.327 176.257 330.382 176.257C331.307 176.257 332.143 176.111 332.889 175.819V170.878ZM348.243 160.509V172.095C350.466 168.331 353.387 166.448 357.005 166.448C358.952 166.448 360.51 167.049 361.678 168.249C362.749 169.337 363.285 170.716 363.285 172.387V175.624C363.285 175.835 363.26 176.03 363.212 176.208H364.064V177.937H363.528L362.847 177.085H362.774C362.319 177.653 361.751 177.937 361.07 177.937H342.986L342.134 176.89V176.208H346.198V160.509H348.243ZM361.191 172.168C361.191 171.162 360.891 170.31 360.291 169.612C359.463 168.688 358.263 168.225 356.689 168.225C355.212 168.225 353.841 168.704 352.575 169.661C350.79 171.024 349.346 173.207 348.243 176.208H360.291C360.891 176.208 361.191 175.9 361.191 175.284V172.168ZM368.375 176.208V177.937H363.872V176.208H368.375ZM372.701 176.208V177.937H368.198V176.208H372.701ZM377.027 176.208V177.937H372.524V176.208H377.027ZM381.353 176.208V177.937H376.85V176.208H381.353ZM387.626 166.74V175.624C387.626 176.225 387.432 176.744 387.042 177.182C386.604 177.685 386.06 177.937 385.411 177.937H381.176V176.208H384.633C384.908 176.208 385.136 176.111 385.314 175.916C385.476 175.754 385.557 175.543 385.557 175.284V166.74H387.626ZM385.971 180.468C386.296 180.468 386.572 180.581 386.799 180.809C387.042 181.052 387.164 181.336 387.164 181.66C387.164 182.001 387.042 182.285 386.799 182.512C386.572 182.756 386.296 182.877 385.971 182.877C385.647 182.877 385.363 182.756 385.119 182.512C384.892 182.285 384.779 182.001 384.779 181.66C384.779 181.336 384.892 181.052 385.119 180.809C385.363 180.581 385.647 180.468 385.971 180.468ZM397.388 166.74V176.208H398.63V177.937H397.388C397.34 179.965 396.618 181.482 395.222 182.488C394.102 183.316 392.65 183.729 390.865 183.729C390.589 183.729 390.241 183.721 389.819 183.705L389.016 182.707V181.928C389.486 181.993 389.997 182.026 390.549 182.026C393.729 182.026 395.319 180.565 395.319 177.644V166.74H397.388ZM404.906 160.509V175.624C404.906 176.257 404.695 176.793 404.274 177.231C403.835 177.701 403.308 177.937 402.691 177.937H398.456V176.208H401.913C402.221 176.208 402.456 176.103 402.618 175.892C402.764 175.714 402.837 175.511 402.837 175.284V160.509H404.906ZM410.336 160.509V177.693L409.289 178.545H408.267V160.509H410.336ZM423.899 161.386C424.224 161.386 424.5 161.507 424.727 161.751C424.97 161.978 425.092 162.254 425.092 162.578C425.092 162.919 424.97 163.211 424.727 163.455C424.5 163.682 424.224 163.795 423.899 163.795C423.575 163.795 423.291 163.682 423.047 163.455C422.82 163.211 422.707 162.919 422.707 162.578C422.707 162.254 422.82 161.978 423.047 161.751C423.291 161.507 423.575 161.386 423.899 161.386ZM426.844 161.386C427.185 161.386 427.469 161.507 427.696 161.751C427.94 161.978 428.061 162.254 428.061 162.578C428.061 162.919 427.94 163.211 427.696 163.455C427.469 163.682 427.185 163.795 426.844 163.795C426.52 163.795 426.236 163.682 425.992 163.455C425.765 163.211 425.652 162.919 425.652 162.578C425.652 162.254 425.765 161.978 425.992 161.751C426.236 161.507 426.52 161.386 426.844 161.386ZM428.061 166.083V175.284C428.061 175.576 428.142 175.803 428.305 175.965C428.451 176.127 428.613 176.208 428.791 176.208H429.278V177.937H428.256C427.51 177.937 426.917 177.653 426.479 177.085C425.424 177.831 424.289 178.204 423.072 178.204C421.368 178.204 420.021 177.539 419.031 176.208C418.22 175.121 417.814 173.823 417.814 172.314C417.814 170.545 418.398 169.077 419.567 167.909C420.605 166.854 421.879 166.327 423.388 166.327C424.248 166.327 425.116 166.521 425.992 166.911L427.039 166.083H428.061ZM425.992 168.614C425.278 168.258 424.556 168.079 423.826 168.079C422.593 168.079 421.595 168.566 420.832 169.539C420.2 170.334 419.883 171.276 419.883 172.363C419.883 173.661 420.191 174.683 420.808 175.43C421.408 176.111 422.22 176.452 423.242 176.452C424.118 176.452 425.035 176.217 425.992 175.746V168.614ZM433.621 176.208V177.937H429.118V176.208H433.621ZM437.947 176.208V177.937H433.444V176.208H437.947ZM444.172 172.095C446.411 168.331 449.348 166.448 452.983 166.448C454.914 166.448 456.463 167.049 457.631 168.249C458.686 169.337 459.213 170.716 459.213 172.387V175.624C459.213 175.835 459.189 176.03 459.14 176.208H459.992V177.937H459.481L458.8 177.085H458.727C458.272 177.653 457.704 177.937 457.023 177.937H437.77V176.208H442.152L442.127 166.74H444.196L444.172 172.095ZM457.145 172.168C457.128 170.87 456.65 169.864 455.709 169.15C454.93 168.533 453.907 168.225 452.642 168.225C451.376 168.225 450.192 168.574 449.088 169.272C447.044 170.554 445.405 172.866 444.172 176.208H456.22C456.836 176.208 457.145 175.9 457.145 175.284V172.168ZM465.231 161.386C465.572 161.386 465.856 161.507 466.083 161.751C466.327 161.978 466.448 162.254 466.448 162.578C466.448 162.919 466.327 163.211 466.083 163.455C465.856 163.682 465.572 163.795 465.231 163.795C464.907 163.795 464.623 163.682 464.38 163.455C464.152 163.211 464.039 162.919 464.039 162.578C464.039 162.254 464.152 161.978 464.38 161.751C464.623 161.507 464.907 161.386 465.231 161.386ZM466.278 166.74V175.624C466.278 175.819 466.254 176.014 466.205 176.208H467.495V177.937H466.546L465.84 177.085H465.767C465.329 177.653 464.761 177.937 464.063 177.937H459.828V176.208H463.284C463.544 176.208 463.755 176.127 463.917 175.965C464.112 175.787 464.209 175.559 464.209 175.284V166.74H466.278ZM471.818 176.208V177.937H467.315V176.208H471.818ZM476.144 176.208V177.937H471.641V176.208H476.144ZM480.348 170.878C480.348 169.223 480.933 168.006 482.101 167.227C482.863 166.724 483.878 166.473 485.143 166.473C486.685 166.473 487.975 167 489.013 168.055C490.052 169.109 490.571 170.586 490.571 172.484C490.571 174.253 490.052 175.746 489.013 176.963C488.04 178.099 486.806 178.667 485.314 178.667C483.918 178.667 482.782 178.139 481.906 177.085C481.468 177.653 480.884 177.937 480.154 177.937H475.967V176.208H479.423C479.683 176.208 479.902 176.119 480.081 175.941C480.259 175.762 480.348 175.543 480.348 175.284V170.878ZM482.417 175.649C483.261 176.509 484.194 176.939 485.216 176.939C486.19 176.939 486.977 176.541 487.577 175.746C488.194 174.935 488.502 173.888 488.502 172.606C488.502 171.178 488.145 170.051 487.431 169.223C486.831 168.541 486.036 168.201 485.046 168.201C484.299 168.201 483.691 168.42 483.22 168.858C482.685 169.361 482.417 170.034 482.417 170.878V175.649Z" fill="#8D8D8D"/>
<path d="M228.369 160.509H228.572V160.307H228.369V160.509ZM228.369 176.208H228.166V176.411H228.369V176.208ZM229.61 176.208H229.813V176.006H229.61V176.208ZM229.61 177.937V178.139H229.813V177.937H229.61ZM228.369 177.937V177.734H228.171L228.166 177.931L228.369 177.937ZM226.592 182.22L226.727 182.372L226.728 182.371L226.592 182.22ZM214.593 182.269L214.725 182.115L214.725 182.115L214.593 182.269ZM212.743 172.631L212.615 172.473L212.54 172.534V172.631H212.743ZM213.79 171.779V171.576H213.717L213.661 171.621L213.79 171.779ZM214.812 171.779H215.015V171.576H214.812V171.779ZM216.077 181.052L216.2 180.89L216.199 180.89L216.077 181.052ZM224.84 181.198L224.952 181.367L224.954 181.365L224.84 181.198ZM226.3 160.509V160.307H226.097V160.509H226.3ZM228.166 160.509V176.208H228.572V160.509H228.166ZM228.369 176.411H229.61V176.006H228.369V176.411ZM229.407 176.208V177.937H229.813V176.208H229.407ZM229.61 177.734H228.369V178.139H229.61V177.734ZM228.166 177.931C228.119 179.721 227.543 181.092 226.456 182.07L226.728 182.371C227.913 181.304 228.522 179.819 228.572 177.942L228.166 177.931ZM226.457 182.069C225.352 183.05 223.847 183.551 221.919 183.551V183.956C223.918 183.956 225.528 183.435 226.727 182.372L226.457 182.069ZM221.919 183.551H219.217V183.956H221.919V183.551ZM219.217 183.551C217.321 183.551 215.831 183.065 214.725 182.115L214.461 182.423C215.659 183.452 217.251 183.956 219.217 183.956V183.551ZM214.725 182.115C213.546 181.107 212.946 179.652 212.946 177.717H212.54C212.54 179.742 213.173 181.321 214.461 182.423L214.725 182.115ZM212.946 177.717V172.631H212.54V177.717H212.946ZM212.871 172.788L213.918 171.936L213.661 171.621L212.615 172.473L212.871 172.788ZM213.79 171.981H214.812V171.576H213.79V171.981ZM214.609 171.779V177.669H215.015V171.779H214.609ZM214.609 177.669C214.609 179.32 215.038 180.526 215.956 181.214L216.199 180.89C215.429 180.312 215.015 179.263 215.015 177.669H214.609ZM215.955 181.214C216.871 181.905 218.422 182.228 220.556 182.228V181.823C218.438 181.823 217.004 181.497 216.2 180.89L215.955 181.214ZM220.556 182.228C222.59 182.228 224.071 181.954 224.952 181.367L224.727 181.029C223.953 181.545 222.578 181.823 220.556 181.823V182.228ZM224.954 181.365C226.004 180.648 226.503 179.392 226.503 177.669H226.097C226.097 179.32 225.622 180.418 224.725 181.031L224.954 181.365ZM226.503 177.669V160.509H226.097V177.669H226.503ZM226.3 160.712H228.369V160.307H226.3V160.712ZM233.914 176.208H234.117V176.006H233.914V176.208ZM233.914 177.937V178.139H234.117V177.937H233.914ZM229.411 177.937H229.208V178.139H229.411V177.937ZM229.411 176.208V176.006H229.208V176.208H229.411ZM233.711 176.208V177.937H234.117V176.208H233.711ZM233.914 177.734H229.411V178.139H233.914V177.734ZM229.614 177.937V176.208H229.208V177.937H229.614ZM229.411 176.411H233.914V176.006H229.411V176.411ZM238.24 176.208H238.443V176.006H238.24V176.208ZM238.24 177.937V178.139H238.443V177.937H238.24ZM233.737 177.937H233.534V178.139H233.737V177.937ZM233.737 176.208V176.006H233.534V176.208H233.737ZM238.037 176.208V177.937H238.443V176.208H238.037ZM238.24 177.734H233.737V178.139H238.24V177.734ZM233.94 177.937V176.208H233.534V177.937H233.94ZM233.737 176.411H238.24V176.006H233.737V176.411ZM242.566 176.208H242.769V176.006H242.566V176.208ZM242.566 177.937V178.139H242.769V177.937H242.566ZM238.063 177.937H237.86V178.139H238.063V177.937ZM238.063 176.208V176.006H237.86V176.208H238.063ZM242.363 176.208V177.937H242.769V176.208H242.363ZM242.566 177.734H238.063V178.139H242.566V177.734ZM238.266 177.937V176.208H237.86V177.937H238.266ZM238.063 176.411H242.566V176.006H238.063V176.411ZM246.892 176.208H247.094V176.006H246.892V176.208ZM246.892 177.937V178.139H247.094V177.937H246.892ZM242.389 177.937H242.186V178.139H242.389V177.937ZM242.389 176.208V176.006H242.186V176.208H242.389ZM246.689 176.208V177.937H247.094V176.208H246.689ZM246.892 177.734H242.389V178.139H246.892V177.734ZM242.592 177.937V176.208H242.186V177.937H242.592ZM242.389 176.411H246.892V176.006H242.389V176.411ZM252.848 167.227L252.737 167.058L252.736 167.058L252.848 167.227ZM259.761 168.055L259.616 168.197L259.761 168.055ZM259.761 176.963L259.915 177.095L259.915 177.095L259.761 176.963ZM252.654 177.085L252.81 176.955L252.648 176.76L252.493 176.961L252.654 177.085ZM246.715 177.937H246.512V178.139H246.715V177.937ZM246.715 176.208V176.006H246.512V176.208H246.715ZM250.828 175.941L250.685 175.797L250.828 175.941ZM253.165 175.649H252.962V175.731L253.02 175.791L253.165 175.649ZM258.325 175.746L258.163 175.623L258.163 175.624L258.325 175.746ZM258.179 169.223L258.332 169.09L258.331 169.089L258.179 169.223ZM253.968 168.858L253.83 168.709L253.829 168.71L253.968 168.858ZM251.299 170.878C251.299 169.277 251.86 168.13 252.961 167.396L252.736 167.058C251.5 167.882 250.893 169.169 250.893 170.878H251.299ZM252.96 167.396C253.679 166.922 254.65 166.675 255.891 166.675V166.27C254.6 166.27 253.543 166.526 252.737 167.058L252.96 167.396ZM255.891 166.675C257.38 166.675 258.618 167.183 259.616 168.197L259.905 167.912C258.827 166.817 257.484 166.27 255.891 166.27V166.675ZM259.616 168.197C260.608 169.204 261.116 170.624 261.116 172.484H261.521C261.521 170.548 260.991 169.015 259.905 167.912L259.616 168.197ZM261.116 172.484C261.116 174.21 260.61 175.655 259.606 176.831L259.915 177.095C260.988 175.837 261.521 174.296 261.521 172.484H261.116ZM259.607 176.831C258.672 177.922 257.495 178.464 256.061 178.464V178.87C257.613 178.87 258.903 178.276 259.915 177.095L259.607 176.831ZM256.061 178.464C254.725 178.464 253.647 177.962 252.81 176.955L252.498 177.214C253.413 178.316 254.607 178.87 256.061 178.87V178.464ZM252.493 176.961C252.094 177.478 251.57 177.734 250.901 177.734V178.139C251.693 178.139 252.337 177.827 252.814 177.209L252.493 176.961ZM250.901 177.734H246.715V178.139H250.901V177.734ZM246.918 177.937V176.208H246.512V177.937H246.918ZM246.715 176.411H250.171V176.006H246.715V176.411ZM250.171 176.411C250.483 176.411 250.754 176.302 250.972 176.084L250.685 175.797C250.545 175.937 250.379 176.006 250.171 176.006V176.411ZM250.972 176.084C251.189 175.866 251.299 175.595 251.299 175.284H250.893C250.893 175.491 250.824 175.658 250.685 175.797L250.972 176.084ZM251.299 175.284V170.878H250.893V175.284H251.299ZM253.02 175.791C253.895 176.682 254.877 177.141 255.964 177.141V176.736C255.006 176.736 254.123 176.335 253.31 175.507L253.02 175.791ZM255.964 177.141C257.003 177.141 257.849 176.713 258.487 175.868L258.163 175.624C257.6 176.369 256.872 176.736 255.964 176.736V177.141ZM258.486 175.869C259.136 175.014 259.452 173.921 259.452 172.606H259.047C259.047 173.855 258.747 174.855 258.163 175.623L258.486 175.869ZM259.452 172.606C259.452 171.145 259.087 169.965 258.332 169.09L258.025 169.355C258.699 170.136 259.047 171.212 259.047 172.606H259.452ZM258.331 169.089C257.688 168.359 256.836 167.998 255.793 167.998V168.404C256.731 168.404 257.468 168.723 258.027 169.357L258.331 169.089ZM255.793 167.998C255.005 167.998 254.344 168.231 253.83 168.709L254.106 169.006C254.533 168.609 255.089 168.404 255.793 168.404V167.998ZM253.829 168.71C253.247 169.257 252.962 169.987 252.962 170.878H253.368C253.368 170.081 253.618 169.465 254.107 169.006L253.829 168.71ZM252.962 170.878V175.649H253.368V170.878H252.962ZM266.2 160.509H266.403V160.307H266.2V160.509ZM266.444 175.941L266.294 176.077L266.3 176.084L266.444 175.941ZM267.442 176.208H267.645V176.006H267.442V176.208ZM267.442 177.937V178.139H267.645V177.937H267.442ZM264.959 177.425L265.093 177.273L265.091 177.271L264.959 177.425ZM264.132 160.509V160.307H263.929V160.509H264.132ZM265.998 160.509V175.284H266.403V160.509H265.998ZM265.998 175.284C265.998 175.589 266.095 175.858 266.294 176.077L266.594 175.804C266.468 175.666 266.403 175.497 266.403 175.284H265.998ZM266.3 176.084C266.521 176.304 266.801 176.411 267.125 176.411V176.006C266.898 176.006 266.724 175.934 266.587 175.797L266.3 176.084ZM267.125 176.411H267.442V176.006H267.125V176.411ZM267.239 176.208V177.937H267.645V176.208H267.239ZM267.442 177.734H266.322V178.139H267.442V177.734ZM266.322 177.734C265.852 177.734 265.445 177.581 265.093 177.273L264.826 177.578C265.252 177.951 265.754 178.139 266.322 178.139V177.734ZM265.091 177.271C264.585 176.839 264.334 176.296 264.334 175.624H263.929C263.929 176.413 264.23 177.07 264.828 177.58L265.091 177.271ZM264.334 175.624V160.509H263.929V175.624H264.334ZM264.132 160.712H266.2V160.307H264.132V160.712ZM271.778 176.208H271.981V176.006H271.778V176.208ZM271.778 177.937V178.139H271.981V177.937H271.778ZM267.275 177.937H267.072V178.139H267.275V177.937ZM267.275 176.208V176.006H267.072V176.208H267.275ZM271.575 176.208V177.937H271.981V176.208H271.575ZM271.778 177.734H267.275V178.139H271.778V177.734ZM267.478 177.937V176.208H267.072V177.937H267.478ZM267.275 176.411H271.778V176.006H267.275V176.411ZM276.104 176.208H276.307V176.006H276.104V176.208ZM276.104 177.937V178.139H276.307V177.937H276.104ZM271.601 177.937H271.398V178.139H271.601V177.937ZM271.601 176.208V176.006H271.398V176.208H271.601ZM275.901 176.208V177.937H276.307V176.208H275.901ZM276.104 177.734H271.601V178.139H276.104V177.734ZM271.804 177.937V176.208H271.398V177.937H271.804ZM271.601 176.411H276.104V176.006H271.601V176.411ZM280.43 176.208H280.633V176.006H280.43V176.208ZM280.43 177.937V178.139H280.633V177.937H280.43ZM275.927 177.937H275.724V178.139H275.927V177.937ZM275.927 176.208V176.006H275.724V176.208H275.927ZM280.227 176.208V177.937H280.633V176.208H280.227ZM280.43 177.734H275.927V178.139H280.43V177.734ZM276.13 177.937V176.208H275.724V177.937H276.13ZM275.927 176.411H280.43V176.006H275.927V176.411ZM284.756 176.208H284.959V176.006H284.756V176.208ZM284.756 177.937V178.139H284.959V177.937H284.756ZM280.253 177.937H280.05V178.139H280.253V177.937ZM280.253 176.208V176.006H280.05V176.208H280.253ZM284.553 176.208V177.937H284.959V176.208H284.553ZM284.756 177.734H280.253V178.139H284.756V177.734ZM280.456 177.937V176.208H280.05V177.937H280.456ZM280.253 176.411H284.756V176.006H280.253V176.411ZM295.58 160.144H295.783V159.793L295.479 159.969L295.58 160.144ZM295.58 162.043L295.684 162.217L295.783 162.158V162.043H295.58ZM289.471 165.669L289.368 165.495L288.954 165.74L289.418 165.865L289.471 165.669ZM295.459 169.466L295.618 169.341L295.618 169.341L295.459 169.466ZM297.381 176.208L297.183 176.166L297.131 176.411H297.381V176.208ZM298.209 176.208H298.412V176.006H298.209V176.208ZM298.209 177.937V178.139H298.412V177.937H298.209ZM297.722 177.937L297.566 178.066L297.627 178.139H297.722V177.937ZM297.016 177.085L297.173 176.955L297.112 176.882H297.016V177.085ZM296.968 177.085V176.882H296.874L296.814 176.953L296.968 177.085ZM284.579 177.937H284.376V178.139H284.579V177.937ZM284.579 176.208V176.006H284.376V176.208H284.579ZM295.41 175.235H295.613L295.613 175.225L295.41 175.235ZM293.925 170.781L293.758 170.896L293.76 170.898L293.925 170.781ZM287.694 167.373L287.722 167.172L287.708 167.17H287.694V167.373ZM287.548 164.793L287.447 164.618L287.345 164.676V164.793H287.548ZM295.378 160.144V162.043H295.783V160.144H295.378ZM295.477 161.868L289.368 165.495L289.575 165.844L295.684 162.217L295.477 161.868ZM289.418 165.865C291.913 166.537 293.869 167.78 295.299 169.592L295.618 169.341C294.127 167.453 292.092 166.165 289.524 165.474L289.418 165.865ZM295.299 169.592C296.601 171.243 297.252 173.145 297.252 175.308H297.657C297.657 173.057 296.978 171.065 295.618 169.341L295.299 169.592ZM297.252 175.308C297.252 175.674 297.228 175.959 297.183 176.166L297.58 176.251C297.633 176.004 297.657 175.688 297.657 175.308H297.252ZM297.381 176.411H298.209V176.006H297.381V176.411ZM298.006 176.208V177.937H298.412V176.208H298.006ZM298.209 177.734H297.722V178.139H298.209V177.734ZM297.878 177.807L297.173 176.955L296.86 177.214L297.566 178.066L297.878 177.807ZM297.016 176.882H296.968V177.287H297.016V176.882ZM296.814 176.953C296.359 177.483 295.844 177.734 295.264 177.734V178.139C295.982 178.139 296.603 177.822 297.122 177.217L296.814 176.953ZM295.264 177.734H284.579V178.139H295.264V177.734ZM284.782 177.937V176.208H284.376V177.937H284.782ZM284.579 176.411H294.461V176.006H284.579V176.411ZM294.461 176.411C294.81 176.411 295.108 176.321 295.318 176.107C295.526 175.893 295.613 175.589 295.613 175.235H295.207C295.207 175.529 295.135 175.713 295.027 175.823C294.92 175.933 294.745 176.006 294.461 176.006V176.411ZM295.613 175.225C295.53 173.502 295.023 171.979 294.091 170.663L293.76 170.898C294.644 172.146 295.128 173.593 295.207 175.245L295.613 175.225ZM294.092 170.666C292.754 168.725 290.618 167.567 287.722 167.172L287.667 167.574C290.482 167.958 292.501 169.072 293.758 170.896L294.092 170.666ZM287.694 167.17C287.689 167.17 287.694 167.17 287.704 167.173C287.715 167.178 287.728 167.186 287.739 167.199C287.749 167.21 287.752 167.22 287.752 167.222C287.753 167.223 287.751 167.217 287.751 167.203H287.345C287.345 167.284 287.362 167.383 287.431 167.463C287.505 167.549 287.606 167.576 287.694 167.576V167.17ZM287.751 167.203V164.793H287.345V167.203H287.751ZM287.65 164.969L295.682 160.32L295.479 159.969L287.447 164.618L287.65 164.969ZM301.367 161.751L301.219 161.889L301.224 161.894L301.367 161.751ZM301.367 163.455L301.511 163.598L301.516 163.593L301.367 163.455ZM299.663 163.455L299.515 163.593L299.525 163.603L299.663 163.455ZM299.663 161.751L299.52 161.607V161.607L299.663 161.751ZM304.312 161.751L304.164 161.889L304.174 161.899L304.312 161.751ZM304.312 163.455L304.456 163.598L304.312 163.455ZM302.609 163.455L302.46 163.593L302.47 163.603L302.609 163.455ZM302.609 161.751L302.465 161.607L302.465 161.607L302.609 161.751ZM304.458 166.74H304.661V166.538H304.458V166.74ZM304.385 176.208L304.189 176.159L304.126 176.411H304.385V176.208ZM305.675 176.208H305.878V176.006H305.675V176.208ZM305.675 177.937V178.139H305.878V177.937H305.675ZM304.726 177.937L304.57 178.066L304.631 178.139H304.726V177.937ZM304.02 177.085L304.176 176.955L304.116 176.882H304.02V177.085ZM303.947 177.085V176.882H303.848L303.787 176.961L303.947 177.085ZM298.008 177.937H297.806V178.139H298.008V177.937ZM298.008 176.208V176.006H297.806V176.208H298.008ZM302.097 175.965L301.96 175.815L301.954 175.822L302.097 175.965ZM302.39 166.74V166.538H302.187V166.74H302.39ZM300.515 161.588C300.801 161.588 301.031 161.688 301.219 161.889L301.516 161.612C301.249 161.327 300.911 161.183 300.515 161.183V161.588ZM301.224 161.894C301.413 162.083 301.505 162.307 301.505 162.578H301.911C301.911 162.201 301.776 161.873 301.511 161.607L301.224 161.894ZM301.505 162.578C301.505 162.869 301.41 163.111 301.219 163.316L301.516 163.593C301.779 163.311 301.911 162.969 301.911 162.578H301.505ZM301.224 163.311C301.037 163.498 300.806 163.592 300.515 163.592V163.998C300.906 163.998 301.243 163.866 301.511 163.598L301.224 163.311ZM300.515 163.592C300.244 163.592 300.009 163.499 299.802 163.306L299.525 163.603C299.805 163.864 300.138 163.998 300.515 163.998V163.592ZM299.812 163.316C299.621 163.111 299.526 162.869 299.526 162.578H299.12C299.12 162.969 299.252 163.311 299.515 163.593L299.812 163.316ZM299.526 162.578C299.526 162.307 299.618 162.083 299.807 161.894L299.52 161.607C299.254 161.873 299.12 162.201 299.12 162.578H299.526ZM299.807 161.894C300.015 161.686 300.248 161.588 300.515 161.588V161.183C300.134 161.183 299.799 161.328 299.52 161.607L299.807 161.894ZM303.485 161.588C303.751 161.588 303.974 161.686 304.164 161.889L304.461 161.612C304.196 161.329 303.867 161.183 303.485 161.183V161.588ZM304.174 161.899C304.377 162.089 304.475 162.312 304.475 162.578H304.88C304.88 162.196 304.734 161.867 304.451 161.602L304.174 161.899ZM304.475 162.578C304.475 162.865 304.375 163.105 304.169 163.311L304.456 163.598C304.737 163.317 304.88 162.973 304.88 162.578H304.475ZM304.169 163.311C303.98 163.5 303.756 163.592 303.485 163.592V163.998C303.862 163.998 304.19 163.864 304.456 163.598L304.169 163.311ZM303.485 163.592C303.194 163.592 302.952 163.497 302.747 163.306L302.47 163.603C302.752 163.866 303.094 163.998 303.485 163.998V163.592ZM302.757 163.316C302.566 163.111 302.471 162.869 302.471 162.578H302.065C302.065 162.969 302.197 163.311 302.46 163.593L302.757 163.316ZM302.471 162.578C302.471 162.307 302.563 162.083 302.752 161.894L302.465 161.607C302.2 161.873 302.065 162.201 302.065 162.578H302.471ZM302.752 161.894C302.958 161.688 303.198 161.588 303.485 161.588V161.183C303.09 161.183 302.746 161.326 302.465 161.607L302.752 161.894ZM304.256 166.74V175.624H304.661V166.74H304.256ZM304.256 175.624C304.256 175.802 304.233 175.98 304.189 176.159L304.582 176.258C304.635 176.047 304.661 175.836 304.661 175.624H304.256ZM304.385 176.411H305.675V176.006H304.385V176.411ZM305.473 176.208V177.937H305.878V176.208H305.473ZM305.675 177.734H304.726V178.139H305.675V177.734ZM304.882 177.807L304.176 176.955L303.864 177.214L304.57 178.066L304.882 177.807ZM304.02 176.882H303.947V177.287H304.02V176.882ZM303.787 176.961C303.386 177.481 302.876 177.734 302.243 177.734V178.139C303.006 178.139 303.633 177.825 304.108 177.209L303.787 176.961ZM302.243 177.734H298.008V178.139H302.243V177.734ZM298.211 177.937V176.208H297.806V177.937H298.211ZM298.008 176.411H301.465V176.006H298.008V176.411ZM301.465 176.411C301.77 176.411 302.035 176.314 302.241 176.108L301.954 175.822C301.835 175.941 301.678 176.006 301.465 176.006V176.411ZM302.234 176.115C302.473 175.896 302.592 175.613 302.592 175.284H302.187C302.187 175.505 302.111 175.677 301.96 175.816L302.234 176.115ZM302.592 175.284V166.74H302.187V175.284H302.592ZM302.39 166.943H304.458V166.538H302.39V166.943ZM309.998 176.208H310.201V176.006H309.998V176.208ZM309.998 177.937V178.139H310.201V177.937H309.998ZM305.496 177.937H305.293V178.139H305.496V177.937ZM305.496 176.208V176.006H305.293V176.208H305.496ZM309.796 176.208V177.937H310.201V176.208H309.796ZM309.998 177.734H305.496V178.139H309.998V177.734ZM305.698 177.937V176.208H305.293V177.937H305.698ZM305.496 176.411H309.998V176.006H305.496V176.411ZM316.272 160.509H316.474V160.307H316.272V160.509ZM315.639 177.231L315.493 177.09L315.49 177.092L315.639 177.231ZM309.822 177.937H309.619V178.139H309.822V177.937ZM309.822 176.208V176.006H309.619V176.208H309.822ZM313.984 175.892L313.827 175.764L313.823 175.768L313.984 175.892ZM314.203 160.509V160.307H314V160.509H314.203ZM316.069 160.509V175.624H316.474V160.509H316.069ZM316.069 175.624C316.069 176.207 315.877 176.691 315.493 177.09L315.785 177.371C316.245 176.894 316.474 176.307 316.474 175.624H316.069ZM315.49 177.092C315.089 177.524 314.614 177.734 314.057 177.734V178.139C314.732 178.139 315.313 177.879 315.787 177.369L315.49 177.092ZM314.057 177.734H309.822V178.139H314.057V177.734ZM310.024 177.937V176.208H309.619V177.937H310.024ZM309.822 176.411H313.278V176.006H309.822V176.411ZM313.278 176.411C313.638 176.411 313.937 176.285 314.144 176.016L313.823 175.768C313.705 175.921 313.534 176.006 313.278 176.006V176.411ZM314.141 176.02C314.316 175.806 314.406 175.558 314.406 175.284H314C314 175.463 313.944 175.621 313.827 175.764L314.141 176.02ZM314.406 175.284V160.509H314V175.284H314.406ZM314.203 160.712H316.272V160.307H314.203V160.712ZM321.701 160.509H321.904V160.307H321.701V160.509ZM321.701 177.693L321.829 177.85L321.904 177.79V177.693H321.701ZM320.655 178.545V178.748H320.727L320.783 178.702L320.655 178.545ZM319.632 178.545H319.43V178.748H319.632V178.545ZM319.632 160.509V160.307H319.43V160.509H319.632ZM321.498 160.509V177.693H321.904V160.509H321.498ZM321.573 177.536L320.527 178.388L320.783 178.702L321.829 177.85L321.573 177.536ZM320.655 178.342H319.632V178.748H320.655V178.342ZM319.835 178.545V160.509H319.43V178.545H319.835ZM319.632 160.712H321.701V160.307H319.632V160.712ZM332.889 177.693L333.092 177.694L333.093 177.402L332.819 177.503L332.889 177.693ZM326.074 176.306L326.23 176.176L326.23 176.176L326.074 176.306ZM326.147 168.055L326 167.915L325.999 167.916L326.147 168.055ZM333.497 167.446L333.37 167.604L333.37 167.604L333.497 167.446ZM334.982 177.717L335.185 177.719V177.717H334.982ZM332.938 182.415L332.813 182.255L332.812 182.256L332.938 182.415ZM330.479 183.535L330.52 183.733L330.523 183.733L330.479 183.535ZM327.388 183.705L327.23 183.832L327.288 183.903L327.379 183.908L327.388 183.705ZM326.585 182.707H326.382V182.779L326.427 182.834L326.585 182.707ZM326.585 181.928L326.612 181.727L326.382 181.697V181.928H326.585ZM331.818 168.614L331.935 168.449L331.932 168.447L331.818 168.614ZM327.705 169.296L327.551 169.163L327.55 169.165L327.705 169.296ZM327.851 175.259L327.998 175.119L327.994 175.116L327.851 175.259ZM332.889 175.819L332.963 176.008L333.092 175.957V175.819H332.889ZM332.819 177.503C331.999 177.803 331.138 177.953 330.236 177.953V178.358C331.184 178.358 332.092 178.2 332.959 177.884L332.819 177.503ZM330.236 177.953C328.537 177.953 327.21 177.358 326.23 176.176L325.918 176.435C326.983 177.72 328.43 178.358 330.236 178.358V177.953ZM326.23 176.176C325.357 175.132 324.914 173.793 324.914 172.144H324.508C324.508 173.869 324.974 175.306 325.918 176.436L326.23 176.176ZM324.914 172.144C324.914 170.48 325.38 169.17 326.295 168.193L325.999 167.916C324.999 168.984 324.508 170.4 324.508 172.144H324.914ZM326.294 168.195C327.271 167.171 328.593 166.651 330.285 166.651V166.245C328.503 166.245 327.067 166.797 326 167.915L326.294 168.195ZM330.285 166.651C331.564 166.651 332.587 166.974 333.37 167.604L333.625 167.288C332.753 166.588 331.634 166.245 330.285 166.245V166.651ZM333.37 167.604C334.304 168.354 334.779 169.435 334.779 170.878H335.185C335.185 169.336 334.671 168.129 333.625 167.288L333.37 167.604ZM334.779 170.878V177.717H335.185V170.878H334.779ZM334.779 177.716C334.764 179.746 334.1 181.247 332.813 182.255L333.063 182.575C334.469 181.474 335.168 179.843 335.185 177.719L334.779 177.716ZM332.812 182.256C332.158 182.77 331.367 183.131 330.436 183.337L330.523 183.733C331.506 183.516 332.355 183.131 333.063 182.574L332.812 182.256ZM330.439 183.336C329.82 183.463 329.176 183.526 328.508 183.526V183.932C329.202 183.932 329.873 183.866 330.52 183.733L330.439 183.336ZM328.508 183.526C328.121 183.526 327.751 183.518 327.397 183.502L327.379 183.908C327.739 183.924 328.116 183.932 328.508 183.932V183.526ZM327.546 183.578L326.743 182.58L326.427 182.834L327.23 183.832L327.546 183.578ZM326.788 182.707V181.928H326.382V182.707H326.788ZM326.558 182.129C327.055 182.195 327.575 182.228 328.118 182.228V181.823C327.591 181.823 327.089 181.791 326.612 181.727L326.558 182.129ZM328.118 182.228C329.728 182.228 330.974 181.862 331.821 181.093C332.671 180.32 333.084 179.175 333.092 177.694L332.686 177.692C332.678 179.1 332.288 180.12 331.548 180.792C330.804 181.467 329.674 181.823 328.118 181.823V182.228ZM333.092 170.878C333.092 169.818 332.712 168.996 331.935 168.449L331.701 168.78C332.352 169.239 332.686 169.926 332.686 170.878H333.092ZM331.932 168.447C331.485 168.143 330.931 167.998 330.285 167.998V168.404C330.871 168.404 331.34 168.534 331.704 168.782L331.932 168.447ZM330.285 167.998C329.147 167.998 328.228 168.383 327.551 169.163L327.858 169.429C328.447 168.749 329.248 168.404 330.285 168.404V167.998ZM327.55 169.165C326.893 169.943 326.577 171.01 326.577 172.338H326.983C326.983 171.071 327.283 170.109 327.86 169.427L327.55 169.165ZM326.577 172.338C326.577 173.613 326.947 174.642 327.707 175.403L327.994 175.116C327.326 174.448 326.983 173.531 326.983 172.338H326.577ZM327.704 175.399C328.381 176.111 329.281 176.46 330.382 176.46V176.054C329.374 176.054 328.586 175.738 327.998 175.119L327.704 175.399ZM330.382 176.46C331.328 176.46 332.19 176.31 332.963 176.008L332.815 175.63C332.096 175.912 331.285 176.054 330.382 176.054V176.46ZM333.092 175.819V170.878H332.686V175.819H333.092ZM348.243 160.509H348.446V160.307H348.243V160.509ZM348.243 172.095H348.04V172.837L348.418 172.198L348.243 172.095ZM361.678 168.249L361.533 168.391L361.534 168.392L361.678 168.249ZM363.212 176.208L363.016 176.155L362.946 176.411H363.212V176.208ZM364.064 176.208H364.266V176.006H364.064V176.208ZM364.064 177.937V178.139H364.266V177.937H364.064ZM363.528 177.937L363.37 178.063L363.431 178.139H363.528V177.937ZM362.847 177.085L363.005 176.958L362.944 176.882H362.847V177.085ZM362.774 177.085V176.882H362.676L362.615 176.958L362.774 177.085ZM342.986 177.937L342.828 178.065L342.889 178.139H342.986V177.937ZM342.134 176.89H341.931V176.962L341.976 177.018L342.134 176.89ZM342.134 176.208V176.006H341.931V176.208H342.134ZM346.198 176.208V176.411H346.401V176.208H346.198ZM346.198 160.509V160.307H345.996V160.509H346.198ZM360.291 169.612L360.445 169.48L360.442 169.477L360.291 169.612ZM352.575 169.661L352.453 169.499L352.452 169.5L352.575 169.661ZM348.243 176.208L348.052 176.138L347.952 176.411H348.243V176.208ZM348.04 160.509V172.095H348.446V160.509H348.04ZM348.418 172.198C350.613 168.48 353.474 166.651 357.005 166.651V166.245C353.299 166.245 350.319 168.181 348.068 171.992L348.418 172.198ZM357.005 166.651C358.907 166.651 360.409 167.236 361.533 168.391L361.824 168.108C360.611 166.862 358.997 166.245 357.005 166.245V166.651ZM361.534 168.392C362.564 169.437 363.082 170.764 363.082 172.387H363.488C363.488 170.668 362.935 169.236 361.823 168.107L361.534 168.392ZM363.082 172.387V175.624H363.488V172.387H363.082ZM363.082 175.624C363.082 175.82 363.059 175.996 363.016 176.155L363.407 176.262C363.461 176.064 363.488 175.851 363.488 175.624H363.082ZM363.212 176.411H364.064V176.006H363.212V176.411ZM363.861 176.208V177.937H364.266V176.208H363.861ZM364.064 177.734H363.528V178.139H364.064V177.734ZM363.686 177.81L363.005 176.958L362.688 177.211L363.37 178.063L363.686 177.81ZM362.847 176.882H362.774V177.287H362.847V176.882ZM362.615 176.958C362.196 177.481 361.685 177.734 361.07 177.734V178.139C361.818 178.139 362.442 177.824 362.932 177.211L362.615 176.958ZM361.07 177.734H342.986V178.139H361.07V177.734ZM343.143 177.808L342.291 176.762L341.976 177.018L342.828 178.065L343.143 177.808ZM342.336 176.89V176.208H341.931V176.89H342.336ZM342.134 176.411H346.198V176.006H342.134V176.411ZM346.401 176.208V160.509H345.996V176.208H346.401ZM346.198 160.712H348.243V160.307H346.198V160.712ZM361.394 172.168C361.394 171.118 361.08 170.218 360.445 169.48L360.137 169.745C360.703 170.402 360.989 171.206 360.989 172.168H361.394ZM360.442 169.477C359.566 168.498 358.304 168.022 356.689 168.022V168.428C358.221 168.428 359.361 168.877 360.14 169.748L360.442 169.477ZM356.689 168.022C355.165 168.022 353.751 168.517 352.453 169.499L352.698 169.823C353.931 168.89 355.26 168.428 356.689 168.428V168.022ZM352.452 169.5C350.626 170.894 349.164 173.115 348.052 176.138L348.433 176.278C349.529 173.298 350.955 171.154 352.698 169.822L352.452 169.5ZM348.243 176.411H360.291V176.006H348.243V176.411ZM360.291 176.411C360.624 176.411 360.91 176.325 361.112 176.119C361.312 175.913 361.394 175.622 361.394 175.284H360.989C360.989 175.562 360.921 175.733 360.821 175.836C360.722 175.937 360.558 176.006 360.291 176.006V176.411ZM361.394 175.284V172.168H360.989V175.284H361.394ZM368.375 176.208H368.578V176.006H368.375V176.208ZM368.375 177.937V178.139H368.578V177.937H368.375ZM363.872 177.937H363.67V178.139H363.872V177.937ZM363.872 176.208V176.006H363.67V176.208H363.872ZM368.172 176.208V177.937H368.578V176.208H368.172ZM368.375 177.734H363.872V178.139H368.375V177.734ZM364.075 177.937V176.208H363.67V177.937H364.075ZM363.872 176.411H368.375V176.006H363.872V176.411ZM372.701 176.208H372.904V176.006H372.701V176.208ZM372.701 177.937V178.139H372.904V177.937H372.701ZM368.198 177.937H367.996V178.139H368.198V177.937ZM368.198 176.208V176.006H367.996V176.208H368.198ZM372.498 176.208V177.937H372.904V176.208H372.498ZM372.701 177.734H368.198V178.139H372.701V177.734ZM368.401 177.937V176.208H367.996V177.937H368.401ZM368.198 176.411H372.701V176.006H368.198V176.411ZM377.027 176.208H377.23V176.006H377.027V176.208ZM377.027 177.937V178.139H377.23V177.937H377.027ZM372.524 177.937H372.322V178.139H372.524V177.937ZM372.524 176.208V176.006H372.322V176.208H372.524ZM376.824 176.208V177.937H377.23V176.208H376.824ZM377.027 177.734H372.524V178.139H377.027V177.734ZM372.727 177.937V176.208H372.322V177.937H372.727ZM372.524 176.411H377.027V176.006H372.524V176.411ZM381.353 176.208H381.556V176.006H381.353V176.208ZM381.353 177.937V178.139H381.556V177.937H381.353ZM376.85 177.937H376.647V178.139H376.85V177.937ZM376.85 176.208V176.006H376.647V176.208H376.85ZM381.15 176.208V177.937H381.556V176.208H381.15ZM381.353 177.734H376.85V178.139H381.353V177.734ZM377.053 177.937V176.208H376.647V177.937H377.053ZM376.85 176.411H381.353V176.006H376.85V176.411ZM387.626 166.74H387.829V166.538H387.626V166.74ZM387.042 177.182L386.891 177.047L386.889 177.049L387.042 177.182ZM381.176 177.937H380.973V178.139H381.176V177.937ZM381.176 176.208V176.006H380.973V176.208H381.176ZM385.314 175.916L385.17 175.773L385.164 175.779L385.314 175.916ZM385.557 166.74V166.538H385.355V166.74H385.557ZM386.799 180.809L386.655 180.952L386.799 180.809ZM386.799 182.512L386.66 182.364L386.65 182.374L386.799 182.512ZM385.119 182.512L384.976 182.656L385.119 182.512ZM385.119 180.809L384.981 180.66L384.971 180.67L385.119 180.809ZM387.423 166.74V175.624H387.829V166.74H387.423ZM387.423 175.624C387.423 176.176 387.246 176.647 386.891 177.047L387.194 177.317C387.617 176.841 387.829 176.273 387.829 175.624H387.423ZM386.889 177.049C386.488 177.509 386 177.734 385.411 177.734V178.139C386.121 178.139 386.72 177.861 387.195 177.315L386.889 177.049ZM385.411 177.734H381.176V178.139H385.411V177.734ZM381.379 177.937V176.208H380.973V177.937H381.379ZM381.176 176.411H384.633V176.006H381.176V176.411ZM384.633 176.411C384.962 176.411 385.245 176.292 385.464 176.053L385.164 175.779C385.026 175.93 384.854 176.006 384.633 176.006V176.411ZM385.457 176.06C385.663 175.854 385.76 175.589 385.76 175.284H385.355C385.355 175.497 385.29 175.654 385.171 175.773L385.457 176.06ZM385.76 175.284V166.74H385.355V175.284H385.76ZM385.557 166.943H387.626V166.538H385.557V166.943ZM385.971 180.671C386.243 180.671 386.467 180.763 386.655 180.952L386.942 180.665C386.676 180.4 386.349 180.265 385.971 180.265V180.671ZM386.655 180.952C386.863 181.16 386.961 181.393 386.961 181.66H387.367C387.367 181.279 387.221 180.944 386.942 180.665L386.655 180.952ZM386.961 181.66C386.961 181.946 386.862 182.176 386.66 182.364L386.937 182.661C387.223 182.394 387.367 182.056 387.367 181.66H386.961ZM386.65 182.374C386.461 182.577 386.238 182.675 385.971 182.675V183.08C386.354 183.08 386.683 182.934 386.947 182.651L386.65 182.374ZM385.971 182.675C385.704 182.675 385.471 182.577 385.263 182.369L384.976 182.656C385.255 182.935 385.589 183.08 385.971 183.08V182.675ZM385.263 182.369C385.076 182.182 384.981 181.951 384.981 181.66H384.576C384.576 182.051 384.708 182.388 384.976 182.656L385.263 182.369ZM384.981 181.66C384.981 181.389 385.074 181.154 385.268 180.947L384.971 180.67C384.71 180.95 384.576 181.283 384.576 181.66H384.981ZM385.258 180.957C385.465 180.764 385.699 180.671 385.971 180.671V180.265C385.594 180.265 385.261 180.399 384.981 180.66L385.258 180.957ZM397.388 166.74H397.591V166.538H397.388V166.74ZM397.388 176.208H397.185V176.411H397.388V176.208ZM398.63 176.208H398.832V176.006H398.63V176.208ZM398.63 177.937V178.139H398.832V177.937H398.63ZM397.388 177.937V177.734H397.19L397.186 177.932L397.388 177.937ZM395.222 182.488L395.103 182.323L395.102 182.325L395.222 182.488ZM389.819 183.705L389.661 183.832L389.719 183.904L389.811 183.908L389.819 183.705ZM389.016 182.707H388.813V182.779L388.858 182.834L389.016 182.707ZM389.016 181.928L389.043 181.727L388.813 181.695V181.928H389.016ZM395.319 166.74V166.538H395.117V166.74H395.319ZM397.185 166.74V176.208H397.591V166.74H397.185ZM397.388 176.411H398.63V176.006H397.388V176.411ZM398.427 176.208V177.937H398.832V176.208H398.427ZM398.63 177.734H397.388V178.139H398.63V177.734ZM397.186 177.932C397.138 179.909 396.438 181.361 395.103 182.323L395.341 182.653C396.797 181.602 397.541 180.02 397.591 177.941L397.186 177.932ZM395.102 182.325C394.026 183.12 392.619 183.526 390.865 183.526V183.932C392.681 183.932 394.179 183.511 395.343 182.651L395.102 182.325ZM390.865 183.526C390.593 183.526 390.247 183.518 389.827 183.502L389.811 183.908C390.234 183.924 390.586 183.932 390.865 183.932V183.526ZM389.977 183.578L389.174 182.58L388.858 182.834L389.661 183.832L389.977 183.578ZM389.218 182.707V181.928H388.813V182.707H389.218ZM388.988 182.129C389.469 182.195 389.989 182.228 390.549 182.228V181.823C390.005 181.823 389.503 181.791 389.043 181.727L388.988 182.129ZM390.549 182.228C392.166 182.228 393.417 181.857 394.264 181.08C395.114 180.299 395.522 179.141 395.522 177.644H395.117C395.117 179.069 394.73 180.101 393.99 180.781C393.246 181.464 392.112 181.823 390.549 181.823V182.228ZM395.522 177.644V166.74H395.117V177.644H395.522ZM395.319 166.943H397.388V166.538H395.319V166.943ZM404.906 160.509H405.109V160.307H404.906V160.509ZM404.274 177.231L404.127 177.09L404.125 177.092L404.274 177.231ZM398.456 177.937H398.254V178.139H398.456V177.937ZM398.456 176.208V176.006H398.254V176.208H398.456ZM402.618 175.892L402.461 175.764L402.458 175.768L402.618 175.892ZM402.837 160.509V160.307H402.635V160.509H402.837ZM404.704 160.509V175.624H405.109V160.509H404.704ZM404.704 175.624C404.704 176.207 404.511 176.691 404.127 177.09L404.42 177.371C404.88 176.894 405.109 176.307 405.109 175.624H404.704ZM404.125 177.092C403.723 177.524 403.249 177.734 402.691 177.734V178.139C403.367 178.139 403.947 177.879 404.422 177.369L404.125 177.092ZM402.691 177.734H398.456V178.139H402.691V177.734ZM398.659 177.937V176.208H398.254V177.937H398.659ZM398.456 176.411H401.913V176.006H398.456V176.411ZM401.913 176.411C402.273 176.411 402.572 176.285 402.779 176.016L402.458 175.768C402.34 175.921 402.169 176.006 401.913 176.006V176.411ZM402.775 176.02C402.951 175.806 403.04 175.558 403.04 175.284H402.635C402.635 175.463 402.578 175.621 402.461 175.764L402.775 176.02ZM403.04 175.284V160.509H402.635V175.284H403.04ZM402.837 160.712H404.906V160.307H402.837V160.712ZM410.336 160.509H410.539V160.307H410.336V160.509ZM410.336 177.693L410.464 177.85L410.539 177.79V177.693H410.336ZM409.289 178.545V178.748H409.361L409.417 178.702L409.289 178.545ZM408.267 178.545H408.064V178.748H408.267V178.545ZM408.267 160.509V160.307H408.064V160.509H408.267ZM410.133 160.509V177.693H410.539V160.509H410.133ZM410.208 177.536L409.161 178.388L409.417 178.702L410.464 177.85L410.208 177.536ZM409.289 178.342H408.267V178.748H409.289V178.342ZM408.47 178.545V160.509H408.064V178.545H408.47ZM408.267 160.712H410.336V160.307H408.267V160.712ZM424.727 161.751L424.578 161.889L424.588 161.899L424.727 161.751ZM424.727 163.455L424.583 163.311L424.727 163.455ZM423.047 163.455L422.899 163.593L422.909 163.603L423.047 163.455ZM423.047 161.751L422.904 161.607V161.607L423.047 161.751ZM427.696 161.751L427.548 161.889L427.558 161.899L427.696 161.751ZM427.696 163.455L427.553 163.311L427.696 163.455ZM425.992 163.455L425.844 163.593L425.854 163.603L425.992 163.455ZM425.992 161.751L426.136 161.894V161.894L425.992 161.751ZM428.061 166.083H428.264V165.88H428.061V166.083ZM428.305 175.965L428.456 175.829L428.448 175.822L428.305 175.965ZM429.278 176.208H429.481V176.006H429.278V176.208ZM429.278 177.937V178.139H429.481V177.937H429.278ZM426.479 177.085L426.64 176.961L426.521 176.807L426.362 176.919L426.479 177.085ZM419.031 176.208L419.194 176.087L419.194 176.087L419.031 176.208ZM419.567 167.909L419.71 168.052L419.711 168.051L419.567 167.909ZM425.992 166.911L425.91 167.096L426.022 167.146L426.118 167.07L425.992 166.911ZM427.039 166.083V165.88H426.968L426.913 165.924L427.039 166.083ZM425.992 168.614H426.195V168.489L426.083 168.433L425.992 168.614ZM420.832 169.539L420.991 169.666L420.992 169.664L420.832 169.539ZM420.808 175.43L420.652 175.559L420.656 175.564L420.808 175.43ZM425.992 175.746L426.082 175.928L426.195 175.872V175.746H425.992ZM423.899 161.588C424.166 161.588 424.388 161.686 424.578 161.889L424.875 161.612C424.611 161.329 424.282 161.183 423.899 161.183V161.588ZM424.588 161.899C424.792 162.089 424.889 162.312 424.889 162.578H425.295C425.295 162.196 425.148 161.867 424.865 161.602L424.588 161.899ZM424.889 162.578C424.889 162.865 424.789 163.105 424.583 163.311L424.87 163.598C425.151 163.317 425.295 162.973 425.295 162.578H424.889ZM424.583 163.311C424.395 163.5 424.171 163.592 423.899 163.592V163.998C424.277 163.998 424.604 163.864 424.87 163.598L424.583 163.311ZM423.899 163.592C423.627 163.592 423.393 163.499 423.186 163.306L422.909 163.603C423.189 163.864 423.522 163.998 423.899 163.998V163.592ZM423.196 163.316C423.004 163.111 422.909 162.869 422.909 162.578H422.504C422.504 162.969 422.636 163.311 422.899 163.593L423.196 163.316ZM422.909 162.578C422.909 162.307 423.002 162.083 423.191 161.894L422.904 161.607C422.638 161.873 422.504 162.201 422.504 162.578H422.909ZM423.191 161.894C423.399 161.686 423.632 161.588 423.899 161.588V161.183C423.517 161.183 423.183 161.328 422.904 161.607L423.191 161.894ZM426.844 161.588C427.13 161.588 427.36 161.688 427.548 161.889L427.844 161.612C427.578 161.327 427.24 161.183 426.844 161.183V161.588ZM427.558 161.899C427.761 162.089 427.858 162.312 427.858 162.578H428.264C428.264 162.196 428.118 161.867 427.835 161.602L427.558 161.899ZM427.858 162.578C427.858 162.865 427.758 163.105 427.553 163.311L427.84 163.598C428.121 163.317 428.264 162.973 428.264 162.578H427.858ZM427.553 163.311C427.366 163.498 427.135 163.592 426.844 163.592V163.998C427.235 163.998 427.572 163.866 427.84 163.598L427.553 163.311ZM426.844 163.592C426.573 163.592 426.338 163.499 426.131 163.306L425.854 163.603C426.134 163.864 426.467 163.998 426.844 163.998V163.592ZM426.141 163.316C425.949 163.111 425.854 162.869 425.854 162.578H425.449C425.449 162.969 425.581 163.311 425.844 163.593L426.141 163.316ZM425.854 162.578C425.854 162.307 425.947 162.083 426.136 161.894L425.849 161.607C425.583 161.873 425.449 162.201 425.449 162.578H425.854ZM426.136 161.894C426.344 161.686 426.577 161.588 426.844 161.588V161.183C426.462 161.183 426.128 161.328 425.849 161.607L426.136 161.894ZM427.858 166.083V175.284H428.264V166.083H427.858ZM427.858 175.284C427.858 175.614 427.951 175.898 428.161 176.108L428.448 175.822C428.333 175.707 428.264 175.537 428.264 175.284H427.858ZM428.154 176.101C428.329 176.295 428.543 176.411 428.791 176.411V176.006C428.683 176.006 428.572 175.959 428.455 175.829L428.154 176.101ZM428.791 176.411H429.278V176.006H428.791V176.411ZM429.075 176.208V177.937H429.481V176.208H429.075ZM429.278 177.734H428.256V178.139H429.278V177.734ZM428.256 177.734C427.569 177.734 427.038 177.477 426.64 176.961L426.319 177.209C426.797 177.829 427.45 178.139 428.256 178.139V177.734ZM426.362 176.919C425.339 177.643 424.244 178.001 423.072 178.001V178.407C424.333 178.407 425.51 178.019 426.596 177.25L426.362 176.919ZM423.072 178.001C421.43 178.001 420.144 177.365 419.194 176.087L418.869 176.329C419.898 177.713 421.306 178.407 423.072 178.407V178.001ZM419.194 176.087C418.412 175.039 418.017 173.785 418.017 172.314H417.611C417.611 173.862 418.028 175.204 418.869 176.33L419.194 176.087ZM418.017 172.314C418.017 170.595 418.583 169.179 419.71 168.052L419.423 167.765C418.214 168.974 417.611 170.496 417.611 172.314H418.017ZM419.711 168.051C420.711 167.036 421.932 166.529 423.388 166.529V166.124C421.826 166.124 420.5 166.672 419.422 167.766L419.711 168.051ZM423.388 166.529C424.217 166.529 425.057 166.717 425.91 167.096L426.075 166.725C425.176 166.326 424.28 166.124 423.388 166.124V166.529ZM426.118 167.07L427.165 166.242L426.913 165.924L425.867 166.752L426.118 167.07ZM427.039 166.286H428.061V165.88H427.039V166.286ZM426.083 168.433C425.344 168.063 424.591 167.876 423.826 167.876V168.282C424.522 168.282 425.213 168.452 425.902 168.796L426.083 168.433ZM423.826 167.876C422.53 167.876 421.474 168.392 420.673 169.414L420.992 169.664C421.716 168.74 422.656 168.282 423.826 168.282V167.876ZM420.674 169.413C420.01 170.247 419.68 171.233 419.68 172.363H420.086C420.086 171.318 420.389 170.422 420.991 169.666L420.674 169.413ZM419.68 172.363C419.68 173.692 419.996 174.765 420.652 175.559L420.964 175.3C420.387 174.601 420.086 173.63 420.086 172.363H419.68ZM420.656 175.564C421.3 176.295 422.17 176.655 423.242 176.655V176.249C422.27 176.249 421.517 175.928 420.96 175.295L420.656 175.564ZM423.242 176.655C424.155 176.655 425.103 176.409 426.082 175.928L425.903 175.564C424.967 176.024 424.081 176.249 423.242 176.249V176.655ZM426.195 175.746V168.614H425.79V175.746H426.195ZM433.621 176.208H433.824V176.006H433.621V176.208ZM433.621 177.937V178.139H433.824V177.937H433.621ZM429.118 177.937H428.916V178.139H429.118V177.937ZM429.118 176.208V176.006H428.916V176.208H429.118ZM433.418 176.208V177.937H433.824V176.208H433.418ZM433.621 177.734H429.118V178.139H433.621V177.734ZM429.321 177.937V176.208H428.916V177.937H429.321ZM429.118 176.411H433.621V176.006H429.118V176.411ZM437.947 176.208H438.15V176.006H437.947V176.208ZM437.947 177.937V178.139H438.15V177.937H437.947ZM433.444 177.937H433.242V178.139H433.444V177.937ZM433.444 176.208V176.006H433.242V176.208H433.444ZM437.744 176.208V177.937H438.15V176.208H437.744ZM437.947 177.734H433.444V178.139H437.947V177.734ZM433.647 177.937V176.208H433.242V177.937H433.647ZM433.444 176.411H437.947V176.006H433.444V176.411ZM444.172 172.095L443.969 172.094L443.965 172.838L444.346 172.199L444.172 172.095ZM457.631 168.249L457.777 168.108L457.777 168.108L457.631 168.249ZM459.14 176.208L458.945 176.155L458.875 176.411H459.14V176.208ZM459.992 176.208H460.195V176.006H459.992V176.208ZM459.992 177.937V178.139H460.195V177.937H459.992ZM459.481 177.937L459.323 178.063L459.384 178.139H459.481V177.937ZM458.8 177.085L458.958 176.958L458.897 176.882H458.8V177.085ZM458.727 177.085V176.882H458.629L458.568 176.958L458.727 177.085ZM437.77 177.937H437.568V178.139H437.77V177.937ZM437.77 176.208V176.006H437.568V176.208H437.77ZM442.152 176.208V176.411H442.355L442.354 176.208L442.152 176.208ZM442.127 166.74V166.538H441.924L441.924 166.741L442.127 166.74ZM444.196 166.74L444.399 166.741L444.4 166.538H444.196V166.74ZM457.145 172.168H457.347L457.347 172.166L457.145 172.168ZM455.709 169.15L455.583 169.309L455.586 169.312L455.709 169.15ZM449.088 169.272L449.196 169.444L449.197 169.443L449.088 169.272ZM444.172 176.208L443.981 176.138L443.881 176.411H444.172V176.208ZM444.346 172.199C446.557 168.481 449.435 166.651 452.983 166.651V166.245C449.261 166.245 446.264 168.18 443.997 171.991L444.346 172.199ZM452.983 166.651C454.868 166.651 456.362 167.235 457.486 168.391L457.777 168.108C456.564 166.862 454.959 166.245 452.983 166.245V166.651ZM457.486 168.391C458.5 169.436 459.011 170.763 459.011 172.387H459.416C459.416 170.669 458.872 169.237 457.777 168.108L457.486 168.391ZM459.011 172.387V175.624H459.416V172.387H459.011ZM459.011 175.624C459.011 175.82 458.988 175.996 458.945 176.155L459.336 176.262C459.39 176.064 459.416 175.851 459.416 175.624H459.011ZM459.14 176.411H459.992V176.006H459.14V176.411ZM459.79 176.208V177.937H460.195V176.208H459.79ZM459.992 177.734H459.481V178.139H459.992V177.734ZM459.64 177.81L458.958 176.958L458.641 177.211L459.323 178.063L459.64 177.81ZM458.8 176.882H458.727V177.287H458.8V176.882ZM458.568 176.958C458.15 177.481 457.638 177.734 457.023 177.734V178.139C457.771 178.139 458.395 177.824 458.885 177.211L458.568 176.958ZM457.023 177.734H437.77V178.139H457.023V177.734ZM437.973 177.937V176.208H437.568V177.937H437.973ZM437.77 176.411H442.152V176.006H437.77V176.411ZM442.354 176.208L442.33 166.74L441.924 166.741L441.949 176.209L442.354 176.208ZM442.127 166.943H444.196V166.538H442.127V166.943ZM443.993 166.739L443.969 172.094L444.375 172.096L444.399 166.741L443.993 166.739ZM457.347 172.166C457.331 170.812 456.828 169.744 455.831 168.988L455.586 169.312C456.472 169.984 456.926 170.928 456.942 172.171L457.347 172.166ZM455.835 168.991C455.011 168.339 453.94 168.022 452.642 168.022V168.428C453.874 168.428 454.849 168.728 455.583 169.309L455.835 168.991ZM452.642 168.022C451.337 168.022 450.115 168.383 448.98 169.1L449.197 169.443C450.269 168.765 451.416 168.428 452.642 168.428V168.022ZM448.981 169.1C446.884 170.415 445.223 172.773 443.981 176.138L444.362 176.279C445.587 172.959 447.204 170.693 449.196 169.444L448.981 169.1ZM444.172 176.411H456.22V176.006H444.172V176.411ZM456.22 176.411C456.559 176.411 456.851 176.326 457.057 176.121C457.262 175.915 457.347 175.623 457.347 175.284H456.942C456.942 175.561 456.873 175.731 456.77 175.834C456.667 175.936 456.497 176.006 456.22 176.006V176.411ZM457.347 175.284V172.168H456.942V175.284H457.347ZM466.083 161.751L465.935 161.889L465.945 161.899L466.083 161.751ZM466.083 163.455L466.227 163.598L466.083 163.455ZM464.38 163.455L464.231 163.593L464.241 163.603L464.38 163.455ZM464.38 161.751L464.236 161.607V161.607L464.38 161.751ZM466.278 166.74H466.481V166.538H466.278V166.74ZM466.205 176.208L466.008 176.159L465.945 176.411H466.205V176.208ZM467.495 176.208H467.698V176.006H467.495V176.208ZM467.495 177.937V178.139H467.698V177.937H467.495ZM466.546 177.937L466.39 178.066L466.45 178.139H466.546V177.937ZM465.84 177.085L465.996 176.955L465.935 176.882H465.84V177.085ZM465.767 177.085V176.882H465.667L465.606 176.961L465.767 177.085ZM459.828 177.937H459.625V178.139H459.828V177.937ZM459.828 176.208V176.006H459.625V176.208H459.828ZM463.917 175.965L463.78 175.815L463.774 175.822L463.917 175.965ZM464.209 166.74V166.538H464.006V166.74H464.209ZM465.231 161.588C465.517 161.588 465.747 161.688 465.935 161.889L466.232 161.612C465.965 161.327 465.627 161.183 465.231 161.183V161.588ZM465.945 161.899C466.148 162.089 466.246 162.312 466.246 162.578H466.651C466.651 162.196 466.505 161.867 466.222 161.602L465.945 161.899ZM466.246 162.578C466.246 162.865 466.146 163.105 465.94 163.311L466.227 163.598C466.508 163.317 466.651 162.973 466.651 162.578H466.246ZM465.94 163.311C465.753 163.498 465.522 163.592 465.231 163.592V163.998C465.622 163.998 465.959 163.866 466.227 163.598L465.94 163.311ZM465.231 163.592C464.96 163.592 464.725 163.499 464.518 163.306L464.241 163.603C464.521 163.864 464.854 163.998 465.231 163.998V163.592ZM464.528 163.316C464.337 163.111 464.242 162.869 464.242 162.578H463.836C463.836 162.969 463.968 163.311 464.231 163.593L464.528 163.316ZM464.242 162.578C464.242 162.307 464.334 162.083 464.523 161.894L464.236 161.607C463.971 161.873 463.836 162.201 463.836 162.578H464.242ZM464.523 161.894C464.731 161.686 464.964 161.588 465.231 161.588V161.183C464.85 161.183 464.515 161.328 464.236 161.607L464.523 161.894ZM466.075 166.74V175.624H466.481V166.74H466.075ZM466.075 175.624C466.075 175.802 466.053 175.98 466.008 176.159L466.402 176.258C466.454 176.047 466.481 175.836 466.481 175.624H466.075ZM466.205 176.411H467.495V176.006H466.205V176.411ZM467.292 176.208V177.937H467.698V176.208H467.292ZM467.495 177.734H466.546V178.139H467.495V177.734ZM466.702 177.807L465.996 176.955L465.684 177.214L466.39 178.066L466.702 177.807ZM465.84 176.882H465.767V177.287H465.84V176.882ZM465.606 176.961C465.205 177.481 464.696 177.734 464.063 177.734V178.139C464.826 178.139 465.452 177.825 465.928 177.209L465.606 176.961ZM464.063 177.734H459.828V178.139H464.063V177.734ZM460.031 177.937V176.208H459.625V177.937H460.031ZM459.828 176.411H463.284V176.006H459.828V176.411ZM463.284 176.411C463.59 176.411 463.855 176.314 464.061 176.108L463.774 175.822C463.655 175.941 463.498 176.006 463.284 176.006V176.411ZM464.054 176.115C464.293 175.896 464.412 175.613 464.412 175.284H464.006C464.006 175.505 463.931 175.677 463.78 175.816L464.054 176.115ZM464.412 175.284V166.74H464.006V175.284H464.412ZM464.209 166.943H466.278V166.538H464.209V166.943ZM471.818 176.208H472.021V176.006H471.818V176.208ZM471.818 177.937V178.139H472.021V177.937H471.818ZM467.315 177.937H467.112V178.139H467.315V177.937ZM467.315 176.208V176.006H467.112V176.208H467.315ZM471.615 176.208V177.937H472.021V176.208H471.615ZM471.818 177.734H467.315V178.139H471.818V177.734ZM467.518 177.937V176.208H467.112V177.937H467.518ZM467.315 176.411H471.818V176.006H467.315V176.411ZM476.144 176.208H476.347V176.006H476.144V176.208ZM476.144 177.937V178.139H476.347V177.937H476.144ZM471.641 177.937H471.438V178.139H471.641V177.937ZM471.641 176.208V176.006H471.438V176.208H471.641ZM475.941 176.208V177.937H476.347V176.208H475.941ZM476.144 177.734H471.641V178.139H476.144V177.734ZM471.844 177.937V176.208H471.438V177.937H471.844ZM471.641 176.411H476.144V176.006H471.641V176.411ZM482.101 167.227L481.989 167.058L481.988 167.058L482.101 167.227ZM489.013 168.055L488.869 168.197L489.013 168.055ZM489.013 176.963L489.167 177.095L489.168 177.095L489.013 176.963ZM481.906 177.085L482.062 176.955L481.9 176.76L481.745 176.961L481.906 177.085ZM475.967 177.937H475.764V178.139H475.967V177.937ZM475.967 176.208V176.006H475.764V176.208H475.967ZM480.081 175.941L479.937 175.797L480.081 175.941ZM482.417 175.649H482.214V175.731L482.272 175.791L482.417 175.649ZM487.577 175.746L487.416 175.623L487.415 175.624L487.577 175.746ZM487.431 169.223L487.585 169.09L487.583 169.089L487.431 169.223ZM483.22 168.858L483.082 168.709L483.082 168.71L483.22 168.858ZM480.551 170.878C480.551 169.277 481.112 168.13 482.213 167.396L481.988 167.058C480.753 167.882 480.146 169.169 480.146 170.878H480.551ZM482.212 167.396C482.931 166.922 483.903 166.675 485.143 166.675V166.27C483.853 166.27 482.795 166.526 481.989 167.058L482.212 167.396ZM485.143 166.675C486.633 166.675 487.87 167.183 488.869 168.197L489.158 167.912C488.079 166.817 486.737 166.27 485.143 166.27V166.675ZM488.869 168.197C489.86 169.204 490.368 170.624 490.368 172.484H490.774C490.774 170.548 490.243 169.015 489.158 167.912L488.869 168.197ZM490.368 172.484C490.368 174.21 489.863 175.655 488.859 176.831L489.168 177.095C490.241 175.837 490.774 174.296 490.774 172.484H490.368ZM488.859 176.831C487.924 177.922 486.747 178.464 485.314 178.464V178.87C486.866 178.87 488.155 178.276 489.167 177.095L488.859 176.831ZM485.314 178.464C483.977 178.464 482.899 177.962 482.062 176.955L481.75 177.214C482.666 178.316 483.859 178.87 485.314 178.87V178.464ZM481.745 176.961C481.347 177.478 480.822 177.734 480.154 177.734V178.139C480.945 178.139 481.589 177.827 482.067 177.209L481.745 176.961ZM480.154 177.734H475.967V178.139H480.154V177.734ZM476.17 177.937V176.208H475.764V177.937H476.17ZM475.967 176.411H479.423V176.006H475.967V176.411ZM479.423 176.411C479.735 176.411 480.006 176.302 480.224 176.084L479.937 175.797C479.798 175.937 479.631 176.006 479.423 176.006V176.411ZM480.224 176.084C480.442 175.866 480.551 175.595 480.551 175.284H480.146C480.146 175.491 480.076 175.658 479.937 175.797L480.224 176.084ZM480.551 175.284V170.878H480.146V175.284H480.551ZM482.272 175.791C483.147 176.682 484.13 177.141 485.216 177.141V176.736C484.258 176.736 483.375 176.335 482.562 175.507L482.272 175.791ZM485.216 177.141C486.255 177.141 487.101 176.713 487.739 175.868L487.415 175.624C486.852 176.369 486.125 176.736 485.216 176.736V177.141ZM487.739 175.869C488.388 175.014 488.705 173.921 488.705 172.606H488.299C488.299 173.855 487.999 174.855 487.416 175.623L487.739 175.869ZM488.705 172.606C488.705 171.145 488.339 169.965 487.585 169.09L487.278 169.355C487.951 170.136 488.299 171.212 488.299 172.606H488.705ZM487.583 169.089C486.941 168.359 486.088 167.998 485.046 167.998V168.404C485.983 168.404 486.721 168.723 487.279 169.357L487.583 169.089ZM485.046 167.998C484.257 167.998 483.596 168.231 483.082 168.709L483.359 169.006C483.786 168.609 484.342 168.404 485.046 168.404V167.998ZM483.082 168.71C482.499 169.257 482.214 169.987 482.214 170.878H482.62C482.62 170.081 482.871 169.465 483.359 169.006L483.082 168.71ZM482.214 170.878V175.649H482.62V170.878H482.214Z" fill="#8D8D8D" mask="url(#path-10-outside-1_22_10)"/>
</g>
<defs>
<clipPath id="clip0_22_10">
<rect width="490.025" height="151.297" fill="white" transform="translate(5.44043 32.6846)"/>
</clipPath>
</defs>
</svg>
