<svg width="122" height="52" viewBox="0 0 122 52" fill="none" xmlns="http://www.w3.org/2000/svg">
<g clip-path="url(#clip0_746_10073)">
<path d="M100.218 25.9772C100.218 28.6432 100.218 31.1856 100.218 33.7328C100.218 35.1869 99.9707 35.4293 98.4873 35.4293C97.1746 35.4293 95.8618 35.4293 94.5664 35.4293C94.0472 33.0978 93.8247 32.9669 90.4698 33.0275C88.7121 33.059 88.2844 33.4395 87.9012 35.4293H86.7393C76.0724 35.4293 65.4039 35.4293 54.7337 35.4293C52.793 35.4293 52.6002 35.2451 52.5952 33.3838C52.5952 30.6548 52.6101 30.633 55.4062 30.633H57.2603V29.2588C57.2603 22.7571 57.2603 16.2554 57.2603 9.75366C57.2603 8.05714 57.5075 7.81478 59.2604 7.81478C62.8055 7.78569 62.5435 7.72753 62.5336 11.0576C62.5336 12.9455 62.5336 14.8359 62.5336 16.8742H63.9601C68.6573 16.8742 73.3546 16.8597 78.0518 16.8887C79.1197 16.8811 80.1856 16.9785 81.2336 17.1796C84.5835 17.8703 86.4475 20.1097 86.6725 23.6094C86.7442 24.7751 86.7516 25.9482 86.7664 27.1188C86.7813 28.2433 86.7664 29.3703 86.7664 30.5772H95.0385V22.9308C95.0385 21.8805 95.0385 20.8303 95.0385 19.7801C95.0385 18.8906 95.4835 18.4326 96.4032 18.4374C97.1869 18.4374 97.9681 18.4568 98.7518 18.4374C99.8075 18.4059 100.235 18.9221 100.218 19.9207C100.193 21.8983 100.218 23.8784 100.218 25.9797M64.8402 21.6438C62.8822 21.6438 62.5534 21.8111 62.5287 23.0156C62.4891 25.112 62.5114 27.2084 62.5287 29.3024C62.5287 30.1555 62.9069 30.6524 63.8686 30.6499C69.3372 30.6386 74.8049 30.6386 80.2719 30.6499C81.2262 30.6499 81.5896 30.1652 81.5772 29.283C81.5624 28.1973 81.5772 27.1018 81.5772 26.0209C81.5574 22.686 80.5463 21.6584 77.1692 21.6584C73.1346 21.6293 69.1048 21.6414 64.8402 21.6414V21.6438Z" fill="white"/>
<path d="M37.8356 20.5191C37.3733 22.3732 36.5994 23.9388 35.2273 25.233L31.4869 21.4135C31.5685 21.2802 31.7341 21.0184 31.8948 20.7494C33.0468 18.7839 32.6364 16.4233 30.9207 15.0539C30.0694 14.3622 28.9846 14.0084 27.8803 14.0622C26.7759 14.116 25.7323 14.5736 24.9552 15.3448C21.9144 18.2531 18.9378 21.2123 15.9587 24.1715C15.5619 24.6198 15.2015 25.0979 14.8809 25.6014L10.73 21.4401C12.8536 19.4091 15.0836 17.2715 17.321 15.1388C18.8562 13.6846 20.2876 12.0971 21.9663 10.8029C25.2865 8.23392 28.9973 7.93097 32.7205 9.8335C36.4437 11.736 38.11 14.9012 38.0234 18.9802C37.9892 19.4961 37.9265 20.0099 37.8356 20.5191Z" fill="white"/>
<path d="M3.60589 41.0176C0.431542 37.1398 0.723259 31.4758 4.21653 28.1725L7.86802 31.9509C7.64057 32.5083 7.21782 33.2572 7.02993 34.057C6.83718 34.95 6.93737 35.8799 7.31614 36.7138C7.69492 37.5477 8.33291 38.2428 9.13892 38.6999C9.94492 39.1569 10.8777 39.3525 11.8039 39.2586C12.7301 39.1647 13.6023 38.7862 14.2958 38.1771C15.752 36.8684 17.1166 35.4627 18.5159 34.0958C20.6124 32.0478 22.7039 29.995 24.7509 27.9883L28.212 31.5074C24.7237 35.1016 21.1588 38.8872 17.4504 42.5493C16.0585 43.9307 14.1524 44.4882 12.1648 44.619C8.71353 44.859 5.89023 43.6496 3.60589 41.0176Z" fill="white"/>
<path d="M25.4554 44.3284C23.5444 43.7952 22.338 43.0778 21.2526 41.8709L25.0104 38.1506C25.1983 38.2742 25.3961 38.393 25.5988 38.5311C27.6112 39.789 30.0241 39.4618 31.5099 37.7289C32.2366 36.9102 32.6199 35.8521 32.5828 34.7675C32.5456 33.6828 32.0907 32.6523 31.3097 31.8832C28.2639 28.8149 25.1588 25.8048 22.0685 22.7802C21.7568 22.4951 21.4265 22.2304 21.0796 21.9876L24.9981 18.0469C25.0574 18.0978 25.2849 18.265 25.4925 18.4613C28.6174 21.5417 31.7893 24.5954 34.8994 27.7219C39.4656 32.3267 39.0651 38.9916 33.9847 42.77C31.4753 44.6386 28.6125 45.0967 25.4554 44.3284Z" fill="white"/>
<path d="M16.7081 13.1321L14.483 15.2164C13.1802 14.2469 11.7908 13.8155 10.2605 14.2009C9.52582 14.3752 8.84897 14.731 8.29443 15.2345C7.73989 15.738 7.32614 16.3724 7.09263 17.0771C6.85912 17.7819 6.81364 18.5335 6.9605 19.2603C7.10737 19.9872 7.4417 20.6651 7.93162 21.2293C9.2691 22.8046 10.839 24.1909 12.3174 25.65C14.3471 27.6494 16.3891 29.6368 18.315 31.5199L14.4534 35.4049C12.1245 33.1171 9.66219 30.8001 7.32099 28.3765C5.6102 26.6 3.71646 24.8671 2.50259 22.7804C0.0921623 18.6385 1.52854 13.5174 5.53603 10.5049C9.06143 7.85346 14.5053 8.13702 17.9565 11.1544C18.0455 11.2295 18.1049 11.3386 18.451 11.7264C17.8947 12.1626 17.3286 12.6158 16.7081 13.1321Z" fill="white"/>
<path d="M102.703 26.7041C102.703 20.9335 102.703 15.2865 102.703 9.63709C102.703 8.03024 102.92 7.82181 104.542 7.80969C108.285 7.77576 107.921 7.70548 107.921 11.0428C107.921 18.5462 107.921 26.0505 107.921 33.5556C107.921 35.2521 107.751 35.4242 106.015 35.4266C102.483 35.4266 102.685 35.749 102.7 32.1499C102.707 30.3758 102.703 28.5993 102.703 26.7041Z" fill="white"/>
<path d="M118.537 18.9482C120.665 18.9628 120.787 19.0694 120.777 20.9816C120.777 23.2404 120.834 25.5065 120.688 27.7677C120.495 30.7875 119.437 33.4826 116.322 34.6338C116.322 34.6338 114.529 35.436 111.256 35.373C111.014 35.3905 110.773 35.3263 110.574 35.1912C110.345 34.9654 110.323 34.7772 110.302 34.4593C110.302 34.0957 110.302 33.6979 110.302 33.3687C110.317 32.1956 110.302 32.0357 110.351 31.551C110.39 31.4124 110.396 31.3323 110.467 31.2068C110.868 30.6106 111.644 30.647 112.673 30.4337C114.403 30.075 115.392 28.9214 115.518 26.8322C115.625 25.1357 115.57 23.4392 115.573 21.7427C115.58 18.9482 115.575 18.9482 118.537 18.9482Z" fill="white"/>
<path d="M91.3696 33.7959C93.5328 33.808 93.6317 33.905 93.6317 35.9238C93.6317 38.5558 93.6316 38.5558 90.8974 38.551C89.0308 38.551 88.8528 38.3716 88.8454 36.5467V36.1831C88.8355 33.8662 88.8973 33.8007 91.3696 33.7959Z" fill="white"/>
<path d="M45.5786 10.2065C45.5786 9.94845 45.4126 9.73926 45.2078 9.73926C45.0029 9.73926 44.8369 9.94845 44.8369 10.2065V43.2024C44.8369 43.4605 45.0029 43.6697 45.2078 43.6697C45.4126 43.6697 45.5786 43.4605 45.5786 43.2024V10.2065Z" fill="white"/>
<mask id="path-10-outside-1_746_10073" maskUnits="userSpaceOnUse" x="50.8652" y="38.0645" width="69" height="7" fill="black">
<rect fill="white" x="50.8652" y="38.0645" width="69" height="7"/>
<path d="M55.6706 38.8162V42.6432H55.9732V43.0645H55.6706C55.6587 43.5114 55.5143 43.8595 55.2374 44.1087C54.9566 44.3579 54.5769 44.4825 54.0982 44.4825H53.4396C52.9689 44.4825 52.5931 44.3619 52.3123 44.1206C52.0117 43.8635 51.8614 43.4936 51.8614 43.0111V41.771L52.1165 41.5633H52.3657V42.9992C52.3657 43.3947 52.4685 43.6697 52.6742 43.8239C52.8839 43.9821 53.2478 44.0613 53.766 44.0613C54.2604 44.0613 54.6085 43.994 54.8102 43.8595C55.0476 43.6973 55.1662 43.4106 55.1662 42.9992V38.8162H55.6706ZM57.0223 42.6432V43.0645H55.9246V42.6432H57.0223ZM58.0768 42.6432V43.0645H56.9792V42.6432H58.0768ZM59.1314 42.6432V43.0645H58.0337V42.6432H59.1314ZM60.186 42.6432V43.0645H59.0883V42.6432H60.186ZM61.2108 41.3438C61.2108 40.9403 61.3532 40.6436 61.638 40.4538C61.824 40.3312 62.0712 40.2698 62.3797 40.2698C62.7555 40.2698 63.07 40.3984 63.3231 40.6555C63.5763 40.9126 63.7029 41.2726 63.7029 41.7354C63.7029 42.1665 63.5763 42.5305 63.3231 42.8271C63.0858 43.104 62.7852 43.2425 62.4213 43.2425C62.0811 43.2425 61.8042 43.1139 61.5906 42.8568C61.4838 42.9952 61.3414 43.0645 61.1634 43.0645H60.1428V42.6432H60.9854C61.0487 42.6432 61.1021 42.6214 61.1456 42.5779C61.1891 42.5344 61.2108 42.481 61.2108 42.4177V41.3438ZM61.7152 42.5067C61.9209 42.7164 62.1483 42.8212 62.3975 42.8212C62.6349 42.8212 62.8267 42.7243 62.9731 42.5305C63.1234 42.3327 63.1985 42.0775 63.1985 41.765C63.1985 41.417 63.1115 41.142 62.9375 40.9403C62.7911 40.7742 62.5973 40.6911 62.356 40.6911C62.174 40.6911 62.0257 40.7445 61.911 40.8513C61.7804 40.9739 61.7152 41.1381 61.7152 41.3438V42.5067ZM64.893 38.8162V42.4177C64.893 42.481 64.9127 42.5344 64.9523 42.5779C64.9958 42.6214 65.0512 42.6432 65.1184 42.6432H65.1956V43.0645H64.9226C64.7961 43.0645 64.6853 43.0229 64.5904 42.9399C64.4559 42.8251 64.3886 42.6788 64.3886 42.5008V38.8162H64.893ZM66.2526 42.6432V43.0645H65.1549V42.6432H66.2526ZM67.3071 42.6432V43.0645H66.2095V42.6432H67.3071ZM68.3617 42.6432V43.0645H67.264V42.6432H68.3617ZM69.4163 42.6432V43.0645H68.3186V42.6432H69.4163ZM72.055 38.7272V39.19L70.5658 40.074C71.1828 40.2402 71.6694 40.5487 72.0254 40.9996C72.3497 41.411 72.5119 41.8857 72.5119 42.4237C72.5119 42.5146 72.506 42.5878 72.4941 42.6432H72.6958V43.0645H72.5772L72.4051 42.8568H72.3932C72.2746 42.9952 72.1361 43.0645 71.9779 43.0645H69.3732V42.6432H71.7821C71.9364 42.6432 72.0135 42.5641 72.0135 42.4058C71.9937 41.9945 71.8731 41.6325 71.6516 41.32C71.3351 40.8612 70.8288 40.5843 70.1326 40.4894C70.1089 40.4894 70.097 40.4755 70.097 40.4478V39.8604L72.055 38.7272ZM73.2581 39.0298C73.3411 39.0298 73.4104 39.0594 73.4657 39.1188C73.5211 39.1741 73.5488 39.2414 73.5488 39.3205C73.5488 39.4036 73.5211 39.4748 73.4657 39.5341C73.4104 39.5895 73.3411 39.6172 73.2581 39.6172C73.179 39.6172 73.1097 39.5895 73.0504 39.5341C72.995 39.4748 72.9673 39.4036 72.9673 39.3205C72.9673 39.2414 72.995 39.1741 73.0504 39.1188C73.1097 39.0594 73.179 39.0298 73.2581 39.0298ZM73.9819 39.0298C74.0611 39.0298 74.1283 39.0594 74.1837 39.1188C74.243 39.1741 74.2727 39.2414 74.2727 39.3205C74.2727 39.4036 74.243 39.4748 74.1837 39.5341C74.1283 39.5895 74.0611 39.6172 73.9819 39.6172C73.8989 39.6172 73.8277 39.5895 73.7683 39.5341C73.713 39.4748 73.6853 39.4036 73.6853 39.3205C73.6853 39.2414 73.713 39.1741 73.7683 39.1188C73.8277 39.0594 73.8989 39.0298 73.9819 39.0298ZM74.2193 40.3351V42.5008C74.2193 42.5483 74.2133 42.5957 74.2015 42.6432H74.5159V43.0645H74.2845L74.1125 42.8568H74.0947C73.9879 42.9952 73.8494 43.0645 73.6793 43.0645H72.6469V42.6432H73.4895C73.5528 42.6432 73.6042 42.6234 73.6437 42.5839C73.6912 42.5403 73.7149 42.485 73.7149 42.4177V40.3351H74.2193ZM75.5698 42.6432V43.0645H74.4721V42.6432H75.5698ZM77.099 38.8162V42.5008C77.099 42.6551 77.0476 42.7856 76.9448 42.8924C76.838 43.0071 76.7094 43.0645 76.5591 43.0645H75.5267V42.6432H76.3692C76.4444 42.6432 76.5018 42.6175 76.5413 42.5661C76.5769 42.5225 76.5947 42.4731 76.5947 42.4177V38.8162H77.099ZM78.4226 38.8162V43.0051L78.1675 43.2128H77.9183V38.8162H78.4226ZM81.15 43.0051C80.9443 43.0803 80.7287 43.1179 80.5032 43.1179C80.076 43.1179 79.7378 42.9675 79.4886 42.6669C79.2671 42.4019 79.1563 42.0637 79.1563 41.6523C79.1563 41.237 79.273 40.9047 79.5064 40.6555C79.7556 40.3944 80.0918 40.2639 80.5151 40.2639C80.8355 40.2639 81.0966 40.345 81.2983 40.5072C81.5396 40.701 81.6602 40.9799 81.6602 41.3438V43.0111C81.6563 43.5174 81.4901 43.8991 81.1618 44.1562C80.9957 44.2867 80.7959 44.3777 80.5626 44.4291C80.4083 44.4608 80.2481 44.4766 80.082 44.4766C79.987 44.4766 79.896 44.4746 79.809 44.4707L79.6132 44.2274V44.0375C79.7319 44.0533 79.8565 44.0613 79.987 44.0613C80.7584 44.0613 81.146 43.7092 81.15 43.0051ZM81.15 41.3438C81.15 41.0985 81.0629 40.9146 80.8889 40.792C80.79 40.7247 80.6654 40.6911 80.5151 40.6911C80.2501 40.6911 80.0404 40.7801 79.8861 40.9581C79.7358 41.1361 79.6607 41.3833 79.6607 41.6998C79.6607 42.0004 79.7477 42.2377 79.9218 42.4118C80.076 42.574 80.2817 42.6551 80.5388 42.6551C80.7643 42.6551 80.968 42.6195 81.15 42.5483V41.3438ZM84.8928 38.8162V41.6404C85.4348 40.7228 86.1468 40.2639 87.0289 40.2639C87.5035 40.2639 87.8833 40.4103 88.1681 40.703C88.4291 40.968 88.5597 41.3042 88.5597 41.7116V42.5008C88.5597 42.5522 88.5537 42.5997 88.5419 42.6432H88.7495V43.0645H88.619L88.4529 42.8568H88.4351C88.3243 42.9952 88.1859 43.0645 88.0197 43.0645H83.6112L83.4036 42.8093V42.6432H84.3944V38.8162H84.8928ZM88.0494 41.6582C88.0494 41.413 87.9762 41.2053 87.8299 41.0352C87.6281 40.8098 87.3354 40.697 86.9517 40.697C86.5918 40.697 86.2575 40.8137 85.949 41.0471C85.5139 41.3794 85.1618 41.9114 84.8928 42.6432H87.8299C87.9762 42.6432 88.0494 42.568 88.0494 42.4177V41.6582ZM89.8006 42.6432V43.0645H88.7029V42.6432H89.8006ZM90.8552 42.6432V43.0645H89.7575V42.6432H90.8552ZM91.9097 42.6432V43.0645H90.8121V42.6432H91.9097ZM92.9643 42.6432V43.0645H91.8666V42.6432H92.9643ZM94.4935 40.3351V42.5008C94.4935 42.6471 94.4461 42.7737 94.3511 42.8805C94.2443 43.0031 94.1118 43.0645 93.9536 43.0645H92.9212V42.6432H93.7637C93.831 42.6432 93.8864 42.6195 93.9299 42.572C93.9694 42.5324 93.9892 42.481 93.9892 42.4177V40.3351H94.4935ZM94.0901 43.6815C94.1692 43.6815 94.2364 43.7092 94.2918 43.7646C94.3511 43.8239 94.3808 43.8931 94.3808 43.9723C94.3808 44.0553 94.3511 44.1245 94.2918 44.1799C94.2364 44.2393 94.1692 44.2689 94.0901 44.2689C94.011 44.2689 93.9417 44.2393 93.8824 44.1799C93.827 44.1245 93.7993 44.0553 93.7993 43.9723C93.7993 43.8931 93.827 43.8239 93.8824 43.7646C93.9417 43.7092 94.011 43.6815 94.0901 43.6815ZM96.8733 40.3351V42.6432H97.1759V43.0645H96.8733C96.8614 43.5589 96.6854 43.9287 96.3452 44.174C96.0723 44.3757 95.7182 44.4766 95.2831 44.4766C95.2159 44.4766 95.1308 44.4746 95.028 44.4707L94.8322 44.2274V44.0375C94.9469 44.0533 95.0715 44.0613 95.206 44.0613C95.9813 44.0613 96.3689 43.7053 96.3689 42.9933V40.3351H96.8733ZM98.706 38.8162V42.5008C98.706 42.6551 98.6546 42.7856 98.5517 42.8924C98.4449 43.0071 98.3164 43.0645 98.1661 43.0645H97.1336V42.6432H97.9762C98.0513 42.6432 98.1087 42.6175 98.1483 42.5661C98.1839 42.5225 98.2017 42.4731 98.2017 42.4177V38.8162H98.706ZM100.03 38.8162V43.0051L99.7745 43.2128H99.5253V38.8162H100.03ZM103.336 39.0298C103.415 39.0298 103.482 39.0594 103.538 39.1188C103.597 39.1741 103.627 39.2414 103.627 39.3205C103.627 39.4036 103.597 39.4748 103.538 39.5341C103.482 39.5895 103.415 39.6172 103.336 39.6172C103.257 39.6172 103.188 39.5895 103.128 39.5341C103.073 39.4748 103.045 39.4036 103.045 39.3205C103.045 39.2414 103.073 39.1741 103.128 39.1188C103.188 39.0594 103.257 39.0298 103.336 39.0298ZM104.054 39.0298C104.137 39.0298 104.206 39.0594 104.262 39.1188C104.321 39.1741 104.351 39.2414 104.351 39.3205C104.351 39.4036 104.321 39.4748 104.262 39.5341C104.206 39.5895 104.137 39.6172 104.054 39.6172C103.975 39.6172 103.906 39.5895 103.846 39.5341C103.791 39.4748 103.763 39.4036 103.763 39.3205C103.763 39.2414 103.791 39.1741 103.846 39.1188C103.906 39.0594 103.975 39.0298 104.054 39.0298ZM104.351 40.1749V42.4177C104.351 42.4889 104.37 42.5443 104.41 42.5839C104.445 42.6234 104.485 42.6432 104.529 42.6432H104.647V43.0645H104.398C104.216 43.0645 104.072 42.9952 103.965 42.8568C103.708 43.0387 103.431 43.1297 103.134 43.1297C102.719 43.1297 102.391 42.9675 102.149 42.6432C101.952 42.3782 101.853 42.0617 101.853 41.6938C101.853 41.2627 101.995 40.9047 102.28 40.6199C102.533 40.3628 102.843 40.2342 103.211 40.2342C103.421 40.2342 103.633 40.2817 103.846 40.3766L104.101 40.1749H104.351ZM103.846 40.792C103.672 40.705 103.496 40.6614 103.318 40.6614C103.018 40.6614 102.774 40.7801 102.588 41.0174C102.434 41.2113 102.357 41.4407 102.357 41.7057C102.357 42.0222 102.432 42.2714 102.582 42.4533C102.729 42.6195 102.927 42.7025 103.176 42.7025C103.389 42.7025 103.613 42.6452 103.846 42.5305V40.792ZM105.706 42.6432V43.0645H104.608V42.6432H105.706ZM106.761 42.6432V43.0645H105.663V42.6432H106.761ZM108.278 41.6404C108.824 40.7228 109.54 40.2639 110.426 40.2639C110.896 40.2639 111.274 40.4103 111.559 40.703C111.816 40.968 111.945 41.3042 111.945 41.7116V42.5008C111.945 42.5522 111.939 42.5997 111.927 42.6432H112.135V43.0645H112.01L111.844 42.8568H111.826C111.715 42.9952 111.577 43.0645 111.411 43.0645H106.717V42.6432H107.785L107.779 40.3351H108.284L108.278 41.6404ZM111.44 41.6582C111.436 41.3418 111.32 41.0966 111.09 40.9225C110.9 40.7722 110.651 40.697 110.343 40.697C110.034 40.697 109.745 40.7821 109.476 40.9522C108.978 41.2647 108.579 41.8283 108.278 42.6432H111.215C111.365 42.6432 111.44 42.568 111.44 42.4177V41.6582ZM113.412 39.0298C113.495 39.0298 113.564 39.0594 113.619 39.1188C113.679 39.1741 113.708 39.2414 113.708 39.3205C113.708 39.4036 113.679 39.4748 113.619 39.5341C113.564 39.5895 113.495 39.6172 113.412 39.6172C113.333 39.6172 113.263 39.5895 113.204 39.5341C113.149 39.4748 113.121 39.4036 113.121 39.3205C113.121 39.2414 113.149 39.1741 113.204 39.1188C113.263 39.0594 113.333 39.0298 113.412 39.0298ZM113.667 40.3351V42.5008C113.667 42.5483 113.661 42.5957 113.649 42.6432H113.964V43.0645H113.732L113.56 42.8568H113.542C113.435 42.9952 113.297 43.0645 113.127 43.0645H112.095V42.6432H112.937C113 42.6432 113.052 42.6234 113.091 42.5839C113.139 42.5403 113.163 42.485 113.163 42.4177V40.3351H113.667ZM115.017 42.6432V43.0645H113.92V42.6432H115.017ZM116.072 42.6432V43.0645H114.974V42.6432H116.072ZM117.097 41.3438C117.097 40.9403 117.239 40.6436 117.524 40.4538C117.71 40.3312 117.957 40.2698 118.266 40.2698C118.642 40.2698 118.956 40.3984 119.209 40.6555C119.462 40.9126 119.589 41.2726 119.589 41.7354C119.589 42.1665 119.462 42.5305 119.209 42.8271C118.972 43.104 118.671 43.2425 118.307 43.2425C117.967 43.2425 117.69 43.1139 117.477 42.8568C117.37 42.9952 117.227 43.0645 117.049 43.0645H116.029V42.6432H116.871C116.935 42.6432 116.988 42.6214 117.032 42.5779C117.075 42.5344 117.097 42.481 117.097 42.4177V41.3438ZM117.601 42.5067C117.807 42.7164 118.034 42.8212 118.284 42.8212C118.521 42.8212 118.713 42.7243 118.859 42.5305C119.009 42.3327 119.085 42.0775 119.085 41.765C119.085 41.417 118.998 41.142 118.823 40.9403C118.677 40.7742 118.483 40.6911 118.242 40.6911C118.06 40.6911 117.912 40.7445 117.797 40.8513C117.666 40.9739 117.601 41.1381 117.601 41.3438V42.5067Z"/>
</mask>
<path d="M55.6706 38.8162V42.6432H55.9732V43.0645H55.6706C55.6587 43.5114 55.5143 43.8595 55.2374 44.1087C54.9566 44.3579 54.5769 44.4825 54.0982 44.4825H53.4396C52.9689 44.4825 52.5931 44.3619 52.3123 44.1206C52.0117 43.8635 51.8614 43.4936 51.8614 43.0111V41.771L52.1165 41.5633H52.3657V42.9992C52.3657 43.3947 52.4685 43.6697 52.6742 43.8239C52.8839 43.9821 53.2478 44.0613 53.766 44.0613C54.2604 44.0613 54.6085 43.994 54.8102 43.8595C55.0476 43.6973 55.1662 43.4106 55.1662 42.9992V38.8162H55.6706ZM57.0223 42.6432V43.0645H55.9246V42.6432H57.0223ZM58.0768 42.6432V43.0645H56.9792V42.6432H58.0768ZM59.1314 42.6432V43.0645H58.0337V42.6432H59.1314ZM60.186 42.6432V43.0645H59.0883V42.6432H60.186ZM61.2108 41.3438C61.2108 40.9403 61.3532 40.6436 61.638 40.4538C61.824 40.3312 62.0712 40.2698 62.3797 40.2698C62.7555 40.2698 63.07 40.3984 63.3231 40.6555C63.5763 40.9126 63.7029 41.2726 63.7029 41.7354C63.7029 42.1665 63.5763 42.5305 63.3231 42.8271C63.0858 43.104 62.7852 43.2425 62.4213 43.2425C62.0811 43.2425 61.8042 43.1139 61.5906 42.8568C61.4838 42.9952 61.3414 43.0645 61.1634 43.0645H60.1428V42.6432H60.9854C61.0487 42.6432 61.1021 42.6214 61.1456 42.5779C61.1891 42.5344 61.2108 42.481 61.2108 42.4177V41.3438ZM61.7152 42.5067C61.9209 42.7164 62.1483 42.8212 62.3975 42.8212C62.6349 42.8212 62.8267 42.7243 62.9731 42.5305C63.1234 42.3327 63.1985 42.0775 63.1985 41.765C63.1985 41.417 63.1115 41.142 62.9375 40.9403C62.7911 40.7742 62.5973 40.6911 62.356 40.6911C62.174 40.6911 62.0257 40.7445 61.911 40.8513C61.7804 40.9739 61.7152 41.1381 61.7152 41.3438V42.5067ZM64.893 38.8162V42.4177C64.893 42.481 64.9127 42.5344 64.9523 42.5779C64.9958 42.6214 65.0512 42.6432 65.1184 42.6432H65.1956V43.0645H64.9226C64.7961 43.0645 64.6853 43.0229 64.5904 42.9399C64.4559 42.8251 64.3886 42.6788 64.3886 42.5008V38.8162H64.893ZM66.2526 42.6432V43.0645H65.1549V42.6432H66.2526ZM67.3071 42.6432V43.0645H66.2095V42.6432H67.3071ZM68.3617 42.6432V43.0645H67.264V42.6432H68.3617ZM69.4163 42.6432V43.0645H68.3186V42.6432H69.4163ZM72.055 38.7272V39.19L70.5658 40.074C71.1828 40.2402 71.6694 40.5487 72.0254 40.9996C72.3497 41.411 72.5119 41.8857 72.5119 42.4237C72.5119 42.5146 72.506 42.5878 72.4941 42.6432H72.6958V43.0645H72.5772L72.4051 42.8568H72.3932C72.2746 42.9952 72.1361 43.0645 71.9779 43.0645H69.3732V42.6432H71.7821C71.9364 42.6432 72.0135 42.5641 72.0135 42.4058C71.9937 41.9945 71.8731 41.6325 71.6516 41.32C71.3351 40.8612 70.8288 40.5843 70.1326 40.4894C70.1089 40.4894 70.097 40.4755 70.097 40.4478V39.8604L72.055 38.7272ZM73.2581 39.0298C73.3411 39.0298 73.4104 39.0594 73.4657 39.1188C73.5211 39.1741 73.5488 39.2414 73.5488 39.3205C73.5488 39.4036 73.5211 39.4748 73.4657 39.5341C73.4104 39.5895 73.3411 39.6172 73.2581 39.6172C73.179 39.6172 73.1097 39.5895 73.0504 39.5341C72.995 39.4748 72.9673 39.4036 72.9673 39.3205C72.9673 39.2414 72.995 39.1741 73.0504 39.1188C73.1097 39.0594 73.179 39.0298 73.2581 39.0298ZM73.9819 39.0298C74.0611 39.0298 74.1283 39.0594 74.1837 39.1188C74.243 39.1741 74.2727 39.2414 74.2727 39.3205C74.2727 39.4036 74.243 39.4748 74.1837 39.5341C74.1283 39.5895 74.0611 39.6172 73.9819 39.6172C73.8989 39.6172 73.8277 39.5895 73.7683 39.5341C73.713 39.4748 73.6853 39.4036 73.6853 39.3205C73.6853 39.2414 73.713 39.1741 73.7683 39.1188C73.8277 39.0594 73.8989 39.0298 73.9819 39.0298ZM74.2193 40.3351V42.5008C74.2193 42.5483 74.2133 42.5957 74.2015 42.6432H74.5159V43.0645H74.2845L74.1125 42.8568H74.0947C73.9879 42.9952 73.8494 43.0645 73.6793 43.0645H72.6469V42.6432H73.4895C73.5528 42.6432 73.6042 42.6234 73.6437 42.5839C73.6912 42.5403 73.7149 42.485 73.7149 42.4177V40.3351H74.2193ZM75.5698 42.6432V43.0645H74.4721V42.6432H75.5698ZM77.099 38.8162V42.5008C77.099 42.6551 77.0476 42.7856 76.9448 42.8924C76.838 43.0071 76.7094 43.0645 76.5591 43.0645H75.5267V42.6432H76.3692C76.4444 42.6432 76.5018 42.6175 76.5413 42.5661C76.5769 42.5225 76.5947 42.4731 76.5947 42.4177V38.8162H77.099ZM78.4226 38.8162V43.0051L78.1675 43.2128H77.9183V38.8162H78.4226ZM81.15 43.0051C80.9443 43.0803 80.7287 43.1179 80.5032 43.1179C80.076 43.1179 79.7378 42.9675 79.4886 42.6669C79.2671 42.4019 79.1563 42.0637 79.1563 41.6523C79.1563 41.237 79.273 40.9047 79.5064 40.6555C79.7556 40.3944 80.0918 40.2639 80.5151 40.2639C80.8355 40.2639 81.0966 40.345 81.2983 40.5072C81.5396 40.701 81.6602 40.9799 81.6602 41.3438V43.0111C81.6563 43.5174 81.4901 43.8991 81.1618 44.1562C80.9957 44.2867 80.7959 44.3777 80.5626 44.4291C80.4083 44.4608 80.2481 44.4766 80.082 44.4766C79.987 44.4766 79.896 44.4746 79.809 44.4707L79.6132 44.2274V44.0375C79.7319 44.0533 79.8565 44.0613 79.987 44.0613C80.7584 44.0613 81.146 43.7092 81.15 43.0051ZM81.15 41.3438C81.15 41.0985 81.0629 40.9146 80.8889 40.792C80.79 40.7247 80.6654 40.6911 80.5151 40.6911C80.2501 40.6911 80.0404 40.7801 79.8861 40.9581C79.7358 41.1361 79.6607 41.3833 79.6607 41.6998C79.6607 42.0004 79.7477 42.2377 79.9218 42.4118C80.076 42.574 80.2817 42.6551 80.5388 42.6551C80.7643 42.6551 80.968 42.6195 81.15 42.5483V41.3438ZM84.8928 38.8162V41.6404C85.4348 40.7228 86.1468 40.2639 87.0289 40.2639C87.5035 40.2639 87.8833 40.4103 88.1681 40.703C88.4291 40.968 88.5597 41.3042 88.5597 41.7116V42.5008C88.5597 42.5522 88.5537 42.5997 88.5419 42.6432H88.7495V43.0645H88.619L88.4529 42.8568H88.4351C88.3243 42.9952 88.1859 43.0645 88.0197 43.0645H83.6112L83.4036 42.8093V42.6432H84.3944V38.8162H84.8928ZM88.0494 41.6582C88.0494 41.413 87.9762 41.2053 87.8299 41.0352C87.6281 40.8098 87.3354 40.697 86.9517 40.697C86.5918 40.697 86.2575 40.8137 85.949 41.0471C85.5139 41.3794 85.1618 41.9114 84.8928 42.6432H87.8299C87.9762 42.6432 88.0494 42.568 88.0494 42.4177V41.6582ZM89.8006 42.6432V43.0645H88.7029V42.6432H89.8006ZM90.8552 42.6432V43.0645H89.7575V42.6432H90.8552ZM91.9097 42.6432V43.0645H90.8121V42.6432H91.9097ZM92.9643 42.6432V43.0645H91.8666V42.6432H92.9643ZM94.4935 40.3351V42.5008C94.4935 42.6471 94.4461 42.7737 94.3511 42.8805C94.2443 43.0031 94.1118 43.0645 93.9536 43.0645H92.9212V42.6432H93.7637C93.831 42.6432 93.8864 42.6195 93.9299 42.572C93.9694 42.5324 93.9892 42.481 93.9892 42.4177V40.3351H94.4935ZM94.0901 43.6815C94.1692 43.6815 94.2364 43.7092 94.2918 43.7646C94.3511 43.8239 94.3808 43.8931 94.3808 43.9723C94.3808 44.0553 94.3511 44.1245 94.2918 44.1799C94.2364 44.2393 94.1692 44.2689 94.0901 44.2689C94.011 44.2689 93.9417 44.2393 93.8824 44.1799C93.827 44.1245 93.7993 44.0553 93.7993 43.9723C93.7993 43.8931 93.827 43.8239 93.8824 43.7646C93.9417 43.7092 94.011 43.6815 94.0901 43.6815ZM96.8733 40.3351V42.6432H97.1759V43.0645H96.8733C96.8614 43.5589 96.6854 43.9287 96.3452 44.174C96.0723 44.3757 95.7182 44.4766 95.2831 44.4766C95.2159 44.4766 95.1308 44.4746 95.028 44.4707L94.8322 44.2274V44.0375C94.9469 44.0533 95.0715 44.0613 95.206 44.0613C95.9813 44.0613 96.3689 43.7053 96.3689 42.9933V40.3351H96.8733ZM98.706 38.8162V42.5008C98.706 42.6551 98.6546 42.7856 98.5517 42.8924C98.4449 43.0071 98.3164 43.0645 98.1661 43.0645H97.1336V42.6432H97.9762C98.0513 42.6432 98.1087 42.6175 98.1483 42.5661C98.1839 42.5225 98.2017 42.4731 98.2017 42.4177V38.8162H98.706ZM100.03 38.8162V43.0051L99.7745 43.2128H99.5253V38.8162H100.03ZM103.336 39.0298C103.415 39.0298 103.482 39.0594 103.538 39.1188C103.597 39.1741 103.627 39.2414 103.627 39.3205C103.627 39.4036 103.597 39.4748 103.538 39.5341C103.482 39.5895 103.415 39.6172 103.336 39.6172C103.257 39.6172 103.188 39.5895 103.128 39.5341C103.073 39.4748 103.045 39.4036 103.045 39.3205C103.045 39.2414 103.073 39.1741 103.128 39.1188C103.188 39.0594 103.257 39.0298 103.336 39.0298ZM104.054 39.0298C104.137 39.0298 104.206 39.0594 104.262 39.1188C104.321 39.1741 104.351 39.2414 104.351 39.3205C104.351 39.4036 104.321 39.4748 104.262 39.5341C104.206 39.5895 104.137 39.6172 104.054 39.6172C103.975 39.6172 103.906 39.5895 103.846 39.5341C103.791 39.4748 103.763 39.4036 103.763 39.3205C103.763 39.2414 103.791 39.1741 103.846 39.1188C103.906 39.0594 103.975 39.0298 104.054 39.0298ZM104.351 40.1749V42.4177C104.351 42.4889 104.37 42.5443 104.41 42.5839C104.445 42.6234 104.485 42.6432 104.529 42.6432H104.647V43.0645H104.398C104.216 43.0645 104.072 42.9952 103.965 42.8568C103.708 43.0387 103.431 43.1297 103.134 43.1297C102.719 43.1297 102.391 42.9675 102.149 42.6432C101.952 42.3782 101.853 42.0617 101.853 41.6938C101.853 41.2627 101.995 40.9047 102.28 40.6199C102.533 40.3628 102.843 40.2342 103.211 40.2342C103.421 40.2342 103.633 40.2817 103.846 40.3766L104.101 40.1749H104.351ZM103.846 40.792C103.672 40.705 103.496 40.6614 103.318 40.6614C103.018 40.6614 102.774 40.7801 102.588 41.0174C102.434 41.2113 102.357 41.4407 102.357 41.7057C102.357 42.0222 102.432 42.2714 102.582 42.4533C102.729 42.6195 102.927 42.7025 103.176 42.7025C103.389 42.7025 103.613 42.6452 103.846 42.5305V40.792ZM105.706 42.6432V43.0645H104.608V42.6432H105.706ZM106.761 42.6432V43.0645H105.663V42.6432H106.761ZM108.278 41.6404C108.824 40.7228 109.54 40.2639 110.426 40.2639C110.896 40.2639 111.274 40.4103 111.559 40.703C111.816 40.968 111.945 41.3042 111.945 41.7116V42.5008C111.945 42.5522 111.939 42.5997 111.927 42.6432H112.135V43.0645H112.01L111.844 42.8568H111.826C111.715 42.9952 111.577 43.0645 111.411 43.0645H106.717V42.6432H107.785L107.779 40.3351H108.284L108.278 41.6404ZM111.44 41.6582C111.436 41.3418 111.32 41.0966 111.09 40.9225C110.9 40.7722 110.651 40.697 110.343 40.697C110.034 40.697 109.745 40.7821 109.476 40.9522C108.978 41.2647 108.579 41.8283 108.278 42.6432H111.215C111.365 42.6432 111.44 42.568 111.44 42.4177V41.6582ZM113.412 39.0298C113.495 39.0298 113.564 39.0594 113.619 39.1188C113.679 39.1741 113.708 39.2414 113.708 39.3205C113.708 39.4036 113.679 39.4748 113.619 39.5341C113.564 39.5895 113.495 39.6172 113.412 39.6172C113.333 39.6172 113.263 39.5895 113.204 39.5341C113.149 39.4748 113.121 39.4036 113.121 39.3205C113.121 39.2414 113.149 39.1741 113.204 39.1188C113.263 39.0594 113.333 39.0298 113.412 39.0298ZM113.667 40.3351V42.5008C113.667 42.5483 113.661 42.5957 113.649 42.6432H113.964V43.0645H113.732L113.56 42.8568H113.542C113.435 42.9952 113.297 43.0645 113.127 43.0645H112.095V42.6432H112.937C113 42.6432 113.052 42.6234 113.091 42.5839C113.139 42.5403 113.163 42.485 113.163 42.4177V40.3351H113.667ZM115.017 42.6432V43.0645H113.92V42.6432H115.017ZM116.072 42.6432V43.0645H114.974V42.6432H116.072ZM117.097 41.3438C117.097 40.9403 117.239 40.6436 117.524 40.4538C117.71 40.3312 117.957 40.2698 118.266 40.2698C118.642 40.2698 118.956 40.3984 119.209 40.6555C119.462 40.9126 119.589 41.2726 119.589 41.7354C119.589 42.1665 119.462 42.5305 119.209 42.8271C118.972 43.104 118.671 43.2425 118.307 43.2425C117.967 43.2425 117.69 43.1139 117.477 42.8568C117.37 42.9952 117.227 43.0645 117.049 43.0645H116.029V42.6432H116.871C116.935 42.6432 116.988 42.6214 117.032 42.5779C117.075 42.5344 117.097 42.481 117.097 42.4177V41.3438ZM117.601 42.5067C117.807 42.7164 118.034 42.8212 118.284 42.8212C118.521 42.8212 118.713 42.7243 118.859 42.5305C119.009 42.3327 119.085 42.0775 119.085 41.765C119.085 41.417 118.998 41.142 118.823 40.9403C118.677 40.7742 118.483 40.6911 118.242 40.6911C118.06 40.6911 117.912 40.7445 117.797 40.8513C117.666 40.9739 117.601 41.1381 117.601 41.3438V42.5067Z" fill="white"/>
<path d="M55.6706 38.8162H55.72V38.7667H55.6706V38.8162ZM55.6706 42.6432H55.6211V42.6926H55.6706V42.6432ZM55.9732 42.6432H56.0226V42.5937H55.9732V42.6432ZM55.9732 43.0645V43.1139H56.0226V43.0645H55.9732ZM55.6706 43.0645V43.015H55.6224L55.6211 43.0631L55.6706 43.0645ZM55.2374 44.1087L55.2703 44.1457L55.2705 44.1455L55.2374 44.1087ZM52.3123 44.1206L52.3445 44.0831L52.3444 44.083L52.3123 44.1206ZM51.8614 41.771L51.8301 41.7326L51.8119 41.7475V41.771H51.8614ZM52.1165 41.5633V41.5139H52.0989L52.0853 41.525L52.1165 41.5633ZM52.3657 41.5633H52.4151V41.5139H52.3657V41.5633ZM52.6742 43.8239L52.704 43.7845L52.7039 43.7844L52.6742 43.8239ZM54.8102 43.8595L54.8377 43.9007L54.8381 43.9003L54.8102 43.8595ZM55.1662 38.8162V38.7667H55.1168V38.8162H55.1662ZM55.6211 38.8162V42.6432H55.72V38.8162H55.6211ZM55.6706 42.6926H55.9732V42.5937H55.6706V42.6926ZM55.9237 42.6432V43.0645H56.0226V42.6432H55.9237ZM55.9732 43.015H55.6706V43.1139H55.9732V43.015ZM55.6211 43.0631C55.6096 43.4995 55.4692 43.8336 55.2044 44.072L55.2705 44.1455C55.5595 43.8854 55.7078 43.5234 55.72 43.0658L55.6211 43.0631ZM55.2046 44.0717C54.9351 44.3109 54.5682 44.4331 54.0982 44.4331V44.532C54.5855 44.532 54.9781 44.405 55.2703 44.1457L55.2046 44.0717ZM54.0982 44.4331H53.4396V44.532H54.0982V44.4331ZM53.4396 44.4331C52.9774 44.4331 52.6142 44.3148 52.3445 44.0831L52.2801 44.1581C52.5721 44.409 52.9604 44.532 53.4396 44.532V44.4331ZM52.3444 44.083C52.0572 43.8373 51.9108 43.4827 51.9108 43.0111H51.8119C51.8119 43.5046 51.9662 43.8896 52.2802 44.1582L52.3444 44.083ZM51.9108 43.0111V41.771H51.8119V43.0111H51.9108ZM51.8926 41.8093L52.1477 41.6017L52.0853 41.525L51.8301 41.7326L51.8926 41.8093ZM52.1165 41.6128H52.3657V41.5139H52.1165V41.6128ZM52.3162 41.5633V42.9992H52.4151V41.5633H52.3162ZM52.3162 42.9992C52.3162 43.4017 52.4209 43.6957 52.6446 43.8635L52.7039 43.7844C52.5162 43.6436 52.4151 43.3878 52.4151 42.9992H52.3162ZM52.6444 43.8634C52.8677 44.0319 53.2458 44.1107 53.766 44.1107V44.0118C53.2497 44.0118 52.9 43.9324 52.704 43.7845L52.6444 43.8634ZM53.766 44.1107C54.2619 44.1107 54.6229 44.0438 54.8377 43.9007L54.7828 43.8184C54.5941 43.9442 54.259 44.0118 53.766 44.0118V44.1107ZM54.8381 43.9003C55.0942 43.7254 55.2157 43.4193 55.2157 42.9992H55.1168C55.1168 43.4018 55.001 43.6693 54.7823 43.8187L54.8381 43.9003ZM55.2157 42.9992V38.8162H55.1168V42.9992H55.2157ZM55.1662 38.8656H55.6706V38.7667H55.1662V38.8656ZM57.0223 42.6432H57.0717V42.5937H57.0223V42.6432ZM57.0223 43.0645V43.1139H57.0717V43.0645H57.0223ZM55.9246 43.0645H55.8751V43.1139H55.9246V43.0645ZM55.9246 42.6432V42.5937H55.8751V42.6432H55.9246ZM56.9728 42.6432V43.0645H57.0717V42.6432H56.9728ZM57.0223 43.015H55.9246V43.1139H57.0223V43.015ZM55.974 43.0645V42.6432H55.8751V43.0645H55.974ZM55.9246 42.6926H57.0223V42.5937H55.9246V42.6926ZM58.0768 42.6432H58.1263V42.5937H58.0768V42.6432ZM58.0768 43.0645V43.1139H58.1263V43.0645H58.0768ZM56.9792 43.0645H56.9297V43.1139H56.9792V43.0645ZM56.9792 42.6432V42.5937H56.9297V42.6432H56.9792ZM58.0274 42.6432V43.0645H58.1263V42.6432H58.0274ZM58.0768 43.015H56.9792V43.1139H58.0768V43.015ZM57.0286 43.0645V42.6432H56.9297V43.0645H57.0286ZM56.9792 42.6926H58.0768V42.5937H56.9792V42.6926ZM59.1314 42.6432H59.1808V42.5937H59.1314V42.6432ZM59.1314 43.0645V43.1139H59.1808V43.0645H59.1314ZM58.0337 43.0645H57.9843V43.1139H58.0337V43.0645ZM58.0337 42.6432V42.5937H57.9843V42.6432H58.0337ZM59.0819 42.6432V43.0645H59.1808V42.6432H59.0819ZM59.1314 43.015H58.0337V43.1139H59.1314V43.015ZM58.0832 43.0645V42.6432H57.9843V43.0645H58.0832ZM58.0337 42.6926H59.1314V42.5937H58.0337V42.6926ZM60.186 42.6432H60.2354V42.5937H60.186V42.6432ZM60.186 43.0645V43.1139H60.2354V43.0645H60.186ZM59.0883 43.0645H59.0388V43.1139H59.0883V43.0645ZM59.0883 42.6432V42.5937H59.0388V42.6432H59.0883ZM60.1365 42.6432V43.0645H60.2354V42.6432H60.1365ZM60.186 43.015H59.0883V43.1139H60.186V43.015ZM59.1377 43.0645V42.6432H59.0388V43.0645H59.1377ZM59.0883 42.6926H60.186V42.5937H59.0883V42.6926ZM61.638 40.4538L61.6108 40.4125L61.6106 40.4126L61.638 40.4538ZM63.3231 40.6555L63.2879 40.6902L63.3231 40.6555ZM63.3231 42.8271L63.3607 42.8593L63.3607 42.8592L63.3231 42.8271ZM61.5906 42.8568L61.6286 42.8252L61.5892 42.7777L61.5514 42.8266L61.5906 42.8568ZM60.1428 43.0645H60.0934V43.1139H60.1428V43.0645ZM60.1428 42.6432V42.5937H60.0934V42.6432H60.1428ZM61.1456 42.5779L61.1106 42.543L61.1456 42.5779ZM61.7152 42.5067H61.6657V42.5269L61.6799 42.5413L61.7152 42.5067ZM62.9731 42.5305L62.9337 42.5005L62.9336 42.5007L62.9731 42.5305ZM62.9375 40.9403L62.9749 40.908L62.9746 40.9076L62.9375 40.9403ZM61.911 40.8513L61.8773 40.8151L61.8771 40.8153L61.911 40.8513ZM61.2603 41.3438C61.2603 40.9534 61.397 40.6739 61.6655 40.4949L61.6106 40.4126C61.3094 40.6134 61.1614 40.9272 61.1614 41.3438H61.2603ZM61.6653 40.495C61.8405 40.3794 62.0773 40.3193 62.3797 40.3193V40.2204C62.0651 40.2204 61.8074 40.2829 61.6108 40.4125L61.6653 40.495ZM62.3797 40.3193C62.7429 40.3193 63.0445 40.443 63.2879 40.6902L63.3584 40.6208C63.0955 40.3538 62.7681 40.2204 62.3797 40.2204V40.3193ZM63.2879 40.6902C63.5296 40.9356 63.6534 41.2817 63.6534 41.7354H63.7523C63.7523 41.2634 63.623 40.8896 63.3584 40.6208L63.2879 40.6902ZM63.6534 41.7354C63.6534 42.1561 63.5302 42.5083 63.2855 42.795L63.3607 42.8592C63.6224 42.5526 63.7523 42.177 63.7523 41.7354H63.6534ZM63.2856 42.7949C63.0576 43.0609 62.7707 43.193 62.4213 43.193V43.2919C62.7996 43.2919 63.114 43.1471 63.3607 42.8593L63.2856 42.7949ZM62.4213 43.193C62.0955 43.193 61.8326 43.0708 61.6286 42.8252L61.5526 42.8884C61.7757 43.157 62.0667 43.2919 62.4213 43.2919V43.193ZM61.5514 42.8266C61.4542 42.9526 61.3264 43.015 61.1634 43.015V43.1139C61.3564 43.1139 61.5134 43.0378 61.6297 42.887L61.5514 42.8266ZM61.1634 43.015H60.1428V43.1139H61.1634V43.015ZM60.1923 43.0645V42.6432H60.0934V43.0645H60.1923ZM60.1428 42.6926H60.9854V42.5937H60.1428V42.6926ZM60.9854 42.6926C61.0614 42.6926 61.1275 42.666 61.1805 42.6129L61.1106 42.543C61.0767 42.5769 61.036 42.5937 60.9854 42.5937V42.6926ZM61.1805 42.6129C61.2336 42.5598 61.2603 42.4937 61.2603 42.4177H61.1614C61.1614 42.4683 61.1446 42.509 61.1106 42.543L61.1805 42.6129ZM61.2603 42.4177V41.3438H61.1614V42.4177H61.2603ZM61.6799 42.5413C61.8931 42.7586 62.1327 42.8706 62.3975 42.8706V42.7717C62.164 42.7717 61.9487 42.6741 61.7505 42.4721L61.6799 42.5413ZM62.3975 42.8706C62.6508 42.8706 62.8571 42.7661 63.0125 42.5602L62.9336 42.5007C62.7963 42.6824 62.6189 42.7717 62.3975 42.7717V42.8706ZM63.0124 42.5604C63.1708 42.352 63.248 42.0855 63.248 41.765H63.1491C63.1491 42.0696 63.0759 42.3134 62.9337 42.5005L63.0124 42.5604ZM63.248 41.765C63.248 41.4088 63.1588 41.1212 62.9749 40.908L62.9 40.9726C63.0642 41.1629 63.1491 41.4251 63.1491 41.765H63.248ZM62.9746 40.9076C62.8179 40.7298 62.61 40.6417 62.356 40.6417V40.7406C62.5845 40.7406 62.7643 40.8185 62.9004 40.973L62.9746 40.9076ZM62.356 40.6417C62.1637 40.6417 62.0026 40.6984 61.8773 40.8151L61.9447 40.8875C62.0488 40.7906 62.1844 40.7406 62.356 40.7406V40.6417ZM61.8771 40.8153C61.7351 40.9487 61.6657 41.1267 61.6657 41.3438H61.7646C61.7646 41.1495 61.8258 40.9992 61.9448 40.8873L61.8771 40.8153ZM61.6657 41.3438V42.5067H61.7646V41.3438H61.6657ZM64.893 38.8162H64.9424V38.7667H64.893V38.8162ZM64.9523 42.5779L64.9157 42.6112L64.9173 42.6129L64.9523 42.5779ZM65.1956 42.6432H65.245V42.5937H65.1956V42.6432ZM65.1956 43.0645V43.1139H65.245V43.0645H65.1956ZM64.5904 42.9399L64.6229 42.9026L64.6224 42.9022L64.5904 42.9399ZM64.3886 38.8162V38.7667H64.3392V38.8162H64.3886ZM64.8435 38.8162V42.4177H64.9424V38.8162H64.8435ZM64.8435 42.4177C64.8435 42.4923 64.8672 42.5578 64.9157 42.6112L64.9889 42.5447C64.9583 42.511 64.9424 42.4697 64.9424 42.4177H64.8435ZM64.9173 42.6129C64.971 42.6666 65.0394 42.6926 65.1184 42.6926V42.5937C65.063 42.5937 65.0206 42.5763 64.9873 42.543L64.9173 42.6129ZM65.1184 42.6926H65.1956V42.5937H65.1184V42.6926ZM65.1461 42.6432V43.0645H65.245V42.6432H65.1461ZM65.1956 43.015H64.9226V43.1139H65.1956V43.015ZM64.9226 43.015C64.808 43.015 64.7088 42.9778 64.6229 42.9026L64.5578 42.9771C64.6618 43.068 64.7841 43.1139 64.9226 43.1139V43.015ZM64.6224 42.9022C64.4991 42.797 64.4381 42.6644 64.4381 42.5008H64.3392C64.3392 42.6931 64.4127 42.8533 64.5583 42.9775L64.6224 42.9022ZM64.4381 42.5008V38.8162H64.3392V42.5008H64.4381ZM64.3886 38.8656H64.893V38.7667H64.3886V38.8656ZM66.2526 42.6432H66.302V42.5937H66.2526V42.6432ZM66.2526 43.0645V43.1139H66.302V43.0645H66.2526ZM65.1549 43.0645H65.1055V43.1139H65.1549V43.0645ZM65.1549 42.6432V42.5937H65.1055V42.6432H65.1549ZM66.2031 42.6432V43.0645H66.302V42.6432H66.2031ZM66.2526 43.015H65.1549V43.1139H66.2526V43.015ZM65.2044 43.0645V42.6432H65.1055V43.0645H65.2044ZM65.1549 42.6926H66.2526V42.5937H65.1549V42.6926ZM67.3071 42.6432H67.3566V42.5937H67.3071V42.6432ZM67.3071 43.0645V43.1139H67.3566V43.0645H67.3071ZM66.2095 43.0645H66.16V43.1139H66.2095V43.0645ZM66.2095 42.6432V42.5937H66.16V42.6432H66.2095ZM67.2577 42.6432V43.0645H67.3566V42.6432H67.2577ZM67.3071 43.015H66.2095V43.1139H67.3071V43.015ZM66.2589 43.0645V42.6432H66.16V43.0645H66.2589ZM66.2095 42.6926H67.3071V42.5937H66.2095V42.6926ZM68.3617 42.6432H68.4112V42.5937H68.3617V42.6432ZM68.3617 43.0645V43.1139H68.4112V43.0645H68.3617ZM67.264 43.0645H67.2146V43.1139H67.264V43.0645ZM67.264 42.6432V42.5937H67.2146V42.6432H67.264ZM68.3123 42.6432V43.0645H68.4112V42.6432H68.3123ZM68.3617 43.015H67.264V43.1139H68.3617V43.015ZM67.3135 43.0645V42.6432H67.2146V43.0645H67.3135ZM67.264 42.6926H68.3617V42.5937H67.264V42.6926ZM69.4163 42.6432H69.4657V42.5937H69.4163V42.6432ZM69.4163 43.0645V43.1139H69.4657V43.0645H69.4163ZM68.3186 43.0645H68.2692V43.1139H68.3186V43.0645ZM68.3186 42.6432V42.5937H68.2692V42.6432H68.3186ZM69.3668 42.6432V43.0645H69.4657V42.6432H69.3668ZM69.4163 43.015H68.3186V43.1139H69.4163V43.015ZM68.368 43.0645V42.6432H68.2692V43.0645H68.368ZM68.3186 42.6926H69.4163V42.5937H68.3186V42.6926ZM72.055 38.7272H72.1045V38.6414L72.0303 38.6844L72.055 38.7272ZM72.055 39.19L72.0803 39.2325L72.1045 39.2181V39.19H72.055ZM70.5658 40.074L70.5405 40.0315L70.4398 40.0913L70.5529 40.1218L70.5658 40.074ZM72.0254 40.9996L72.0642 40.969L72.0642 40.969L72.0254 40.9996ZM72.4941 42.6432L72.4458 42.6328L72.4329 42.6926H72.4941V42.6432ZM72.6958 42.6432H72.7453V42.5937H72.6958V42.6432ZM72.6958 43.0645V43.1139H72.7453V43.0645H72.6958ZM72.5772 43.0645L72.5391 43.096L72.5539 43.1139H72.5772V43.0645ZM72.4051 42.8568L72.4432 42.8252L72.4284 42.8073H72.4051V42.8568ZM72.3932 42.8568V42.8073H72.3705L72.3557 42.8246L72.3932 42.8568ZM69.3732 43.0645H69.3237V43.1139H69.3732V43.0645ZM69.3732 42.6432V42.5937H69.3237V42.6432H69.3732ZM72.0135 42.4058H72.063L72.0629 42.4035L72.0135 42.4058ZM71.6516 41.32L71.6109 41.3481L71.6112 41.3486L71.6516 41.32ZM70.1326 40.4894L70.1394 40.4399H70.1326V40.4894ZM70.097 39.8604L70.0723 39.8176L70.0476 39.8319V39.8604H70.097ZM72.0056 38.7272V39.19H72.1045V38.7272H72.0056ZM72.0298 39.1474L70.5405 40.0315L70.591 40.1166L72.0803 39.2325L72.0298 39.1474ZM70.5529 40.1218C71.1609 40.2855 71.6379 40.5886 71.9866 41.0303L72.0642 40.969C71.7009 40.5088 71.2047 40.1949 70.5786 40.0263L70.5529 40.1218ZM71.9865 41.0303C72.3038 41.4327 72.4625 41.8965 72.4625 42.4237H72.5614C72.5614 41.8749 72.3956 41.3894 72.0642 40.969L71.9865 41.0303ZM72.4625 42.4237C72.4625 42.513 72.4566 42.5823 72.4458 42.6328L72.5425 42.6535C72.5554 42.5933 72.5614 42.5163 72.5614 42.4237H72.4625ZM72.4941 42.6926H72.6958V42.5937H72.4941V42.6926ZM72.6464 42.6432V43.0645H72.7453V42.6432H72.6464ZM72.6958 43.015H72.5772V43.1139H72.6958V43.015ZM72.6152 43.0329L72.4432 42.8252L72.367 42.8883L72.5391 43.096L72.6152 43.0329ZM72.4051 42.8073H72.3932V42.9062H72.4051V42.8073ZM72.3557 42.8246C72.2448 42.954 72.1194 43.015 71.9779 43.015V43.1139C72.1528 43.1139 72.3043 43.0365 72.4308 42.889L72.3557 42.8246ZM71.9779 43.015H69.3732V43.1139H71.9779V43.015ZM69.4226 43.0645V42.6432H69.3237V43.0645H69.4226ZM69.3732 42.6926H71.7821V42.5937H69.3732V42.6926ZM71.7821 42.6926C71.8672 42.6926 71.94 42.6707 71.9911 42.6184C72.0419 42.5662 72.063 42.4923 72.063 42.4058H71.9641C71.9641 42.4776 71.9466 42.5224 71.9203 42.5493C71.8942 42.5761 71.8513 42.5937 71.7821 42.5937V42.6926ZM72.0629 42.4035C72.0427 41.9834 71.9193 41.6122 71.6919 41.2915L71.6112 41.3486C71.8269 41.6528 71.9448 42.0055 71.9641 42.4082L72.0629 42.4035ZM71.6923 41.292C71.366 40.8188 70.8454 40.5367 70.1393 40.4404L70.1259 40.5384C70.8122 40.6319 71.3043 40.9036 71.6109 41.3481L71.6923 41.292ZM70.1326 40.4399C70.1314 40.4399 70.1325 40.4397 70.135 40.4407C70.1377 40.4418 70.1409 40.4438 70.1435 40.4468C70.1483 40.4525 70.1465 40.4558 70.1465 40.4478H70.0476C70.0476 40.4676 70.0517 40.4916 70.0684 40.5112C70.0864 40.5321 70.111 40.5388 70.1326 40.5388V40.4399ZM70.1465 40.4478V39.8604H70.0476V40.4478H70.1465ZM70.1218 39.9032L72.0798 38.77L72.0303 38.6844L70.0723 39.8176L70.1218 39.9032ZM73.4657 39.1188L73.4296 39.1525L73.4308 39.1537L73.4657 39.1188ZM73.4657 39.5341L73.5007 39.5691L73.5019 39.5678L73.4657 39.5341ZM73.0504 39.5341L73.0142 39.5679L73.0167 39.5702L73.0504 39.5341ZM73.0504 39.1188L73.0154 39.0838V39.0838L73.0504 39.1188ZM74.1837 39.1188L74.1474 39.1526L74.1499 39.1549L74.1837 39.1188ZM74.1837 39.5341L74.2186 39.5691V39.5691L74.1837 39.5341ZM73.7683 39.5341L73.7321 39.5679L73.7346 39.5702L73.7683 39.5341ZM73.7683 39.1188L73.7334 39.0838V39.0838L73.7683 39.1188ZM74.2193 40.3351H74.2687V40.2857H74.2193V40.3351ZM74.2015 42.6432L74.1535 42.6312L74.1382 42.6926H74.2015V42.6432ZM74.5159 42.6432H74.5654V42.5937H74.5159V42.6432ZM74.5159 43.0645V43.1139H74.5654V43.0645H74.5159ZM74.2845 43.0645L74.2465 43.096L74.2613 43.1139H74.2845V43.0645ZM74.1125 42.8568L74.1506 42.8252L74.1357 42.8073H74.1125V42.8568ZM74.0947 42.8568V42.8073H74.0704L74.0555 42.8266L74.0947 42.8568ZM72.6469 43.0645H72.5975V43.1139H72.6469V43.0645ZM72.6469 42.6432V42.5937H72.5975V42.6432H72.6469ZM73.6437 42.5839L73.6103 42.5474L73.6088 42.5489L73.6437 42.5839ZM73.7149 40.3351V40.2857H73.6655V40.3351H73.7149ZM73.2581 39.0792C73.3278 39.0792 73.3838 39.1035 73.4296 39.1525L73.5019 39.085C73.4369 39.0154 73.3545 38.9803 73.2581 38.9803V39.0792ZM73.4308 39.1537C73.4768 39.1997 73.4994 39.2544 73.4994 39.3205H73.5983C73.5983 39.2284 73.5655 39.1486 73.5007 39.0838L73.4308 39.1537ZM73.4994 39.3205C73.4994 39.3914 73.4762 39.4504 73.4296 39.5004L73.5019 39.5678C73.566 39.4991 73.5983 39.4158 73.5983 39.3205H73.4994ZM73.4308 39.4991C73.3853 39.5446 73.3289 39.5677 73.2581 39.5677V39.6666C73.3534 39.6666 73.4354 39.6343 73.5007 39.5691L73.4308 39.4991ZM73.2581 39.5677C73.1918 39.5677 73.1346 39.545 73.0841 39.498L73.0167 39.5702C73.0849 39.6339 73.1661 39.6666 73.2581 39.6666V39.5677ZM73.0866 39.5004C73.0399 39.4504 73.0168 39.3914 73.0168 39.3205H72.9179C72.9179 39.4158 72.9501 39.4991 73.0143 39.5678L73.0866 39.5004ZM73.0168 39.3205C73.0168 39.2544 73.0394 39.1997 73.0854 39.1537L73.0154 39.0838C72.9507 39.1486 72.9179 39.2284 72.9179 39.3205H73.0168ZM73.0854 39.1537C73.1361 39.103 73.1929 39.0792 73.2581 39.0792V38.9803C73.165 38.9803 73.0834 39.0158 73.0154 39.0838L73.0854 39.1537ZM73.9819 39.0792C74.047 39.0792 74.1012 39.1029 74.1475 39.1525L74.2198 39.085C74.1554 39.016 74.0752 38.9803 73.9819 38.9803V39.0792ZM74.1499 39.1549C74.1996 39.2012 74.2232 39.2555 74.2232 39.3205H74.3221C74.3221 39.2273 74.2865 39.1471 74.2174 39.0826L74.1499 39.1549ZM74.2232 39.3205C74.2232 39.3903 74.1989 39.449 74.1487 39.4991L74.2186 39.5691C74.2871 39.5006 74.3221 39.4168 74.3221 39.3205H74.2232ZM74.1487 39.4991C74.1027 39.5451 74.0481 39.5677 73.9819 39.5677V39.6666C74.074 39.6666 74.1539 39.6338 74.2186 39.5691L74.1487 39.4991ZM73.9819 39.5677C73.9111 39.5677 73.852 39.5446 73.8021 39.498L73.7346 39.5702C73.8033 39.6344 73.8867 39.6666 73.9819 39.6666V39.5677ZM73.8045 39.5004C73.7579 39.4504 73.7347 39.3914 73.7347 39.3205H73.6358C73.6358 39.4158 73.6681 39.4991 73.7322 39.5678L73.8045 39.5004ZM73.7347 39.3205C73.7347 39.2544 73.7573 39.1997 73.8033 39.1537L73.7334 39.0838C73.6686 39.1486 73.6358 39.2284 73.6358 39.3205H73.7347ZM73.8033 39.1537C73.8535 39.1036 73.9121 39.0792 73.9819 39.0792V38.9803C73.8856 38.9803 73.8019 39.0153 73.7334 39.0838L73.8033 39.1537ZM74.1698 40.3351V42.5008H74.2687V40.3351H74.1698ZM74.1698 42.5008C74.1698 42.5441 74.1644 42.5875 74.1535 42.6312L74.2494 42.6552C74.2623 42.6039 74.2687 42.5524 74.2687 42.5008H74.1698ZM74.2015 42.6926H74.5159V42.5937H74.2015V42.6926ZM74.4665 42.6432V43.0645H74.5654V42.6432H74.4665ZM74.5159 43.015H74.2845V43.1139H74.5159V43.015ZM74.3226 43.0329L74.1506 42.8252L74.0744 42.8883L74.2465 43.096L74.3226 43.0329ZM74.1125 42.8073H74.0947V42.9062H74.1125V42.8073ZM74.0555 42.8266C73.9578 42.9533 73.8336 43.015 73.6793 43.015V43.1139C73.8653 43.1139 74.018 43.0372 74.1338 42.887L74.0555 42.8266ZM73.6793 43.015H72.6469V43.1139H73.6793V43.015ZM72.6964 43.0645V42.6432H72.5975V43.0645H72.6964ZM72.6469 42.6926H73.4895V42.5937H72.6469V42.6926ZM73.4895 42.6926C73.564 42.6926 73.6286 42.6689 73.6787 42.6188L73.6088 42.5489C73.5797 42.5779 73.5415 42.5937 73.4895 42.5937V42.6926ZM73.6772 42.6203C73.7353 42.567 73.7644 42.4981 73.7644 42.4177H73.6655C73.6655 42.4718 73.6471 42.5137 73.6103 42.5474L73.6772 42.6203ZM73.7644 42.4177V40.3351H73.6655V42.4177H73.7644ZM73.7149 40.3846H74.2193V40.2857H73.7149V40.3846ZM75.5698 42.6432H75.6193V42.5937H75.5698V42.6432ZM75.5698 43.0645V43.1139H75.6193V43.0645H75.5698ZM74.4721 43.0645H74.4227V43.1139H74.4721V43.0645ZM74.4721 42.6432V42.5937H74.4227V42.6432H74.4721ZM75.5204 42.6432V43.0645H75.6193V42.6432H75.5204ZM75.5698 43.015H74.4721V43.1139H75.5698V43.015ZM74.5216 43.0645V42.6432H74.4227V43.0645H74.5216ZM74.4721 42.6926H75.5698V42.5937H74.4721V42.6926ZM77.099 38.8162H77.1485V38.7667H77.099V38.8162ZM76.9448 42.8924L76.9092 42.8581L76.9086 42.8587L76.9448 42.8924ZM75.5267 43.0645H75.4773V43.1139H75.5267V43.0645ZM75.5267 42.6432V42.5937H75.4773V42.6432H75.5267ZM76.5413 42.5661L76.503 42.5347L76.5021 42.5359L76.5413 42.5661ZM76.5947 38.8162V38.7667H76.5453V38.8162H76.5947ZM77.0496 38.8162V42.5008H77.1485V38.8162H77.0496ZM77.0496 42.5008C77.0496 42.6428 77.0027 42.7609 76.9092 42.8581L76.9804 42.9267C77.0925 42.8103 77.1485 42.6673 77.1485 42.5008H77.0496ZM76.9086 42.8587C76.8107 42.9638 76.695 43.015 76.5591 43.015V43.1139C76.7238 43.1139 76.8653 43.0504 76.981 42.9261L76.9086 42.8587ZM76.5591 43.015H75.5267V43.1139H76.5591V43.015ZM75.5761 43.0645V42.6432H75.4773V43.0645H75.5761ZM75.5267 42.6926H76.3692V42.5937H75.5267V42.6926ZM76.3692 42.6926C76.457 42.6926 76.53 42.6618 76.5805 42.5962L76.5021 42.5359C76.4735 42.5731 76.4318 42.5937 76.3692 42.5937V42.6926ZM76.5796 42.5974C76.6223 42.5452 76.6442 42.4847 76.6442 42.4177H76.5453C76.5453 42.4615 76.5315 42.4999 76.503 42.5347L76.5796 42.5974ZM76.6442 42.4177V38.8162H76.5453V42.4177H76.6442ZM76.5947 38.8656H77.099V38.7667H76.5947V38.8656ZM78.4226 38.8162H78.4721V38.7667H78.4226V38.8162ZM78.4226 43.0051L78.4539 43.0435L78.4721 43.0286V43.0051H78.4226ZM78.1675 43.2128V43.2622H78.1851L78.1987 43.2511L78.1675 43.2128ZM77.9183 43.2128H77.8689V43.2622H77.9183V43.2128ZM77.9183 38.8162V38.7667H77.8689V38.8162H77.9183ZM78.3732 38.8162V43.0051H78.4721V38.8162H78.3732ZM78.3914 42.9668L78.1363 43.1744L78.1987 43.2511L78.4539 43.0435L78.3914 42.9668ZM78.1675 43.1633H77.9183V43.2622H78.1675V43.1633ZM77.9678 43.2128V38.8162H77.8689V43.2128H77.9678ZM77.9183 38.8656H78.4226V38.7667H77.9183V38.8656ZM81.15 43.0051L81.1994 43.0054L81.1998 42.9343L81.133 42.9587L81.15 43.0051ZM79.4886 42.6669L79.5267 42.6354L79.5266 42.6352L79.4886 42.6669ZM79.5064 40.6555L79.4706 40.6214L79.4703 40.6217L79.5064 40.6555ZM81.2983 40.5072L81.2673 40.5457L81.2673 40.5457L81.2983 40.5072ZM81.6602 43.0111L81.7097 43.0114V43.0111H81.6602ZM81.1618 44.1562L81.1313 44.1173L81.1313 44.1173L81.1618 44.1562ZM80.5626 44.4291L80.5725 44.4776L80.5732 44.4774L80.5626 44.4291ZM79.809 44.4707L79.7705 44.5017L79.7845 44.519L79.8068 44.5201L79.809 44.4707ZM79.6132 44.2274H79.5638V44.2448L79.5747 44.2584L79.6132 44.2274ZM79.6132 44.0375L79.6197 43.9885L79.5638 43.981V44.0375H79.6132ZM80.8889 40.792L80.9174 40.7515L80.9167 40.7511L80.8889 40.792ZM79.8862 40.9581L79.8488 40.9257L79.8484 40.9262L79.8862 40.9581ZM79.9217 42.4118L79.9576 42.3777L79.9567 42.3768L79.9217 42.4118ZM81.15 42.5483L81.168 42.5943L81.1994 42.582V42.5483H81.15ZM81.133 42.9587C80.9329 43.0318 80.7231 43.0684 80.5032 43.0684V43.1673C80.7343 43.1673 80.9556 43.1288 81.1669 43.0516L81.133 42.9587ZM80.5032 43.0684C80.0892 43.0684 79.7655 42.9235 79.5267 42.6354L79.4505 42.6985C79.7101 43.0116 80.0629 43.1673 80.5032 43.1673V43.0684ZM79.5266 42.6352C79.3138 42.3807 79.2058 42.0544 79.2058 41.6523H79.1069C79.1069 42.073 79.2204 42.4231 79.4507 42.6986L79.5266 42.6352ZM79.2058 41.6523C79.2058 41.2467 79.3195 40.9274 79.5425 40.6893L79.4703 40.6217C79.2266 40.882 79.1069 41.2273 79.1069 41.6523H79.2058ZM79.5422 40.6896C79.7804 40.44 80.1028 40.3134 80.5151 40.3134V40.2145C80.0809 40.2145 79.7308 40.3488 79.4706 40.6214L79.5422 40.6896ZM80.5151 40.3134C80.827 40.3134 81.0763 40.3921 81.2673 40.5457L81.3293 40.4686C81.1168 40.2978 80.844 40.2145 80.5151 40.2145V40.3134ZM81.2673 40.5457C81.4948 40.7285 81.6108 40.9919 81.6108 41.3438H81.7097C81.7097 40.9678 81.5843 40.6735 81.3293 40.4686L81.2673 40.5457ZM81.6108 41.3438V43.0111H81.7097V41.3438H81.6108ZM81.6108 43.0107C81.6069 43.5055 81.4452 43.8714 81.1313 44.1173L81.1923 44.1951C81.535 43.9267 81.7056 43.5292 81.7097 43.0114L81.6108 43.0107ZM81.1313 44.1173C80.9717 44.2427 80.779 44.3308 80.5519 44.3808L80.5732 44.4774C80.8129 44.4246 81.0197 44.3308 81.1924 44.1951L81.1313 44.1173ZM80.5526 44.3807C80.4018 44.4116 80.2449 44.4271 80.082 44.4271V44.526C80.2512 44.526 80.4148 44.5099 80.5725 44.4776L80.5526 44.3807ZM80.082 44.4271C79.9877 44.4271 79.8975 44.4252 79.8113 44.4213L79.8068 44.5201C79.8946 44.524 79.9863 44.526 80.082 44.526V44.4271ZM79.8475 44.4397L79.6517 44.1964L79.5747 44.2584L79.7705 44.5017L79.8475 44.4397ZM79.6627 44.2274V44.0375H79.5638V44.2274H79.6627ZM79.6067 44.0865C79.7277 44.1027 79.8545 44.1107 79.987 44.1107V44.0118C79.8585 44.0118 79.7361 44.004 79.6197 43.9885L79.6067 44.0865ZM79.987 44.1107C80.3793 44.1107 80.6831 44.0213 80.8895 43.8338C81.0968 43.6456 81.1974 43.3663 81.1994 43.0054L81.1005 43.0048C81.0986 43.348 81.0034 43.5968 80.823 43.7606C80.6418 43.9252 80.3661 44.0118 79.987 44.0118V44.1107ZM81.1994 41.3438C81.1994 41.0853 81.1067 40.885 80.9174 40.7516L80.8604 40.8324C81.0192 40.9442 81.1005 41.1118 81.1005 41.3438H81.1994ZM80.9167 40.7511C80.8077 40.677 80.6728 40.6417 80.5151 40.6417V40.7406C80.658 40.7406 80.7723 40.7725 80.8611 40.8329L80.9167 40.7511ZM80.5151 40.6417C80.2377 40.6417 80.0137 40.7355 79.8488 40.9257L79.9235 40.9905C80.0672 40.8248 80.2624 40.7406 80.5151 40.7406V40.6417ZM79.8484 40.9262C79.6882 41.1159 79.6112 41.3758 79.6112 41.6998H79.7101C79.7101 41.3908 79.7835 41.1563 79.9239 40.99L79.8484 40.9262ZM79.6112 41.6998C79.6112 42.0104 79.7015 42.2615 79.8868 42.4467L79.9567 42.3768C79.7939 42.214 79.7101 41.9904 79.7101 41.6998H79.6112ZM79.8859 42.4459C80.0509 42.6193 80.2704 42.7045 80.5388 42.7045V42.6056C80.293 42.6056 80.1011 42.5286 79.9576 42.3777L79.8859 42.4459ZM80.5388 42.7045C80.7695 42.7045 80.9795 42.6681 81.168 42.5943L81.1319 42.5022C80.9565 42.5708 80.7591 42.6056 80.5388 42.6056V42.7045ZM81.1994 42.5483V41.3438H81.1005V42.5483H81.1994ZM84.8928 38.8162H84.9423V38.7667H84.8928V38.8162ZM84.8928 41.6404H84.8434V41.8214L84.9354 41.6656L84.8928 41.6404ZM88.1681 40.703L88.1326 40.7375L88.1328 40.7377L88.1681 40.703ZM88.5419 42.6432L88.4942 42.6302L88.4771 42.6926H88.5419V42.6432ZM88.7495 42.6432H88.799V42.5937H88.7495V42.6432ZM88.7495 43.0645V43.1139H88.799V43.0645H88.7495ZM88.619 43.0645L88.5804 43.0953L88.5952 43.1139H88.619V43.0645ZM88.4529 42.8568L88.4915 42.8259L88.4766 42.8073H88.4529V42.8568ZM88.4351 42.8568V42.8073H88.4113L88.3965 42.8259L88.4351 42.8568ZM83.6112 43.0645L83.5729 43.0957L83.5877 43.1139H83.6112V43.0645ZM83.4036 42.8093H83.3541V42.8269L83.3652 42.8405L83.4036 42.8093ZM83.4036 42.6432V42.5937H83.3541V42.6432H83.4036ZM84.3944 42.6432V42.6926H84.4439V42.6432H84.3944ZM84.3944 38.8162V38.7667H84.345V38.8162H84.3944ZM87.8299 41.0352L87.8673 41.003L87.8667 41.0023L87.8299 41.0352ZM85.949 41.0471L85.9192 41.0077L85.919 41.0078L85.949 41.0471ZM84.8928 42.6432L84.8464 42.6261L84.822 42.6926H84.8928V42.6432ZM84.8434 38.8162V41.6404H84.9423V38.8162H84.8434ZM84.9354 41.6656C85.4706 40.7593 86.1681 40.3134 87.0289 40.3134V40.2145C86.1254 40.2145 85.3989 40.6862 84.8503 41.6153L84.9354 41.6656ZM87.0289 40.3134C87.4925 40.3134 87.8586 40.4559 88.1326 40.7375L88.2035 40.6685C87.9079 40.3647 87.5145 40.2145 87.0289 40.2145V40.3134ZM88.1328 40.7377C88.3839 40.9925 88.5102 41.3159 88.5102 41.7116H88.6091C88.6091 41.2926 88.4744 40.9435 88.2033 40.6683L88.1328 40.7377ZM88.5102 41.7116V42.5008H88.6091V41.7116H88.5102ZM88.5102 42.5008C88.5102 42.5484 88.5047 42.5914 88.4942 42.6302L88.5896 42.6562C88.6027 42.6079 88.6091 42.556 88.6091 42.5008H88.5102ZM88.5419 42.6926H88.7495V42.5937H88.5419V42.6926ZM88.7001 42.6432V43.0645H88.799V42.6432H88.7001ZM88.7495 43.015H88.619V43.1139H88.7495V43.015ZM88.6576 43.0336L88.4915 42.8259L88.4142 42.8877L88.5804 43.0953L88.6576 43.0336ZM88.4529 42.8073H88.4351V42.9062H88.4529V42.8073ZM88.3965 42.8259C88.2943 42.9535 88.1697 43.015 88.0197 43.015V43.1139C88.202 43.1139 88.3543 43.0369 88.4737 42.8877L88.3965 42.8259ZM88.0197 43.015H83.6112V43.1139H88.0197V43.015ZM83.6496 43.0332L83.4419 42.7781L83.3652 42.8405L83.5729 43.0957L83.6496 43.0332ZM83.453 42.8093V42.6432H83.3541V42.8093H83.453ZM83.4036 42.6926H84.3944V42.5937H83.4036V42.6926ZM84.4439 42.6432V38.8162H84.345V42.6432H84.4439ZM84.3944 38.8656H84.8928V38.7667H84.3944V38.8656ZM88.0988 41.6582C88.0988 41.4023 88.0221 41.1829 87.8673 41.003L87.7924 41.0675C87.9303 41.2278 87.9999 41.4237 87.9999 41.6582H88.0988ZM87.8667 41.0023C87.6532 40.7636 87.3454 40.6476 86.9517 40.6476V40.7465C87.3254 40.7465 87.603 40.8559 87.793 41.0682L87.8667 41.0023ZM86.9517 40.6476C86.5802 40.6476 86.2356 40.7683 85.9192 41.0077L85.9788 41.0865C86.2794 40.8591 86.6034 40.7465 86.9517 40.7465V40.6476ZM85.919 41.0078C85.4739 41.3477 85.1173 41.8891 84.8464 42.6261L84.9393 42.6602C85.2063 41.9337 85.5539 41.411 85.979 41.0864L85.919 41.0078ZM84.8928 42.6926H87.8299V42.5937H84.8928V42.6926ZM87.8299 42.6926C87.911 42.6926 87.9809 42.6717 88.0299 42.6213C88.0788 42.5711 88.0988 42.5002 88.0988 42.4177H87.9999C87.9999 42.4856 87.9834 42.5273 87.9591 42.5523C87.935 42.5771 87.8951 42.5937 87.8299 42.5937V42.6926ZM88.0988 42.4177V41.6582H87.9999V42.4177H88.0988ZM89.8006 42.6432H89.8501V42.5937H89.8006V42.6432ZM89.8006 43.0645V43.1139H89.8501V43.0645H89.8006ZM88.7029 43.0645H88.6535V43.1139H88.7029V43.0645ZM88.7029 42.6432V42.5937H88.6535V42.6432H88.7029ZM89.7512 42.6432V43.0645H89.8501V42.6432H89.7512ZM89.8006 43.015H88.7029V43.1139H89.8006V43.015ZM88.7524 43.0645V42.6432H88.6535V43.0645H88.7524ZM88.7029 42.6926H89.8006V42.5937H88.7029V42.6926ZM90.8552 42.6432H90.9046V42.5937H90.8552V42.6432ZM90.8552 43.0645V43.1139H90.9046V43.0645H90.8552ZM89.7575 43.0645H89.7081V43.1139H89.7575V43.0645ZM89.7575 42.6432V42.5937H89.7081V42.6432H89.7575ZM90.8057 42.6432V43.0645H90.9046V42.6432H90.8057ZM90.8552 43.015H89.7575V43.1139H90.8552V43.015ZM89.8069 43.0645V42.6432H89.7081V43.0645H89.8069ZM89.7575 42.6926H90.8552V42.5937H89.7575V42.6926ZM91.9097 42.6432H91.9592V42.5937H91.9097V42.6432ZM91.9097 43.0645V43.1139H91.9592V43.0645H91.9097ZM90.8121 43.0645H90.7626V43.1139H90.8121V43.0645ZM90.8121 42.6432V42.5937H90.7626V42.6432H90.8121ZM91.8603 42.6432V43.0645H91.9592V42.6432H91.8603ZM91.9097 43.015H90.8121V43.1139H91.9097V43.015ZM90.8615 43.0645V42.6432H90.7626V43.0645H90.8615ZM90.8121 42.6926H91.9097V42.5937H90.8121V42.6926ZM92.9643 42.6432H93.0137V42.5937H92.9643V42.6432ZM92.9643 43.0645V43.1139H93.0137V43.0645H92.9643ZM91.8666 43.0645H91.8172V43.1139H91.8666V43.0645ZM91.8666 42.6432V42.5937H91.8172V42.6432H91.8666ZM92.9149 42.6432V43.0645H93.0137V42.6432H92.9149ZM92.9643 43.015H91.8666V43.1139H92.9643V43.015ZM91.9161 43.0645V42.6432H91.8172V43.0645H91.9161ZM91.8666 42.6926H92.9643V42.5937H91.8666V42.6926ZM94.4935 40.3351H94.543V40.2857H94.4935V40.3351ZM94.3511 42.8805L94.3142 42.8477L94.3138 42.848L94.3511 42.8805ZM92.9212 43.0645H92.8717V43.1139H92.9212V43.0645ZM92.9212 42.6432V42.5937H92.8717V42.6432H92.9212ZM93.9299 42.572L93.8949 42.537L93.8934 42.5386L93.9299 42.572ZM93.9892 40.3351V40.2857H93.9398V40.3351H93.9892ZM94.2918 43.7646L94.2568 43.7996L94.2918 43.7646ZM94.2918 44.1799L94.258 44.1437L94.2556 44.1462L94.2918 44.1799ZM93.8824 44.1799L93.8474 44.2149L93.8824 44.1799ZM93.8824 43.7646L93.8486 43.7284L93.8462 43.7309L93.8824 43.7646ZM94.4441 40.3351V42.5008H94.543V40.3351H94.4441ZM94.4441 42.5008C94.4441 42.6354 94.4009 42.7502 94.3142 42.8477L94.3881 42.9134C94.4913 42.7973 94.543 42.6589 94.543 42.5008H94.4441ZM94.3138 42.848C94.2161 42.9602 94.0971 43.015 93.9536 43.015V43.1139C94.1266 43.1139 94.2725 43.0461 94.3884 42.913L94.3138 42.848ZM93.9536 43.015H92.9212V43.1139H93.9536V43.015ZM92.9706 43.0645V42.6432H92.8717V43.0645H92.9706ZM92.9212 42.6926H93.7637V42.5937H92.9212V42.6926ZM93.7637 42.6926C93.8441 42.6926 93.913 42.6636 93.9663 42.6054L93.8934 42.5386C93.8597 42.5753 93.8178 42.5937 93.7637 42.5937V42.6926ZM93.9648 42.6069C94.0149 42.5569 94.0386 42.4922 94.0386 42.4177H93.9398C93.9398 42.4698 93.9239 42.508 93.8949 42.537L93.9648 42.6069ZM94.0386 42.4177V40.3351H93.9398V42.4177H94.0386ZM93.9892 40.3846H94.4935V40.2857H93.9892V40.3846ZM94.0901 43.731C94.1562 43.731 94.2108 43.7536 94.2568 43.7996L94.3268 43.7296C94.262 43.6649 94.1821 43.6321 94.0901 43.6321V43.731ZM94.2568 43.7996C94.3075 43.8502 94.3314 43.9071 94.3314 43.9723H94.4302C94.4302 43.8792 94.3947 43.7976 94.3268 43.7296L94.2568 43.7996ZM94.3314 43.9723C94.3314 44.042 94.3071 44.098 94.2581 44.1438L94.3255 44.2161C94.3951 44.1511 94.4302 44.0687 94.4302 43.9723H94.3314ZM94.2556 44.1462C94.2094 44.1958 94.1551 44.2195 94.0901 44.2195V44.3184C94.1833 44.3184 94.2635 44.2827 94.3279 44.2137L94.2556 44.1462ZM94.0901 44.2195C94.0249 44.2195 93.968 44.1956 93.9174 44.145L93.8474 44.2149C93.9154 44.2829 93.997 44.3184 94.0901 44.3184V44.2195ZM93.9174 44.145C93.8719 44.0995 93.8488 44.0431 93.8488 43.9723H93.7499C93.7499 44.0676 93.7822 44.1496 93.8474 44.2149L93.9174 44.145ZM93.8488 43.9723C93.8488 43.906 93.8715 43.8488 93.9185 43.7983L93.8462 43.7309C93.7826 43.7991 93.7499 43.8803 93.7499 43.9723H93.8488ZM93.9161 43.8007C93.9666 43.7537 94.0238 43.731 94.0901 43.731V43.6321C93.9981 43.6321 93.9169 43.6648 93.8487 43.7284L93.9161 43.8007ZM96.8733 40.3351H96.9227V40.2857H96.8733V40.3351ZM96.8733 42.6432H96.8238V42.6926H96.8733V42.6432ZM97.1759 42.6432H97.2253V42.5937H97.1759V42.6432ZM97.1759 43.0645V43.1139H97.2253V43.0645H97.1759ZM96.8733 43.0645V43.015H96.825L96.8238 43.0633L96.8733 43.0645ZM96.3452 44.174L96.3163 44.1339L96.3158 44.1342L96.3452 44.174ZM95.028 44.4707L94.9895 44.5017L95.0036 44.5192L95.0261 44.5201L95.028 44.4707ZM94.8322 44.2274H94.7828V44.2448L94.7937 44.2584L94.8322 44.2274ZM94.8322 44.0375L94.839 43.9885L94.7828 43.9808V44.0375H94.8322ZM96.3689 40.3351V40.2857H96.3195V40.3351H96.3689ZM96.8238 40.3351V42.6432H96.9227V40.3351H96.8238ZM96.8733 42.6926H97.1759V42.5937H96.8733V42.6926ZM97.1264 42.6432V43.0645H97.2253V42.6432H97.1264ZM97.1759 43.015H96.8733V43.1139H97.1759V43.015ZM96.8238 43.0633C96.8123 43.5454 96.6416 43.8994 96.3163 44.1339L96.3741 44.2141C96.7292 43.9581 96.9105 43.5724 96.9227 43.0656L96.8238 43.0633ZM96.3158 44.1342C96.0535 44.3281 95.7107 44.4271 95.2831 44.4271V44.526C95.7258 44.526 96.091 44.4234 96.3746 44.2138L96.3158 44.1342ZM95.2831 44.4271C95.2168 44.4271 95.1324 44.4252 95.0299 44.4213L95.0261 44.5201C95.1293 44.524 95.215 44.526 95.2831 44.526V44.4271ZM95.0665 44.4397L94.8707 44.1964L94.7937 44.2584L94.9895 44.5017L95.0665 44.4397ZM94.8816 44.2274V44.0375H94.7828V44.2274H94.8816ZM94.8254 44.0865C94.9427 44.1027 95.0696 44.1107 95.206 44.1107V44.0118C95.0734 44.0118 94.9511 44.004 94.839 43.9885L94.8254 44.0865ZM95.206 44.1107C95.6003 44.1107 95.9052 44.0203 96.1116 43.8307C96.3189 43.6403 96.4184 43.358 96.4184 42.9933H96.3195C96.3195 43.3405 96.2252 43.5922 96.0448 43.7578C95.8636 43.9242 95.587 44.0118 95.206 44.0118V44.1107ZM96.4184 42.9933V40.3351H96.3195V42.9933H96.4184ZM96.3689 40.3846H96.8733V40.2857H96.3689V40.3846ZM98.706 38.8162H98.7554V38.7667H98.706V38.8162ZM98.5517 42.8924L98.5161 42.8581L98.5155 42.8587L98.5517 42.8924ZM97.1336 43.0645H97.0842V43.1139H97.1336V43.0645ZM97.1336 42.6432V42.5937H97.0842V42.6432H97.1336ZM98.1483 42.5661L98.11 42.5347L98.1091 42.5359L98.1483 42.5661ZM98.2017 38.8162V38.7667H98.1522V38.8162H98.2017ZM98.6565 38.8162V42.5008H98.7554V38.8162H98.6565ZM98.6565 42.5008C98.6565 42.6428 98.6097 42.7609 98.5161 42.8581L98.5873 42.9267C98.6994 42.8103 98.7554 42.6673 98.7554 42.5008H98.6565ZM98.5155 42.8587C98.4176 42.9638 98.302 43.015 98.166 43.015V43.1139C98.3307 43.1139 98.4722 43.0504 98.5879 42.9261L98.5155 42.8587ZM98.166 43.015H97.1336V43.1139H98.166V43.015ZM97.1831 43.0645V42.6432H97.0842V43.0645H97.1831ZM97.1336 42.6926H97.9762V42.5937H97.1336V42.6926ZM97.9762 42.6926C98.0639 42.6926 98.137 42.6618 98.1874 42.5962L98.1091 42.5359C98.0804 42.5731 98.0387 42.5937 97.9762 42.5937V42.6926ZM98.1865 42.5974C98.2292 42.5452 98.2511 42.4847 98.2511 42.4177H98.1522C98.1522 42.4615 98.1385 42.4999 98.11 42.5347L98.1865 42.5974ZM98.2511 42.4177V38.8162H98.1522V42.4177H98.2511ZM98.2017 38.8656H98.706V38.7667H98.2017V38.8656ZM100.03 38.8162H100.079V38.7667H100.03V38.8162ZM100.03 43.0051L100.061 43.0435L100.079 43.0286V43.0051H100.03ZM99.7745 43.2128V43.2622H99.792L99.8057 43.2511L99.7745 43.2128ZM99.5253 43.2128H99.4758V43.2622H99.5253V43.2128ZM99.5253 38.8162V38.7667H99.4758V38.8162H99.5253ZM99.9801 38.8162V43.0051H100.079V38.8162H99.9801ZM99.9984 42.9668L99.7432 43.1744L99.8057 43.2511L100.061 43.0435L99.9984 42.9668ZM99.7745 43.1633H99.5253V43.2622H99.7745V43.1633ZM99.5747 43.2128V38.8162H99.4758V43.2128H99.5747ZM99.5253 38.8656H100.03V38.7667H99.5253V38.8656ZM103.538 39.1188L103.501 39.1526L103.504 39.1549L103.538 39.1188ZM103.538 39.5341L103.503 39.4991L103.538 39.5341ZM103.128 39.5341L103.092 39.5679L103.095 39.5702L103.128 39.5341ZM103.128 39.1188L103.093 39.0838V39.0838L103.128 39.1188ZM104.262 39.1188L104.225 39.1526L104.228 39.1549L104.262 39.1188ZM104.262 39.5341L104.227 39.4991L104.262 39.5341ZM103.846 39.5341L103.81 39.5679L103.812 39.5702L103.846 39.5341ZM103.846 39.1188L103.881 39.1537V39.1537L103.846 39.1188ZM104.351 40.1749H104.4V40.1255H104.351V40.1749ZM104.41 42.5839L104.447 42.5507L104.445 42.5489L104.41 42.5839ZM104.647 42.6432H104.697V42.5937H104.647V42.6432ZM104.647 43.0645V43.1139H104.697V43.0645H104.647ZM103.965 42.8568L104.004 42.8266L103.975 42.789L103.936 42.8164L103.965 42.8568ZM102.149 42.6432L102.189 42.6137L102.189 42.6136L102.149 42.6432ZM102.28 40.6199L102.315 40.6549L102.315 40.6546L102.28 40.6199ZM103.846 40.3766L103.826 40.4218L103.853 40.434L103.877 40.4154L103.846 40.3766ZM104.101 40.1749V40.1255H104.084L104.071 40.1361L104.101 40.1749ZM103.846 40.792H103.896V40.7614L103.868 40.7478L103.846 40.792ZM102.588 41.0174L102.627 41.0482L102.627 41.0479L102.588 41.0174ZM102.582 42.4533L102.544 42.4848L102.545 42.486L102.582 42.4533ZM103.846 42.5305L103.868 42.5748L103.896 42.5612V42.5305H103.846ZM103.336 39.0792C103.401 39.0792 103.455 39.1029 103.502 39.1525L103.574 39.085C103.509 39.016 103.429 38.9803 103.336 38.9803V39.0792ZM103.504 39.1549C103.554 39.2012 103.577 39.2555 103.577 39.3205H103.676C103.676 39.2273 103.64 39.1471 103.571 39.0826L103.504 39.1549ZM103.577 39.3205C103.577 39.3903 103.553 39.449 103.503 39.4991L103.573 39.5691C103.641 39.5006 103.676 39.4168 103.676 39.3205H103.577ZM103.503 39.4991C103.457 39.5451 103.402 39.5677 103.336 39.5677V39.6666C103.428 39.6666 103.508 39.6338 103.573 39.5691L103.503 39.4991ZM103.336 39.5677C103.27 39.5677 103.212 39.545 103.162 39.498L103.095 39.5702C103.163 39.6339 103.244 39.6666 103.336 39.6666V39.5677ZM103.164 39.5004C103.118 39.4504 103.095 39.3914 103.095 39.3205H102.996C102.996 39.4158 103.028 39.4991 103.092 39.5678L103.164 39.5004ZM103.095 39.3205C103.095 39.2544 103.117 39.1997 103.163 39.1537L103.093 39.0838C103.029 39.1486 102.996 39.2284 102.996 39.3205H103.095ZM103.163 39.1537C103.214 39.103 103.271 39.0792 103.336 39.0792V38.9803C103.243 38.9803 103.161 39.0158 103.093 39.0838L103.163 39.1537ZM104.054 39.0792C104.124 39.0792 104.18 39.1035 104.225 39.1525L104.298 39.085C104.233 39.0154 104.15 38.9803 104.054 38.9803V39.0792ZM104.228 39.1549C104.277 39.2012 104.301 39.2555 104.301 39.3205H104.4C104.4 39.2273 104.364 39.1471 104.295 39.0826L104.228 39.1549ZM104.301 39.3205C104.301 39.3903 104.277 39.449 104.227 39.4991L104.297 39.5691C104.365 39.5006 104.4 39.4168 104.4 39.3205H104.301ZM104.227 39.4991C104.181 39.5446 104.125 39.5677 104.054 39.5677V39.6666C104.149 39.6666 104.231 39.6343 104.297 39.5691L104.227 39.4991ZM104.054 39.5677C103.988 39.5677 103.93 39.545 103.88 39.498L103.812 39.5702C103.881 39.6339 103.962 39.6666 104.054 39.6666V39.5677ZM103.882 39.5004C103.836 39.4504 103.813 39.3914 103.813 39.3205H103.714C103.714 39.4158 103.746 39.4991 103.81 39.5678L103.882 39.5004ZM103.813 39.3205C103.813 39.2544 103.835 39.1997 103.881 39.1537L103.811 39.0838C103.747 39.1486 103.714 39.2284 103.714 39.3205H103.813ZM103.881 39.1537C103.932 39.103 103.989 39.0792 104.054 39.0792V38.9803C103.961 38.9803 103.879 39.0158 103.811 39.0838L103.881 39.1537ZM104.301 40.1749V42.4177H104.4V40.1749H104.301ZM104.301 42.4177C104.301 42.4983 104.324 42.5676 104.375 42.6188L104.445 42.5489C104.417 42.521 104.4 42.4796 104.4 42.4177H104.301ZM104.373 42.6169C104.416 42.6644 104.468 42.6926 104.529 42.6926V42.5937C104.502 42.5937 104.475 42.5824 104.447 42.5508L104.373 42.6169ZM104.529 42.6926H104.647V42.5937H104.529V42.6926ZM104.598 42.6432V43.0645H104.697V42.6432H104.598ZM104.647 43.015H104.398V43.1139H104.647V43.015ZM104.398 43.015C104.231 43.015 104.101 42.9523 104.004 42.8266L103.926 42.887C104.042 43.0381 104.201 43.1139 104.398 43.1139V43.015ZM103.936 42.8164C103.687 42.9929 103.42 43.0803 103.134 43.0803V43.1792C103.442 43.1792 103.729 43.0846 103.993 42.8971L103.936 42.8164ZM103.134 43.0803C102.734 43.0803 102.421 42.9251 102.189 42.6137L102.11 42.6727C102.361 43.01 102.704 43.1792 103.134 43.1792V43.0803ZM102.189 42.6136C101.998 42.3581 101.902 42.0523 101.902 41.6938H101.803C101.803 42.0711 101.905 42.3982 102.11 42.6728L102.189 42.6136ZM101.902 41.6938C101.902 41.2748 102.04 40.9297 102.315 40.6549L102.245 40.5849C101.95 40.8797 101.803 41.2506 101.803 41.6938H101.902ZM102.315 40.6546C102.559 40.4071 102.856 40.2837 103.211 40.2837V40.1848C102.831 40.1848 102.507 40.3185 102.245 40.5852L102.315 40.6546ZM103.211 40.2837C103.413 40.2837 103.618 40.3294 103.826 40.4218L103.866 40.3315C103.647 40.234 103.429 40.1848 103.211 40.1848V40.2837ZM103.877 40.4154L104.132 40.2137L104.071 40.1361L103.816 40.3379L103.877 40.4154ZM104.101 40.2244H104.351V40.1255H104.101V40.2244ZM103.868 40.7478C103.688 40.6576 103.505 40.612 103.318 40.612V40.7109C103.488 40.7109 103.656 40.7523 103.824 40.8362L103.868 40.7478ZM103.318 40.612C103.002 40.612 102.745 40.7377 102.549 40.987L102.627 41.0479C102.804 40.8225 103.033 40.7109 103.318 40.7109V40.612ZM102.55 40.9867C102.388 41.1899 102.308 41.4303 102.308 41.7057H102.406C102.406 41.451 102.48 41.2327 102.627 41.0482L102.55 40.9867ZM102.308 41.7057C102.308 42.0297 102.385 42.2914 102.544 42.4848L102.621 42.4218C102.48 42.2514 102.406 42.0146 102.406 41.7057H102.308ZM102.545 42.486C102.702 42.6642 102.914 42.752 103.176 42.752V42.6531C102.939 42.6531 102.755 42.5747 102.62 42.4206L102.545 42.486ZM103.176 42.752C103.398 42.752 103.629 42.6922 103.868 42.5748L103.824 42.4861C103.596 42.5982 103.38 42.6531 103.176 42.6531V42.752ZM103.896 42.5305V40.792H103.797V42.5305H103.896ZM105.706 42.6432H105.755V42.5937H105.706V42.6432ZM105.706 43.0645V43.1139H105.755V43.0645H105.706ZM104.608 43.0645H104.559V43.1139H104.608V43.0645ZM104.608 42.6432V42.5937H104.559V42.6432H104.608ZM105.657 42.6432V43.0645H105.755V42.6432H105.657ZM105.706 43.015H104.608V43.1139H105.706V43.015ZM104.658 43.0645V42.6432H104.559V43.0645H104.658ZM104.608 42.6926H105.706V42.5937H104.608V42.6926ZM106.761 42.6432H106.81V42.5937H106.761V42.6432ZM106.761 43.0645V43.1139H106.81V43.0645H106.761ZM105.663 43.0645H105.613V43.1139H105.663V43.0645ZM105.663 42.6432V42.5937H105.613V42.6432H105.663ZM106.711 42.6432V43.0645H106.81V42.6432H106.711ZM106.761 43.015H105.663V43.1139H106.761V43.015ZM105.712 43.0645V42.6432H105.613V43.0645H105.712ZM105.663 42.6926H106.761V42.5937H105.663V42.6926ZM108.278 41.6404L108.228 41.6402L108.228 41.8217L108.32 41.6657L108.278 41.6404ZM111.559 40.703L111.595 40.6685L111.594 40.6685L111.559 40.703ZM111.927 42.6432L111.879 42.6302L111.862 42.6926H111.927V42.6432ZM112.135 42.6432H112.184V42.5937H112.135V42.6432ZM112.135 43.0645V43.1139H112.184V43.0645H112.135ZM112.01 43.0645L111.971 43.0953L111.986 43.1139H112.01V43.0645ZM111.844 42.8568L111.882 42.8259L111.868 42.8073H111.844V42.8568ZM111.826 42.8568V42.8073H111.802L111.787 42.8259L111.826 42.8568ZM106.717 43.0645H106.668V43.1139H106.717V43.0645ZM106.717 42.6432V42.5937H106.668V42.6432H106.717ZM107.785 42.6432V42.6926H107.835L107.835 42.6431L107.785 42.6432ZM107.779 40.3351V40.2857H107.73L107.73 40.3352L107.779 40.3351ZM108.284 40.3351L108.333 40.3353L108.333 40.2857H108.284V40.3351ZM111.44 41.6582H111.49L111.49 41.6576L111.44 41.6582ZM111.09 40.9225L111.06 40.9613L111.06 40.9619L111.09 40.9225ZM109.476 40.9522L109.503 40.9941L109.503 40.994L109.476 40.9522ZM108.278 42.6432L108.232 42.6261L108.207 42.6926H108.278V42.6432ZM108.32 41.6657C108.859 40.7594 109.561 40.3134 110.426 40.3134V40.2145C109.518 40.2145 108.788 40.6861 108.235 41.6152L108.32 41.6657ZM110.426 40.3134C110.885 40.3134 111.25 40.4558 111.524 40.7375L111.594 40.6685C111.299 40.3647 110.908 40.2145 110.426 40.2145V40.3134ZM111.524 40.7374C111.771 40.9922 111.895 41.3156 111.895 41.7116H111.994C111.994 41.2928 111.862 40.9438 111.595 40.6685L111.524 40.7374ZM111.895 41.7116V42.5008H111.994V41.7116H111.895ZM111.895 42.5008C111.895 42.5484 111.89 42.5914 111.879 42.6302L111.975 42.6562C111.988 42.6079 111.994 42.556 111.994 42.5008H111.895ZM111.927 42.6926H112.135V42.5937H111.927V42.6926ZM112.085 42.6432V43.0645H112.184V42.6432H112.085ZM112.135 43.015H112.01V43.1139H112.135V43.015ZM112.049 43.0336L111.882 42.8259L111.805 42.8877L111.971 43.0953L112.049 43.0336ZM111.844 42.8073H111.826V42.9062H111.844V42.8073ZM111.787 42.8259C111.685 42.9535 111.561 43.015 111.411 43.015V43.1139C111.593 43.1139 111.745 43.0369 111.865 42.8877L111.787 42.8259ZM111.411 43.015H106.717V43.1139H111.411V43.015ZM106.767 43.0645V42.6432H106.668V43.0645H106.767ZM106.717 42.6926H107.785V42.5937H106.717V42.6926ZM107.835 42.6431L107.829 40.335L107.73 40.3352L107.736 42.6433L107.835 42.6431ZM107.779 40.3846H108.284V40.2857H107.779V40.3846ZM108.234 40.3349L108.228 41.6402L108.327 41.6407L108.333 40.3353L108.234 40.3349ZM111.49 41.6576C111.486 41.3277 111.363 41.0674 111.12 40.8831L111.06 40.9619C111.276 41.1257 111.387 41.3559 111.391 41.6589L111.49 41.6576ZM111.121 40.8837C110.92 40.7248 110.659 40.6476 110.343 40.6476V40.7465C110.643 40.7465 110.881 40.8196 111.06 40.9613L111.121 40.8837ZM110.343 40.6476C110.025 40.6476 109.727 40.7355 109.45 40.9104L109.503 40.994C109.764 40.8287 110.044 40.7465 110.343 40.7465V40.6476ZM109.45 40.9103C108.939 41.2308 108.534 41.8057 108.232 42.6261L108.324 42.6603C108.623 41.851 109.017 41.2986 109.503 40.9941L109.45 40.9103ZM108.278 42.6926H111.215V42.5937H108.278V42.6926ZM111.215 42.6926C111.298 42.6926 111.369 42.6719 111.419 42.6218C111.469 42.5717 111.49 42.5005 111.49 42.4177H111.391C111.391 42.4853 111.374 42.5268 111.349 42.5519C111.324 42.5769 111.282 42.5937 111.215 42.5937V42.6926ZM111.49 42.4177V41.6582H111.391V42.4177H111.49ZM113.619 39.1188L113.583 39.1526L113.586 39.1549L113.619 39.1188ZM113.619 39.5341L113.654 39.5691V39.5691L113.619 39.5341ZM113.204 39.5341L113.168 39.5679L113.17 39.5702L113.204 39.5341ZM113.204 39.1188L113.169 39.0838V39.0838L113.204 39.1188ZM113.667 40.3351H113.716V40.2857H113.667V40.3351ZM113.649 42.6432L113.601 42.6312L113.586 42.6926H113.649V42.6432ZM113.964 42.6432H114.013V42.5937H113.964V42.6432ZM113.964 43.0645V43.1139H114.013V43.0645H113.964ZM113.732 43.0645L113.694 43.096L113.709 43.1139H113.732V43.0645ZM113.56 42.8568L113.598 42.8252L113.583 42.8073H113.56V42.8568ZM113.542 42.8568V42.8073H113.518L113.503 42.8266L113.542 42.8568ZM112.095 43.0645H112.045V43.1139H112.095V43.0645ZM112.095 42.6432V42.5937H112.045V42.6432H112.095ZM113.091 42.5839L113.058 42.5474L113.056 42.5489L113.091 42.5839ZM113.163 40.3351V40.2857H113.113V40.3351H113.163ZM113.412 39.0792C113.481 39.0792 113.537 39.1035 113.583 39.1525L113.656 39.085C113.591 39.0154 113.508 38.9803 113.412 38.9803V39.0792ZM113.586 39.1549C113.635 39.2012 113.659 39.2555 113.659 39.3205H113.758C113.758 39.2273 113.722 39.1471 113.653 39.0826L113.586 39.1549ZM113.659 39.3205C113.659 39.3903 113.635 39.449 113.584 39.4991L113.654 39.5691C113.723 39.5006 113.758 39.4168 113.758 39.3205H113.659ZM113.584 39.4991C113.539 39.5446 113.483 39.5677 113.412 39.5677V39.6666C113.507 39.6666 113.589 39.6343 113.654 39.5691L113.584 39.4991ZM113.412 39.5677C113.346 39.5677 113.288 39.545 113.238 39.498L113.17 39.5702C113.239 39.6339 113.32 39.6666 113.412 39.6666V39.5677ZM113.24 39.5004C113.194 39.4504 113.17 39.3914 113.17 39.3205H113.072C113.072 39.4158 113.104 39.4991 113.168 39.5678L113.24 39.5004ZM113.17 39.3205C113.17 39.2544 113.193 39.1997 113.239 39.1537L113.169 39.0838C113.104 39.1486 113.072 39.2284 113.072 39.3205H113.17ZM113.239 39.1537C113.29 39.103 113.347 39.0792 113.412 39.0792V38.9803C113.319 38.9803 113.237 39.0158 113.169 39.0838L113.239 39.1537ZM113.617 40.3351V42.5008H113.716V40.3351H113.617ZM113.617 42.5008C113.617 42.5441 113.612 42.5875 113.601 42.6312L113.697 42.6552C113.71 42.6039 113.716 42.5524 113.716 42.5008H113.617ZM113.649 42.6926H113.964V42.5937H113.649V42.6926ZM113.914 42.6432V43.0645H114.013V42.6432H113.914ZM113.964 43.015H113.732V43.1139H113.964V43.015ZM113.77 43.0329L113.598 42.8252L113.522 42.8883L113.694 43.096L113.77 43.0329ZM113.56 42.8073H113.542V42.9062H113.56V42.8073ZM113.503 42.8266C113.405 42.9533 113.281 43.015 113.127 43.015V43.1139C113.313 43.1139 113.466 43.0372 113.581 42.887L113.503 42.8266ZM113.127 43.015H112.095V43.1139H113.127V43.015ZM112.144 43.0645V42.6432H112.045V43.0645H112.144ZM112.095 42.6926H112.937V42.5937H112.095V42.6926ZM112.937 42.6926C113.012 42.6926 113.076 42.6689 113.126 42.6188L113.056 42.5489C113.027 42.5779 112.989 42.5937 112.937 42.5937V42.6926ZM113.125 42.6203C113.183 42.567 113.212 42.4981 113.212 42.4177H113.113C113.113 42.4718 113.095 42.5137 113.058 42.5474L113.125 42.6203ZM113.212 42.4177V40.3351H113.113V42.4177H113.212ZM113.163 40.3846H113.667V40.2857H113.163V40.3846ZM115.017 42.6432H115.067V42.5937H115.017V42.6432ZM115.017 43.0645V43.1139H115.067V43.0645H115.017ZM113.92 43.0645H113.87V43.1139H113.92V43.0645ZM113.92 42.6432V42.5937H113.87V42.6432H113.92ZM114.968 42.6432V43.0645H115.067V42.6432H114.968ZM115.017 43.015H113.92V43.1139H115.017V43.015ZM113.969 43.0645V42.6432H113.87V43.0645H113.969ZM113.92 42.6926H115.017V42.5937H113.92V42.6926ZM116.072 42.6432H116.121V42.5937H116.072V42.6432ZM116.072 43.0645V43.1139H116.121V43.0645H116.072ZM114.974 43.0645H114.925V43.1139H114.974V43.0645ZM114.974 42.6432V42.5937H114.925V42.6432H114.974ZM116.023 42.6432V43.0645H116.121V42.6432H116.023ZM116.072 43.015H114.974V43.1139H116.072V43.015ZM115.024 43.0645V42.6432H114.925V43.0645H115.024ZM114.974 42.6926H116.072V42.5937H114.974V42.6926ZM117.524 40.4538L117.497 40.4125L117.497 40.4126L117.524 40.4538ZM119.209 40.6555L119.174 40.6902L119.209 40.6555ZM119.209 42.8271L119.247 42.8593L119.247 42.8592L119.209 42.8271ZM117.477 42.8568L117.515 42.8252L117.475 42.7777L117.437 42.8266L117.477 42.8568ZM116.029 43.0645H115.979V43.1139H116.029V43.0645ZM116.029 42.6432V42.5937H115.979V42.6432H116.029ZM117.032 42.5779L116.997 42.543L117.032 42.5779ZM117.601 42.5067H117.552V42.5269L117.566 42.5413L117.601 42.5067ZM118.859 42.5305L118.82 42.5005L118.82 42.5007L118.859 42.5305ZM118.823 40.9403L118.861 40.908L118.861 40.9076L118.823 40.9403ZM117.797 40.8513L117.763 40.8151L117.763 40.8153L117.797 40.8513ZM117.146 41.3438C117.146 40.9534 117.283 40.6739 117.551 40.4949L117.497 40.4126C117.195 40.6134 117.047 40.9272 117.047 41.3438H117.146ZM117.551 40.495C117.727 40.3794 117.963 40.3193 118.266 40.3193V40.2204C117.951 40.2204 117.693 40.2829 117.497 40.4125L117.551 40.495ZM118.266 40.3193C118.629 40.3193 118.93 40.443 119.174 40.6902L119.244 40.6208C118.981 40.3538 118.654 40.2204 118.266 40.2204V40.3193ZM119.174 40.6902C119.416 40.9356 119.539 41.2817 119.539 41.7354H119.638C119.638 41.2634 119.509 40.8896 119.244 40.6208L119.174 40.6902ZM119.539 41.7354C119.539 42.1561 119.416 42.5083 119.172 42.795L119.247 42.8592C119.508 42.5526 119.638 42.177 119.638 41.7354H119.539ZM119.172 42.7949C118.944 43.0609 118.657 43.193 118.307 43.193V43.2919C118.686 43.2919 119 43.1471 119.247 42.8593L119.172 42.7949ZM118.307 43.193C117.981 43.193 117.719 43.0708 117.515 42.8252L117.439 42.8884C117.662 43.157 117.953 43.2919 118.307 43.2919V43.193ZM117.437 42.8266C117.34 42.9526 117.212 43.015 117.049 43.015V43.1139C117.242 43.1139 117.399 43.0378 117.516 42.887L117.437 42.8266ZM117.049 43.015H116.029V43.1139H117.049V43.015ZM116.078 43.0645V42.6432H115.979V43.0645H116.078ZM116.029 42.6926H116.871V42.5937H116.029V42.6926ZM116.871 42.6926C116.947 42.6926 117.013 42.666 117.067 42.6129L116.997 42.543C116.963 42.5769 116.922 42.5937 116.871 42.5937V42.6926ZM117.067 42.6129C117.12 42.5598 117.146 42.4937 117.146 42.4177H117.047C117.047 42.4683 117.031 42.509 116.997 42.543L117.067 42.6129ZM117.146 42.4177V41.3438H117.047V42.4177H117.146ZM117.566 42.5413C117.779 42.7586 118.019 42.8706 118.284 42.8706V42.7717C118.05 42.7717 117.835 42.6741 117.636 42.4721L117.566 42.5413ZM118.284 42.8706C118.537 42.8706 118.743 42.7661 118.899 42.5602L118.82 42.5007C118.682 42.6824 118.505 42.7717 118.284 42.7717V42.8706ZM118.898 42.5604C119.057 42.352 119.134 42.0855 119.134 41.765H119.035C119.035 42.0696 118.962 42.3134 118.82 42.5005L118.898 42.5604ZM119.134 41.765C119.134 41.4088 119.045 41.1212 118.861 40.908L118.786 40.9726C118.95 41.1629 119.035 41.4251 119.035 41.765H119.134ZM118.861 40.9076C118.704 40.7298 118.496 40.6417 118.242 40.6417V40.7406C118.471 40.7406 118.65 40.8185 118.786 40.973L118.861 40.9076ZM118.242 40.6417C118.05 40.6417 117.889 40.6984 117.763 40.8151L117.831 40.8875C117.935 40.7906 118.07 40.7406 118.242 40.7406V40.6417ZM117.763 40.8153C117.621 40.9487 117.552 41.1267 117.552 41.3438H117.651C117.651 41.1495 117.712 40.9992 117.831 40.8873L117.763 40.8153ZM117.552 41.3438V42.5067H117.651V41.3438H117.552Z" fill="white" mask="url(#path-10-outside-1_746_10073)"/>
</g>
<defs>
<clipPath id="clip0_746_10073">
<rect width="119.456" height="36.8823" fill="white" transform="translate(1.32617 7.7998)"/>
</clipPath>
</defs>
</svg>
