<svg width="156" height="156" viewBox="0 0 156 156" fill="none" xmlns="http://www.w3.org/2000/svg">
<path d="M14.6252 62.1564H69.2252C70.6877 62.1564 71.6627 63.3752 71.6627 64.5939C71.6627 66.0564 70.444 67.0314 69.2252 67.0314H14.6252V117.731C14.6252 118.706 14.6252 119.681 14.869 120.656C15.1127 121.875 14.1377 123.338 12.919 123.581C11.7002 123.825 10.4815 123.094 9.99397 121.631C9.99397 120.413 9.75022 118.95 9.75022 117.731V30.2252C9.75022 23.8877 15.1127 18.5252 21.4502 18.5252H64.8377C68.0065 18.5252 70.9315 19.9877 72.8815 22.6689L84.8252 39.2439H91.894C93.1127 39.2439 94.3315 40.4627 94.3315 41.6814C94.3315 43.1439 93.1127 44.1189 91.894 44.1189H83.3627C82.6315 44.1189 81.6565 43.6314 81.4127 42.9002L68.7377 25.3502C67.7627 23.8877 66.3002 23.1564 64.594 23.1564H21.4502C17.794 23.4002 14.6252 26.3252 14.6252 30.2252V62.1564ZM120.169 39.2439H126.506C137.475 39.2439 146.25 48.2627 146.25 59.2314V117.731C146.25 128.7 137.231 137.719 126.506 137.719H29.7377C28.2752 137.719 26.8127 137.475 25.594 137.231C24.8627 136.988 23.8877 136.744 23.1565 136.5L13.6502 146.006C12.6752 146.981 11.2127 146.981 10.2377 146.006C9.26272 145.031 9.26272 143.569 10.2377 142.594L142.594 9.99395C143.569 9.01895 145.031 9.01895 146.006 9.99395C146.981 10.9689 146.981 12.4314 146.006 13.4064L120.169 39.2439ZM27.0565 132.356C28.0315 132.6 28.7627 132.6 29.7377 132.6H126.506C134.794 132.6 141.619 125.775 141.619 117.488V67.0314H92.6252L27.0565 132.356ZM141.375 62.1564V59.2314C141.375 50.9439 134.55 44.1189 126.263 44.1189H115.05L97.2565 61.9127H141.375V62.1564Z" fill="black" fill-opacity="0.3"/>
</svg>
