<svg width="251" height="251" viewBox="0 0 251 251" fill="none" xmlns="http://www.w3.org/2000/svg">
<path d="M219.625 78.4375L196.094 64.7057M219.625 78.4375V101.969M219.625 78.4375L196.094 92.1693M31.375 78.4375L54.9063 64.7057M31.375 78.4375L54.9063 92.1693M31.375 78.4375V101.969M125.5 227.469L149.031 213.737M125.5 227.469V203.938M125.5 227.469L101.969 213.737M101.969 37.2526L125.5 23.5312L149.031 37.263M219.625 149.031V172.563L196.094 186.294M54.9063 186.294L31.375 172.563V149.031" stroke="white" stroke-width="6.275" stroke-linecap="round" stroke-linejoin="round"/>
<path d="M125.5 133.342L149.031 119.61M125.5 133.342L101.969 119.61M125.5 133.342V156.873" stroke="#ED972B" stroke-width="6.275" stroke-linecap="round" stroke-linejoin="round"/>
</svg>
