<svg width="32" height="32" viewBox="0 0 32 32" fill="none" xmlns="http://www.w3.org/2000/svg">
<path d="M16 7.24268L26.8787 18.1213C26.9187 18.1613 26.9587 18.1987 27 18.236V26.5C27 27.88 25.88 29 24.5 29H20C19.7348 29 19.4804 28.8947 19.2929 28.7071C19.1054 28.5196 19 28.2652 19 28V22C19 21.7348 18.8946 21.4804 18.7071 21.2929C18.5196 21.1054 18.2652 21 18 21H14C13.7348 21 13.4804 21.1054 13.2929 21.2929C13.1054 21.4804 13 21.7348 13 22V28C13 28.2652 12.8946 28.5196 12.7071 28.7071C12.5196 28.8947 12.2652 29 12 29H7.5C6.83696 29 6.20107 28.7366 5.73223 28.2678C5.26339 27.7989 5 27.163 5 26.5V18.236C5.04148 18.1989 5.08194 18.1607 5.12133 18.1213L16 7.24268Z" fill="white"/>
<path d="M15.2931 5.12148C15.4806 4.93422 15.7348 4.82903 15.9998 4.82903C16.2648 4.82903 16.5189 4.93422 16.7064 5.12148L28.2931 16.7082C28.3854 16.8036 28.4958 16.8797 28.6178 16.9321C28.7398 16.9844 28.8711 17.012 29.0038 17.0131C29.1366 17.0142 29.2683 16.9888 29.3912 16.9385C29.514 16.8881 29.6256 16.8138 29.7195 16.7199C29.8133 16.6259 29.8875 16.5142 29.9378 16.3913C29.988 16.2684 30.0132 16.1367 30.012 16.0039C30.0108 15.8712 29.9831 15.74 29.9307 15.618C29.8782 15.496 29.802 15.3857 29.7064 15.2935L18.1211 3.70682C17.8425 3.42824 17.5118 3.20726 17.1478 3.05649C16.7838 2.90572 16.3937 2.82812 15.9998 2.82812C15.6058 2.82813 15.2157 2.90572 14.8517 3.05649C14.4877 3.20726 14.157 3.42824 13.8784 3.70682L2.29176 15.2935C2.1963 15.3858 2.12017 15.4962 2.06782 15.6182C2.01546 15.7402 1.98794 15.8714 1.98685 16.0042C1.98576 16.137 2.01112 16.2687 2.06146 16.3915C2.1118 16.5144 2.18611 16.626 2.28004 16.7199C2.37398 16.8137 2.48567 16.8879 2.60859 16.9382C2.73151 16.9884 2.8632 17.0136 2.99597 17.0124C3.12875 17.0112 3.25996 16.9835 3.38194 16.9311C3.50392 16.8786 3.61423 16.8024 3.70643 16.7068L15.2931 5.12148Z" fill="white"/>
</svg>
