<svg width="32" height="32" viewBox="0 0 32 32" fill="none" xmlns="http://www.w3.org/2000/svg">
<path fill-rule="evenodd" clip-rule="evenodd" d="M16 2C13.4387 2 10.912 2.148 8.42667 2.436C6.43067 2.668 5 4.38267 5 6.34267V29C5.00004 29.1635 5.04014 29.3244 5.1168 29.4688C5.19347 29.6131 5.30435 29.7365 5.43974 29.8281C5.57513 29.9197 5.73091 29.9767 5.89343 29.9941C6.05596 30.0115 6.22028 29.9888 6.372 29.928L11 28.0773L15.6293 29.928C15.8673 30.023 16.1327 30.023 16.3707 29.928L21 28.0773L25.628 29.928C25.7797 29.9888 25.944 30.0115 26.1066 29.9941C26.2691 29.9767 26.4249 29.9197 26.5603 29.8281C26.6957 29.7365 26.8065 29.6131 26.8832 29.4688C26.9599 29.3244 27 29.1635 27 29V6.34267C27 4.38267 25.5693 2.668 23.5733 2.436C21.0594 2.14487 18.5307 1.99929 16 2Z" fill="white"/>
<rect x="11" y="10" width="10" height="1.5" rx="0.75" fill="#017165"/>
<rect x="11" y="15" width="10" height="1.5" rx="0.75" fill="#017165"/>
</svg>
