<svg width="32" height="32" viewBox="0 0 32 32" fill="none" xmlns="http://www.w3.org/2000/svg">
<path d="M23.9759 24.9663C23.0443 23.7328 21.8389 22.7324 20.4548 22.0441C19.0708 21.3558 17.5457 20.9982 15.9999 20.9996C14.4541 20.9982 12.9291 21.3558 11.545 22.0441C10.1609 22.7324 8.95559 23.7328 8.02394 24.9663M23.9759 24.9663C25.7939 23.3492 27.0761 21.2177 27.6548 18.8544C28.2336 16.4911 28.0803 14.0077 27.2152 11.7336C26.3502 9.45943 24.8142 7.50198 22.8111 6.1208C20.808 4.73963 18.4324 4 15.9993 4C13.5662 4 11.1905 4.73963 9.18741 6.1208C7.1843 7.50198 5.64838 9.45943 4.78332 11.7336C3.91826 14.0077 3.76494 16.4911 4.34369 18.8544C4.92245 21.2177 6.20594 23.3492 8.02394 24.9663M23.9759 24.9663C21.7813 26.9238 18.9408 28.0038 15.9999 27.9996C13.0586 28.0041 10.2189 26.9242 8.02394 24.9663" stroke="white" stroke-width="1.5" stroke-linecap="round" stroke-linejoin="round"/>
<path d="M20 13C20 14.0609 19.5786 15.0783 18.8284 15.8284C18.0783 16.5786 17.0609 17 16 17C14.9391 17 13.9217 16.5786 13.1716 15.8284C12.4214 15.0783 12 14.0609 12 13C12 11.9391 12.4214 10.9217 13.1716 10.1716C13.9217 9.42143 14.9391 9 16 9C17.0609 9 18.0783 9.42143 18.8284 10.1716C19.5786 10.9217 20 11.9391 20 13Z" stroke="#ED972B" stroke-width="1.5" stroke-linecap="round" stroke-linejoin="round"/>
</svg>
