<svg width="32" height="32" viewBox="0 0 32 32" fill="none" xmlns="http://www.w3.org/2000/svg">
<path fill-rule="evenodd" clip-rule="evenodd" d="M13 23C13 22.7348 12.8946 22.4804 12.7071 22.2929C12.5196 22.1054 12.2652 22 12 22C11.7348 22 11.4804 22.1054 11.2929 22.2929C11.1054 22.4804 11 22.7348 11 23V24C11 24.2652 11.1054 24.5196 11.2929 24.7071C11.4804 24.8946 11.7348 25 12 25C12.2652 25 12.5196 24.8946 12.7071 24.7071C12.8946 24.5196 13 24.2652 13 24V23ZM16 19C16.2652 19 16.5196 19.1054 16.7071 19.2929C16.8946 19.4804 17 19.7348 17 20V24C17 24.2652 16.8946 24.5196 16.7071 24.7071C16.5196 24.8946 16.2652 25 16 25C15.7348 25 15.4804 24.8946 15.2929 24.7071C15.1054 24.5196 15 24.2652 15 24V20C15 19.7348 15.1054 19.4804 15.2929 19.2929C15.4804 19.1054 15.7348 19 16 19ZM21 17C21 16.7348 20.8946 16.4804 20.7071 16.2929C20.5196 16.1054 20.2652 16 20 16C19.7348 16 19.4804 16.1054 19.2929 16.2929C19.1054 16.4804 19 16.7348 19 17V24C19 24.2652 19.1054 24.5196 19.2929 24.7071C19.4804 24.8946 19.7348 25 20 25C20.2652 25 20.5196 24.8946 20.7071 24.7071C20.8946 24.5196 21 24.2652 21 24V17Z" fill="#017165"/>
<path fill-rule="evenodd" clip-rule="evenodd" d="M7.5 2H12C13.3261 2 14.5979 2.52678 15.5355 3.46447C16.4732 4.40215 17 5.67392 17 7V9.5C17 10.8813 18.12 12 19.5 12H22C23.3261 12 24.5979 12.5268 25.5355 13.4645C26.4732 14.4021 27 15.6739 27 17V27.5C27 28.88 25.88 30 24.5 30H7.5C6.83696 30 6.20107 29.7366 5.73223 29.2678C5.26339 28.7989 5 28.163 5 27.5V4.5C5 3.11867 6.12 2 7.5 2ZM13 23C13 22.7348 12.8946 22.4804 12.7071 22.2929C12.5196 22.1054 12.2652 22 12 22C11.7348 22 11.4804 22.1054 11.2929 22.2929C11.1054 22.4804 11 22.7348 11 23V24C11 24.2652 11.1054 24.5196 11.2929 24.7071C11.4804 24.8946 11.7348 25 12 25C12.2652 25 12.5196 24.8946 12.7071 24.7071C12.8946 24.5196 13 24.2652 13 24V23ZM16 19C16.2652 19 16.5196 19.1054 16.7071 19.2929C16.8946 19.4804 17 19.7348 17 20V24C17 24.2652 16.8946 24.5196 16.7071 24.7071C16.5196 24.8946 16.2652 25 16 25C15.7348 25 15.4804 24.8946 15.2929 24.7071C15.1054 24.5196 15 24.2652 15 24V20C15 19.7348 15.1054 19.4804 15.2929 19.2929C15.4804 19.1054 15.7348 19 16 19ZM21 17C21 16.7348 20.8946 16.4804 20.7071 16.2929C20.5196 16.1054 20.2652 16 20 16C19.7348 16 19.4804 16.1054 19.2929 16.2929C19.1054 16.4804 19 16.7348 19 17V24C19 24.2652 19.1054 24.5196 19.2929 24.7071C19.4804 24.8946 19.7348 25 20 25C20.2652 25 20.5196 24.8946 20.7071 24.7071C20.8946 24.5196 21 24.2652 21 24V17Z" fill="white"/>
<path d="M18.9998 7.00005C19.0021 5.31812 18.3965 3.69201 17.2944 2.42139C19.5255 3.00801 21.5607 4.17669 23.1919 5.8079C24.8231 7.43912 25.9918 9.47433 26.5784 11.7054C25.3078 10.6034 23.6817 9.99772 21.9998 10.0001H19.4998C19.3672 10.0001 19.24 9.94737 19.1462 9.85361C19.0524 9.75984 18.9998 9.63266 18.9998 9.50005V7.00005Z" fill="white"/>
</svg>
