<svg width="32" height="32" viewBox="0 0 32 32" fill="none" xmlns="http://www.w3.org/2000/svg">
<path d="M11 11.75H8C7.80109 11.75 7.61032 11.671 7.46967 11.5303C7.32902 11.3897 7.25 11.1989 7.25 11V8C7.25 7.80109 7.32902 7.61032 7.46967 7.46967C7.61032 7.32902 7.80109 7.25 8 7.25H11C11.1989 7.25 11.3897 7.32902 11.5303 7.46967C11.671 7.61032 11.75 7.80109 11.75 8V11C11.75 11.1989 11.671 11.3897 11.5303 11.5303C11.3897 11.671 11.1989 11.75 11 11.75ZM11 24.75H8C7.80109 24.75 7.61032 24.671 7.46967 24.5303C7.32902 24.3897 7.25 24.1989 7.25 24V21C7.25 20.8011 7.32902 20.6103 7.46967 20.4697C7.61032 20.329 7.80109 20.25 8 20.25H11C11.1989 20.25 11.3897 20.329 11.5303 20.4697C11.671 20.6103 11.75 20.8011 11.75 21V24C11.75 24.1989 11.671 24.3897 11.5303 24.5303C11.3897 24.671 11.1989 24.75 11 24.75ZM24 11.75H21C20.8011 11.75 20.6103 11.671 20.4697 11.5303C20.329 11.3897 20.25 11.1989 20.25 11V8C20.25 7.80109 20.329 7.61032 20.4697 7.46967C20.6103 7.32902 20.8011 7.25 21 7.25H24C24.1989 7.25 24.3897 7.32902 24.5303 7.46967C24.671 7.61032 24.75 7.80109 24.75 8V11C24.75 11.1989 24.671 11.3897 24.5303 11.5303C24.3897 11.671 24.1989 11.75 24 11.75Z" stroke="white" stroke-width="4.5" stroke-linecap="round" stroke-linejoin="round"/>
<path d="M18 22.5H22.5M22.5 22.5H27M22.5 22.5V18M22.5 22.5V27" stroke="white" stroke-width="1.5" stroke-linecap="round" stroke-linejoin="round"/>
</svg>
