<svg width="32" height="32" viewBox="0 0 32 32" fill="none" xmlns="http://www.w3.org/2000/svg">
<path fill-rule="evenodd" clip-rule="evenodd" d="M14.7706 3C13.5479 3 12.5052 3.884 12.3039 5.08933L12.0666 6.51867C12.0399 6.67867 11.9132 6.86533 11.6706 6.98267C11.2137 7.20228 10.7742 7.45635 10.3559 7.74267C10.1346 7.896 9.91058 7.91067 9.75591 7.85333L8.39991 7.344C7.84557 7.13632 7.23551 7.13208 6.67833 7.33205C6.12116 7.53202 5.65302 7.92321 5.35725 8.436L4.12791 10.5653C3.83203 11.0778 3.72753 11.6786 3.833 12.2609C3.93847 12.8432 4.24708 13.3692 4.70391 13.7453L5.82391 14.668C5.95058 14.772 6.05058 14.9733 6.02925 15.2413C5.99125 15.7468 5.99125 16.2545 6.02925 16.76C6.04925 17.0267 5.95058 17.2293 5.82525 17.3333L4.70391 18.256C4.24708 18.6321 3.93847 19.1581 3.833 19.7404C3.72753 20.3227 3.83203 20.9235 4.12791 21.436L5.35725 23.5653C5.65323 24.0779 6.12146 24.4688 6.67862 24.6685C7.23577 24.8682 7.84572 24.8638 8.39991 24.656L9.75858 24.1467C9.91191 24.0893 10.1359 24.1053 10.3586 24.256C10.7746 24.5413 11.2132 24.796 11.6719 25.016C11.9146 25.1333 12.0412 25.32 12.0679 25.4827L12.3052 26.9107C12.5066 28.116 13.5492 29 14.7719 29H17.2306C18.4519 29 19.4959 28.116 19.6972 26.9107L19.9346 25.4813C19.9612 25.3213 20.0866 25.1347 20.3306 25.016C20.7892 24.796 21.2279 24.5413 21.6439 24.256C21.8666 24.104 22.0906 24.0893 22.2439 24.1467L23.6039 24.656C24.1579 24.863 24.7674 24.8668 25.324 24.6669C25.8805 24.467 26.3482 24.0762 26.6439 23.564L27.8746 21.4347C28.1705 20.9222 28.275 20.3214 28.1695 19.7391C28.064 19.1568 27.7554 18.6308 27.2986 18.2547L26.1786 17.332C26.0519 17.228 25.9519 17.0267 25.9732 16.7587C26.0112 16.2532 26.0112 15.7455 25.9732 15.24C25.9519 14.9733 26.0519 14.7707 26.1772 14.6667L27.2972 13.744C28.2412 12.968 28.4852 11.624 27.8746 10.564L26.6452 8.43467C26.3493 7.92212 25.881 7.5312 25.3239 7.33149C24.7667 7.13177 24.1568 7.1362 23.6026 7.344L22.2426 7.85333C22.0906 7.91067 21.8666 7.89467 21.6439 7.74267C21.226 7.45639 20.787 7.20233 20.3306 6.98267C20.0866 6.86667 19.9612 6.68 19.9346 6.51867L19.6959 5.08933C19.5987 4.50542 19.2974 3.97495 18.8457 3.59236C18.394 3.20976 17.8212 2.99985 17.2292 3H14.7719H14.7706ZM15.9999 21C17.326 21 18.5978 20.4732 19.5354 19.5355C20.4731 18.5979 20.9999 17.3261 20.9999 16C20.9999 14.6739 20.4731 13.4021 19.5354 12.4645C18.5978 11.5268 17.326 11 15.9999 11C14.6738 11 13.4021 11.5268 12.4644 12.4645C11.5267 13.4021 10.9999 14.6739 10.9999 16C10.9999 17.3261 11.5267 18.5979 12.4644 19.5355C13.4021 20.4732 14.6738 21 15.9999 21Z" fill="white"/>
<circle cx="16" cy="16" r="4" fill="white" stroke="#017165" stroke-width="2"/>
</svg>
