<svg width="32" height="32" viewBox="0 0 32 32" fill="none" xmlns="http://www.w3.org/2000/svg">
<path fill-rule="evenodd" clip-rule="evenodd" d="M2 6.5C2 5.11867 3.12 4 4.5 4H27.5C28.88 4 30 5.12 30 6.5V19.5C30 20.8813 28.88 22 27.5 22H4.5C4.1717 22 3.84661 21.9353 3.54329 21.8097C3.23998 21.6841 2.96438 21.4999 2.73223 21.2678C2.50009 21.0356 2.31594 20.76 2.1903 20.4567C2.06466 20.1534 2 19.8283 2 19.5V6.5ZM11 13C11 11.6739 11.5268 10.4021 12.4645 9.46447C13.4021 8.52678 14.6739 8 16 8C17.3261 8 18.5979 8.52678 19.5355 9.46447C20.4732 10.4021 21 11.6739 21 13C21 14.3261 20.4732 15.5979 19.5355 16.5355C18.5979 17.4732 17.3261 18 16 18C14.6739 18 13.4021 17.4732 12.4645 16.5355C11.5268 15.5979 11 14.3261 11 13ZM25 12C24.7348 12 24.4804 12.1054 24.2929 12.2929C24.1054 12.4804 24 12.7348 24 13V13.0107C24 13.5627 24.448 14.0107 25 14.0107H25.0107C25.2759 14.0107 25.5302 13.9053 25.7178 13.7178C25.9053 13.5302 26.0107 13.2759 26.0107 13.0107V13C26.0107 12.7348 25.9053 12.4804 25.7178 12.2929C25.5302 12.1054 25.2759 12 25.0107 12H25ZM6 13C6 12.7348 6.10536 12.4804 6.29289 12.2929C6.48043 12.1054 6.73478 12 7 12H7.01067C7.27588 12 7.53024 12.1054 7.71777 12.2929C7.90531 12.4804 8.01067 12.7348 8.01067 13V13.0107C8.01067 13.2759 7.90531 13.5302 7.71777 13.7178C7.53024 13.9053 7.27588 14.0107 7.01067 14.0107H7C6.73478 14.0107 6.48043 13.9053 6.29289 13.7178C6.10536 13.5302 6 13.2759 6 13.0107V13Z" fill="white"/>
<path d="M3 24C2.73478 24 2.48043 24.1054 2.29289 24.2929C2.10536 24.4804 2 24.7348 2 25C2 25.2652 2.10536 25.5196 2.29289 25.7071C2.48043 25.8946 2.73478 26 3 26C10.2 26 17.1733 26.9627 23.8 28.7667C25.3867 29.1987 27 28.0227 27 26.34V25C27 24.7348 26.8946 24.4804 26.7071 24.2929C26.5196 24.1054 26.2652 24 26 24H3Z" fill="white"/>
<path d="M16 10C15.2044 10 14.4413 10.3161 13.8787 10.8787C13.3161 11.4413 13 12.2044 13 13C13 13.7956 13.3161 14.5587 13.8787 15.1213C14.4413 15.6839 15.2044 16 16 16C16.7956 16 17.5587 15.6839 18.1213 15.1213C18.6839 14.5587 19 13.7956 19 13C19 12.2044 18.6839 11.4413 18.1213 10.8787C17.5587 10.3161 16.7956 10 16 10Z" fill="white"/>
</svg>
