<svg width="32" height="32" viewBox="0 0 32 32" fill="none" xmlns="http://www.w3.org/2000/svg">
<path d="M8 27H24C24.7956 27 25.5587 26.6839 26.1213 26.1213C26.6839 25.5587 27 24.7956 27 24V8C27 7.20435 26.6839 6.44129 26.1213 5.87868C25.5587 5.31607 24.7956 5 24 5H8C7.20435 5 6.44129 5.31607 5.87868 5.87868C5.31607 6.44129 5 7.20435 5 8V24C5 24.7956 5.31607 25.5587 5.87868 26.1213C6.44129 26.6839 7.20435 27 8 27Z" stroke="white" stroke-width="1.5" stroke-linecap="round" stroke-linejoin="round"/>
<path d="M13 22L10 19M10 19L13 16M10 19H19M19 10L22 13M22 13L19 16M22 13H13" stroke="#ED972B" stroke-width="1.5" stroke-linecap="round" stroke-linejoin="round"/>
</svg>
