<svg width="24" height="24" viewBox="0 0 24 24" fill="none" xmlns="http://www.w3.org/2000/svg">
<path fill-rule="evenodd" clip-rule="evenodd" d="M12 22.5C14.7848 22.5 17.4555 21.3938 19.4246 19.4246C21.3938 17.4555 22.5 14.7848 22.5 12C22.5 9.21523 21.3938 6.54451 19.4246 4.57538C17.4555 2.60625 14.7848 1.5 12 1.5C9.21523 1.5 6.54451 2.60625 4.57538 4.57538C2.60625 6.54451 1.5 9.21523 1.5 12C1.5 14.7848 2.60625 17.4555 4.57538 19.4246C6.54451 21.3938 9.21523 22.5 12 22.5ZM13.125 7.125V10.875H16.875C17.1734 10.875 17.4595 10.9935 17.6705 11.2045C17.8815 11.4155 18 11.7016 18 12C18 12.2984 17.8815 12.5845 17.6705 12.7955C17.4595 13.0065 17.1734 13.125 16.875 13.125H13.125V16.875C13.125 17.1734 13.0065 17.4595 12.7955 17.6705C12.5845 17.8815 12.2984 18 12 18C11.7016 18 11.4155 17.8815 11.2045 17.6705C10.9935 17.4595 10.875 17.1734 10.875 16.875V13.125H7.125C6.82663 13.125 6.54048 13.0065 6.3295 12.7955C6.11853 12.5845 6 12.2984 6 12C6 11.7016 6.11853 11.4155 6.3295 11.2045C6.54048 10.9935 6.82663 10.875 7.125 10.875H10.875V7.125C10.875 6.82663 10.9935 6.54048 11.2045 6.3295C11.4155 6.11853 11.7016 6 12 6C12.2984 6 12.5845 6.11853 12.7955 6.3295C13.0065 6.54048 13.125 6.82663 13.125 7.125Z" fill="white"/>
</svg>
