<svg width="24" height="24" viewBox="0 0 24 24" fill="none" xmlns="http://www.w3.org/2000/svg">
<path fill-rule="evenodd" clip-rule="evenodd" d="M1.5 12C1.5 9.21523 2.60625 6.54451 4.57538 4.57538C6.54451 2.60625 9.21523 1.5 12 1.5C14.7848 1.5 17.4555 2.60625 19.4246 4.57538C21.3938 6.54451 22.5 9.21523 22.5 12C22.5 14.7848 21.3938 17.4555 19.4246 19.4246C17.4555 21.3938 14.7848 22.5 12 22.5C9.21523 22.5 6.54451 21.3938 4.57538 19.4246C2.60625 17.4555 1.5 14.7848 1.5 12ZM13.125 5.625C13.125 5.32663 13.0065 5.04048 12.7955 4.8295C12.5845 4.61853 12.2984 4.5 12 4.5C11.7016 4.5 11.4155 4.61853 11.2045 4.8295C10.9935 5.04048 10.875 5.32663 10.875 5.625V12C10.875 12.621 11.379 13.125 12 13.125H16.875C17.1734 13.125 17.4595 13.0065 17.6705 12.7955C17.8815 12.5845 18 12.2984 18 12C18 11.7016 17.8815 11.4155 17.6705 11.2045C17.4595 10.9935 17.1734 10.875 16.875 10.875H13.125V5.625Z" fill="white"/>
</svg>
