<svg width="24" height="24" viewBox="0 0 24 24" fill="none" xmlns="http://www.w3.org/2000/svg">
<circle cx="12" cy="12" r="11" fill="white"/>
<path d="M17.2481 15.3658L15.5827 12.4243H14.869V15.3658H13.355V7.81738H16.1883C16.7723 7.81738 17.2698 7.92192 17.6807 8.131C18.0916 8.33286 18.398 8.61043 18.5999 8.9637C18.809 9.30975 18.9135 9.69907 18.9135 10.1316C18.9135 10.6291 18.7693 11.0797 18.481 11.4834C18.1926 11.8799 17.7636 12.1539 17.1941 12.3053L19 15.3658H17.2481ZM14.869 11.2888H16.1343C16.5452 11.2888 16.8516 11.1914 17.0535 10.9968C17.2553 10.7949 17.3563 10.5173 17.3563 10.1641C17.3563 9.81802 17.2553 9.55127 17.0535 9.36382C16.8516 9.16917 16.5452 9.07184 16.1343 9.07184H14.869V11.2888Z" fill="#16B8B0"/>
<path d="M12.0813 15.4405C11.8074 15.4405 11.5803 15.3576 11.4 15.1918C11.227 15.0188 11.1405 14.8061 11.1405 14.5538C11.1405 14.3014 11.227 14.0924 11.4 13.9265C11.5803 13.7535 11.8074 13.667 12.0813 13.667C12.3481 13.667 12.568 13.7535 12.741 13.9265C12.914 14.0924 13.0006 14.3014 13.0006 14.5538C13.0006 14.8061 12.914 15.0188 12.741 15.1918C12.568 15.3576 12.3481 15.4405 12.0813 15.4405Z" fill="#16B8B0"/>
<path d="M8.29235 15.4412C7.76606 15.4412 7.29023 15.3511 6.86487 15.1708C6.44672 14.9906 6.11508 14.7311 5.86995 14.3922C5.62483 14.0534 5.49866 13.6532 5.49146 13.1918H7.1136C7.13523 13.5018 7.24337 13.747 7.43803 13.9272C7.63989 14.1074 7.91385 14.1976 8.25991 14.1976C8.61318 14.1976 8.89074 14.1146 9.09261 13.9488C9.29448 13.7758 9.39541 13.5523 9.39541 13.2783C9.39541 13.0548 9.32692 12.871 9.18994 12.7268C9.05296 12.5826 8.87993 12.4709 8.67085 12.3916C8.46899 12.3051 8.18782 12.2113 7.82734 12.1104C7.33709 11.9662 6.93696 11.8256 6.62695 11.6886C6.32415 11.5444 6.06101 11.3318 5.83751 11.0506C5.62123 10.7622 5.51308 10.3801 5.51308 9.90428C5.51308 9.45729 5.62483 9.06798 5.84833 8.73634C6.07182 8.4047 6.38544 8.15237 6.78917 7.97934C7.1929 7.7991 7.65431 7.70898 8.1734 7.70898C8.95203 7.70898 9.58286 7.90004 10.0659 8.28214C10.5561 8.65704 10.8265 9.18333 10.877 9.86103H9.21157C9.19715 9.60148 9.0854 9.3888 8.87633 9.22298C8.67446 9.04996 8.4041 8.96344 8.06525 8.96344C7.76966 8.96344 7.53175 9.03914 7.35151 9.19054C7.17848 9.34194 7.09197 9.56183 7.09197 9.85021C7.09197 10.0521 7.15685 10.2215 7.28663 10.3585C7.42361 10.4883 7.58943 10.5964 7.78408 10.6829C7.98595 10.7622 8.26712 10.8559 8.6276 10.9641C9.11784 11.1083 9.51797 11.2525 9.82798 11.3967C10.138 11.5408 10.4047 11.7571 10.6282 12.0455C10.8517 12.3339 10.9635 12.7124 10.9635 13.181C10.9635 13.5847 10.8589 13.9596 10.6499 14.3057C10.4408 14.6518 10.1344 14.9293 9.73065 15.1384C9.32692 15.3403 8.84749 15.4412 8.29235 15.4412Z" fill="#16B8B0"/>
</svg>
