<svg width="24" height="24" viewBox="0 0 24 24" fill="none" xmlns="http://www.w3.org/2000/svg">
<path d="M12 10.5C16.971 10.5 21 8.4855 21 6C21 3.5145 16.971 1.5 12 1.5C7.029 1.5 3 3.5145 3 6C3 8.4855 7.029 10.5 12 10.5Z" fill="white"/>
<path d="M12 12.7499C14.76 12.7499 17.3685 12.1949 19.371 11.1944C19.9473 10.909 20.4931 10.5657 21 10.1699V11.9999C21 14.4854 16.971 16.4999 12 16.4999C7.029 16.4999 3 14.4854 3 11.9999V10.1699C3.519 10.5794 4.08 10.9199 4.6305 11.1944C6.63 12.1964 9.24 12.7499 12 12.7499Z" fill="white"/>
<path d="M12 18.7504C14.76 18.7504 17.3685 18.1954 19.371 17.1949C19.92 16.9204 20.481 16.5799 21 16.1689V18.0004C21 20.4859 16.971 22.5004 12 22.5004C7.029 22.5004 3 20.4859 3 18.0004V16.1704C3.519 16.5799 4.08 16.9204 4.6305 17.1949C6.63 18.1969 9.24 18.7504 12 18.7504Z" fill="white"/>
</svg>
