<svg width="250" height="245" viewBox="0 0 250 245" fill="none" xmlns="http://www.w3.org/2000/svg">
<mask id="mask0_746_10067" style="mask-type:alpha" maskUnits="userSpaceOnUse" x="0" y="0" width="250" height="245">
<rect width="250" height="245" fill="#D9D9D9"/>
</mask>
<g mask="url(#mask0_746_10067)">
<g clip-path="url(#clip0_746_10067)">
<path d="M173.723 339.609L193.904 304.654L193.853 304.565L173.723 269.699L173.621 269.698L146.392 269.699L153.17 257.959L153.119 257.869L133.095 223.174L153.273 188.226L153.222 188.136L153.07 187.874L173.097 153.186L173.045 153.099L152.916 118.231L152.813 118.232L113.316 118.231L93.6181 84.1154L113.797 49.1652L113.745 49.0775L93.6154 14.2102L93.5126 14.2107L53.2512 14.2093L33.0727 49.1595L-7.08422 49.1586L-27.2627 84.1088L-42.4358 84.1101L-38.3153 76.9733L-38.3673 76.8856L-58.4886 42.0229L-58.5914 42.0233L-98.8512 42.0229L-117.042 73.5305C-117.944 73.0635 -118.992 72.968 -119.963 73.2643C-120.935 73.5605 -121.751 74.2251 -122.239 75.1158C-122.726 76.0065 -122.846 77.0525 -122.572 78.0302C-122.298 79.0079 -121.652 79.8395 -120.773 80.3472C-119.893 80.8549 -118.85 80.9982 -117.866 80.7467C-116.883 80.4951 -116.037 79.8686 -115.509 79.0011C-114.981 78.1336 -114.814 77.0941 -115.043 76.105C-115.272 75.1158 -115.879 74.2555 -116.734 73.7082L-98.6461 42.3785L-58.6876 42.3824L-38.7049 76.9855L-42.8208 84.1144L-67.3979 84.1183L-87.5764 119.069L-127.756 119.059L-146.878 152.179C-147.35 151.959 -147.889 151.93 -148.383 152.097C-148.876 152.265 -149.285 152.617 -149.526 153.079C-149.766 153.541 -149.819 154.079 -149.673 154.579C-149.527 155.079 -149.194 155.504 -148.743 155.764C-148.292 156.025 -147.757 156.101 -147.251 155.977C-146.745 155.854 -146.306 155.539 -146.026 155.1C-145.746 154.661 -145.646 154.13 -145.747 153.619C-145.849 153.108 -146.143 152.656 -146.57 152.356L-127.55 119.413L-87.5915 119.417L-75.405 140.522L-84.8433 156.87C-85.3161 156.65 -85.8556 156.621 -86.3494 156.788C-86.8433 156.956 -87.2532 157.308 -87.4939 157.771C-87.7346 158.234 -87.7875 158.771 -87.6414 159.272C-87.4954 159.773 -87.1618 160.198 -86.7101 160.459C-86.2584 160.719 -85.7235 160.796 -85.2168 160.672C-84.7102 160.548 -84.2709 160.233 -83.9905 159.794C-83.7102 159.354 -83.6104 158.823 -83.7119 158.311C-83.8134 157.8 -84.1085 157.347 -84.5355 157.048L-75.2027 140.883L-67.6173 154.024L-84.6904 183.595C-85.592 183.128 -86.6406 183.033 -87.6118 183.329C-88.5829 183.625 -89.3996 184.29 -89.887 185.18C-90.3744 186.071 -90.4939 187.117 -90.2199 188.095C-89.9459 189.072 -89.3002 189.904 -88.4209 190.412C-87.5416 190.919 -86.4985 191.063 -85.5149 190.811C-84.5312 190.56 -83.685 189.933 -83.1574 189.066C-82.6297 188.198 -82.4625 187.159 -82.6915 186.169C-82.9205 185.18 -83.5276 184.32 -84.3827 183.773L-67.2041 154.018L-27.2456 154.022L-15.4233 174.512L-24.2352 189.774C-25.2289 189.435 -26.3159 189.498 -27.2635 189.95C-28.2112 190.403 -28.9441 191.208 -29.3055 192.194C-29.6668 193.18 -29.6278 194.268 -29.1969 195.225C-28.766 196.183 -27.9774 196.934 -26.9998 197.317C-26.0223 197.7 -24.9335 197.686 -23.9666 197.276C-22.9997 196.867 -22.2314 196.095 -21.8264 195.126C-21.4213 194.158 -21.4115 193.069 -21.7992 192.093C-22.1869 191.117 -22.9412 190.332 -23.9006 189.905L-15.222 174.874L-7.63661 188.014L-7.77448 188.253L-7.72344 188.343L7.39045 214.508L7.49329 214.508L37.714 214.507L52.6839 188.579L72.558 188.578L92.5352 223.191L80.6846 243.717L73.6406 231.529L73.5377 231.53L34.5018 231.516C34.5254 231.005 34.3511 230.505 34.0154 230.12C33.6796 229.734 33.2082 229.493 32.6991 229.447C32.1901 229.4 31.6827 229.551 31.2825 229.87C30.8824 230.188 30.6203 230.648 30.5508 231.154C30.4813 231.66 30.6098 232.174 30.9095 232.588C31.2092 233.002 31.657 233.285 32.1598 233.377C32.6625 233.469 33.1815 233.364 33.6087 233.084C34.0358 232.803 34.3383 232.368 34.4532 231.87L73.426 231.871L80.47 244.059L72.5465 257.782L32.387 257.782L32.2482 258.023L32.1986 257.938L32.0131 258.045L12.1424 223.648L12.0405 223.646L-26.886 223.646L-26.7495 223.569L-46.783 188.888L-37.7982 173.325C-37.3258 173.545 -36.7867 173.574 -36.2934 173.407C-35.8 173.239 -35.3905 172.887 -35.15 172.425C-34.9096 171.963 -34.8568 171.425 -35.0027 170.925C-35.1486 170.425 -35.4819 170 -35.9332 169.74C-36.3844 169.479 -36.9188 169.403 -37.425 169.527C-37.9311 169.65 -38.37 169.965 -38.6501 170.404C-38.9303 170.843 -39.0301 171.374 -38.9287 171.885C-38.8273 172.396 -38.5325 172.848 -38.1059 173.148L-47.1888 188.88L-47.1378 188.969L-27.1149 223.647L-28.1173 223.647L-43.2903 223.648L-50.3531 211.401L-50.456 211.402L-88.3456 211.408C-88.2738 210.897 -88.4019 210.378 -88.7032 209.959C-89.0044 209.539 -89.4556 209.253 -89.963 209.158C-90.4705 209.063 -90.995 209.167 -91.4274 209.449C-91.8599 209.73 -92.1672 210.168 -92.2852 210.671C-92.4032 211.173 -92.323 211.702 -92.0612 212.147C-91.7994 212.592 -91.3761 212.919 -90.8795 213.059C-90.3828 213.2 -89.851 213.144 -89.3947 212.903C-88.9383 212.662 -88.5925 212.254 -88.4292 211.764L-50.5623 211.763L-43.6998 223.647L-68.377 223.647L-95.9915 271.476L-103.673 258.188L-93.1995 258.183C-93.1042 258.693 -92.8157 259.147 -92.3941 259.45C-91.9725 259.753 -91.4504 259.881 -90.9364 259.808C-90.4225 259.736 -89.9564 259.468 -89.6352 259.06C-89.3141 258.652 -89.1626 258.136 -89.2123 257.62C-89.2621 257.103 -89.5093 256.625 -89.9024 256.287C-90.2955 255.948 -90.8043 255.773 -91.3226 255.8C-91.841 255.827 -92.329 256.053 -92.685 256.431C-93.041 256.808 -93.2376 257.309 -93.2337 257.828L-103.886 257.828L-109.207 248.582C-108.898 248.406 -108.642 248.15 -108.464 247.842C-108.221 247.429 -108.132 246.943 -108.213 246.471C-108.293 245.999 -108.537 245.57 -108.902 245.26C-109.268 244.95 -109.731 244.778 -110.21 244.776C-110.689 244.774 -111.154 244.94 -111.522 245.247C-111.89 245.553 -112.139 245.98 -112.223 246.452C-112.308 246.923 -112.224 247.41 -111.985 247.825C-111.747 248.241 -111.369 248.559 -110.919 248.723C-110.469 248.888 -109.976 248.889 -109.525 248.725L-104.279 257.815L-129.507 257.815L-149.49 223.211L-131.406 191.89C-130.505 192.357 -129.456 192.452 -128.485 192.156C-127.514 191.86 -126.697 191.195 -126.21 190.304C-125.722 189.414 -125.603 188.368 -125.877 187.39C-126.151 186.412 -126.796 185.581 -127.676 185.073C-128.555 184.565 -129.598 184.422 -130.582 184.673C-131.565 184.925 -132.412 185.552 -132.939 186.419C-133.467 187.287 -133.634 188.326 -133.405 189.315C-133.176 190.304 -132.569 191.165 -131.714 191.712L-149.803 223.043L-189.744 223.043L-209.706 188.467L-171.705 188.467C-171.65 188.988 -171.397 189.468 -170.997 189.807C-170.597 190.146 -170.081 190.318 -169.558 190.286C-169.035 190.255 -168.544 190.023 -168.187 189.638C-167.831 189.253 -167.637 188.746 -167.645 188.222C-167.653 187.698 -167.864 187.197 -168.232 186.824C-168.601 186.451 -169.099 186.234 -169.623 186.219C-170.147 186.205 -170.656 186.392 -171.045 186.744C-171.434 187.096 -171.673 187.584 -171.711 188.107L-209.535 188.115L-190.706 155.501C-190.233 155.722 -189.693 155.751 -189.199 155.583C-188.705 155.415 -188.295 155.064 -188.054 154.601C-187.814 154.138 -187.761 153.6 -187.907 153.1C-188.053 152.599 -188.386 152.174 -188.838 151.913C-189.29 151.652 -189.825 151.576 -190.331 151.7C-190.838 151.824 -191.277 152.138 -191.558 152.578C-191.838 153.018 -191.938 153.549 -191.836 154.061C-191.734 154.573 -191.439 155.025 -191.012 155.324L-210.027 188.26L-246.212 188.26C-246.277 187.258 -246.732 186.322 -247.478 185.652C-248.225 184.981 -249.204 184.63 -250.207 184.672C-251.209 184.714 -252.155 185.146 -252.843 185.877C-253.531 186.608 -253.905 187.578 -253.887 188.582C-253.868 189.585 -253.458 190.541 -252.743 191.246C-252.029 191.95 -251.067 192.347 -250.064 192.352C-249.06 192.357 -248.095 191.969 -247.374 191.271C-246.653 190.573 -246.233 189.621 -246.205 188.618L-210.227 188.617L-230.121 223.075L-230.07 223.165L-210.066 257.815L-249.98 257.815L-269.036 224.802C-268.586 224.533 -268.257 224.101 -268.117 223.596C-267.978 223.09 -268.039 222.55 -268.287 222.088C-268.536 221.627 -268.954 221.279 -269.453 221.117C-269.952 220.956 -270.494 220.993 -270.966 221.221C-271.438 221.45 -271.804 221.852 -271.987 222.343C-272.17 222.835 -272.157 223.378 -271.949 223.859C-271.741 224.341 -271.356 224.724 -270.873 224.929C-270.39 225.133 -269.847 225.143 -269.356 224.957L-250.183 258.168L-210.096 258.167L-210.061 258.228L-229.862 292.526L-270.225 292.526L-290.406 327.481L-290.355 327.57L-270.226 362.437L-268.27 362.436L-268.758 363.281L-268.706 363.369L-248.576 398.236L-209.336 398.24L-229.23 432.698L-229.179 432.787L-210.108 465.819C-210.543 466.112 -210.848 466.562 -210.959 467.074C-211.071 467.587 -210.98 468.122 -210.706 468.57C-210.433 469.017 -209.997 469.341 -209.49 469.475C-208.983 469.609 -208.444 469.542 -207.985 469.289C-207.526 469.035 -207.183 468.614 -207.027 468.114C-206.87 467.613 -206.913 467.071 -207.147 466.602C-207.38 466.132 -207.785 465.771 -208.279 465.593C-208.772 465.414 -209.315 465.434 -209.794 465.646L-228.812 432.702L-208.991 398.371L-190.252 430.824C-190.524 430.997 -190.75 431.232 -190.912 431.512C-191.152 431.927 -191.237 432.414 -191.151 432.886C-191.066 433.359 -190.815 433.785 -190.444 434.09C-190.074 434.394 -189.607 434.557 -189.127 434.55C-188.647 434.542 -188.186 434.364 -187.825 434.048C-187.464 433.732 -187.227 433.298 -187.156 432.823C-187.086 432.348 -187.186 431.864 -187.44 431.456C-187.693 431.049 -188.083 430.745 -188.54 430.598C-188.997 430.451 -189.491 430.471 -189.934 430.655L-208.662 398.231L-208.313 398.23L-208.313 398.093L-168.889 398.094L-149.116 432.343L-148.913 432.691L-168.944 467.385L-168.715 467.517L-168.767 467.607L-168.716 467.696L-148.585 502.562L-108.427 502.561L-88.3492 537.339L-47.9896 537.348L-28.8521 504.201C-28.3604 504.37 -27.8223 504.344 -27.3493 504.128C-26.8764 503.911 -26.505 503.521 -26.3119 503.038C-26.119 502.555 -26.1192 502.016 -26.3128 501.534C-26.5063 501.051 -26.8782 500.661 -27.3513 500.445C-27.8245 500.229 -28.3626 500.204 -28.8541 500.374C-29.3457 500.544 -29.7529 500.896 -29.9913 501.359C-30.2298 501.821 -30.2812 502.357 -30.1349 502.856C-29.9886 503.356 -29.6558 503.779 -29.2056 504.04L-29.1783 504.055L-48.19 536.984L-88.1486 536.981L-108.131 502.377L-88.1545 467.777L-50.2884 467.778C-50.2177 468.284 -49.9571 468.744 -49.5594 469.066C-49.1617 469.387 -48.6567 469.545 -48.1469 469.507C-47.6371 469.47 -47.1605 469.24 -46.814 468.864C-46.4674 468.488 -46.2768 467.995 -46.2808 467.484C-46.2848 466.972 -46.483 466.482 -46.8353 466.111C-47.1877 465.741 -47.6677 465.518 -48.1781 465.489C-48.6885 465.459 -49.1909 465.625 -49.5836 465.953C-49.9762 466.28 -50.2297 466.744 -50.2925 467.252L-88.0538 467.247L-108.081 432.558L-108.23 432.646L-148.541 432.645L-148.565 432.602L-148.717 432.339L-128.691 397.653L-128.742 397.564L-148.769 362.875L-128.591 327.926L-128.642 327.837L-148.469 293.499L-148.42 293.416L-108.456 293.41L-97.963 311.589L-109.603 331.75C-110.075 331.53 -110.615 331.501 -111.109 331.669C-111.603 331.836 -112.013 332.188 -112.253 332.651C-112.494 333.114 -112.547 333.652 -112.401 334.152C-112.255 334.653 -111.921 335.078 -111.47 335.339C-111.018 335.6 -110.483 335.676 -109.976 335.552C-109.47 335.428 -109.03 335.114 -108.75 334.674C-108.47 334.234 -108.37 333.703 -108.471 333.191C-108.573 332.68 -108.868 332.227 -109.295 331.928L-97.7617 311.951L-88.6118 327.801L-88.6892 327.846L-88.5375 328.109L-108.564 362.797L-108.513 362.886L-88.4467 397.64L-88.5593 397.705L-68.429 432.571L-28.2721 432.572L-8.19132 467.349L32.1666 467.357L45.508 444.25L59.4687 444.249L79.4505 478.854L59.4746 513.453L19.5105 513.459L1.45219 482.144C2.30277 481.584 2.90014 480.712 3.11654 479.717C3.33294 478.722 3.15117 477.681 2.6101 476.818C2.06905 475.955 1.21163 475.337 0.221353 475.098C-0.768904 474.859 -1.81343 475.017 -2.68874 475.538C-3.56405 476.06 -4.20063 476.903 -4.46228 477.887C-4.72392 478.872 -4.58988 479.92 -4.08883 480.807C-3.58775 481.694 -2.75945 482.349 -1.78112 482.633C-0.802802 482.917 0.247887 482.807 1.1461 482.327L19.3192 513.802L59.6817 513.802L79.863 478.847L79.812 478.757L59.6817 443.892L45.721 443.892L52.3611 432.391L52.31 432.301L32.3329 397.689L32.3653 397.633L32.4141 397.718L62.1146 397.724L76.9693 423.442L117.327 423.45L137.509 388.495L137.458 388.406L117.324 353.513L117.222 353.512L87.6268 353.52L72.7721 327.801L72.6718 327.801L32.4095 327.801L32.3614 327.885L32.3117 327.801L32.2577 327.831L32.1294 327.757L12.1017 362.446L-24.9152 362.444C-25.1388 361.969 -25.5358 361.597 -26.0246 361.406C-26.5135 361.214 -27.0572 361.216 -27.5442 361.413C-28.0313 361.609 -28.4247 361.984 -28.6439 362.462C-28.8631 362.939 -28.8913 363.482 -28.7229 363.979C-28.5545 364.476 -28.2021 364.891 -27.7381 365.136C-27.2741 365.382 -26.7336 365.441 -26.2275 365.301C-25.7214 365.161 -25.2879 364.833 -25.0162 364.384C-24.7444 363.934 -24.6549 363.398 -24.7659 362.885L12.0539 362.884L31.9033 397.263L-7.99746 397.263L-7.99709 397.436L-8.19932 397.435L-18.9331 416.026L-46.0282 416.32C-46.1744 415.814 -46.5101 415.384 -46.9656 415.119C-47.421 414.855 -47.961 414.776 -48.473 414.9C-48.985 415.023 -49.4295 415.34 -49.714 415.783C-49.9985 416.226 -50.1009 416.762 -50 417.279C-49.899 417.796 -49.6025 418.254 -49.1721 418.558C-48.7418 418.862 -48.2109 418.988 -47.69 418.91C-47.169 418.832 -46.6984 418.556 -46.3759 418.139C-46.0534 417.723 -45.9041 417.198 -45.9591 416.674L-18.7305 416.367L-7.99675 397.776L31.8526 397.777L12.0507 432.075L-28.006 432.074L-28.0045 432.327L-28.0264 432.291L-28.1802 432.379L-28.1803 432.202L-68.2353 432.202L-88.2498 397.536L-88.1373 397.47L-108.144 362.802L-88.3229 328.47L-70.4592 359.423C-71.3003 359.991 -71.8854 360.866 -72.0895 361.861C-72.2935 362.856 -72.1002 363.891 -71.551 364.745C-71.0017 365.598 -70.1401 366.204 -69.1505 366.43C-68.1608 366.657 -67.1217 366.488 -66.2555 365.958C-65.3892 365.428 -64.7645 364.581 -64.5151 363.597C-64.2657 362.612 -64.4114 361.57 -64.9209 360.692C-65.4305 359.813 -66.2635 359.17 -67.2417 358.898C-68.22 358.626 -69.2657 358.748 -70.1554 359.237L-88.1174 328.115L-88.1933 327.983L-88.116 327.938L-88.1647 327.852L-88.017 327.767L-97.4433 311.426L-90.2646 298.992L-50.1052 298.992L-32.476 268.457L-13.5039 268.513C-13.4481 269.034 -13.1931 269.514 -12.7923 269.852C-12.3914 270.19 -11.8756 270.36 -11.3523 270.327C-10.8289 270.294 -10.3385 270.061 -9.98307 269.675C-9.62766 269.29 -9.43471 268.782 -9.44445 268.258C-9.45421 267.734 -9.6659 267.233 -10.0354 266.861C-10.4049 266.489 -10.9037 266.274 -11.4279 266.261C-11.9521 266.247 -12.4612 266.437 -12.8492 266.789C-13.2372 267.142 -13.4741 267.631 -13.5106 268.154L-32.6846 268.093L-50.3176 298.635L-90.477 298.634L-97.6556 311.068L-108.047 293.068L-95.9909 272.186L-90.7204 281.319L-50.3552 281.319L-30.1739 246.364L-30.2259 246.276L-43.0844 224.002L-28.1234 223.998L11.9315 223.998L31.9087 258.611L6.84813 302.017C5.94652 301.55 4.89802 301.454 3.92687 301.751C2.95569 302.047 2.13907 302.712 1.65165 303.602C1.1642 304.493 1.04467 305.539 1.31868 306.517C1.59264 307.494 2.23841 308.326 3.1177 308.834C3.99702 309.341 5.04007 309.485 6.02375 309.233C7.00744 308.982 7.85361 308.355 8.38124 307.488C8.90889 306.62 9.07609 305.581 8.84708 304.591C8.61808 303.602 8.01105 302.742 7.15589 302.195L32.2442 258.74L51.9163 292.812L31.8886 327.501L32.1964 327.678L52.3268 292.812L52.2758 292.722L32.4496 258.385L32.5967 258.13L72.7561 258.13L80.6723 244.419L93.4023 266.471L74.4618 299.277C73.989 299.056 73.4495 299.027 72.9557 299.195C72.4618 299.363 72.0519 299.715 71.8112 300.178C71.5705 300.64 71.5177 301.178 71.6637 301.679C71.8097 302.179 72.1433 302.605 72.595 302.865C73.0467 303.126 73.5816 303.203 74.0883 303.079C74.5949 302.955 75.0342 302.64 75.3146 302.2C75.5949 301.76 75.6947 301.229 75.5932 300.718C75.4917 300.206 75.1966 299.754 74.7696 299.454L93.8127 266.47L93.7617 266.381L80.8768 244.065L92.9337 223.181L132.878 223.181L132.736 223.264L152.763 257.953L145.981 269.699L133.361 269.699L120.166 292.552L94.739 292.548C94.6842 292.023 94.4288 291.539 94.026 291.197C93.6232 290.855 93.104 290.682 92.5767 290.714C92.0495 290.746 91.5547 290.979 91.1956 291.367C90.8366 291.754 90.6409 292.265 90.6493 292.793C90.6577 293.322 90.8696 293.826 91.2408 294.202C91.6121 294.578 92.114 294.796 92.642 294.81C93.17 294.825 93.6834 294.636 94.0751 294.281C94.4668 293.927 94.7067 293.435 94.7447 292.908L119.961 292.908L113.179 304.654L113.23 304.743L133.36 339.609L133.463 339.609L173.723 339.609ZM32.374 328.599L52.0462 362.671L32.3239 396.831L12.6517 362.759L32.374 328.599ZM62.5244 397.721L72.7824 397.72L92.9637 362.765L92.9126 362.675L87.8384 353.875L117.117 353.872L137.094 388.485L117.118 423.084L77.1649 423.07L62.5244 397.721ZM32.6289 397.357L32.5298 397.185L52.4566 362.67L52.4056 362.581L32.5795 328.244L32.6276 328.16L72.5917 328.155L87.2276 353.512L80.9442 353.517C80.8812 352.513 80.4279 351.574 79.6813 350.9C78.9348 350.226 77.9542 349.871 76.9492 349.91C75.9441 349.95 74.9945 350.381 74.3032 351.112C73.6119 351.842 73.2339 352.814 73.2499 353.82C73.2659 354.826 73.6747 355.785 74.389 356.493C75.1032 357.202 76.0661 357.602 77.0719 357.61C78.0777 357.617 79.0465 357.231 79.7711 356.533C80.4958 355.836 80.919 354.883 80.95 353.877L87.4338 353.877L92.5617 362.761L72.5859 397.36L62.3279 397.362L58.1454 390.13C58.5802 389.837 58.885 389.387 58.9965 388.875C59.108 388.363 59.0175 387.827 58.7438 387.38C58.4701 386.932 58.0344 386.608 57.5274 386.474C57.0204 386.34 56.4814 386.407 56.0224 386.661C55.5635 386.914 55.2202 387.335 55.064 387.836C54.9079 388.336 54.9509 388.878 55.1841 389.348C55.4173 389.817 55.8227 390.179 56.3159 390.357C56.8091 390.535 57.352 390.516 57.8315 390.304L61.9037 397.356L32.6289 397.357ZM-7.98107 466.996L-27.9295 432.445L12.2721 432.446L32.124 398.062L51.9469 432.397L45.3077 443.897L21.1388 443.897C21.0792 443.373 20.8195 442.892 20.4139 442.555C20.0084 442.217 19.4882 442.05 18.962 442.087C18.4358 442.123 17.9441 442.362 17.5895 442.753C17.235 443.143 17.0449 443.656 17.059 444.183C17.073 444.71 17.2902 445.212 17.6651 445.583C18.04 445.954 18.5437 446.166 19.0711 446.175C19.5985 446.184 20.109 445.988 20.496 445.63C20.883 445.271 21.1167 444.777 21.1482 444.251L45.0991 444.251L31.9679 466.995L-7.98107 466.996ZM-148.378 433.007L-108.419 433.011L-88.4365 467.614L-108.413 502.215L-148.372 502.211L-168.355 467.607L-148.378 433.007ZM-168.686 397.743L-208.948 397.742L-208.996 397.658L-189.02 363.059L-149.06 363.061L-129.079 397.666L-148.9 431.998L-168.686 397.743ZM-189.778 223.453L-150.031 223.453L-169.783 257.664L-209.53 257.664L-189.778 223.453ZM-229.716 223.07L-209.931 188.801L-190.058 223.223L-209.843 257.492L-229.716 223.07ZM-96.1969 271.832L-108.456 293.066L-148.614 293.067L-148.662 293.15L-148.712 293.066L-149.026 293.24L-148.874 293.502L-168.041 326.701C-168.091 326.672 -168.142 326.643 -168.192 326.614C-168.638 326.353 -169.167 326.272 -169.671 326.387C-170.175 326.502 -170.616 326.804 -170.905 327.233C-171.195 327.661 -171.31 328.183 -171.229 328.693C-171.147 329.204 -170.874 329.664 -170.466 329.981C-170.058 330.297 -169.544 330.447 -169.029 330.399C-168.515 330.351 -168.038 330.109 -167.695 329.722C-167.352 329.335 -167.169 328.833 -167.184 328.316C-167.198 327.799 -167.408 327.308 -167.771 326.94L-148.671 293.857L-128.999 327.928L-148.975 362.528L-189.03 362.528L-189.03 362.699L-189.231 362.7L-209.413 397.655L-209.362 397.744L-209.286 397.876L-248.376 397.875L-268.359 363.272L-267.871 362.427L-231.894 362.427C-231.891 362.943 -231.689 363.437 -231.331 363.807C-230.973 364.177 -230.486 364.395 -229.971 364.415C-229.456 364.435 -228.954 364.255 -228.568 363.914C-228.182 363.572 -227.943 363.095 -227.9 362.582C-227.857 362.069 -228.014 361.558 -228.338 361.158C-228.662 360.757 -229.128 360.497 -229.639 360.431C-230.15 360.366 -230.666 360.5 -231.081 360.805C-231.496 361.111 -231.776 361.565 -231.865 362.073L-267.667 362.073L-250.271 331.942C-249.369 332.409 -248.321 332.504 -247.35 332.208C-246.378 331.912 -245.562 331.247 -245.074 330.357C-244.587 329.466 -244.467 328.42 -244.741 327.442C-245.015 326.465 -245.661 325.633 -246.54 325.125C-247.42 324.618 -248.463 324.474 -249.446 324.726C-250.43 324.977 -251.276 325.604 -251.804 326.471C-252.332 327.339 -252.499 328.378 -252.27 329.367C-252.041 330.357 -251.434 331.217 -250.579 331.764L-268.078 362.075L-270.033 362.074L-290.016 327.471L-270.038 292.869L-230.08 292.872L-211.944 324.285C-212.807 324.788 -213.443 325.606 -213.717 326.567C-213.992 327.529 -213.884 328.559 -213.415 329.442C-212.947 330.325 -212.156 330.993 -211.206 331.305C-210.257 331.618 -209.223 331.551 -208.322 331.118C-207.421 330.686 -206.722 329.921 -206.372 328.985C-206.022 328.049 -206.048 327.013 -206.444 326.095C-206.84 325.178 -207.576 324.449 -208.498 324.062C-209.419 323.675 -210.455 323.659 -211.388 324.019L-229.518 292.609L-209.87 258.579L-189.888 293.182L-184.536 283.914C-184.064 284.134 -183.525 284.163 -183.032 283.995C-182.538 283.827 -182.129 283.476 -181.888 283.013C-181.648 282.551 -181.595 282.014 -181.741 281.514C-181.887 281.013 -182.22 280.589 -182.671 280.328C-183.123 280.068 -183.657 279.991 -184.163 280.115C-184.669 280.239 -185.108 280.553 -185.388 280.993C-185.669 281.432 -185.768 281.963 -185.667 282.474C-185.565 282.985 -185.271 283.437 -184.844 283.736L-189.888 292.473L-209.652 258.231L-209.534 258.026L-169.575 258.03L-169.472 258.029L-169.472 257.852L-149.687 223.583L-129.705 258.187L-104.063 258.189L-96.1969 271.832ZM-43.4948 224.003L-30.5843 246.364L-50.5611 280.965L-90.5197 280.961L-95.7912 271.829L-68.1768 223.999L-43.4948 224.003ZM72.6517 188.22L52.8556 188.219L52.8164 188.153L42.831 170.849L45.2369 166.682L66.4664 167.376L74.2725 153.855L92.7561 153.842L112.555 188.138L112.658 188.138L152.816 188.137L152.865 188.221L132.887 222.825L92.9224 222.831L72.9046 188.137L72.7569 188.223L72.6517 188.22ZM93.5133 153.852L93.641 153.631L132.882 153.634L152.605 187.795L112.758 187.787L93.1628 153.848L93.5133 153.852ZM52.4424 188.224L32.7996 188.224L42.6238 171.208L52.4424 188.224ZM7.59587 214.152L-7.12528 188.654L-6.91837 188.536L-7.22569 188.006L7.59336 162.339L37.5125 162.335L42.4264 170.85L32.1914 188.578L52.2767 188.581L37.5122 214.154L7.59587 214.152ZM-43.039 84.4628L-75.1033 140L-87.1914 119.064L-67.2146 84.4635L-43.039 84.4628ZM-42.6286 84.4625L-27.2625 84.4637L-7.27981 119.067L-19.074 139.495L-7.42119 160.666L-15.2152 174.166L-26.9999 153.756L-27.1536 153.845L-27.1538 153.667L-67.2152 153.664L-74.8983 140.355L-42.6286 84.4625ZM32.8682 49.5137L12.9413 84.028L12.9924 84.1173L33.0212 118.807L21.1308 139.402C20.6584 139.182 20.1194 139.153 19.6261 139.32C19.1327 139.488 18.7232 139.84 18.4827 140.302C18.2423 140.764 18.1895 141.302 18.3354 141.802C18.4813 142.302 18.8146 142.727 19.2659 142.987C19.7172 143.248 20.2515 143.324 20.7577 143.2C21.2639 143.077 21.7028 142.762 21.9829 142.323C22.263 141.884 22.3627 141.353 22.2613 140.842C22.16 140.331 21.8652 139.879 21.4386 139.579L33.1772 119.247L53.1544 153.86L53.2572 153.86L73.8684 153.859L66.2641 167.03L45.0376 166.327L42.6318 170.494L37.7179 161.979L37.6151 161.98L7.39435 161.98L-7.42748 187.652L-15.0129 174.511L-7.01993 160.667L-18.6727 139.496L-6.92851 119.154L-7.08878 119.062L-6.93414 118.972L-6.98382 118.887L-6.83605 118.802L-26.856 84.115L-6.88107 49.5174L32.8682 49.5137ZM33.2267 118.451L13.3524 84.0303L33.3246 49.4374L73.2832 49.4414L93.2531 84.0371L73.2809 118.63L33.5344 118.629L52.4027 85.948C52.8611 86.163 53.3835 86.1981 53.8667 86.0466C54.3498 85.8951 54.7585 85.5679 55.0121 85.1296C55.2805 84.6649 55.3533 84.1126 55.2146 83.5942C55.076 83.0758 54.7372 82.6336 54.2727 82.3649C53.8077 82.0964 53.255 82.0236 52.7364 82.1626C52.2177 82.3016 51.7755 82.6409 51.507 83.1059C51.2542 83.5447 51.1752 84.0623 51.2856 84.5564C51.3959 85.0506 51.6876 85.4854 52.103 85.775L33.2267 118.451ZM113.386 49.1655L93.4631 83.6733L73.4804 49.0702L73.3776 49.0706L33.5331 49.0727L53.4562 14.5648L93.4148 14.5688L113.386 49.1655ZM112.905 118.232L112.653 118.231L112.66 118.59L113.117 118.591L113.289 118.904L93.4405 153.282L92.832 153.281L92.7226 153.1L92.4087 153.274L92.535 153.492L74.4692 153.492L82.6019 139.406C83.5253 139.825 84.5759 139.866 85.5295 139.522C86.483 139.177 87.2641 138.473 87.7058 137.56C88.1476 136.647 88.2151 135.598 87.894 134.636C87.5728 133.674 86.8885 132.876 85.987 132.412C85.0855 131.948 84.0382 131.854 83.0687 132.151C82.0991 132.448 81.2842 133.113 80.7977 134.002C80.3113 134.892 80.1918 135.937 80.4649 136.913C80.7379 137.89 81.3818 138.721 82.2592 139.23L82.2848 139.244L74.0615 153.488L53.3447 153.494L33.4344 118.983L73.4868 118.984L93.4136 84.4696L112.905 118.232ZM152.864 187.52L133.092 153.271L132.989 153.271L93.8492 153.27L113.697 118.892L113.645 118.804L113.521 118.587L152.714 118.581L172.685 153.19L152.864 187.52ZM145.776 270.055L132.783 292.56L120.571 292.561L133.566 270.053L145.776 270.055ZM173.518 339.254L133.559 339.25L113.577 304.646L120.358 292.9L132.979 292.9L146.174 270.047L173.506 270.046L193.488 304.649L173.518 339.254Z" fill="white"/>
</g>
</g>
<defs>
<clipPath id="clip0_746_10067">
<rect width="446.496" height="545.843" fill="white" transform="translate(-92.0791 -93) rotate(30)"/>
</clipPath>
</defs>
</svg>
